<svg id="Слой_1" data-name="Слой 1" xmlns="http://www.w3.org/2000/svg" xmlns:xlink="http://www.w3.org/1999/xlink" viewBox="0 0 500 400"><defs><style>.cls-1{fill:none;}.cls-2{clip-path:url(#clip-path);}.cls-3{fill:#070707;}.cls-4{fill:#45b9ba;}.cls-5{fill:#fff;}.cls-6{clip-path:url(#clip-path-2);}</style><clipPath id="clip-path"><rect class="cls-1" x="592" y="-347.94" width="570" height="747.94"/></clipPath><clipPath id="clip-path-2"><rect class="cls-1" x="-28" y="-347.94" width="570" height="747.94"/></clipPath></defs><g class="cls-2"><path class="cls-3" d="M-.39,358.14c1.22,10.73,5.55,20.15,12,28.58,11.6,15.09,27,24.45,45.15,29.12,12.12,3.12,24.45,4.39,37,2.25a17.37,17.37,0,0,1,3.44-.34c1,0,2.38-.69,3,1.62-1.22,1.47-2.68,3.18-4.11,4.92a57.3,57.3,0,0,0-9.46,15.58,33.76,33.76,0,0,0,12.88,40.7,52.6,52.6,0,0,0,17.63,7c10.4,2.34,20.7,1.39,30.94-.92a114.46,114.46,0,0,0,29.1-11.1,28.45,28.45,0,0,1,4.75-1.49c0,3.89-.2,7.1,0,10.27,1,13.41,11.05,21,24,18.23a41.92,41.92,0,0,0,5-1.38,69,69,0,0,0,18.34-9.72c1.11-.82,2.23-2,4-.65.3,2.43.5,5,1,7.61,1.71,9.59,7.46,15.48,16.91,17.56a30,30,0,0,0,12,.33c2.71-.5,24.08-6.93,31.67-12l1.23-1.48a12.22,12.22,0,0,1,1.07-1.37c7.53-6.76,14.69-13.87,21.54-23.91,1.53,7.9,2.32,14,4,19.8,1.55,5.52,4,10.78,6.25,16.63-.35.17-.68.36-1,.54,5.09,5.73,9.8,11.9,14.38,15.73l.34.25,0-.08c4,.21,6.18,3,9.55,5-.16.6-.29,1.21-.42,1.82a99.09,99.09,0,0,0,9,5.28c.92-1.58,1.83-2.19,2.54-1.48a3.28,3.28,0,0,1,.86,3.15,93.39,93.39,0,0,0,9.49,3.86,10.15,10.15,0,0,1,1.52-2,2.3,2.3,0,0,1,0,2.58,93.71,93.71,0,0,0,11.47,2.84c.59-1.37,1.22-2.76,1.82-4.21,25.9.32,40.36-2.43,71.92-21.08,1,1.53,2.14,3.08,3.16,4.68,8.75,13.76,18.44,17.53,34,12.91a84.1,84.1,0,0,0,10.37-4.32c1.79-.8,3.48-1.83,5-2.65,2.45,1.34,1.5,3.29,1.5,4.86,0,7.88.3,15.75,2.54,23.35a70.66,70.66,0,0,0,4.61,12.18c5.39,10.56,14.15,15.75,26,15.59,2.46,0,4.93,0,7.52,0h2.1A91.4,91.4,0,0,0,575.56,585c9.23-5.18,15.53-10.87,21.08-15.94,4.53-4.14,8.07-7.87,10.54-10.62A88.9,88.9,0,0,0,623,606.27a85.66,85.66,0,0,0,22.35,21.8c4.33,1.78,39,15.4,70.93-4,22.59-13.76,30.41-36,33.2-44.33,9.86-29.43,1.22-54.84-1.69-62.44,5.86-5.35,12.18-10.46,16.31-17.6,4-6.87,7-14.17,7.62-22.08s.12-16.13.12-24.82c8.29-.5,16.69-2.12,24.74-6.58A56.6,56.6,0,0,0,809.5,467c4.78,4.84,10.51,10.65,19,11.79,5.26.7,12.1-.31,12.11-.18a6.53,6.53,0,0,1-1.16.17c4.32-2.19,7.29-3.38,9.9-5.1a54.33,54.33,0,0,0,8.82-7,39.83,39.83,0,0,0,6.15-8.35c1.69-3,2.76-6.31,4.34-10.08,7.29,5.52,13.75,10.85,20.66,15.52.62.41,9.88,3.63,12.52,5.23a47.16,47.16,0,0,0,11.39,1.08A37.15,37.15,0,0,0,944.47,500c20,2.69,34-13.58,35-14.8l.09,1.14c1.7,25.47,15.37,72.31,47.71,49.34,5.49-3.9,11.86-14.35,18-16.45,7.74-2.62,8,2.36,10.64,11,6.1,19.8,12.46,38.69,20.07,58.14a28.86,28.86,0,0,1,1.37,5,30.84,30.84,0,0,0,1.86,2.91c4.33,5.8,8.32,12,13.34,17.13,12.74,13.08,28.45,19.55,46.74,19.46a85.7,85.7,0,0,0,42.21-11.56c31.58-17.85,50.74-45.21,59-80.41,4.74-20.24,1.42-39.37-10.07-56.81-2.87-4.35-6.22-8.39-9.34-12.58-1-1.32-2.63-2.25-2.42-4.8,2.35-.73,4.86-.07,7.32,0,5.79.18,11.51.12,17.2-1.43,16.82-4.59,21.48-20.34,18.94-31.76a55.59,55.59,0,0,0-6-15.38c-.62-1.09-.76-2.44-1.33-4.4,6,.37,11.14.71,16.31,1,12.75.76,25.44.37,38-2.34,12-2.6,23.31-6.79,33.43-13.89,8.77-6.15,15.57-14,19.11-24.23,5-14.28,3.17-27.53-6.83-39.24a66.93,66.93,0,0,0-14.37-12.55,99.92,99.92,0,0,0-39.39-15.1c-11.5-1.86-23-1.86-34.6-1.35-1.56.06-3.4.82-5-1.53l4.24-5a40.06,40.06,0,0,0,8.22-14.24c3.59-12-.21-23.05-10.9-29.42a58.68,58.68,0,0,0-14.34-5.94c-13.83-3.78-27.51-2-41,2.32-2.68.87-5.34,1.77-8.82,2.92,1.3-4.34,3.94-6.65,5.73-9.47,3.57-5.64,7.79-11,10.56-17,7.94-17.22,1.17-33.48-16.35-40.59-1.07-.44-2.15-.85-3.25-1.19a38.92,38.92,0,0,0-18.87-1c-4.48.84-8.94,1.74-14.3,2.79,1-2.66,1.67-4.47,2.41-6.23,2.82-6.7,5.9-13.29,8.46-20.09a73.32,73.32,0,0,0,4.51-33.48c-1.52-15.13-9.54-25.31-23.82-30.23a46.22,46.22,0,0,0-22.24-2,75.51,75.51,0,0,0-22.23,7.06,108.82,108.82,0,0,0-30.07,21.92,46.85,46.85,0,0,1-4.76,3.78c-1.52-4.84-2.53-9.09-4.16-13.08-5.23-12.8-14.84-19.68-28.56-20.66a45.69,45.69,0,0,0-18.74,2.71,91.3,91.3,0,0,0-28.46,16.37,110.77,110.77,0,0,0-17.64,19.19,37.66,37.66,0,0,1-3.7,3.71c-.71-3.67-1.16-6.54-1.81-9.36-2.68-11.43-11.68-17.65-23.21-16a45.26,45.26,0,0,0-14.76,4.88,82.44,82.44,0,0,0-19,13.67,28.93,28.93,0,0,1-3.66,2.56c-.7-6.24-1.2-11.73-2-17.18-1.23-8.76-3.9-17.06-9.14-24.26-7.54-10.33-17.57-14.65-30.29-12.25a44.79,44.79,0,0,0-16.67,7,66.07,66.07,0,0,0-15.7,14.93,86.48,86.48,0,0,0-11.68,20.36,41.24,41.24,0,0,1-2.73,4.68c-2.11-4.6-3.81-8.27-5.49-12-4.6-10.08-9.86-19.78-16.79-28.46a59,59,0,0,0-17.61-15.31C764.52,61,741.81,68.61,736.19,92a39.08,39.08,0,0,0-.76,4.3,67.41,67.41,0,0,0,1.19,23.43c2.62,11.44,7.27,22.07,12.32,32.58.78,1.62,2.78,3.19,1,5.75-12.41-2.1-22.82,3.36-32.92,10.22-2.07-3.22-1.38-6.59-2.12-9.62-.89-3.65-1.47-7.49-3-10.84-3-6.42-9.12-9.09-15.91-7.29-2.76.73-5.34,2.15-8,3.21-1,.38-2,.63-3.81,1.19.53-3.58.93-6.4,1.36-9.22,1.37-8.91,3-17.8,4.08-26.75,1.53-12.25,1.21-24.43-2.5-36.33-4.05-13-12.29-22.26-24.84-27.41a69.58,69.58,0,0,0-10.72-3.41,77.85,77.85,0,0,0-32.7-.23A101.38,101.38,0,0,0,577,59.7c-11.55,8.56-19.72,19.58-22.71,34-2,9.63-.93,19.12,1.6,28.51.66,2.44,1.24,4.9,2.2,8.7-3.24-2.32-5.32-3.79-7.38-5.29-7.1-5.14-14.64-9.38-23.27-11.28A28.12,28.12,0,0,0,494.27,133c-2.85,8.24-2.58,16.62-.67,25,2,8.88,5.88,17,10.5,24.8.95,1.6,1.64,3.35,3,6.16-22.14-6.81-42.64-6.1-62.62,5.36a53.52,53.52,0,0,1,0-6.57c.59-4.32,1.49-8.6,2.14-12.91a64.36,64.36,0,0,0-2.74-29.32,38.3,38.3,0,0,0-8.65-15c-8.64-9.14-21.31-11.79-32.57-6.29a59.64,59.64,0,0,0-11.39,7.84c-2.66,2.18-4.76,5.05-7.15,7.59-.94,1-1.61,2.53-3.81,2-.69-4.1-1.41-8.35-2.12-12.59a127.89,127.89,0,0,0-13.76-40.27,65.69,65.69,0,0,0-11.86-16.07c-13.57-13.12-30-12.86-42.75,1.13A70.05,70.05,0,0,0,300,88.13a92.52,92.52,0,0,0-10.58,40.18c-.09,2.2.24,4.5-.83,7.41l-4.5-3.55c-5-3.93-9.76-8.28-15.11-11.66a54.05,54.05,0,0,0-14.18-6.34c-11.54-3.22-21.29,1-27.32,11.44a42.15,42.15,0,0,0-3.68,8.82,44,44,0,0,0-1,19.9,96.38,96.38,0,0,0,7.89,24.87c.49,1.08,1.87,2.44-.43,3.83-5.24-3.24-10.64-6.57-16-9.92A175.5,175.5,0,0,0,180,156.31a81.55,81.55,0,0,0-32.4-4.56,44.7,44.7,0,0,0-18.31,4.83c-11.93,6.23-17.72,17.91-15.62,31.25a54.52,54.52,0,0,0,5.09,15.72,96.16,96.16,0,0,0,17.57,24.78c1.11,1.14,3,1.89,2.52,4.52a98.25,98.25,0,0,0-9.47,3.16c-8.51,3.75-11.92,10.65-10.28,19.79a37.22,37.22,0,0,0,6.72,15c1.27,1.79,2.49,3.62,3.69,5.38-2.14,2.07-4.24,1.37-6.14,1.39a189.43,189.43,0,0,0-35.3,3.8,202.48,202.48,0,0,0-51.65,17.32c-8.85,4.47-17,9.95-23.61,17.5C2.36,328.2-2.21,342.14-.39,358.14Zm234.65,85.68c-.53,4.33-1.22,8.64-2,12.93a39.85,39.85,0,0,1-1.92,5.47,47.84,47.84,0,0,1-3.29-3.55,217,217,0,0,1-28.31-52.83c-.58-1.57-1.21-3.52-.78-5,2-6.85,1.72-13.82,1.8-20.8a4.66,4.66,0,0,1,.43-1.43c6.61.57,13.2,1.89,19.69,1.48,6.2-.4,12.3-2.59,18.95-4.1,3.06,4.34,4.94,9.5,7.08,14.9a44.05,44.05,0,0,0-4,5.34,6,6,0,0,0,3.14,8.64A11.88,11.88,0,0,0,258.5,402c3.15-3.54,3-8.2-1.11-10.33-3.47-1.81-5-4.46-6.4-7.74-1.64-4-3.51-7.9-5.08-11.41L260.29,355a18,18,0,0,1,2.77,2.3c7.86,9.27,17,16.56,29,19.68a7.62,7.62,0,0,1,5.09,4.35c1.93,3.9,4,7.75,5.66,11.77a169,169,0,0,1,9,30.94,77.41,77.41,0,0,1,.71,8.64,43.23,43.23,0,0,1-4.42-2.61q-5.79-4.6-11.43-9.37a9.24,9.24,0,0,0-9.62-1.93c-15.39,5-30.8,9.86-45.78,16.07C237.05,436.6,234.81,439.32,234.26,443.82ZM26,317.08a90.81,90.81,0,0,1,17.62-11c16.19-8,33.4-12.94,51.14-16,17.47-3,35.08-3.25,52.73-2.53,1.7.06,3.63.42,5.07-.22a7,7,0,0,0,3.26-3.65c.68-1.76-.46-3.49-2-4.42a47.74,47.74,0,0,0-4.76-2c-7.85-3.63-14.21-9-18.18-16.81-5.1-10-2.41-15.54,8.57-17.25,4.26-.66,8.64-.57,13-.81,2.59-.14,5.21-.09,7.78-.41,2.81-.35,4.5-2.12,4.66-4.37a4.85,4.85,0,0,0-3-4.87c-1.54-.79-3.29-1.17-4.81-2-3.29-1.79-6.83-3.34-9.67-5.71a74.14,74.14,0,0,1-22.6-32.52c-.1-.27-.17-.56-.25-.84-4.52-15.07,1.9-25.93,17.18-29.23,9.55-2.07,19-1.3,28.33,1.09a125.42,125.42,0,0,1,32.6,14c7.73,4.56,15.29,9.42,22.95,14.1,3.46,2.11,6.8,4.63,10.53,6,5.72,2.15,9.53,6.1,13,10.87,9.42,12.8,21.48,22.75,34.65,31.38a23.76,23.76,0,0,0,7.09,3,4.59,4.59,0,0,0,5.34-3.36c.52-1.84-.37-3.84-2.39-5.14-3.89-2.51-7.91-4.82-11.68-7.48-19.72-13.9-33.61-32.62-43.7-54.37-4.33-9.32-7-19.08-6.31-29.58A26.06,26.06,0,0,1,236.77,129c3.56-4.9,8.23-7,14.34-5.78a39.19,39.19,0,0,1,12.75,5.3,86,86,0,0,1,17.91,15.09c3.34,3.63,6.51,7.42,9.82,11.08a20.51,20.51,0,0,0,3.8,3.54,4.49,4.49,0,0,0,6.93-3.69,24.53,24.53,0,0,0-1-6C295.47,126,300.7,105.39,312.43,86a30.23,30.23,0,0,1,9.62-9.93c6.54-4.18,13.1-4.13,19.53.15,5.17,3.43,8.92,8.26,12.15,13.49a106,106,0,0,1,13.89,35.58c1.68,8.56,2.55,17.27,3.79,25.91.45,3.17.81,6.36,1.39,9.5a4.27,4.27,0,0,0,3.42,3.53,4.61,4.61,0,0,0,5.27-2.09c1.08-1.71,1.94-3.57,2.87-5.37a61.38,61.38,0,0,1,12.52-16.63,42.7,42.7,0,0,1,8.3-6.25c9.18-5.17,18.16-3.2,24.6,5.19,4.37,5.69,6.44,12.35,7.24,19.39a68.37,68.37,0,0,1-.71,20.88c-1.22,6.29-2.62,12.55-3.63,18.87a103.08,103.08,0,0,0-1.17,13,4.94,4.94,0,0,0,3.66,5.27c2.16.54,4.09-.35,5.37-3.2,3.22-7.16,9.26-11.16,15.91-14.06,16.84-7.32,33.82-7,50.39.83,7,3.34,13.61,7.67,20.39,11.55,2.26,1.29,4.47,2.69,6.81,3.82a4.48,4.48,0,0,0,6-1.78c1.16-1.76,1-3.6-.66-5.58-1.51-1.75-3.25-3.31-4.86-5-5-5.2-10.38-10.18-15.08-15.68a74.8,74.8,0,0,1-17.27-35.7,31.1,31.1,0,0,1,.93-14.67c2.48-8.35,8.63-13.07,17.2-13.42a26.34,26.34,0,0,1,11.8,2.36,65.76,65.76,0,0,1,19.41,13c3.12,3,6.07,6.24,9,9.44,3.35,3.62,6.55,7.38,9.94,11,3.76,4,6.37,4.71,8.86,2.75,2.26-1.78,2.33-4.27.17-8.71-.89-1.83-2-3.54-2.83-5.41-3.55-8.28-7.33-16.47-10.42-24.92a53.13,53.13,0,0,1-3.14-23.19A40,40,0,0,1,572.8,77a57.08,57.08,0,0,1,9.39-9C601,54.31,621.77,47.88,645,50.53a42.11,42.11,0,0,1,5.11.93c18.55,4.47,28.12,15.57,29.93,34.76,1.23,13.17-.18,26.19-2.43,39.14-1.3,7.45-2.9,14.85-4.32,22.28-1.32,6.87-2.8,13.62-6.22,19.88a25.37,25.37,0,0,0-3,14.35c.26,3.14,2,5.3,4.51,5.66a5.56,5.56,0,0,0,6-4.05A103.58,103.58,0,0,0,678,170.87c2.06-10.23,9.38-15.72,17.78-20,4.32-2.22,7.34-.61,8.53,4.06a61.83,61.83,0,0,1,1.59,10.33c.36,4.64.33,9.31.52,14a32.15,32.15,0,0,0,.52,5.2c.45,2.05,1.42,3.83,3.73,4.36s4.3-.36,5.57-3.1c4-8.51,11-13.36,19.33-16.47,9.7-3.61,15.82-1.81,22.11,6.4,2.83,3.68,5.24,7.67,7.91,11.48a50.68,50.68,0,0,0,4.24,5.51,5,5,0,0,0,6.31,1,4.82,4.82,0,0,0,2-6.07,104.13,104.13,0,0,0-4.54-9.4c-5.56-10.54-11.31-21-16.74-31.59a125.67,125.67,0,0,1-10.15-26c-2.18-8.52-3.5-17.13-1.14-25.88.3-1.13.47-2.29.85-3.39,4.07-11.78,15.28-17.41,27.13-13.64a36.07,36.07,0,0,1,13.85,8.74,70,70,0,0,1,14,18.79c4.64,9,8.79,18.33,13.17,27.51a71.27,71.27,0,0,0,4.27,8.57c3.26,5,8.2,4.49,10.6-1a78.54,78.54,0,0,0,2.78-8.26,68.3,68.3,0,0,1,11.33-22.47,108.34,108.34,0,0,1,12-12.55,32.51,32.51,0,0,1,13.76-7.15c9.8-2.62,17.69.32,23.34,8.84,5,7.48,6.9,16,7.49,24.8.45,6.67.25,13.39.34,20.09a59,59,0,0,0,.1,6.1,5.17,5.17,0,0,0,3.56,4.54,4.75,4.75,0,0,0,5.43-1.71c1.3-1.54,2.34-3.32,3.54-5a69.64,69.64,0,0,1,26.32-22.21c3.68-1.76,7.45-3.15,11.61-3.18,6.66-.05,10.27,2.78,11.37,9.45a60.08,60.08,0,0,1,.42,8.71c.15,7.28.19,14.56.38,21.83a10.4,10.4,0,0,0,.94,4.16,3.88,3.88,0,0,0,4.16,2.49,8.22,8.22,0,0,0,3.49-2.26,6,6,0,0,0,1-2.38q13-39.09,50.65-55.25c6.66-2.85,13.67-4.6,21.13-3.06,8.38,1.73,14.1,6.51,17,14.5,1.4,3.8,2.19,7.83,3.33,11.74a35.59,35.59,0,0,0,2.21,6.58c2.18,4.23,6.43,5.39,10.21,2.66a47.55,47.55,0,0,0,6.91-6.56,97.38,97.38,0,0,1,34.51-24.4,50.19,50.19,0,0,1,26.3-3.79c11.28,1.52,21.53,8.61,22.87,22.45a69.94,69.94,0,0,1,.31,11.3,76.09,76.09,0,0,1-6.74,26.08c-3.42,7.71-7.16,15.27-10.75,22.9-1.12,2.36-2.27,4.72-3.32,7.11s-.91,4.55,1.06,6.4,4.2,1.77,6.42.63c6-3.06,12.06-5.74,18.66-6.86a101.28,101.28,0,0,1,12.9-1.23,22.4,22.4,0,0,1,11.59,3.15c9.66,5.24,13.11,14,9.11,24.28a62.24,62.24,0,0,1-6.25,11.43c-3.19,4.84-6.83,9.4-10.21,14.12s-6.93,9.31-8.82,15c-.52,1.56-2,2.76-2.89,4.25a11.68,11.68,0,0,0-1.55,4,3.74,3.74,0,0,0,2.26,4.27,8.59,8.59,0,0,0,4.13.07c.76-.13,1.39-1,2.08-1.48a80.85,80.85,0,0,1,44-16.49c9.67-.62,19.07.92,27.56,6,6.76,4,9.06,9.3,7.32,17a27.91,27.91,0,0,1-3.29,8,39.22,39.22,0,0,1-5.42,6.79c-2.6,2.73-5.42,5.24-8.19,7.8-1.92,1.77-3.89,3.48-5.86,5.19-2.51,2.17-4.75,4.5-3.31,8.21,1,2.54,3.84,3.44,8.4,2.26a121.61,121.61,0,0,1,28.34-3.43c12.18-.26,24.27.67,36,4.14a86.16,86.16,0,0,1,25,11.86,52.39,52.39,0,0,1,12.57,11.93,26.82,26.82,0,0,1,4.66,23.14,38.43,38.43,0,0,1-12.51,20.48,63.87,63.87,0,0,1-19.41,11.33,106.49,106.49,0,0,1-33,6.74c-14.21.77-28.28-1.13-42.38-2.33a56,56,0,0,0-6-.48,5.17,5.17,0,0,0-4.87,3.07,4.76,4.76,0,0,0,1.21,5.59c1.63,1.65,3.51,3,5.13,4.69,6.33,6.41,10.5,13.92,10.82,23.13.34,9.46-4.39,15.54-13.68,17.23a77.24,77.24,0,0,1-12.92.71,52.33,52.33,0,0,1-6.89-.8c-11-1.41-21.71-3.49-30.11-11.68-14.5-8.45-29-17-43.54-25.3-8.3-4.73-16.78-9.13-25.26-13.53a22.38,22.38,0,0,0-6.47-2.14,3.72,3.72,0,0,0-4.09,2.55,4.1,4.1,0,0,0,1,4.8,16,16,0,0,0,3.58,2.39c6.08,3.36,12.23,6.59,18.29,10,15.4,8.63,30.84,17.2,46.12,26.05,4.46,2.58,9.08,5.14,12.37,9.42a9,9,0,0,0,2.75,2.06c11.81,6.85,20.56,16.84,28,28,9.82,14.71,13.58,30.9,9.66,48.29-7.94,35.2-27,62-59.56,78.26a76.9,76.9,0,0,1-26.55,7.57c-17.79,1.84-33.1-3.42-45.91-16-7.78-7.61-14.14-16.53-17.62-26.72-2.63-7.7-7.08-14.5-9.26-22.34-2.26-8.12-5.14-16.07-7.55-24.15q-3.49-11.71-6.55-23.55c-2-7.88-3.82-15.84-5.69-23.77-.6-2.55-1.07-5.13-1.73-7.66-1-3.79-3.15-5.55-5.91-5s-4.26,2.88-3.76,6.87c.68,5.31,0,10.48-.74,15.66a65.6,65.6,0,0,1-6.48,20.73,40.24,40.24,0,0,1-12.76,15.18c-7.11,4.94-13.81,4.15-19-2.8a63.54,63.54,0,0,1-7-12.95c-4.41-10.23-6.25-21.18-8.12-32.09-2-11.75-3.68-23.56-5.7-35.31a23.6,23.6,0,0,0-2.65-7.28,5.48,5.48,0,0,0-6.71-2.62,5.37,5.37,0,0,0-3.38,7c3.5,9.62,1.93,19-1.1,28.23a42.91,42.91,0,0,1-5.12,10c-4.88,7.41-11.94,9.67-20.42,7.93-8.07-1.66-14.24-6-19.26-14.07,4.12-7,7.83-13.93,12.1-20.45a31.44,31.44,0,0,0,5.25-19.85,39,39,0,0,0-7.93-21.81,32.11,32.11,0,0,0-6.3-5.9c-2-1.53-4.48-1.05-6.33.69a5.29,5.29,0,0,0-.94,7.09,25.31,25.31,0,0,0,2.84,3.28c4.89,5.1,6.82,11.46,7.26,18.27a17.44,17.44,0,0,1-15,18.47,25.92,25.92,0,0,1-19-4.35,144.93,144.93,0,0,1-14.36-11.24c-4.14-3.62-7.85-7.73-11.79-11.59a36.85,36.85,0,0,0-4.49-4.09,5.46,5.46,0,0,0-6.5-.28,5.66,5.66,0,0,0-2.64,6,32.38,32.38,0,0,0,1.08,3.29c4.16,15.59-7.78,27.47-18.21,30.34a15.8,15.8,0,0,1-9.38-.6,28.27,28.27,0,0,1-17-15.23c-2.46-5.23-4.23-10.81-6.28-16.25-.7-1.85-1.3-3.74-2.21-6.33a43.28,43.28,0,0,0-4.51,2.9A33.14,33.14,0,0,1,783,437.84c-9,1.68-18.14,3.17-27.49,4.78-1.17,1.54.36,3,1,4.39,6,14.16,5.88,28.34.15,42.49a25.85,25.85,0,0,1-4.79,8.18c-8.88,9.27-18.52,17.62-31,21.66-2.74.89-5.57,1.47-8.36,2.2l-4.65,1.25c.16,3,2,3.45,3.65,3.37,5.47-.27,10.94-.68,16.39-1.28,2.81-.31,5.57-1.13,8.63-1.77,3.65,6,4.54,12.74,5.43,19.28a78.4,78.4,0,0,1-5.19,41.12c-7.6,18.29-20.77,30.62-39.53,36.58-9.38,3-19,2.17-28.24-.59-22-6.58-36.92-21.15-44.77-42.76a135.81,135.81,0,0,1-6.89-31.49,19.77,19.77,0,0,0-2.41-7.31,4.62,4.62,0,0,0-8-.38,34.51,34.51,0,0,0-2.51,4.55c-9.34,17.72-23.75,29.83-41.72,37.81A42.07,42.07,0,0,1,551,583c-11.78,1.49-18.31-3.89-21.78-11.91-4.87-11.24-6.13-23-4.64-35.08.9-7.3,2.85-14.16,7.84-20,2.2-2.58,3.48-6,4.93-9.17.54-1.21.36-2.75.69-5.74-2.29,2.58-3.77,3.84-4.75,5.41-8.07,13-20.53,20.19-33.78,26.34a30.92,30.92,0,0,1-7.45,2.22c-12.35,2.26-19.53-2.94-22.18-16.29,1.67-1.59,3.5-3.4,5.4-5.14a151.69,151.69,0,0,0,20.91-23.29,89.25,89.25,0,0,0,15-35,42.36,42.36,0,0,0,.65-6.94,10,10,0,0,0-.62-3.4,4.49,4.49,0,0,0-4.8-2.9,4,4,0,0,0-3.59,3.28c-.43,2-.55,4-.86,6a71.88,71.88,0,0,1-11.9,30.66c-16.06,23-36.66,40.22-63.05,50a82.28,82.28,0,0,1-55.27,1.12A86.14,86.14,0,0,1,356,526.12c-17.11-9.72-24.92-25.26-26.37-44.47-.35-4.64-.14-9.32-.2-14a12.68,12.68,0,0,0-2.86-8.05c-2.73-3.4-6.22-3.55-8.6-.11a60,60,0,0,0-3,5.34,95,95,0,0,1-17.92,23.45c-8.81,8.26-18.68,14.74-30.57,17.44a42.42,42.42,0,0,1-10.29,1.05c-7.83-.18-11.65-3.59-12.72-11.47a56.93,56.93,0,0,1,.07-10.44c.15-2.9.77-5.78.86-8.68.13-4.1-.63-4.87-5.29-6.52-.52-.18-1-.48-2-.95,1.57-8.35,3.16-16.84,4.84-25.76a60.23,60.23,0,0,1,6-2.85c12.52-4.48,25.09-8.82,37.61-13.3,3.61-1.29,6.58-.85,9.52,1.85a151.2,151.2,0,0,0,12.13,9.89,23.62,23.62,0,0,0,6.83,3.58,4.71,4.71,0,0,0,6.29-4.2,30.46,30.46,0,0,0-.24-6.94,164.86,164.86,0,0,0-13.3-46.86c-.81-1.79-1.42-3.69-2.16-5.66,3.44-1,6.53-1.73,9.47-2.83a13.9,13.9,0,0,0,4.28-2.82c1.44-1.31,1.48-4,.32-5.65a4.25,4.25,0,0,0-4.55-1.76,14.75,14.75,0,0,0-2.46.81c-11,4.13-21.19,1.78-30.29-5-4.59-3.41-8.41-7.92-12.47-12-2.65-2.68-4.92-5.75-7.69-8.28s-6.26-1.78-8,1.52a33,33,0,0,0-2.1,5.71c-2.61,8.28-8,13.88-15.73,17.64-11.28,5.53-22.63,6.38-34.38,1.62a8.66,8.66,0,0,1-5.37-5.14A110.59,110.59,0,0,0,190,350.55a26.53,26.53,0,0,0-4.13-5.58,13.22,13.22,0,0,0-4.26-2.83c-2.32-1-5.12,0-6,1.93s-.85,4.14,1,5.55c4.55,3.54,7,8.49,9.12,13.6a54.71,54.71,0,0,1,3.7,30.78c-1.49,8.66-5.23,16-12.26,21.41a42.6,42.6,0,0,0-4,3.3,4.36,4.36,0,0,0-.36,5.6c1.23,1.73,3.6,2.83,5.31,1.78a78.67,78.67,0,0,0,9-6.64c2.16-1.8,4-4,6.31-6.39,1.49,3.24,2.71,5.84,3.9,8.45a229.84,229.84,0,0,0,24.45,42.17c3,4,5.93,7.95,11.75,9.32a27.7,27.7,0,0,1-2.78,4.29A55,55,0,0,1,209.9,491.2a31.4,31.4,0,0,1-5.81,1.7c-8,1.31-12.13-1.94-12.76-10.1a21.75,21.75,0,0,1,.72-6.9,53.14,53.14,0,0,1,8-18.26,24.51,24.51,0,0,0,2.65-4.46,4.5,4.5,0,0,0-1.61-5.41,4.26,4.26,0,0,0-4.91-.06,18.14,18.14,0,0,0-4.39,4.17c-3.27,4.62-7.67,7.93-12.3,10.89-16.19,10.36-33.55,16.87-53.08,16.19a47.86,47.86,0,0,1-16.8-3.89c-14.53-6-19.87-22-12.3-35.5a56.56,56.56,0,0,1,13.85-16.63c5.18-4.19,10.52-8.18,15.73-12.35a21.81,21.81,0,0,0,4.26-4.27c1.93-2.77-.44-7.13-3.8-6.94a17.84,17.84,0,0,0-5.81,1.52,107.38,107.38,0,0,1-26.71,7.26C74.11,411,54.47,408,36.52,396.61a64.86,64.86,0,0,1-18.79-17.89C3.24,357.79,6.34,333.2,26,317.08Z"/><path class="cls-4" d="M923,478.2c4.12-7,7.83-13.93,12.1-20.45a31.44,31.44,0,0,0,5.25-19.85,39,39,0,0,0-7.93-21.81,32.11,32.11,0,0,0-6.3-5.9c-2-1.53-4.48-1.05-6.33.69a5.29,5.29,0,0,0-.94,7.09,24.64,24.64,0,0,0,2.85,3.28c4.88,5.1,6.81,11.46,7.25,18.27a17.44,17.44,0,0,1-15,18.47,25.92,25.92,0,0,1-19-4.35,144.93,144.93,0,0,1-14.36-11.24c-4.14-3.62-7.85-7.73-11.79-11.59a36.85,36.85,0,0,0-4.49-4.09,5.46,5.46,0,0,0-6.5-.28,5.66,5.66,0,0,0-2.64,6,32.38,32.38,0,0,0,1.08,3.29c4.16,15.59-7.78,27.47-18.21,30.34a15.8,15.8,0,0,1-9.38-.6,28.27,28.27,0,0,1-17-15.23c-2.46-5.23-4.23-10.81-6.28-16.25-.7-1.85-1.3-3.74-2.21-6.33a43.28,43.28,0,0,0-4.51,2.9A33.14,33.14,0,0,1,783,437.84c-9,1.68-18.14,3.17-27.49,4.78-1.17,1.54.36,3,1,4.39,6,14.16,5.88,28.34.15,42.48a25.79,25.79,0,0,1-4.79,8.19c-8.88,9.27-18.52,17.62-31,21.66-2.74.89-5.57,1.47-8.36,2.2l-4.65,1.25c.16,3,2,3.45,3.65,3.37,5.47-.27,10.94-.68,16.39-1.28,2.81-.31,5.57-1.13,8.63-1.77,3.65,6,4.54,12.74,5.42,19.28a78.29,78.29,0,0,1-5.18,41.12c-7.6,18.29-20.77,30.62-39.53,36.58-9.38,3-19,2.17-28.24-.59-22-6.58-36.92-21.15-44.77-42.76a135.81,135.81,0,0,1-6.89-31.49,19.77,19.77,0,0,0-2.41-7.31,4.62,4.62,0,0,0-8-.38,34.51,34.51,0,0,0-2.51,4.55c-9.34,17.72-23.75,29.83-41.72,37.81A42.07,42.07,0,0,1,551,583c-11.78,1.49-18.31-3.89-21.78-11.91-4.87-11.24-6.13-23-4.64-35.08.9-7.3,2.85-14.16,7.84-20,2.2-2.58,3.48-6,4.93-9.17.54-1.21.36-2.75.69-5.74-2.29,2.58-3.77,3.84-4.75,5.41-8.07,13-20.53,20.19-33.78,26.34a30.92,30.92,0,0,1-7.45,2.22c-12.35,2.26-19.53-2.94-22.18-16.29,1.67-1.59,3.5-3.4,5.4-5.14a151.69,151.69,0,0,0,20.91-23.29,89.25,89.25,0,0,0,15-35,42.36,42.36,0,0,0,.65-6.94,10,10,0,0,0-.62-3.4,4.49,4.49,0,0,0-4.8-2.9,4,4,0,0,0-3.59,3.28c-.43,2-.55,4-.86,6a71.88,71.88,0,0,1-11.9,30.66c-16.06,23-36.66,40.22-63.05,50a82.28,82.28,0,0,1-55.27,1.12A86.14,86.14,0,0,1,356,526.12c-17.11-9.72-24.92-25.26-26.37-44.47-.35-4.64-.14-9.32-.2-14a12.68,12.68,0,0,0-2.86-8.05c-2.73-3.4-6.22-3.55-8.6-.11a60,60,0,0,0-3,5.34,95,95,0,0,1-17.92,23.45c-8.81,8.26-18.67,14.74-30.57,17.44a42.42,42.42,0,0,1-10.29,1.05c-7.83-.18-11.65-3.59-12.72-11.47a56.93,56.93,0,0,1,.07-10.44c.15-2.9.77-5.78.86-8.68.13-4.1-.63-4.87-5.29-6.52-.52-.18-1-.48-2-.95,1.57-8.35,3.16-16.84,4.84-25.76a60.23,60.23,0,0,1,6-2.85c12.52-4.48,25.09-8.82,37.61-13.3,3.61-1.29,6.58-.85,9.52,1.85a151.2,151.2,0,0,0,12.13,9.89,23.62,23.62,0,0,0,6.83,3.58,4.71,4.71,0,0,0,6.29-4.2,30.46,30.46,0,0,0-.24-6.94,164.61,164.61,0,0,0-13.3-46.85c-.81-1.8-1.41-3.7-2.16-5.68,3.44-1,6.53-1.72,9.47-2.82a13.9,13.9,0,0,0,4.28-2.82c1.44-1.31,1.48-4,.32-5.65a4.25,4.25,0,0,0-4.55-1.76,14.75,14.75,0,0,0-2.46.81c-11,4.13-21.19,1.78-30.29-5-4.59-3.41-8.41-7.92-12.47-12-2.65-2.68-4.92-5.75-7.69-8.28s-6.26-1.78-8,1.52a33,33,0,0,0-2.1,5.71c-2.61,8.28-8,13.88-15.73,17.64-11.28,5.53-22.63,6.38-34.38,1.62a8.66,8.66,0,0,1-5.37-5.14A110.59,110.59,0,0,0,190,350.55a26.53,26.53,0,0,0-4.13-5.58,13.22,13.22,0,0,0-4.26-2.83c-2.32-1-5.12,0-6,1.93s-.85,4.14,1,5.55c4.55,3.54,7,8.49,9.12,13.6a54.7,54.7,0,0,1,3.7,30.78c-1.49,8.66-5.23,16-12.26,21.41a42.6,42.6,0,0,0-4,3.3,4.36,4.36,0,0,0-.36,5.6c1.23,1.73,3.6,2.83,5.31,1.78a78.67,78.67,0,0,0,9-6.64c2.16-1.8,4-4,6.31-6.39,1.49,3.24,2.71,5.84,3.9,8.45a229.43,229.43,0,0,0,24.45,42.16c3,4,5.93,8,11.75,9.33a27.7,27.7,0,0,1-2.78,4.29A55,55,0,0,1,209.9,491.2a31.4,31.4,0,0,1-5.81,1.7c-8,1.31-12.13-1.94-12.76-10.1a21.75,21.75,0,0,1,.72-6.9,53.14,53.14,0,0,1,8-18.26,24.51,24.51,0,0,0,2.65-4.46,4.5,4.5,0,0,0-1.61-5.41,4.26,4.26,0,0,0-4.91-.06,18.14,18.14,0,0,0-4.39,4.17c-3.27,4.62-7.67,7.93-12.3,10.89-16.19,10.36-33.55,16.87-53.08,16.19a47.86,47.86,0,0,1-16.8-3.89c-14.53-6-19.87-22-12.3-35.5a56.56,56.56,0,0,1,13.85-16.63c5.18-4.19,10.52-8.18,15.73-12.35a21.81,21.81,0,0,0,4.26-4.27c1.93-2.77-.44-7.13-3.8-6.95a18.12,18.12,0,0,0-5.81,1.53,107.38,107.38,0,0,1-26.71,7.26C74.11,411,54.47,408,36.52,396.61a64.6,64.6,0,0,1-18.79-17.89C3.24,357.79,6.34,333.2,26,317.08a91.34,91.34,0,0,1,17.62-11c16.19-8,33.4-12.93,51.14-16,17.47-3,35.08-3.25,52.73-2.53,1.7.07,3.63.42,5.07-.22a7,7,0,0,0,3.26-3.65c.68-1.76-.46-3.49-2-4.42a47.74,47.74,0,0,0-4.76-2c-7.85-3.63-14.2-9-18.18-16.81-5.1-10-2.41-15.54,8.57-17.25,4.26-.66,8.64-.57,13-.81,2.59-.14,5.21-.09,7.78-.41,2.81-.35,4.5-2.12,4.66-4.37a4.85,4.85,0,0,0-3-4.87c-1.54-.79-3.29-1.17-4.81-2-3.29-1.79-6.83-3.34-9.67-5.71a74.14,74.14,0,0,1-22.6-32.52c-.1-.27-.17-.56-.25-.84-4.52-15.07,1.9-25.93,17.18-29.23,9.55-2.07,19-1.3,28.33,1.09a125.42,125.42,0,0,1,32.6,14c7.73,4.56,15.29,9.42,22.95,14.1,3.46,2.11,6.8,4.63,10.53,6,5.72,2.15,9.53,6.1,13,10.87,9.42,12.8,21.48,22.75,34.65,31.38a23.76,23.76,0,0,0,7.09,3,4.58,4.58,0,0,0,5.34-3.36c.52-1.84-.37-3.84-2.39-5.14-3.89-2.51-7.91-4.82-11.68-7.48-19.72-13.9-33.61-32.62-43.7-54.36-4.33-9.33-7-19.09-6.31-29.59A26.06,26.06,0,0,1,236.77,129c3.56-4.9,8.23-7,14.34-5.78a39,39,0,0,1,12.75,5.3,85.65,85.65,0,0,1,17.91,15.09c3.34,3.63,6.51,7.42,9.82,11.08a20.51,20.51,0,0,0,3.8,3.54,4.49,4.49,0,0,0,6.93-3.69,24.69,24.69,0,0,0-1-6C295.47,126,300.7,105.39,312.43,86a30.23,30.23,0,0,1,9.62-9.93c6.54-4.18,13.1-4.13,19.53.15,5.17,3.43,8.92,8.26,12.15,13.49a106,106,0,0,1,13.89,35.58c1.68,8.56,2.55,17.27,3.79,25.91.45,3.17.81,6.36,1.39,9.5a4.27,4.27,0,0,0,3.42,3.53,4.61,4.61,0,0,0,5.27-2.09c1.08-1.71,1.94-3.57,2.87-5.37a61.38,61.38,0,0,1,12.52-16.63,42.7,42.7,0,0,1,8.3-6.25c9.18-5.17,18.16-3.2,24.6,5.19,4.37,5.69,6.44,12.35,7.24,19.39a68.37,68.37,0,0,1-.71,20.88c-1.22,6.29-2.62,12.55-3.63,18.87a103.08,103.08,0,0,0-1.17,13,4.94,4.94,0,0,0,3.66,5.27c2.16.54,4.09-.35,5.37-3.2,3.22-7.16,9.26-11.16,15.91-14.06,16.84-7.32,33.82-7,50.39.83,7,3.34,13.61,7.67,20.39,11.55,2.26,1.29,4.47,2.69,6.81,3.82a4.48,4.48,0,0,0,6-1.78c1.16-1.76,1-3.6-.66-5.58-1.51-1.75-3.25-3.31-4.86-5-5-5.2-10.38-10.17-15.08-15.68a74.8,74.8,0,0,1-17.27-35.7,31.1,31.1,0,0,1,.93-14.67c2.48-8.35,8.63-13.07,17.2-13.43a26.48,26.48,0,0,1,11.8,2.37,65.76,65.76,0,0,1,19.41,13c3.12,3,6.07,6.24,9,9.44,3.35,3.62,6.55,7.38,9.94,11,3.76,4,6.37,4.71,8.86,2.75,2.26-1.78,2.33-4.27.17-8.71-.89-1.83-2-3.54-2.83-5.41-3.55-8.28-7.33-16.47-10.42-24.92a53.13,53.13,0,0,1-3.14-23.19A40,40,0,0,1,572.8,77a57.08,57.08,0,0,1,9.39-9C601,54.31,621.77,47.88,645,50.53a42.11,42.11,0,0,1,5.11.93c18.55,4.47,28.12,15.57,29.93,34.76,1.23,13.17-.18,26.19-2.43,39.14-1.3,7.45-2.9,14.85-4.32,22.28-1.32,6.87-2.8,13.62-6.22,19.88a25.37,25.37,0,0,0-3,14.35c.26,3.14,2,5.3,4.51,5.66a5.56,5.56,0,0,0,6-4.05A103.58,103.58,0,0,0,678,170.87c2.06-10.23,9.38-15.72,17.78-20,4.32-2.22,7.34-.61,8.53,4.06a61.83,61.83,0,0,1,1.59,10.33c.36,4.64.33,9.31.52,14a32.15,32.15,0,0,0,.52,5.2c.45,2.05,1.42,3.83,3.73,4.36s4.3-.36,5.57-3.1c4-8.51,11-13.36,19.33-16.47,9.7-3.61,15.82-1.81,22.11,6.39,2.83,3.69,5.24,7.68,7.91,11.49a50.68,50.68,0,0,0,4.24,5.51,5,5,0,0,0,6.32,1,4.83,4.83,0,0,0,2-6.07,104.13,104.13,0,0,0-4.54-9.4c-5.56-10.54-11.31-21-16.74-31.59a125.67,125.67,0,0,1-10.15-26c-2.18-8.52-3.5-17.13-1.14-25.88.3-1.13.47-2.29.85-3.39,4.07-11.78,15.28-17.41,27.13-13.64a36.07,36.07,0,0,1,13.85,8.74,70,70,0,0,1,14,18.79c4.64,9,8.79,18.33,13.17,27.51a71.27,71.27,0,0,0,4.27,8.57c3.26,5,8.2,4.49,10.6-1a78.54,78.54,0,0,0,2.78-8.26,68.3,68.3,0,0,1,11.33-22.47,108.34,108.34,0,0,1,12-12.55,32.51,32.51,0,0,1,13.76-7.15c9.8-2.62,17.69.32,23.34,8.84,5,7.48,6.9,16,7.49,24.8.45,6.67.25,13.39.34,20.09a59,59,0,0,0,.1,6.1,5.18,5.18,0,0,0,3.56,4.54,4.75,4.75,0,0,0,5.43-1.71c1.3-1.55,2.34-3.32,3.54-5a69.75,69.75,0,0,1,26.32-22.22c3.68-1.75,7.45-3.14,11.61-3.17,6.66-.05,10.27,2.78,11.37,9.45a60.08,60.08,0,0,1,.42,8.71c.15,7.28.19,14.56.38,21.83a10.4,10.4,0,0,0,.94,4.16,3.88,3.88,0,0,0,4.16,2.49,8.22,8.22,0,0,0,3.49-2.26,6,6,0,0,0,1-2.38q13-39.09,50.65-55.25c6.66-2.85,13.67-4.6,21.13-3.06,8.38,1.73,14.1,6.51,17,14.5,1.4,3.8,2.19,7.83,3.33,11.74a35.59,35.59,0,0,0,2.21,6.58c2.18,4.23,6.43,5.39,10.21,2.66a47.55,47.55,0,0,0,6.91-6.56,97.38,97.38,0,0,1,34.51-24.4,50.19,50.19,0,0,1,26.3-3.79c11.28,1.52,21.53,8.61,22.87,22.45a69.94,69.94,0,0,1,.31,11.3,76.09,76.09,0,0,1-6.74,26.08c-3.42,7.71-7.16,15.27-10.75,22.9-1.12,2.36-2.27,4.72-3.32,7.11s-.91,4.55,1.06,6.4,4.2,1.77,6.42.63c6-3.06,12.06-5.74,18.66-6.86a101.28,101.28,0,0,1,12.9-1.23,22.4,22.4,0,0,1,11.59,3.15c9.66,5.24,13.11,14,9.11,24.28a62.24,62.24,0,0,1-6.25,11.43c-3.19,4.84-6.83,9.4-10.21,14.12s-6.93,9.31-8.82,15c-.52,1.56-2,2.76-2.89,4.25a11.68,11.68,0,0,0-1.55,4,3.74,3.74,0,0,0,2.26,4.27,8.59,8.59,0,0,0,4.13.07c.76-.13,1.39-1,2.08-1.48a80.85,80.85,0,0,1,44-16.49c9.67-.62,19.07.92,27.56,6,6.76,4,9.06,9.31,7.32,17a27.91,27.91,0,0,1-3.29,8,39.22,39.22,0,0,1-5.42,6.79c-2.6,2.73-5.42,5.24-8.19,7.8-1.92,1.77-3.89,3.48-5.86,5.19-2.51,2.17-4.75,4.5-3.31,8.21,1,2.54,3.84,3.44,8.4,2.26a121.61,121.61,0,0,1,28.34-3.43c12.18-.26,24.27.67,36,4.14a86.16,86.16,0,0,1,25,11.86,52.39,52.39,0,0,1,12.57,11.93,26.82,26.82,0,0,1,4.66,23.14,38.43,38.43,0,0,1-12.51,20.48,63.64,63.64,0,0,1-19.41,11.32,106.22,106.22,0,0,1-33,6.75c-14.21.77-28.28-1.13-42.38-2.33a56,56,0,0,0-6-.48,5.17,5.17,0,0,0-4.87,3.07,4.76,4.76,0,0,0,1.21,5.59c1.63,1.65,3.51,3,5.13,4.69,6.33,6.41,10.5,13.92,10.82,23.13.34,9.46-4.39,15.54-13.68,17.23a77.24,77.24,0,0,1-12.92.71,52.33,52.33,0,0,1-6.89-.8c-11-1.41-21.71-3.49-30.1-11.68-14.51-8.45-29-17-43.55-25.3-8.3-4.73-16.78-9.13-25.26-13.53a22.38,22.38,0,0,0-6.47-2.14,3.72,3.72,0,0,0-4.09,2.55,4.1,4.1,0,0,0,1,4.8,16,16,0,0,0,3.58,2.39c6.08,3.36,12.23,6.59,18.29,10,15.4,8.63,30.84,17.2,46.12,26.05,4.46,2.58,9.08,5.14,12.37,9.42a9,9,0,0,0,2.75,2.06c11.81,6.85,20.56,16.84,28,28,9.82,14.71,13.58,30.9,9.66,48.29-7.94,35.2-27,62-59.56,78.26a76.9,76.9,0,0,1-26.55,7.57c-17.79,1.84-33.1-3.42-45.91-16-7.78-7.61-14.14-16.53-17.62-26.72-2.63-7.7-7.08-14.5-9.26-22.34-2.26-8.12-5.14-16.07-7.55-24.15q-3.49-11.71-6.55-23.55c-2-7.88-3.82-15.84-5.69-23.77-.6-2.55-1.07-5.13-1.73-7.66-1-3.79-3.15-5.55-5.91-5s-4.26,2.88-3.76,6.87c.68,5.31,0,10.48-.74,15.66a65.6,65.6,0,0,1-6.48,20.73,40.31,40.31,0,0,1-12.76,15.18c-7.11,4.94-13.81,4.15-19-2.8a63.54,63.54,0,0,1-7-12.95c-4.41-10.23-6.25-21.18-8.12-32.09-2-11.74-3.68-23.56-5.7-35.31a23.6,23.6,0,0,0-2.65-7.28,5.48,5.48,0,0,0-6.71-2.62,5.37,5.37,0,0,0-3.38,7c3.5,9.62,1.93,19-1.1,28.23a42.91,42.91,0,0,1-5.12,10c-4.88,7.41-11.94,9.67-20.42,7.93C934.16,490.61,928,486.22,923,478.2ZM457.2,380.25l.22.19c8.07-13,13-27.21,16.14-42.14.52-2.49.42-5.26,2.78-7.07,3,1,6,2.24,9,3.08,9.63,2.63,18.92,1.86,27.55-3.47a23.53,23.53,0,0,0,5.15-4.57c1.29-1.46.89-4.3-.45-5.64a4.12,4.12,0,0,0-4.76-1.05,42.81,42.81,0,0,0-4.44,2.67c-15.52,9.17-34.65,1.14-38.74-16.59-1.3-5.61-1.25-11.53-1.78-17.32-.2-2.21,1-3.85,2.38-5.4,2.33-2.58,4.71-5.14,6.85-7.88,1.76-2.24,1.56-4.54-.12-6.33-1.87-2-4.37-1.92-6.92.25a30,30,0,0,0-2.47,2.45c-2.38,2.55-4.64,5.2-7.11,7.65a25,25,0,0,1-18.79,7.54c-12.05-.26-21.84-5.07-29-14.93-2.36-3.28-4.15-7-6.23-10.47a51.23,51.23,0,0,0-3.23-5.15,4.49,4.49,0,0,0-5.48-1.2,4.21,4.21,0,0,0-2.3,5.08,31.85,31.85,0,0,0,2.38,5.58c2.27,4.34,4.67,8.61,6.88,12.67a17.51,17.51,0,0,1-1.31,2.84c-8.5,11.34-19.88,15.64-33.58,13.24-5.65-1-11.1-3.15-16.68-4.6a38,38,0,0,0-8.44-1.36c-1.06,0-2.59,1.36-3.14,2.49a3.62,3.62,0,0,0,1.31,4.61,10.08,10.08,0,0,0,2.21,1.35c8.31,3.39,16.63,6.74,25.69,7.52,1.69.15,3.37.51,5.46.84a45.84,45.84,0,0,1-.74,5.27c-4.64,17.66-5.62,35.66-4.14,53.75.49,6,2.57,11.89,4.1,17.78a55.27,55.27,0,0,0,2.62,6.53c-3,4.15-5.82,8.22-8.87,12.08-.92,1.17-2.53,1.8-3.94,2.76-3.57-5.51-4.92-11.16-6.27-16.83-2.3-9.62-4.38-19.3-7.09-28.8a51.43,51.43,0,0,0-6-13.46c-4.09-6.37-10.3-6.52-15.08-.71A23,23,0,0,0,326.7,351,52.66,52.66,0,0,0,324.35,363a152.56,152.56,0,0,0,2.84,40.84c1.74,8.86,3.52,17.76,7.46,25.93a46.4,46.4,0,0,0,6.94,10.95c4.72,5.25,10.93,6.6,17.41,3.71a36.43,36.43,0,0,0,10.1-6.56,83,83,0,0,0,10-12c3.37-4.72,6.22-9.81,9.35-14.71,1.53-2.41,3.16-4.74,4.45-6.67l21,4.33c.88,1.8,1.79,3.62,2.66,5.44,3.39,7.08,6.51,14.31,10.23,21.2a63.87,63.87,0,0,0,8.79,12.9c6.86,7.49,16.73,8.34,25.19,2.71a26.11,26.11,0,0,0,5.84-5.14c14-17.31,24.91-36.41,31.7-57.74a31.09,31.09,0,0,0,1.44-9.43c-.06-11.68-10.22-18.54-21-14.33a32.75,32.75,0,0,0-11.46,7.71c-2.43,2.49-4.66,5.18-7.17,7.58C459.52,380.27,458.16,380.05,457.2,380.25Z"/><path class="cls-3" d="M238.81,376c3.06,4.34,4.94,9.5,7.08,14.9a44.05,44.05,0,0,0-4,5.34,6,6,0,0,0,3.14,8.64A11.88,11.88,0,0,0,258.5,402c3.15-3.54,3-8.2-1.11-10.33-3.47-1.81-5-4.46-6.4-7.74-1.64-4-3.51-7.9-5.08-11.41L260.29,355a18,18,0,0,1,2.77,2.3c7.86,9.27,17,16.56,29,19.68a7.62,7.62,0,0,1,5.09,4.35c1.93,3.9,4,7.75,5.66,11.77a169,169,0,0,1,9,30.94,77.41,77.41,0,0,1,.71,8.64,43.23,43.23,0,0,1-4.42-2.61q-5.79-4.6-11.43-9.37a9.24,9.24,0,0,0-9.62-1.93c-15.39,5-30.8,9.86-45.78,16.07-4.24,1.76-6.48,4.48-7,9-.53,4.33-1.22,8.64-2,12.93a39.85,39.85,0,0,1-1.92,5.47,47.84,47.84,0,0,1-3.29-3.55,217,217,0,0,1-28.31-52.83c-.58-1.57-1.21-3.52-.78-5,2-6.84,1.72-13.82,1.8-20.8a4.66,4.66,0,0,1,.43-1.43c6.61.57,13.2,1.89,19.69,1.48C226.06,379.69,232.16,377.5,238.81,376Zm41.65,8.58a7.12,7.12,0,0,0-7,7.17c.19,3.73,3.91,7,7.53,6.62s6.88-4.1,6.52-7.71A6.89,6.89,0,0,0,280.46,384.57Zm-56.92,22.52c-3.67.17-5.68,2.54-5.39,6.35.25,3.3,2.46,5.66,5.37,5.74,3.38.09,6.56-3.17,6.57-6.73C230.1,409.29,227.2,406.92,223.54,407.09Z"/><path class="cls-3" d="M457.14,380.2c1-.15,2.38.07,3-.51,2.51-2.4,4.74-5.09,7.17-7.58a32.75,32.75,0,0,1,11.46-7.71c10.77-4.21,20.93,2.65,21,14.33a31.09,31.09,0,0,1-1.44,9.43c-6.79,21.33-17.67,40.43-31.7,57.74a26.11,26.11,0,0,1-5.84,5.14c-8.46,5.63-18.33,4.78-25.19-2.71a63.87,63.87,0,0,1-8.79-12.9c-3.72-6.89-6.84-14.12-10.23-21.2-.87-1.82-1.78-3.64-2.66-5.44l-21-4.33c-1.29,1.93-2.92,4.26-4.45,6.67-3.13,4.9-6,10-9.35,14.71a83,83,0,0,1-10,12,36.43,36.43,0,0,1-10.1,6.56c-6.48,2.89-12.69,1.54-17.41-3.71a46.4,46.4,0,0,1-6.94-10.95c-3.94-8.17-5.72-17.07-7.46-25.93A152.56,152.56,0,0,1,324.35,363,52.66,52.66,0,0,1,326.7,351a23,23,0,0,1,4.22-7.54c4.78-5.81,11-5.66,15.08.71a51.43,51.43,0,0,1,6,13.46c2.71,9.5,4.79,19.18,7.09,28.8,1.35,5.67,2.7,11.32,6.27,16.83,1.41-1,3-1.59,3.94-2.76,3.05-3.86,5.85-7.93,8.87-12.08a55.27,55.27,0,0,1-2.62-6.53c-1.53-5.89-3.61-11.78-4.1-17.78-1.48-18.09-.5-36.09,4.14-53.75a45.84,45.84,0,0,0,.74-5.27c-2.09-.33-3.77-.69-5.46-.84-9.06-.78-17.38-4.13-25.69-7.52a10.08,10.08,0,0,1-2.21-1.35,3.62,3.62,0,0,1-1.31-4.61c.55-1.13,2.08-2.51,3.14-2.49a38,38,0,0,1,8.44,1.36c5.58,1.45,11,3.62,16.68,4.6,13.7,2.4,25.08-1.9,33.58-13.24a17.51,17.51,0,0,0,1.31-2.84c-2.21-4.06-4.61-8.33-6.88-12.67a31.85,31.85,0,0,1-2.38-5.58,4.21,4.21,0,0,1,2.3-5.08,4.49,4.49,0,0,1,5.48,1.2,51.23,51.23,0,0,1,3.23,5.15c2.08,3.49,3.87,7.19,6.23,10.47,7.11,9.86,16.9,14.67,29,14.93a25,25,0,0,0,18.79-7.54c2.47-2.45,4.73-5.1,7.11-7.65a30,30,0,0,1,2.47-2.45c2.55-2.17,5.05-2.24,6.92-.25,1.68,1.79,1.88,4.09.12,6.33-2.14,2.74-4.52,5.3-6.85,7.88-1.41,1.55-2.58,3.19-2.38,5.4.53,5.79.48,11.71,1.78,17.32,4.09,17.73,23.22,25.76,38.74,16.59a42.81,42.81,0,0,1,4.44-2.67,4.12,4.12,0,0,1,4.76,1.05c1.34,1.34,1.74,4.18.45,5.64a23.53,23.53,0,0,1-5.15,4.57c-8.63,5.33-17.92,6.1-27.55,3.47-3.05-.84-6-2-9-3.08-2.36,1.81-2.26,4.58-2.78,7.07-3.11,14.93-8.07,29.14-16.11,42.17-.92,2-1.87,4-2.81,5.93-.53.14-1.25.11-1.54.45a66.53,66.53,0,0,1-19.24,15.69c-.43.22-.6.93-.89,1.41,2.18,4.23,2.18,4.23,5.92,6.37.52-.21,1.22-.26,1.53-.64a85.85,85.85,0,0,0,14-23.44C457.82,383.81,458,383.4,457.14,380.2ZM419.41,400c10.78-2.85,19.36-7.75,26.14-15.71a85.24,85.24,0,0,0,13.66-23.17c4.23-10.26,6.64-21,8.87-31.88a8.56,8.56,0,0,0-1.78-7.3c-4.08-5.47-6.11-11.8-7-18.54-.42-3.12-1-6.22-1.6-9.43a14.47,14.47,0,0,0-2.87.28c-13.91,4.58-26.75,2-38.84-5.8-1.16-.75-2.44-1.32-3.43-1.85-4.45,4-8.21,8.11-12.72,11.13s-9.72,4.85-14.7,7.24c-2.27,5.93-4.23,11.95-4.53,19,9.49,5,17,12.53,24.17,21,2.31-10.4,3-10.95,15.17-12.89.7-2.53,1.52-5.28,2.21-8.07.74-3,2.22-5.88,1.65-9.65a78.66,78.66,0,0,0-18.26.65,16.26,16.26,0,0,1-5.1.21,3.51,3.51,0,0,1-2.35-2.15,3.36,3.36,0,0,1,1.15-2.91,15.88,15.88,0,0,1,5.54-2.25c7.72-1.26,15.52-2,23.29-.64a42.1,42.1,0,0,1,25.23,14.11,21.47,21.47,0,0,1,1.58,2.08c1.46,2.16,1.32,4.11-.35,5.38s-3.32.63-4.65-.6c-1.7-1.58-3.15-3.41-4.85-5-4.29-4-7.09-5.33-12.94-6.25a85.57,85.57,0,0,0-4.9,18.41c2.22,2.46,4.11,4.28,5.68,6.34,4.46,5.91,2.16,12.13-5,14-3.92,1-7.41-.39-10.93-1.65-1.35-.49-2.55-1.35-3.88-1.92-1.17-.51-2-2.16-3.68-1.18C419.93,376.72,418.39,370.76,419.41,400Zm2.83,7.68c2.64,8.48,11.11,26.16,15.34,32l.52.7c6.74,8.88,15,9.36,22.67,1.31q.6-.63,1.14-1.32a174.5,174.5,0,0,0,29.15-53.19,29.52,29.52,0,0,0,1.51-6.78c.63-8-5.22-12.2-12.22-8.64a39.88,39.88,0,0,0-9,6.63c-5.32,5-9.28,11.1-13.06,17.33-3.46,5.7-6.77,11.54-10.7,16.91-5.13,7-11.73,7.13-17.52.78-1.55-1.69-2.66-3.79-4.11-5.59C424.87,406.48,423.53,406.41,422.24,407.64Zm-39.49-12.78c-2.84,3.75-5,6.87-7.43,9.69a33.3,33.3,0,0,1-6.35,5.81c-3.38,2.25-6.78,1.45-9.08-1.77a18.46,18.46,0,0,1-2.51-4.56c-1.85-5.18-3.78-10.36-5.19-15.67-2.53-9.54-4.57-19.21-7.09-28.76a55.73,55.73,0,0,0-3.93-9.64c-.55-1.13-1.85-1.89-3.26-3.26-1.55,2.12-3.2,3.53-3.72,5.28a61.89,61.89,0,0,0-2.75,12.68A133.06,133.06,0,0,0,334,401.1a203.48,203.48,0,0,0,6.29,23.53,35.8,35.8,0,0,0,6,10.5c2.87,3.69,6.56,4.12,10.92,2.27,4.95-2.1,8.6-5.83,11.85-9.95,6.85-8.65,12-18.41,18-27.89C385.68,398,384.55,396.81,382.75,394.86Zm11.82-16.94c7.37-.07,12.18-4.79,12.08-11.86-.11-8-5.41-13.58-12.81-13.43-7.17.14-13.41,5.66-13.65,12.05C379.92,371.63,386.84,378,394.57,377.92Z"/><path class="cls-5" d="M280.46,384.57a6.89,6.89,0,0,1,7.08,6.08c.36,3.61-2.78,7.32-6.52,7.71s-7.34-2.89-7.53-6.62A7.12,7.12,0,0,1,280.46,384.57Z"/><path class="cls-5" d="M419.41,400c-1-29.2.52-23.24-10.05-49,1.66-1,2.51.67,3.68,1.18,1.33.57,2.53,1.43,3.88,1.92,3.52,1.26,7,2.69,10.93,1.65,7.17-1.9,9.47-8.12,5-14-1.57-2.06-3.46-3.88-5.68-6.34a85.57,85.57,0,0,1,4.9-18.41c5.85.92,8.65,2.25,12.94,6.25,1.7,1.58,3.15,3.41,4.85,5,1.33,1.23,2.9,1.94,4.65.6s1.81-3.22.35-5.38a21.47,21.47,0,0,0-1.58-2.08,42.1,42.1,0,0,0-25.23-14.11c-7.77-1.33-15.57-.62-23.29.64a15.88,15.88,0,0,0-5.54,2.25,3.36,3.36,0,0,0-1.15,2.91,3.51,3.51,0,0,0,2.35,2.15,16.26,16.26,0,0,0,5.1-.21,78.66,78.66,0,0,1,18.26-.65c.57,3.77-.91,6.66-1.65,9.65-.69,2.79-1.51,5.54-2.21,8.07-12.2,1.94-12.86,2.49-15.17,12.89-7.14-8.5-14.68-16-24.17-21,.3-7,2.26-13,4.53-19,5-2.39,10.22-4.25,14.7-7.24s8.27-7.16,12.72-11.13c1,.53,2.27,1.1,3.43,1.85,12.09,7.79,24.93,10.38,38.84,5.8a14.47,14.47,0,0,1,2.87-.28c.56,3.21,1.18,6.31,1.6,9.43.91,6.74,2.94,13.07,7,18.54a8.56,8.56,0,0,1,1.78,7.3c-2.23,10.84-4.64,21.62-8.87,31.88a85.24,85.24,0,0,1-13.66,23.17C438.77,392.21,430.19,397.11,419.41,400Zm10.68-28.9c.06,4.63,4.33,8.32,9.35,8.09a8.13,8.13,0,0,0,8.08-8.35c0-4.54-3.16-8.12-7.19-8.23C435.33,362.42,430,366.81,430.09,371.06Z"/><path class="cls-5" d="M422.24,407.64c1.29-1.23,2.63-1.16,3.7.16,1.45,1.8,2.56,3.9,4.11,5.59,5.79,6.35,12.39,6.22,17.52-.78,3.93-5.37,7.24-11.21,10.7-16.91,3.78-6.23,7.74-12.34,13.06-17.33a39.88,39.88,0,0,1,9-6.63c7-3.56,12.85.67,12.22,8.64a29.52,29.52,0,0,1-1.51,6.78,174.5,174.5,0,0,1-29.15,53.19q-.54.69-1.14,1.32c-7.65,8.05-15.93,7.57-22.67-1.31l-.52-.7C433.35,433.8,424.88,416.12,422.24,407.64Z"/><path class="cls-5" d="M382.75,394.86c1.8,1.95,2.93,3.17,4.33,4.7-6.06,9.48-11.18,19.24-18,27.89-3.25,4.12-6.9,7.85-11.85,9.95-4.36,1.85-8.05,1.42-10.92-2.27a35.8,35.8,0,0,1-6-10.5A203.48,203.48,0,0,1,334,401.1a133.06,133.06,0,0,1-2.59-36.44A61.89,61.89,0,0,1,334.19,352c.52-1.75,2.17-3.16,3.72-5.28,1.41,1.37,2.71,2.13,3.26,3.26a55.73,55.73,0,0,1,3.93,9.64c2.52,9.55,4.56,19.22,7.09,28.76,1.41,5.31,3.34,10.49,5.19,15.67a18.46,18.46,0,0,0,2.51,4.56c2.3,3.22,5.7,4,9.08,1.77a33.3,33.3,0,0,0,6.35-5.81C377.78,401.73,379.91,398.61,382.75,394.86Z"/><path class="cls-5" d="M394.57,377.92c-7.73.08-14.65-6.29-14.38-13.24.24-6.39,6.48-11.91,13.65-12.05,7.4-.15,12.7,5.4,12.81,13.43C406.75,373.13,401.94,377.85,394.57,377.92Zm-.92-18.21a5,5,0,0,0-4.55,4.39c-.08,3,3,6.09,6.12,6.1,2.6,0,5.46-3.37,5-6C399.82,361.8,396.56,359.56,393.65,359.71Z"/><path class="cls-5" d="M454.47,386.25a86.23,86.23,0,0,1-14.05,23.43c-.31.38-1,.43-1.53.64-3.74-2.14-3.74-2.14-5.92-6.37.29-.48.46-1.19.89-1.41a66.53,66.53,0,0,0,19.24-15.69c.29-.34,1-.31,1.54-.45Z"/><path class="cls-5" d="M454.64,386.4c.94-2,1.89-3.94,2.81-5.93l-.28-.25c.83,3.18.65,3.59-2.71,6Z"/><path class="cls-3" d="M430.09,371.06c0-4.25,5.24-8.64,10.24-8.49,4,.11,7.16,3.69,7.19,8.23a8.13,8.13,0,0,1-8.08,8.35C434.42,379.38,430.15,375.69,430.09,371.06Z"/><path class="cls-3" d="M393.65,359.71c2.91-.15,6.17,2.09,6.58,4.52.45,2.6-2.41,6-5,6-3.12,0-6.2-3.09-6.12-6.1A5,5,0,0,1,393.65,359.71Z"/></g><g class="cls-6"><path class="cls-3" d="M-609.26,395.73c2.1,11.18,7.36,20.74,14.81,29.1,13.33,14.95,30.17,23.61,49.62,27.13,13,2.35,26,2.75,39-.44a17.78,17.78,0,0,1,3.59-.63c1,0,2.44-.9,3.25,1.48-1.17,1.63-2.57,3.54-3.94,5.47a60.44,60.44,0,0,0-8.75,17.08,35.55,35.55,0,0,0,16.62,41.75,55.3,55.3,0,0,0,19,6.05c11.1,1.66,21.84-.12,32.42-3.33a120.48,120.48,0,0,0,29.7-13.85,28.85,28.85,0,0,1,4.87-1.94c.3,4.08.34,7.47.82,10.79,2.06,14,13.21,21.22,26.57,17.31a45.88,45.88,0,0,0,5.16-1.83A73.1,73.1,0,0,0-358,518.27c1.1-.95,2.19-2.24,4.14-1,.49,2.52.91,5.24,1.58,7.9,2.52,9.95,9,15.69,19.08,17.15a31.46,31.46,0,0,0,12.67-.56c2.81-.74,24.75-9.11,32.34-15l1.18-1.65a11.52,11.52,0,0,1,1-1.52c7.39-7.67,14.36-15.68,20.79-26.73,2.21,8.17,3.49,14.49,5.66,20.48,2.05,5.67,5,11,7.82,17l-1,.64c5.78,5.64,11.19,11.76,16.29,15.42.12.09.25.16.37.24l0-.08c4.18-.09,6.72,2.73,10.4,4.51-.11.64-.2,1.29-.3,1.94a103.81,103.81,0,0,0,9.88,4.86c.83-1.73,1.75-2.44,2.55-1.75a3.46,3.46,0,0,1,1.14,3.24,97.18,97.18,0,0,0,10.25,3.33,11.51,11.51,0,0,1,1.44-2.22,2.39,2.39,0,0,1,.2,2.7,97.56,97.56,0,0,0,12.26,2.12c.52-1.49,1.07-3,1.6-4.56,27.21-1.63,42.18-5.62,73.89-27.61,1.2,1.53,2.48,3.07,3.68,4.68,10.22,13.78,20.68,17,36.68,11a88.38,88.38,0,0,0,10.55-5.33c1.82-1,3.52-2.19,5.07-3.17,2.67,1.23,1.82,3.35,1.94,5,.59,8.28,1.51,16.51,4.44,24.32A74.76,74.76,0,0,0-44.63,586c6.46,10.67,16.05,15.46,28.45,14.4,2.59-.23,5.18-.4,7.9-.59l2.2-.15a95.59,95.59,0,0,0,18.71-9.55c9.3-6.13,15.48-12.59,20.92-18.33,4.44-4.69,7.87-8.88,10.25-11.95a93.7,93.7,0,0,0,20.24,49A90.24,90.24,0,0,0,89.16,630c4.68,1.54,42.17,13.2,74.16-9.61,22.67-16.17,29.18-40.1,31.48-49.07,8.11-31.65-2.89-57.67-6.52-65.41,5.74-6.07,12-11.91,15.77-19.72,3.65-7.52,6.33-15.42,6.32-23.77s-1.09-16.94-1.75-26.06c8.66-1.15,17.36-3.5,25.47-8.79a59.5,59.5,0,0,0,15.15,20.86c5.39,4.72,11.85,10.38,20.87,10.93,5.58.34,12.69-1.24,12.71-1.1a6.86,6.86,0,0,1-1.2.26c4.36-2.62,7.38-4.1,10-6.11a57.12,57.12,0,0,0,8.72-8,42.63,42.63,0,0,0,5.83-9.24c1.55-3.25,2.41-6.84,3.79-10.91,8.06,5.23,15.26,10.34,22.87,14.72.68.39,10.64,3.06,13.54,4.54a49.8,49.8,0,0,0,12,.27,39.08,39.08,0,0,0,35,29.05c21.23,1.31,34.61-16.84,35.58-18.19.05.39.11.79.17,1.19,3.73,26.61,21.64,74.74,53.84,48.17,5.47-4.52,11.36-16,17.7-18.65,7.92-3.34,8.56,1.87,12,10.71,7.91,20.33,16,39.68,25.49,59.52a29.63,29.63,0,0,1,1.82,5.12,33.34,33.34,0,0,0,2.17,2.91c5,5.77,9.65,11.95,15.31,17,14.37,12.77,31.35,18.36,50.55,16.87a90.07,90.07,0,0,0,43.44-15.34c31.79-21.14,49.82-51.32,55.79-88.9,3.44-21.61-1.49-41.44-14.88-58.87-3.35-4.36-7.18-8.34-10.77-12.5-1.13-1.31-2.93-2.17-2.91-4.86,2.41-.94,5.1-.44,7.69-.55,6.09-.25,12.09-.74,17.94-2.8,17.31-6.1,21-23,17.47-34.78a58.38,58.38,0,0,0-7.47-15.7c-.72-1.09-1-2.5-1.73-4.52,6.31-.06,11.76-.1,17.21-.17,13.44-.16,26.73-1.53,39.68-5.34,12.36-3.63,24-8.89,34-17.12,8.73-7.13,15.27-15.85,18.22-26.89,4.1-15.37,1.23-29.14-10.16-40.68a71,71,0,0,0-16-12.08,105.2,105.2,0,0,0-42.5-12.85c-12.21-1.09-24.31-.21-36.42,1.21-1.64.19-3.51,1.12-5.34-1.23,1.3-1.77,2.69-3.66,4.07-5.56A41.92,41.92,0,0,0,723,222.35c2.87-12.88-2-24.19-13.67-30a61.21,61.21,0,0,0-15.51-5.15c-14.81-2.92-29-.06-42.82,5.55-2.75,1.12-5.48,2.27-9,3.74,1-4.66,3.63-7.29,5.29-10.39,3.32-6.18,7.35-12.1,9.8-18.62,7-18.68-1.32-35.23-20.25-41.37-1.15-.38-2.33-.72-3.51-1a40.79,40.79,0,0,0-19.88.42c-4.63,1.22-9.25,2.51-14.8,4,.88-2.88,1.42-4.82,2.06-6.73,2.45-7.25,5.18-14.4,7.35-21.73a77.1,77.1,0,0,0,2.19-35.49c-2.74-15.77-11.94-25.85-27.3-29.93a48.82,48.82,0,0,0-23.51-.4,79.58,79.58,0,0,0-22.8,9.11,114.37,114.37,0,0,0-29.89,25.3A50.57,50.57,0,0,1,501.94,74c-2-5-3.34-9.35-5.36-13.42C490.12,47.51,479.51,41,465,41a48,48,0,0,0-19.48,4.27,96.08,96.08,0,0,0-28.63,19.35,116.45,116.45,0,0,0-17.06,21.48,40.45,40.45,0,0,1-3.6,4.18c-1-3.8-1.71-6.78-2.62-9.69-3.67-11.8-13.59-17.63-25.57-15A47.73,47.73,0,0,0,353,71.88a86.86,86.86,0,0,0-18.89,15.79,30.49,30.49,0,0,1-3.65,3c-1.21-6.5-2.15-12.22-3.36-17.89-2-9.1-5.39-17.61-11.45-24.77-8.69-10.28-19.55-14-32.72-10.55a46.9,46.9,0,0,0-17,8.63,69.08,69.08,0,0,0-15.35,16.86,91,91,0,0,0-10.71,22.26,43.74,43.74,0,0,1-2.51,5.12c-2.56-4.66-4.63-8.39-6.67-12.13-5.6-10.24-11.86-20-19.8-28.61a62.05,62.05,0,0,0-19.65-14.73c-20.08-9.26-43.34.51-47.46,25.52a38.88,38.88,0,0,0-.47,4.57,70.92,70.92,0,0,0,3,24.51c3.62,11.81,9.31,22.61,15.41,33.26.94,1.64,3.16,3.14,1.5,6-13.19-1.26-23.7,5.27-33.78,13.23-2.42-3.22-1.95-6.81-3-9.94-1.21-3.76-2.11-7.74-4-11.14-3.63-6.52-10.26-8.85-17.25-6.45-2.84,1-5.45,2.66-8.18,4-1,.48-2,.81-3.91,1.54.29-3.8.49-6.79.73-9.78.76-9.46,1.76-18.92,2.25-28.4.68-13-.59-25.73-5.39-37.95C85.48,30.38,76.14,21.31,62.57,16.86a75.94,75.94,0,0,0-11.51-2.77,82.06,82.06,0,0,0-34.35,2.26A106.8,106.8,0,0,0-25.87,38.52c-11.47,9.87-19.21,22.06-21.26,37.42-1.36,10.26.49,20.14,3.85,29.81.88,2.51,1.68,5,3,9-3.57-2.19-5.87-3.58-8.15-5-7.84-4.86-16.08-8.75-25.28-10.08a29.6,29.6,0,0,0-33.35,22.09c-2.37,8.87-1.45,17.64,1.2,26.28,2.81,9.17,7.46,17.42,12.91,25.24,1.11,1.6,2,3.39,3.61,6.24-23.77-5.46-45.24-3.16-65.34,10.39a58.08,58.08,0,0,1-.45-6.9c.3-4.58.92-9.14,1.27-13.72.82-10.61-1.2-20.77-5.1-30.57a40.28,40.28,0,0,0-10.23-15.06c-9.77-9-23.26-10.76-34.67-4.14a63.28,63.28,0,0,0-11.36,9.1c-2.63,2.5-4.62,5.67-6.93,8.51-.91,1.12-1.5,2.78-3.85,2.39-1-4.25-2.11-8.65-3.18-13a134.39,134.39,0,0,0-17.51-41.23,69.2,69.2,0,0,0-13.67-16c-15.25-12.74-32.44-11.22-44.79,4.44a73.5,73.5,0,0,0-9.25,15.74,97.29,97.29,0,0,0-8.06,43c.07,2.32.6,4.7-.31,7.84l-5-3.39c-5.56-3.75-10.87-7.94-16.75-11.09a56.69,56.69,0,0,0-15.36-5.57c-12.37-2.5-22.27,2.7-27.81,14.09a43.45,43.45,0,0,0-3.2,9.53,46.44,46.44,0,0,0,.48,21,101.45,101.45,0,0,0,10.18,25.51c.6,1.09,2.15,2.42-.16,4.05-5.75-3-11.67-6.08-17.58-9.2a185.15,185.15,0,0,0-37.21-15,85.72,85.72,0,0,0-34.36-2.32,47,47,0,0,0-18.85,6.47c-12,7.44-17.24,20.14-14,34a57.39,57.39,0,0,0,6.54,16.11,101,101,0,0,0,20.33,24.68c1.25,1.11,3.35,1.76,3,4.56a102.81,102.81,0,0,0-9.7,4c-8.65,4.59-11.71,12.09-9.29,21.55a39.14,39.14,0,0,0,8.19,15.23c1.48,1.79,2.89,3.62,4.29,5.37-2.09,2.34-4.35,1.76-6.34,1.93a199.39,199.39,0,0,0-36.77,6.67c-18.55,5.14-36.32,12.19-52.9,22.12-9,5.36-17.1,11.73-23.45,20.16C-608.65,364.1-612.38,379.08-609.26,395.73Zm252.86,72.1c-.23,4.59-.63,9.17-1.14,13.73a41.18,41.18,0,0,1-1.6,5.89,47.74,47.74,0,0,1-3.73-3.48,228.77,228.77,0,0,1-33.73-53.3c-.73-1.6-1.54-3.61-1.21-5.19,1.55-7.34.76-14.65.31-22a5.16,5.16,0,0,1,.35-1.53c7,.1,14,1,20.78,0,6.48-.88,12.71-3.65,19.58-5.74,3.55,4.32,5.91,9.6,8.56,15.11a47.2,47.2,0,0,0-3.84,5.91c-1.72,3.7.12,7.51,3.95,8.82a12.48,12.48,0,0,0,14-4c3-3.95,2.52-8.84-1.94-10.76-3.78-1.63-5.64-4.29-7.31-7.64-2-4.07-4.29-8-6.21-11.59l13.77-19.53a19.22,19.22,0,0,1,3.08,2.21c9,9.13,19.15,16.08,31.93,18.45a8,8,0,0,1,5.68,4.18c2.32,3.95,4.8,7.83,6.83,11.93a178.82,178.82,0,0,1,11.84,31.78c.71,2.56.84,5.28,1.4,9a46,46,0,0,1-4.85-2.41c-4.27-2.93-8.52-5.91-12.7-9a9.75,9.75,0,0,0-10.25-1.29c-15.78,6.4-31.59,12.69-46.83,20.35C-354,460-356.17,463.07-356.4,467.83Zm-228.33-117.2a95.74,95.74,0,0,1,17.66-12.89c16.39-9.6,34.08-16.13,52.47-20.72,18.11-4.52,36.57-6.07,55.16-6.67,1.8-.06,3.84.17,5.31-.61a7.42,7.42,0,0,0,3.15-4.09c.58-1.89-.76-3.61-2.47-4.48a51.91,51.91,0,0,0-5.15-1.74c-8.52-3.21-15.6-8.35-20.37-16.26-6.12-10.14-3.7-16.12,7.68-18.76,4.43-1,9-1.26,13.56-1.84,2.71-.34,5.46-.48,8.14-1,2.92-.58,4.56-2.57,4.56-4.94a5.12,5.12,0,0,0-3.5-4.89c-1.67-.71-3.54-1-5.19-1.73-3.59-1.63-7.43-3-10.59-5.26a78.08,78.08,0,0,1-26.2-32.42c-.12-.28-.21-.57-.32-.86-5.89-15.48,0-27.37,15.8-32,9.88-2.89,19.83-2.8,29.83-1,12.38,2.22,24.05,6.61,35.29,12.18,8.46,4.2,16.76,8.73,25.16,13.05,3.8,2,7.49,4.35,11.52,5.54,6.17,1.82,10.46,5.68,14.5,10.42,10.87,12.72,24.28,22.25,38.77,30.3a24.88,24.88,0,0,0,7.66,2.6,4.83,4.83,0,0,0,5.36-3.93c.4-2-.68-4-2.91-5.22-4.27-2.33-8.66-4.45-12.83-7-21.75-13.09-37.76-31.69-50-53.75-5.25-9.46-8.84-19.5-8.87-30.57a27.46,27.46,0,0,1,3.84-14.92c3.37-5.42,8.11-8,14.63-7.16a41.05,41.05,0,0,1,13.78,4.59,90.75,90.75,0,0,1,19.95,14.48c3.78,3.56,7.4,7.3,11.15,10.89a21.81,21.81,0,0,0,4.26,3.43,4.73,4.73,0,0,0,7-4.4,26.36,26.36,0,0,0-1.51-6.2c-7.86-23.28-3.94-45.32,6.9-66.58a31.82,31.82,0,0,1,9.34-11.16c6.55-4.88,13.44-5.32,20.52-1.33,5.69,3.22,10,8,13.78,13.24a111.41,111.41,0,0,1,17.28,36.3c2.42,8.85,4,17.93,6,26.91.71,3.29,1.33,6.61,2.18,9.87a4.49,4.49,0,0,0,3.86,3.44,4.86,4.86,0,0,0,5.37-2.59c1-1.88,1.76-3.89,2.6-5.86a64.87,64.87,0,0,1,11.88-18.41,45.33,45.33,0,0,1,8.23-7.19c9.25-6.13,18.83-4.74,26.23,3.57,5,5.65,7.7,12.48,9.07,19.81a72,72,0,0,1,.85,22c-.81,6.69-1.79,13.37-2.37,20.08a105.16,105.16,0,0,0-.24,13.75,5.2,5.2,0,0,0,4.24,5.26c2.3.41,4.27-.68,5.39-3.77,2.83-7.76,8.87-12.42,15.64-16,17.11-9,35-10,53-3,7.64,3,14.87,7,22.28,10.56,2.48,1.19,4.9,2.49,7.44,3.49A4.7,4.7,0,0,0-52.89,203c1.08-1.93.82-3.86-1.11-5.8-1.72-1.73-3.66-3.23-5.49-4.86-5.69-5.08-11.66-9.9-17-15.32a78.63,78.63,0,0,1-20.85-36.16,32.9,32.9,0,0,1-.15-15.47c2-9,8.08-14.38,17-15.4a27.57,27.57,0,0,1,12.57,1.58,69.08,69.08,0,0,1,21.36,12.15c3.51,2.93,6.85,6.08,10.2,9.21,3.79,3.55,7.44,7.25,11.27,10.76,4.25,3.9,7,4.47,9.52,2.21,2.23-2,2.12-4.65-.49-9.15-1.08-1.85-2.4-3.57-3.38-5.46-4.36-8.42-8.95-16.74-12.84-25.38a55.84,55.84,0,0,1-5.06-24.1A42.13,42.13,0,0,1-28.91,57a60,60,0,0,1,9.17-10.17C-1.09,31,20.28,22.7,44.88,23.72a43.27,43.27,0,0,1,5.44.58C70.13,27.59,81,38.51,84.38,58.52c2.29,13.73,1.81,27.51.43,41.27-.8,7.92-1.92,15.81-2.85,23.72-.85,7.31-1.9,14.51-5,21.34a26.65,26.65,0,0,0-2.1,15.29c.51,3.28,2.55,5.42,5.17,5.6a5.84,5.84,0,0,0,6-4.7,110.34,110.34,0,0,0,2.67-13.5c1.39-10.9,8.65-17.22,17.14-22.39,4.37-2.66,7.66-1.2,9.26,3.61a65.33,65.33,0,0,1,2.46,10.72c.73,4.85,1,9.75,1.61,14.63a32.85,32.85,0,0,0,.94,5.42c.62,2.11,1.78,3.92,4.24,4.3s4.49-.71,5.62-3.68c3.52-9.24,10.49-14.87,19-18.77,9.92-4.52,16.48-3.1,23.71,5,3.24,3.65,6.08,7.66,9.17,11.45a51.71,51.71,0,0,0,4.87,5.46,5.26,5.26,0,0,0,6.71.59,5.07,5.07,0,0,0,1.67-6.53,108.7,108.7,0,0,0-5.48-9.53c-6.64-10.64-13.47-21.16-20-31.89A132.09,132.09,0,0,1,157,89.49c-2.94-8.78-5-17.73-3.17-27.09.23-1.2.32-2.44.63-3.62,3.38-12.68,14.72-19.44,27.45-16.38,5.75,1.38,10.68,4.39,15.2,8.12a74,74,0,0,1,16.14,18.65c5.56,9.14,10.62,18.59,15.92,27.89a75.71,75.71,0,0,0,5.13,8.67c3.81,5,9,4.09,11.06-1.85A86.28,86.28,0,0,0,247.67,95c2-8.74,5.15-17.07,10.18-24.45a114.2,114.2,0,0,1,11.61-14.09,34.27,34.27,0,0,1,13.9-8.55c10.09-3.5,18.6-1,25.18,7.51,5.77,7.47,8.46,16.27,9.75,25.46,1,7,1.28,14,1.88,21.06.18,2.14.18,4.31.57,6.4a5.44,5.44,0,0,0,4.09,4.5,5,5,0,0,0,5.56-2.21c1.25-1.72,2.21-3.66,3.34-5.47a73.32,73.32,0,0,1,25.94-25.32c3.73-2.12,7.58-3.87,11.95-4.22,7-.55,11,2.14,12.65,9a64.36,64.36,0,0,1,1.11,9.12c.71,7.63,1.3,15.27,2.05,22.89a11.33,11.33,0,0,0,1.31,4.3,4.08,4.08,0,0,0,4.56,2.29,8.56,8.56,0,0,0,3.48-2.64,6,6,0,0,0,.84-2.57q10.69-42,49-61.86c6.78-3.5,14-5.86,22-4.81,8.93,1.18,15.29,5.76,19,13.92,1.76,3.89,2.89,8.06,4.38,12.08a38.22,38.22,0,0,0,2.83,6.74c2.61,4.27,7.15,5.17,10.92,2a50.66,50.66,0,0,0,6.75-7.41,102.46,102.46,0,0,1,34.37-28.24,52.83,52.83,0,0,1,27.33-6c12,.73,23.25,7.4,25.71,21.82A73.9,73.9,0,0,1,601,78.18a80.19,80.19,0,0,1-5.09,27.89c-3,8.35-6.36,16.57-9.55,24.85-1,2.57-2,5.13-2.94,7.73s-.61,4.84,1.59,6.63,4.55,1.54,6.8.17c6-3.66,12.21-6.94,19.06-8.62a105.48,105.48,0,0,1,13.45-2.27,23.49,23.49,0,0,1,12.4,2.43c10.55,4.76,14.83,13.66,11.42,24.79a65.47,65.47,0,0,1-5.69,12.47c-3,5.33-6.46,10.39-9.65,15.61s-6.56,10.3-8.12,16.37c-.43,1.68-1.93,3.05-2.71,4.68a12.24,12.24,0,0,0-1.32,4.27,3.92,3.92,0,0,0,2.7,4.32,9.06,9.06,0,0,0,4.34-.24c.78-.19,1.38-1.12,2.07-1.71a85,85,0,0,1,45-20.66c10.11-1.39,20.09-.49,29.39,4.17,7.4,3.71,10.22,9.08,9,17.29a29.73,29.73,0,0,1-2.85,8.62,41.3,41.3,0,0,1-5.18,7.53c-2.52,3.06-5.29,5.92-8,8.81-1.88,2-3.82,3.95-5.76,5.9-2.47,2.47-4.64,5.09-2.85,8.87,1.24,2.59,4.3,3.32,9,1.73,9.59-3.26,19.49-4.82,29.5-5.75,12.76-1.2,25.52-1.15,38.15,1.59a91,91,0,0,1,27.13,10.56,55.51,55.51,0,0,1,14.11,11.56,28.28,28.28,0,0,1,6.65,24,40.5,40.5,0,0,1-11.58,22.45,66.86,66.86,0,0,1-19.51,13.36,112.21,112.21,0,0,1-34.12,9.6c-14.87,1.88-29.78,1-44.68.77a61.55,61.55,0,0,0-6.37,0,5.44,5.44,0,0,0-4.87,3.6,5,5,0,0,0,1.69,5.77c1.83,1.61,3.91,2.93,5.74,4.54,7.13,6.24,12.08,13.81,13.12,23.46,1.07,9.9-3.43,16.64-13,19.12-4.37,1.13-9,1.37-13.51,1.73a52.45,52.45,0,0,1-7.29-.32c-11.64-.64-23.06-2-32.5-10-15.87-7.77-31.7-15.64-47.64-23.25-9.07-4.33-18.31-8.31-27.54-12.28a23.59,23.59,0,0,0-7-1.76,3.93,3.93,0,0,0-4.1,3,4.33,4.33,0,0,0,1.36,5,17.17,17.17,0,0,0,3.94,2.24c6.64,3.05,13.34,6,20,9.09,16.83,7.88,33.68,15.71,50.4,23.84,4.88,2.37,9.93,4.7,13.7,8.95a9.83,9.83,0,0,0,3,1.95c12.91,6.29,22.86,16.12,31.56,27.3,11.44,14.69,16.62,31.39,13.82,50C692,527.34,674,556.94,641.05,576.47a80.44,80.44,0,0,1-27.29,10c-18.53,3.29-35-1.07-49.4-13.24-8.76-7.4-16.1-16.28-20.54-26.71-3.35-7.89-8.53-14.69-11.41-22.75-3-8.36-6.62-16.48-9.77-24.78q-4.56-12-8.67-24.22c-2.73-8.13-5.21-16.34-7.78-24.52-.82-2.64-1.51-5.31-2.4-7.92-1.34-3.9-3.73-5.59-6.58-4.84s-4.26,3.35-3.43,7.5c1.12,5.52.81,11,.42,16.49A69.23,69.23,0,0,1,489,483.7a42.42,42.42,0,0,1-12.24,16.91c-7.09,5.73-14.18,5.41-20.17-1.5a66.7,66.7,0,0,1-8.37-13.05c-5.41-10.4-8.18-21.77-11-33.07-3-12.18-5.66-24.45-8.67-36.64a24.79,24.79,0,0,0-3.34-7.44,5.76,5.76,0,0,0-7.24-2.24,5.64,5.64,0,0,0-3,7.63c4.41,9.84,3.46,19.8,1,29.72a45.11,45.11,0,0,1-4.6,11c-4.56,8.14-11.8,11.06-20.84,9.87-8.6-1.12-15.4-5.26-21.29-13.3,3.8-7.69,7.16-15.22,11.15-22.39a33.05,33.05,0,0,0,4-21.23,40.94,40.94,0,0,0-10-22.3,33.92,33.92,0,0,0-7.06-5.71c-2.26-1.46-4.79-.77-6.59,1.2a5.57,5.57,0,0,0-.45,7.52,26.55,26.55,0,0,0,3.23,3.22c5.52,5,8,11.51,9,18.63A18.35,18.35,0,0,1,358.2,431a27.27,27.27,0,0,1-20.29-3.11A152.87,152.87,0,0,1,322,417.18c-4.62-3.48-8.83-7.51-13.25-11.27a39.34,39.34,0,0,0-5-4,5.75,5.75,0,0,0-6.85.2,5.94,5.94,0,0,0-2.31,6.49,33.43,33.43,0,0,0,1.38,3.36c5.55,16.06-6.07,29.44-16.81,33.24a16.59,16.59,0,0,1-9.89.09,29.72,29.72,0,0,1-19-14.69c-3-5.31-5.27-11-7.83-16.58-.88-1.89-1.66-3.83-2.8-6.48A45.43,45.43,0,0,0,235,411a34.79,34.79,0,0,1-15.77,8.83c-9.38,2.46-18.8,4.71-28.5,7.11-1.11,1.71.61,3.11,1.34,4.54,7.33,14.41,8.32,29.3,3.39,44.59a27.32,27.32,0,0,1-4.41,8.95c-8.62,10.42-18.1,19.91-30.92,25.1-2.81,1.14-5.74,2-8.61,2.95-1.64.56-3.28,1.14-4.79,1.67.4,3.16,2.37,3.46,4.1,3.25,5.72-.7,11.43-1.55,17.1-2.59,2.93-.53,5.76-1.6,8.92-2.51,4.3,6.07,5.74,13,7.17,19.82a82.51,82.51,0,0,1-2.32,43.57C175.14,596,162.25,610,143,617.67c-9.63,3.85-19.82,3.73-29.7,1.53C89.75,614,73,599.8,63.06,577.71a142.81,142.81,0,0,1-9.63-32.53,20.68,20.68,0,0,0-3.08-7.49,4.86,4.86,0,0,0-8.38.2,35.25,35.25,0,0,0-2.3,5C31.21,562.18,17,576-1.25,585.73a43.77,43.77,0,0,1-12,4.09c-12.25,2.46-19.52-2.7-23.77-10.85-6-11.42-8.18-23.68-7.54-36.47.39-7.74,1.92-15.08,6.71-21.58,2.12-2.87,3.2-6.57,4.48-10,.48-1.3.17-2.91.29-6.07-2.21,2.88-3.67,4.32-4.57,6-7.49,14.22-20,22.75-33.46,30.22A32.41,32.41,0,0,1-78.81,544c-12.8,3.32-20.73-1.59-24.53-15.4,1.64-1.81,3.42-3.85,5.28-5.81a160.18,160.18,0,0,0,20.18-26,94.07,94.07,0,0,0,13.11-37.89,44.91,44.91,0,0,0,.16-7.34,10.77,10.77,0,0,0-.91-3.52,4.73,4.73,0,0,0-5.26-2.67A4.19,4.19,0,0,0-74.3,449c-.3,2.11-.27,4.27-.44,6.41a75.68,75.68,0,0,1-10.17,33.09c-15.1,25.32-35.42,45-62.38,57.28a86.61,86.61,0,0,1-57.94,5.38,90.47,90.47,0,0,1-17.1-6.23c-18.7-8.9-28.08-24.62-31.06-44.68-.72-4.84-.87-9.77-1.28-14.66a13.4,13.4,0,0,0-3.62-8.24c-3.12-3.35-6.8-3.24-9,.55-1.09,1.83-1.79,3.89-2.7,5.83a99.54,99.54,0,0,1-17,26c-8.62,9.34-18.49,16.89-30.77,20.63a44.9,44.9,0,0,1-10.72,1.89c-8.23.41-12.5-2.88-14.22-11.08-.75-3.55-.65-7.3-.72-11-.07-3.06.36-6.13.23-9.18-.17-4.32-1-5.07-6-6.44-.56-.15-1.09-.43-2.16-.85l3.12-27.41a63.72,63.72,0,0,1,6.07-3.45c12.8-5.65,25.66-11.17,38.47-16.81,3.7-1.64,6.84-1.4,10.14,1.21a160,160,0,0,0,13.49,9.46,25.21,25.21,0,0,0,7.43,3.24,5,5,0,0,0,6.28-4.89,31.37,31.37,0,0,0-.78-7.27,173,173,0,0,0-17.52-48.17c-1-1.83-1.77-3.77-2.7-5.79,3.54-1.31,6.72-2.31,9.73-3.69a14.6,14.6,0,0,0,4.28-3.28c1.41-1.49,1.24-4.34-.09-6a4.48,4.48,0,0,0-4.92-1.5,15.21,15.21,0,0,0-2.52,1c-11.27,5.17-22.11,3.48-32.17-2.93-5.09-3.23-9.44-7.67-14-11.69-3-2.61-5.6-5.66-8.7-8.1s-6.7-1.4-8.3,2.2a34.67,34.67,0,0,0-1.76,6.15c-2.12,8.89-7.4,15.19-15.18,19.72-11.43,6.66-23.27,8.42-36,4.31a9.12,9.12,0,0,1-6-5A115.49,115.49,0,0,0-410,373.29a28.34,28.34,0,0,0-4.76-5.54,13.91,13.91,0,0,0-4.7-2.65c-2.51-.89-5.37.35-6.17,2.48s-.57,4.41,1.44,5.76c5.05,3.37,8,8.38,10.62,13.58a57.62,57.62,0,0,1,6.22,32c-.91,9.2-4.27,17.18-11.24,23.41a43,43,0,0,0-4,3.77,4.6,4.6,0,0,0,.05,5.91c1.42,1.72,4,2.69,5.7,1.46a82.72,82.72,0,0,0,9-7.65c2.13-2.06,3.87-4.51,6.13-7.19,1.82,3.28,3.3,5.92,4.75,8.57a242.27,242.27,0,0,0,28.86,42.41c3.42,3.95,6.84,7.9,13.05,8.89a30.69,30.69,0,0,1-2.58,4.72,57.9,57.9,0,0,1-20.74,16.18,32.17,32.17,0,0,1-6,2.22c-8.28,2-12.89-1.11-14.16-9.63a23,23,0,0,1,.22-7.3c1.24-7,3.25-13.68,7-19.77a26.61,26.61,0,0,0,2.45-4.89,4.74,4.74,0,0,0-2.11-5.55,4.47,4.47,0,0,0-5.16.31,18.81,18.81,0,0,0-4.28,4.71c-3.09,5.1-7.46,8.9-12.09,12.37-16.2,12.1-33.94,20.26-54.5,21a50.58,50.58,0,0,1-17.93-2.8c-15.71-5.22-22.52-21.57-15.61-36.33a59.5,59.5,0,0,1,13.27-18.51c5.13-4.8,10.43-9.4,15.58-14.17a22.87,22.87,0,0,0,4.15-4.81c1.81-3.05-1-7.45-4.52-7a19.1,19.1,0,0,0-6,2,113.14,113.14,0,0,1-27.5,9.66c-21.5,4.6-42.35,2.89-62.06-7.69A67.94,67.94,0,0,1-588.66,416C-605.47,395.09-604.09,369-584.73,350.63Z"/><path class="cls-4" d="M806.36,277.77a55.51,55.51,0,0,0-14.11-11.56,90.74,90.74,0,0,0-27.13-10.55c-12.63-2.75-25.39-2.8-38.15-1.6-10,.93-19.91,2.49-29.5,5.75-4.69,1.59-7.75.86-9-1.73-1.79-3.78.38-6.4,2.85-8.87,1.94-2,3.88-3.89,5.76-5.9,2.71-2.89,5.48-5.75,8-8.81a41.3,41.3,0,0,0,5.18-7.53,29.73,29.73,0,0,0,2.85-8.62c1.24-8.21-1.58-13.58-9-17.29-9.3-4.66-19.28-5.56-29.39-4.17a85,85,0,0,0-45,20.66c-.69.59-1.29,1.52-2.07,1.71a9.06,9.06,0,0,1-4.34.24,3.92,3.92,0,0,1-2.7-4.32,12.24,12.24,0,0,1,1.32-4.27c.78-1.63,2.28-3,2.71-4.68,1.56-6.07,4.93-11.17,8.12-16.37s6.66-10.28,9.65-15.61a65.47,65.47,0,0,0,5.69-12.47c3.41-11.13-.87-20-11.42-24.79a23.49,23.49,0,0,0-12.4-2.43,105.48,105.48,0,0,0-13.45,2.27c-6.85,1.68-13,5-19.06,8.62-2.25,1.37-4.59,1.62-6.8-.17s-2.49-4.11-1.59-6.63,1.95-5.16,2.94-7.73c3.19-8.28,6.54-16.5,9.55-24.85A80.19,80.19,0,0,0,601,78.18a73.9,73.9,0,0,0-1.19-11.85c-2.46-14.42-13.76-21.09-25.71-21.82a52.83,52.83,0,0,0-27.33,6,102.46,102.46,0,0,0-34.37,28.24,50.66,50.66,0,0,1-6.75,7.41c-3.77,3.16-8.31,2.26-10.92-2a37.91,37.91,0,0,1-2.83-6.74c-1.49-4-2.62-8.19-4.38-12.08-3.7-8.16-10.06-12.74-19-13.92-8-1-15.18,1.31-22,4.81q-38.23,19.76-49,61.86a6,6,0,0,1-.84,2.57,8.56,8.56,0,0,1-3.48,2.64,4.08,4.08,0,0,1-4.56-2.29,11.33,11.33,0,0,1-1.31-4.3c-.75-7.62-1.34-15.26-2.05-22.89a64.36,64.36,0,0,0-1.11-9.12c-1.65-6.91-5.67-9.6-12.65-9-4.37.35-8.22,2.1-11.95,4.22a73.32,73.32,0,0,0-25.94,25.32c-1.13,1.81-2.09,3.75-3.34,5.47a5,5,0,0,1-5.56,2.21,5.44,5.44,0,0,1-4.09-4.5c-.39-2.09-.39-4.26-.57-6.4-.6-7-.91-14.09-1.88-21.06-1.29-9.19-4-18-9.75-25.46-6.58-8.52-15.09-11-25.18-7.51a34.27,34.27,0,0,0-13.9,8.55,114.85,114.85,0,0,0-11.61,14.08A71.8,71.8,0,0,0,247.67,95a85.8,85.8,0,0,1-2.29,8.89c-2.11,5.94-7.25,6.84-11.06,1.85a75.71,75.71,0,0,1-5.13-8.67c-5.3-9.3-10.36-18.75-15.92-27.89a74,74,0,0,0-16.14-18.65c-4.52-3.73-9.45-6.74-15.2-8.12-12.73-3.06-24.07,3.7-27.45,16.38-.31,1.18-.4,2.42-.64,3.62-1.8,9.36.24,18.31,3.18,27.09A132.09,132.09,0,0,0,169.64,116c6.51,10.73,13.34,21.25,20,31.89a108.7,108.7,0,0,1,5.48,9.53,5.07,5.07,0,0,1-1.67,6.53,5.26,5.26,0,0,1-6.71-.59,51.71,51.71,0,0,1-4.87-5.46c-3.09-3.79-5.93-7.8-9.17-11.45-7.23-8.14-13.79-9.56-23.7-5-8.55,3.9-15.52,9.53-19,18.77-1.13,3-3.3,4-5.62,3.68s-3.62-2.19-4.24-4.3a32.85,32.85,0,0,1-.94-5.42c-.56-4.87-.88-9.78-1.61-14.63a65.33,65.33,0,0,0-2.46-10.72c-1.6-4.81-4.89-6.27-9.26-3.61-8.49,5.17-15.75,11.49-17.14,22.39A110.88,110.88,0,0,1,86,161.05a5.84,5.84,0,0,1-6,4.69c-2.62-.18-4.66-2.32-5.17-5.59a26.67,26.67,0,0,1,2.1-15.3c3.11-6.83,4.16-14,5-21.34.93-7.91,2.05-15.8,2.85-23.72,1.38-13.76,1.86-27.54-.43-41.27C81,38.51,70.13,27.59,50.32,24.3a43.27,43.27,0,0,0-5.44-.58c-24.6-1-46,7.31-64.62,23.06A60,60,0,0,0-28.91,57a42.15,42.15,0,0,0-8.4,24.81,55.84,55.84,0,0,0,5.06,24.1c3.89,8.64,8.48,17,12.84,25.38,1,1.89,2.3,3.61,3.38,5.46,2.61,4.5,2.72,7.11.49,9.15-2.47,2.25-5.27,1.69-9.52-2.21-3.83-3.51-7.48-7.21-11.27-10.76-3.35-3.13-6.69-6.28-10.2-9.22a69.26,69.26,0,0,0-21.36-12.14,27.57,27.57,0,0,0-12.57-1.58c-9,1-15.06,6.44-17,15.4a32.9,32.9,0,0,0,.15,15.47A78.63,78.63,0,0,0-76.5,177c5.35,5.42,11.32,10.24,17,15.32,1.83,1.63,3.77,3.13,5.49,4.86,1.93,1.94,2.19,3.87,1.11,5.8a4.7,4.7,0,0,1-6.18,2.32c-2.54-1-5-2.3-7.44-3.49-7.41-3.55-14.64-7.6-22.28-10.56-18-7-35.85-6-53,3-6.77,3.54-12.81,8.2-15.64,16-1.12,3.09-3.09,4.18-5.39,3.77a5.2,5.2,0,0,1-4.24-5.26,105.16,105.16,0,0,1,.24-13.75c.58-6.71,1.56-13.39,2.37-20.08a72,72,0,0,0-.85-22c-1.37-7.33-4.05-14.16-9.07-19.81-7.4-8.31-17-9.7-26.22-3.57a45.05,45.05,0,0,0-8.24,7.19,64.87,64.87,0,0,0-11.88,18.41c-.84,2-1.6,4-2.6,5.86a4.86,4.86,0,0,1-5.37,2.59,4.49,4.49,0,0,1-3.86-3.44c-.85-3.26-1.47-6.58-2.18-9.87-2-9-3.54-18.06-6-26.91A111.41,111.41,0,0,0-257.92,87c-3.79-5.24-8.09-10-13.78-13.24-7.08-4-14-3.55-20.52,1.33a31.73,31.73,0,0,0-9.34,11.16c-10.84,21.26-14.76,43.3-6.9,66.58a26.36,26.36,0,0,1,1.51,6.2,4.73,4.73,0,0,1-7,4.4,21.81,21.81,0,0,1-4.26-3.43c-3.75-3.59-7.37-7.33-11.15-10.89a90.75,90.75,0,0,0-19.95-14.48A41.05,41.05,0,0,0-363.09,130c-6.52-.86-11.26,1.74-14.63,7.16a27.46,27.46,0,0,0-3.84,14.92c0,11.07,3.62,21.11,8.87,30.57,12.25,22.06,28.26,40.66,50,53.75,4.17,2.51,8.56,4.63,12.83,7,2.23,1.22,3.31,3.25,2.91,5.22a4.83,4.83,0,0,1-5.36,3.93,25,25,0,0,1-7.67-2.6c-14.48-8.05-27.89-17.58-38.76-30.3-4-4.74-8.33-8.6-14.5-10.42-4-1.19-7.72-3.58-11.52-5.54-8.4-4.32-16.7-8.85-25.16-13.05-11.24-5.57-22.91-10-35.29-12.18-10-1.8-19.95-1.89-29.83,1-15.78,4.63-21.69,16.52-15.8,32,.11.29.2.58.32.86a78.08,78.08,0,0,0,26.2,32.42c3.16,2.28,7,3.63,10.59,5.26,1.65.75,3.52,1,5.19,1.73a5.11,5.11,0,0,1,3.5,4.89c0,2.37-1.64,4.36-4.56,4.94-2.68.54-5.43.68-8.14,1-4.53.58-9.13.82-13.56,1.84-11.38,2.64-13.8,8.62-7.68,18.76,4.77,7.91,11.85,13.05,20.37,16.26a51.91,51.91,0,0,1,5.15,1.74c1.71.87,3.05,2.59,2.47,4.48a7.42,7.42,0,0,1-3.15,4.09c-1.47.78-3.51.55-5.31.61-18.59.6-37.05,2.15-55.16,6.67-18.39,4.59-36.07,11.12-52.47,20.72a95.74,95.74,0,0,0-17.66,12.89c-19.36,18.41-20.74,44.46-3.93,65.33a67.77,67.77,0,0,0,21.08,17.35c19.71,10.59,40.56,12.3,62.06,7.7a113.14,113.14,0,0,0,27.5-9.66,19.1,19.1,0,0,1,6-2c3.51-.45,6.33,3.95,4.52,7a22.87,22.87,0,0,1-4.15,4.81c-5.15,4.77-10.45,9.37-15.58,14.16a59.66,59.66,0,0,0-13.27,18.52c-6.91,14.76-.1,31.11,15.61,36.33a50.58,50.58,0,0,0,17.93,2.8c20.56-.77,38.3-8.93,54.5-21,4.63-3.47,9-7.27,12.09-12.37a18.81,18.81,0,0,1,4.28-4.71,4.47,4.47,0,0,1,5.16-.31,4.74,4.74,0,0,1,2.11,5.55,26.61,26.61,0,0,1-2.45,4.89c-3.74,6.09-5.75,12.81-7,19.77a23,23,0,0,0-.22,7.3c1.27,8.52,5.88,11.61,14.16,9.63a32.17,32.17,0,0,0,6-2.22,57.9,57.9,0,0,0,20.74-16.18,30.69,30.69,0,0,0,2.58-4.72c-6.21-1-9.63-4.94-13.05-8.89A242.27,242.27,0,0,1-397,447.23c-1.45-2.65-2.93-5.29-4.75-8.57-2.26,2.68-4,5.13-6.13,7.19a82.72,82.72,0,0,1-9,7.65c-1.71,1.23-4.28.26-5.7-1.46a4.6,4.6,0,0,1-.05-5.91,43,43,0,0,1,4-3.77c7-6.23,10.33-14.21,11.24-23.41a57.67,57.67,0,0,0-6.22-32c-2.61-5.19-5.57-10.2-10.62-13.57-2-1.35-2.27-3.56-1.44-5.76s3.66-3.37,6.17-2.48a13.91,13.91,0,0,1,4.7,2.65,28,28,0,0,1,4.75,5.54,113.78,113.78,0,0,1,6.92,11.88,9.12,9.12,0,0,0,6,5c12.7,4.11,24.54,2.35,36-4.31,7.78-4.53,13.06-10.83,15.18-19.72a34.67,34.67,0,0,1,1.76-6.15c1.6-3.6,5.2-4.65,8.3-2.2s5.72,5.49,8.7,8.1c4.58,4,8.93,8.46,14,11.69,10.06,6.41,20.9,8.1,32.17,2.93a16.12,16.12,0,0,1,2.52-1,4.48,4.48,0,0,1,4.92,1.5c1.33,1.62,1.5,4.47.09,6a14.6,14.6,0,0,1-4.28,3.28c-3,1.38-6.19,2.38-9.73,3.69.93,2,1.71,4,2.7,5.79a173,173,0,0,1,17.52,48.17,31.37,31.37,0,0,1,.78,7.27,5,5,0,0,1-6.28,4.89,25.21,25.21,0,0,1-7.43-3.24,160,160,0,0,1-13.49-9.46c-3.3-2.61-6.44-2.85-10.14-1.21-12.81,5.64-25.67,11.16-38.47,16.81a63.72,63.72,0,0,0-6.07,3.45l-3.12,27.41c1.07.43,1.6.7,2.16.85,5,1.37,5.87,2.12,6,6.44.13,3.05-.3,6.12-.23,9.18.07,3.66,0,7.41.72,11,1.72,8.2,6,11.49,14.22,11.08a44.9,44.9,0,0,0,10.72-1.89c12.28-3.74,22.15-11.29,30.77-20.63a99.54,99.54,0,0,0,17-26c.91-1.94,1.61-4,2.7-5.83,2.23-3.79,5.91-3.9,9-.55a13.4,13.4,0,0,1,3.62,8.24c.41,4.89.56,9.82,1.28,14.66,3,20.06,12.36,35.78,31.06,44.68a90.47,90.47,0,0,0,17.1,6.23,86.61,86.61,0,0,0,57.94-5.38c27-12.27,47.28-32,62.38-57.28a75.68,75.68,0,0,0,10.17-33.09c.17-2.14.14-4.3.44-6.41a4.19,4.19,0,0,1,3.52-3.71A4.73,4.73,0,0,1-65.52,448a10.77,10.77,0,0,1,.91,3.52,44.91,44.91,0,0,1-.16,7.34,94.07,94.07,0,0,1-13.11,37.89,160.18,160.18,0,0,1-20.18,26c-1.86,2-3.64,4-5.28,5.81,3.8,13.81,11.73,18.72,24.53,15.4a32.24,32.24,0,0,0,7.65-2.89c13.44-7.47,26-16,33.46-30.22.9-1.72,2.36-3.16,4.57-6-.12,3.16.19,4.77-.29,6.07-1.28,3.43-2.36,7.13-4.48,10-4.79,6.5-6.32,13.84-6.71,21.58-.64,12.79,1.57,25,7.54,36.47,4.25,8.15,11.52,13.31,23.77,10.85a43.77,43.77,0,0,0,12.05-4.09C17,576,31.21,562.18,39.67,542.87a35.25,35.25,0,0,1,2.3-5,4.86,4.86,0,0,1,8.38-.2,20.68,20.68,0,0,1,3.08,7.49,142.81,142.81,0,0,0,9.63,32.53C73,599.8,89.75,614,113.31,619.2c9.88,2.2,20.07,2.32,29.7-1.53,19.24-7.69,32.13-21.63,38.71-41.41A82.52,82.52,0,0,0,184,532.69c-1.43-6.79-2.87-13.75-7.17-19.82-3.16.91-6,2-8.92,2.51-5.67,1-11.38,1.89-17.1,2.59-1.73.21-3.7-.09-4.1-3.25,1.51-.53,3.15-1.11,4.79-1.67,2.87-1,5.8-1.81,8.61-2.95,12.82-5.19,22.3-14.68,30.92-25.1a27.32,27.32,0,0,0,4.41-8.95c4.93-15.29,3.94-30.18-3.39-44.59-.73-1.43-2.45-2.83-1.34-4.54,9.7-2.4,19.12-4.65,28.5-7.11A34.79,34.79,0,0,0,235,411a46.36,46.36,0,0,1,4.52-3.39c1.15,2.65,1.93,4.59,2.81,6.48,2.56,5.55,4.84,11.27,7.83,16.58a29.72,29.72,0,0,0,19,14.69,16.59,16.59,0,0,0,9.89-.09c10.74-3.8,22.36-17.18,16.81-33.23a32.26,32.26,0,0,1-1.38-3.37,5.94,5.94,0,0,1,2.31-6.49,5.75,5.75,0,0,1,6.85-.2,39.34,39.34,0,0,1,5,4c2.45,2.08,4.84,4.24,7.27,6.35V434h61.78c-2.93,5.69-5.62,11.57-8.57,17.54,5.89,8,12.69,12.18,21.29,13.3,9,1.18,16.28-1.73,20.84-9.87a45.11,45.11,0,0,0,4.6-11,70.4,70.4,0,0,0,1.83-10h15c1.46,6.34,2.92,12.68,4.49,19,2.79,11.3,5.56,22.67,11,33.07a66.7,66.7,0,0,0,8.37,13.05c6,6.91,13.08,7.23,20.17,1.5A42.42,42.42,0,0,0,489,483.7a69.23,69.23,0,0,0,5.23-22.26c.39-5.48.7-11-.42-16.49-.83-4.15.7-6.78,3.43-7.5s5.24.94,6.58,4.84c.89,2.61,1.58,5.29,2.4,7.91,2.57,8.19,5.05,16.4,7.78,24.53s5.63,16.2,8.67,24.22c3.15,8.3,6.78,16.42,9.77,24.78,2.88,8.06,8.06,14.86,11.41,22.75,4.44,10.43,11.78,19.31,20.54,26.71,14.4,12.17,30.87,16.53,49.4,13.24a80.44,80.44,0,0,0,27.29-10C674,556.94,692,527.34,697.63,489.79c2.8-18.57-2.38-35.27-13.82-50-8.7-11.18-18.65-21-31.56-27.3a9.83,9.83,0,0,1-3-1.95c-3.77-4.25-8.82-6.58-13.7-8.95-16.72-8.13-33.57-16-50.4-23.84-6.62-3.1-13.32-6-20-9.09a17.17,17.17,0,0,1-3.94-2.24,4.33,4.33,0,0,1-1.36-5,3.93,3.93,0,0,1,4.1-3,23.59,23.59,0,0,1,7,1.76c9.23,4,18.47,7.95,27.54,12.28,15.94,7.61,31.77,15.48,47.64,23.25,9.44,7.95,20.86,9.32,32.5,10a52.45,52.45,0,0,0,7.29.32c4.52-.36,9.14-.6,13.51-1.73,9.62-2.48,14.12-9.22,13-19.12-1-9.65-6-17.22-13.12-23.46-1.83-1.61-3.91-2.93-5.74-4.54a5,5,0,0,1-1.69-5.77,5.44,5.44,0,0,1,4.87-3.6,61.55,61.55,0,0,1,6.37,0c14.9.19,29.82,1.11,44.68-.77a111.93,111.93,0,0,0,34.12-9.6,66.86,66.86,0,0,0,19.51-13.36A40.5,40.5,0,0,0,813,301.72,28.28,28.28,0,0,0,806.36,277.77ZM-67.4,322.84A24.71,24.71,0,0,1-72.47,328c-8.64,6.26-18.34,7.77-28.65,5.74-3.27-.65-6.47-1.68-9.72-2.54-2.33,2.08-2,5-2.37,7.63-2.12,15.81-6.22,31-13.61,45.19.95-.17,2.13-.14,2.65-.71,2.45-2.72,4.58-5.72,7-8.51a34.2,34.2,0,0,1,11.44-9c11-5.25,22.17,1.18,23.13,13.44a33,33,0,0,1-.8,10c-5.51,22.92-15.47,43.8-28.88,63a27.63,27.63,0,0,1-5.74,5.84c-8.46,6.56-18.89,6.41-26.66-.92a67.17,67.17,0,0,1-10.21-12.87c-4.42-7-8.26-14.31-12.35-21.48-1.05-1.85-2.14-3.69-3.2-5.52l-22.36-2.94c-1.2,2.12-2.74,4.7-4.17,7.34-2.9,5.38-5.51,10.94-8.69,16.15a87.1,87.1,0,0,1-9.6,13.35,37.89,37.89,0,0,1-10.1,7.65c-6.58,3.53-13.21,2.58-18.56-2.56a49.22,49.22,0,0,1-8.12-11c-4.76-8.29-7.31-17.49-9.8-26.65A160.82,160.82,0,0,1-268,376.1a55.53,55.53,0,0,1,1.56-12.7,24.06,24.06,0,0,1,3.86-8.23c4.58-6.46,11.11-6.78,15.88-.4a53.67,53.67,0,0,1,7.3,13.67c3.57,9.77,6.5,19.77,9.63,29.7,1.85,5.84,3.7,11.67,7.87,17.18,1.41-1.11,3-1.89,3.93-3.19,2.9-4.29,5.53-8.77,8.39-13.36a57.09,57.09,0,0,1-3.24-6.65c-2.07-6.07-4.7-12.1-5.67-18.36-2.92-18.88-3.27-37.84.26-56.74a49,49,0,0,0,.38-5.59c-2.22-.18-4-.43-5.8-.46-9.57-.13-18.56-3-27.53-5.94a10.75,10.75,0,0,1-2.43-1.25,3.83,3.83,0,0,1-1.73-4.75c.49-1.22,2-2.79,3.12-2.84a39.17,39.17,0,0,1,8.95.78c6,1.1,11.86,3,17.87,3.56,14.56,1.47,26.18-3.91,34.23-16.45A18.19,18.19,0,0,0-190,281c-2.63-4.1-5.47-8.4-8.19-12.78a33.5,33.5,0,0,1-2.92-5.68,4.43,4.43,0,0,1,2-5.51,4.72,4.72,0,0,1,5.84.84,55.22,55.22,0,0,1,3.78,5.17c2.45,3.5,4.61,7.25,7.35,10.52,8.2,9.81,18.85,14.11,31.52,13.47a26.33,26.33,0,0,0,19.15-9.35c2.41-2.75,4.58-5.72,6.88-8.57a31.74,31.74,0,0,1,2.41-2.76c2.51-2.47,5.13-2.73,7.24-.79,1.9,1.75,2.29,4.16.62,6.64-2,3-4.35,5.9-6.6,8.79-1.36,1.74-2.46,3.54-2.08,5.85,1,6,1.39,12.26,3.18,18.05,5.64,18.3,26.34,25.27,41.93,14.47a43.76,43.76,0,0,1,4.46-3.14,4.33,4.33,0,0,1,5.08.74C-66.8,318.26-66.16,321.21-67.4,322.84Z"/></g></svg>