<?xml version="1.0" encoding="utf-8"?>
<!-- Generator: Adobe Illustrator 26.0.1, SVG Export Plug-In . SVG Version: 6.00 Build 0)  -->
<svg version="1.1" id="Слой_1" xmlns="http://www.w3.org/2000/svg" xmlns:xlink="http://www.w3.org/1999/xlink" x="0px" y="0px"
	 viewBox="0 0 500 400" style="enable-background:new 0 0 500 400;" xml:space="preserve">
<style type="text/css">
	.st0{clip-path:url(#SVGID_00000088855727283883108590000008934257229832756621_);}
	.st1{fill:#070707;}
	.st2{fill:#45B9BA;}
	.st3{fill:#FFFFFF;}
	.st4{clip-path:url(#SVGID_00000077318558538151506470000015291016833985626552_);}
	.st5{fill:#3ABFF8;}
</style>
<g>
	<defs>
		<rect id="SVGID_1_" x="592" y="-347.9" width="570" height="747.9"/>
	</defs>
	<clipPath id="SVGID_00000129195589271258475550000011013933670917909941_">
		<use xlink:href="#SVGID_1_"  style="overflow:visible;"/>
	</clipPath>
	<g style="clip-path:url(#SVGID_00000129195589271258475550000011013933670917909941_);">
		<path class="st1" d="M-0.4,358.1c1.2,10.7,5.6,20.1,12,28.6c11.6,15.1,27,24.5,45.2,29.1c12.1,3.1,24.5,4.4,37,2.2
			c1.1-0.2,2.3-0.3,3.4-0.3c1,0,2.4-0.7,3,1.6c-1.2,1.5-2.7,3.2-4.1,4.9c-4,4.7-7.2,9.9-9.5,15.6c-5.9,14.9-0.5,31.9,12.9,40.7
			c5.4,3.4,11.4,5.8,17.6,7c10.4,2.3,20.7,1.4,30.9-0.9c10.2-2.4,20-6.1,29.1-11.1c1.5-0.6,3.1-1.1,4.8-1.5c0,3.9-0.2,7.1,0,10.3
			c1,13.4,11.1,21,24,18.2c1.7-0.4,3.4-0.8,5-1.4c6.6-2.3,12.8-5.6,18.3-9.7c1.1-0.8,2.2-2,4-0.6c0.3,2.4,0.5,5,1,7.6
			c1.7,9.6,7.5,15.5,16.9,17.6c3.9,0.9,8,1,12,0.3c2.7-0.5,24.1-6.9,31.7-12l1.2-1.5c0.3-0.5,0.7-0.9,1.1-1.4
			c7.5-6.8,14.7-13.9,21.5-23.9c1.5,7.9,2.3,14,4,19.8c1.5,5.5,4,10.8,6.2,16.6c-0.4,0.2-0.7,0.4-1,0.5c5.1,5.7,9.8,11.9,14.4,15.7
			l0.3,0.2v-0.1c4,0.2,6.2,3,9.5,5c-0.2,0.6-0.3,1.2-0.4,1.8c2.9,1.9,5.9,3.7,9,5.3c0.9-1.6,1.8-2.2,2.5-1.5c0.8,0.8,1.2,2,0.9,3.2
			c3.1,1.5,6.3,2.7,9.5,3.9c0.4-0.7,0.9-1.4,1.5-2c0.5,0.8,0.5,1.8,0,2.6c3.8,1.2,7.6,2.1,11.5,2.8c0.6-1.4,1.2-2.8,1.8-4.2
			c25.9,0.3,40.4-2.4,71.9-21.1c1,1.5,2.1,3.1,3.2,4.7c8.8,13.8,18.4,17.5,34,12.9c3.5-1.2,7-2.7,10.4-4.3c1.8-0.8,3.5-1.8,5-2.7
			c2.5,1.3,1.5,3.3,1.5,4.9c0,7.9,0.3,15.8,2.5,23.3c1.2,4.2,2.7,8.3,4.6,12.2c5.4,10.6,14.2,15.8,26,15.6c2.5,0,4.9,0,7.5,0h2.1
			c6.4-1.9,12.5-4.5,18.4-7.8c9.2-5.2,15.5-10.9,21.1-15.9c4.5-4.1,8.1-7.9,10.5-10.6c0.6,17.1,6,33.7,15.8,47.8
			c6.1,8.6,13.6,16,22.3,21.8c4.3,1.8,39,15.4,70.9-4c22.6-13.8,30.4-36,33.2-44.3c9.9-29.4,1.2-54.8-1.7-62.4
			c5.9-5.4,12.2-10.5,16.3-17.6c4-6.9,7-14.2,7.6-22.1s0.1-16.1,0.1-24.8c8.3-0.5,16.7-2.1,24.7-6.6c2.7,7.8,7.1,14.9,12.9,20.8
			c4.8,4.8,10.5,10.6,19,11.8c5.3,0.7,12.1-0.3,12.1-0.2c-0.4,0.1-0.8,0.1-1.2,0.2c4.3-2.2,7.3-3.4,9.9-5.1c3.2-2,6.1-4.4,8.8-7
			c2.4-2.5,4.5-5.3,6.2-8.4c1.7-3,2.8-6.3,4.3-10.1c7.3,5.5,13.8,10.9,20.7,15.5c0.6,0.4,9.9,3.6,12.5,5.2c3.7,0.8,7.6,1.2,11.4,1.1
			c2.9,15.6,15.5,27.7,31.2,29.9c20,2.7,34-13.6,35-14.8l0.1,1.1c1.7,25.5,15.4,72.3,47.7,49.3c5.5-3.9,11.9-14.3,18-16.5
			c7.7-2.6,8,2.4,10.6,11c6.1,19.8,12.5,38.7,20.1,58.1c0.6,1.6,1.1,3.3,1.4,5c0.6,1,1.2,2,1.9,2.9c4.3,5.8,8.3,12,13.3,17.1
			c12.7,13.1,28.4,19.5,46.7,19.5c14.8-0.1,29.4-4.1,42.2-11.6c31.6-17.8,50.7-45.2,59-80.4c4.7-20.2,1.4-39.4-10.1-56.8
			c-2.9-4.4-6.2-8.4-9.3-12.6c-1-1.3-2.6-2.2-2.4-4.8c2.3-0.7,4.9-0.1,7.3,0c5.8,0.2,11.5,0.1,17.2-1.4
			c16.8-4.6,21.5-20.3,18.9-31.8c-1.2-5.4-3.2-10.6-6-15.4c-0.6-1.1-0.8-2.4-1.3-4.4c6,0.4,11.1,0.7,16.3,1
			c12.8,0.8,25.4,0.4,38-2.3c12-2.6,23.3-6.8,33.4-13.9c8.8-6.1,15.6-14,19.1-24.2c5-14.3,3.2-27.5-6.8-39.2
			c-4.2-4.8-9-9.1-14.4-12.5c-11.9-7.8-25.3-12.9-39.4-15.1c-11.5-1.9-23-1.9-34.6-1.4c-1.6,0.1-3.4,0.8-5-1.5l4.2-5
			c3.7-4.1,6.5-9,8.2-14.2c3.6-12-0.2-23-10.9-29.4c-4.5-2.6-9.3-4.6-14.3-5.9c-13.8-3.8-27.5-2-41,2.3c-2.7,0.9-5.3,1.8-8.8,2.9
			c1.3-4.3,3.9-6.6,5.7-9.5c3.6-5.6,7.8-11,10.6-17c7.9-17.2,1.2-33.5-16.3-40.6c-1.1-0.4-2.2-0.9-3.2-1.2c-6.1-1.9-12.6-2.2-18.9-1
			c-4.5,0.8-8.9,1.7-14.3,2.8c1-2.7,1.7-4.5,2.4-6.2c2.8-6.7,5.9-13.3,8.5-20.1c4.1-10.7,5.6-22.1,4.5-33.5
			c-1.5-15.1-9.5-25.3-23.8-30.2c-7.1-2.5-14.8-3.2-22.2-2c-7.7,1.2-15.2,3.6-22.2,7.1c-11.2,5.5-21.4,12.9-30.1,21.9
			c-1.5,1.4-3.1,2.6-4.8,3.8c-1.5-4.8-2.5-9.1-4.2-13.1c-5.2-12.8-14.8-19.7-28.6-20.7c-6.4-0.4-12.8,0.5-18.7,2.7
			c-10.4,3.7-20,9.2-28.5,16.4c-6.6,5.7-12.5,12.1-17.6,19.2c-1.1,1.3-2.4,2.6-3.7,3.7c-0.7-3.7-1.2-6.5-1.8-9.4
			c-2.7-11.4-11.7-17.7-23.2-16c-5.2,0.8-10.2,2.4-14.8,4.9c-7,3.6-13.3,8.2-19,13.7c-1.2,0.9-2.4,1.8-3.7,2.6
			c-0.7-6.2-1.2-11.7-2-17.2c-1.2-8.8-3.9-17.1-9.1-24.3c-7.5-10.3-17.6-14.7-30.3-12.2c-6,1.2-11.6,3.6-16.7,7
			c-6,4.1-11.3,9.1-15.7,14.9c-4.8,6.2-8.7,13.1-11.7,20.4c-0.8,1.6-1.7,3.2-2.7,4.7c-2.1-4.6-3.8-8.3-5.5-12
			c-4.6-10.1-9.9-19.8-16.8-28.5c-4.8-6.2-10.8-11.4-17.6-15.3c-18.3-9.9-41-2.3-46.7,21.1c-0.3,1.4-0.6,2.9-0.8,4.3
			c-1,7.8-0.6,15.7,1.2,23.4c2.6,11.4,7.3,22.1,12.3,32.6c0.8,1.6,2.8,3.2,1,5.8c-12.4-2.1-22.8,3.4-32.9,10.2
			c-2.1-3.2-1.4-6.6-2.1-9.6c-0.9-3.6-1.5-7.5-3-10.8c-3-6.4-9.1-9.1-15.9-7.3c-2.8,0.7-5.3,2.1-8,3.2c-1,0.4-2,0.6-3.8,1.2
			c0.5-3.6,0.9-6.4,1.4-9.2c1.4-8.9,3-17.8,4.1-26.8c1.5-12.2,1.2-24.4-2.5-36.3c-4-13-12.3-22.3-24.8-27.4
			c-3.5-1.4-7.1-2.6-10.7-3.4c-10.8-2.4-21.9-2.5-32.7-0.2c-15.1,2.8-29.5,9-41.9,18.1c-11.5,8.6-19.7,19.6-22.7,34
			c-2,9.6-0.9,19.1,1.6,28.5c0.7,2.4,1.2,4.9,2.2,8.7c-3.2-2.3-5.3-3.8-7.4-5.3c-7.1-5.1-14.6-9.4-23.3-11.3
			c-14.2-3.3-28.6,4.8-33.2,18.7c-2.9,8.2-2.6,16.6-0.7,25c2,8.9,5.9,17,10.5,24.8c1,1.6,1.6,3.4,3,6.2c-22.1-6.8-42.6-6.1-62.6,5.4
			c-0.1-2.2-0.1-4.4,0-6.6c0.6-4.3,1.5-8.6,2.1-12.9c1.4-9.9,0.4-19.9-2.7-29.3c-1.7-5.6-4.7-10.7-8.6-15
			c-8.6-9.1-21.3-11.8-32.6-6.3c-4.1,2.2-7.9,4.8-11.4,7.8c-2.7,2.2-4.8,5.1-7.1,7.6c-0.9,1-1.6,2.5-3.8,2
			c-0.7-4.1-1.4-8.4-2.1-12.6c-2.3-14.1-7-27.7-13.8-40.3c-3.1-5.9-7.1-11.3-11.9-16.1c-13.6-13.1-30-12.9-42.8,1.1
			c-3.9,4.3-7.1,9.1-9.8,14.3c-6.5,12.4-10.1,26.2-10.6,40.2c-0.1,2.2,0.2,4.5-0.8,7.4l-4.5-3.6c-5-3.9-9.8-8.3-15.1-11.7
			c-4.4-2.8-9.2-4.9-14.2-6.3c-11.5-3.2-21.3,1-27.3,11.4c-1.6,2.8-2.8,5.7-3.7,8.8c-1.9,6.5-2.2,13.3-1,19.9
			c1.5,8.6,4.1,17,7.9,24.9c0.5,1.1,1.9,2.4-0.4,3.8c-5.2-3.2-10.6-6.6-16-9.9c-10.8-6.8-22.3-12.5-34.3-16.8
			c-10.4-3.7-21.4-5.2-32.4-4.6c-6.4,0.3-12.6,1.9-18.3,4.8c-11.9,6.2-17.7,17.9-15.6,31.2c0.9,5.5,2.6,10.8,5.1,15.7
			c4.5,9.1,10.4,17.5,17.6,24.8c1.1,1.1,3,1.9,2.5,4.5c-3.2,0.9-6.4,1.9-9.5,3.2c-8.5,3.8-11.9,10.6-10.3,19.8
			c1.1,5.4,3.4,10.6,6.7,15c1.3,1.8,2.5,3.6,3.7,5.4c-2.1,2.1-4.2,1.4-6.1,1.4c-11.9,0.2-23.7,1.4-35.3,3.8
			c-17.9,3.4-35.3,9.2-51.7,17.3c-8.9,4.5-17,10-23.6,17.5C2.4,328.2-2.2,342.1-0.4,358.1z M234.3,443.8c-0.5,4.3-1.2,8.6-2,12.9
			c-0.5,1.9-1.1,3.7-1.9,5.5c-1.2-1.1-2.3-2.3-3.3-3.5c-11.8-16.2-21.4-34-28.3-52.8c-0.6-1.6-1.2-3.5-0.8-5
			c2-6.9,1.7-13.8,1.8-20.8c0.1-0.5,0.2-1,0.4-1.4c6.6,0.6,13.2,1.9,19.7,1.5c6.2-0.4,12.3-2.6,18.9-4.1c3.1,4.3,4.9,9.5,7.1,14.9
			c-1.5,1.7-2.8,3.5-4,5.3c-1.7,2.9-0.7,6.5,2.2,8.2c0.3,0.2,0.6,0.3,0.9,0.4c4.6,2,10,0.8,13.4-2.9c3.1-3.5,3-8.2-1.1-10.3
			c-3.5-1.8-5-4.5-6.4-7.7c-1.6-4-3.5-7.9-5.1-11.4l14.4-17.5c1,0.7,1.9,1.4,2.8,2.3c7.9,9.3,17,16.6,29,19.7
			c2.3,0.6,4.2,2.2,5.1,4.4c1.9,3.9,4,7.8,5.7,11.8c4,10,7,20.4,9,30.9c0.4,2.9,0.6,5.7,0.7,8.6c-1.5-0.8-3-1.7-4.4-2.6
			c-3.9-3.1-7.7-6.2-11.4-9.4c-2.6-2.4-6.3-3.2-9.6-1.9c-15.4,5-30.8,9.9-45.8,16.1C237.1,436.6,234.8,439.3,234.3,443.8z M26,317.1
			c5.4-4.3,11.3-8,17.6-11c16.2-8,33.4-12.9,51.1-16c17.5-3,35.1-3.2,52.7-2.5c1.7,0.1,3.6,0.4,5.1-0.2c1.5-0.8,2.6-2.1,3.3-3.6
			c0.7-1.8-0.5-3.5-2-4.4c-1.5-0.8-3.1-1.4-4.8-2c-7.9-3.6-14.2-9-18.2-16.8c-5.1-10-2.4-15.5,8.6-17.2c4.3-0.7,8.6-0.6,13-0.8
			c2.6-0.1,5.2-0.1,7.8-0.4c2.8-0.4,4.5-2.1,4.7-4.4c0.2-2.1-1-4.1-3-4.9c-1.5-0.8-3.3-1.2-4.8-2c-3.3-1.8-6.8-3.3-9.7-5.7
			c-10.3-8.6-18.2-19.8-22.6-32.5c-0.1-0.3-0.2-0.6-0.2-0.8c-4.5-15.1,1.9-25.9,17.2-29.2c9.6-2.1,19-1.3,28.3,1.1
			c11.5,3.1,22.5,7.8,32.6,14c7.7,4.6,15.3,9.4,22.9,14.1c3.5,2.1,6.8,4.6,10.5,6c5.7,2.1,9.5,6.1,13,10.9
			c9.4,12.8,21.5,22.8,34.7,31.4c2.2,1.4,4.6,2.4,7.1,3c2.4,0.5,4.7-1,5.3-3.4c0.5-1.8-0.4-3.8-2.4-5.1c-3.9-2.5-7.9-4.8-11.7-7.5
			c-19.7-13.9-33.6-32.6-43.7-54.4c-4.3-9.3-7-19.1-6.3-29.6c0.2-5,1.8-9.8,4.6-13.9c3.6-4.9,8.2-7,14.3-5.8c4.5,1,8.8,2.8,12.7,5.3
			c6.6,4.2,12.7,9.3,17.9,15.1c3.3,3.6,6.5,7.4,9.8,11.1c1.1,1.3,2.4,2.5,3.8,3.5c2.1,1.3,4.9,0.8,6.2-1.3c0.5-0.7,0.7-1.5,0.7-2.4
			c-0.1-2-0.4-4-1-6c-5.8-22.5-0.6-43.1,11.1-62.5c2.4-4,5.7-7.4,9.6-9.9c6.5-4.2,13.1-4.1,19.5,0.2c5.2,3.4,8.9,8.3,12.1,13.5
			c6.7,10.9,11.5,23,13.9,35.6c1.7,8.6,2.5,17.3,3.8,25.9c0.5,3.2,0.8,6.4,1.4,9.5c0.3,1.8,1.6,3.2,3.4,3.5c2,0.6,4.2-0.3,5.3-2.1
			c1.1-1.7,1.9-3.6,2.9-5.4c3.2-6.2,7.4-11.8,12.5-16.6c2.5-2.4,5.3-4.5,8.3-6.2c9.2-5.2,18.2-3.2,24.6,5.2
			c4.4,5.7,6.4,12.4,7.2,19.4c0.8,7,0.6,14-0.7,20.9c-1.2,6.3-2.6,12.6-3.6,18.9c-0.7,4.3-1.1,8.6-1.2,13c-0.2,2.4,1.3,4.7,3.7,5.3
			c2.2,0.5,4.1-0.4,5.4-3.2c3.2-7.2,9.3-11.2,15.9-14.1c16.8-7.3,33.8-7,50.4,0.8c7,3.3,13.6,7.7,20.4,11.6c2.3,1.3,4.5,2.7,6.8,3.8
			c2.2,1.1,4.8,0.3,6-1.8c1.2-1.8,1-3.6-0.7-5.6c-1.5-1.8-3.2-3.3-4.9-5c-5-5.2-10.4-10.2-15.1-15.7c-8.9-10.1-14.8-22.5-17.3-35.7
			c-0.9-4.9-0.5-9.9,0.9-14.7c2.5-8.4,8.6-13.1,17.2-13.4c4.1-0.1,8.1,0.7,11.8,2.4c7.2,3.1,13.8,7.5,19.4,13c3.1,3,6.1,6.2,9,9.4
			c3.3,3.6,6.5,7.4,9.9,11c3.8,4,6.4,4.7,8.9,2.8c2.3-1.8,2.3-4.3,0.2-8.7c-0.9-1.8-2-3.5-2.8-5.4c-3.5-8.3-7.3-16.5-10.4-24.9
			c-2.8-7.4-3.8-15.3-3.1-23.2c0.7-8.5,4.1-16.5,9.7-22.9c2.8-3.3,5.9-6.4,9.4-9C601,54.3,621.8,47.9,645,50.5
			c1.7,0.2,3.4,0.5,5.1,0.9c18.5,4.5,28.1,15.6,29.9,34.8c1.2,13.2-0.2,26.2-2.4,39.1c-1.3,7.4-2.9,14.9-4.3,22.3
			c-1.3,6.9-2.8,13.6-6.2,19.9c-2.4,4.4-3.4,9.4-3,14.4c0.3,3.1,2,5.3,4.5,5.7c2.7,0.3,5.3-1.4,6-4.1c1.4-4.1,2.5-8.3,3.4-12.6
			c2.1-10.2,9.4-15.7,17.8-20c4.3-2.2,7.3-0.6,8.5,4.1c0.8,3.4,1.4,6.8,1.6,10.3c0.4,4.6,0.3,9.3,0.5,14c0,1.7,0.2,3.5,0.5,5.2
			c0.5,2.1,1.4,3.8,3.7,4.4s4.3-0.4,5.6-3.1c4-8.5,11-13.4,19.3-16.5c9.7-3.6,15.8-1.8,22.1,6.4c2.8,3.7,5.2,7.7,7.9,11.5
			c1.3,1.9,2.7,3.8,4.2,5.5c1.6,1.8,4.2,2.2,6.3,1c2.1-1.2,3-3.8,2-6.1c-1.4-3.2-2.9-6.3-4.5-9.4c-5.6-10.5-11.3-21-16.7-31.6
			c-4.3-8.3-7.7-17-10.2-26c-2.2-8.5-3.5-17.1-1.1-25.9c0.3-1.1,0.5-2.3,0.8-3.4c4.1-11.8,15.3-17.4,27.1-13.6
			c5.2,1.8,10,4.8,13.8,8.7c5.7,5.4,10.4,11.8,14,18.8c4.6,9,8.8,18.3,13.2,27.5c1.2,2.9,2.7,5.8,4.3,8.6c3.3,5,8.2,4.5,10.6-1
			c1.1-2.7,2-5.5,2.8-8.3c2.4-8.1,6.2-15.7,11.3-22.5c3.7-4.5,7.7-8.7,12-12.6c3.9-3.5,8.7-5.9,13.8-7.2c9.8-2.6,17.7,0.3,23.3,8.8
			c5,7.5,6.9,16,7.5,24.8c0.5,6.7,0.2,13.4,0.3,20.1c-0.1,2,0,4.1,0.1,6.1c0.2,2.1,1.6,3.9,3.6,4.5c2,0.7,4.2,0,5.4-1.7
			c1.3-1.5,2.3-3.3,3.5-5c6.8-9.5,15.8-17.1,26.3-22.2c3.7-1.8,7.5-3.2,11.6-3.2c6.7-0.1,10.3,2.8,11.4,9.4c0.4,2.9,0.5,5.8,0.4,8.7
			c0.2,7.3,0.2,14.6,0.4,21.8c0,1.4,0.3,2.9,0.9,4.2c0.6,1.7,2.4,2.7,4.2,2.5c1.3-0.4,2.5-1.2,3.5-2.3c0.5-0.7,0.8-1.5,1-2.4
			c8.7-26.1,25.6-44.5,50.7-55.2c6.7-2.8,13.7-4.6,21.1-3.1c8.4,1.7,14.1,6.5,17,14.5c1.4,3.8,2.2,7.8,3.3,11.7
			c0.5,2.3,1.3,4.5,2.2,6.6c2.2,4.2,6.4,5.4,10.2,2.7c2.5-1.9,4.8-4.1,6.9-6.6c9.6-10.6,21.4-18.9,34.5-24.4
			c8.3-3.6,17.4-4.9,26.3-3.8c11.3,1.5,21.5,8.6,22.9,22.4c0.4,3.8,0.5,7.5,0.3,11.3c-0.7,9-3,17.9-6.7,26.1
			c-3.4,7.7-7.2,15.3-10.8,22.9c-1.1,2.4-2.3,4.7-3.3,7.1s-0.9,4.6,1.1,6.4s4.2,1.8,6.4,0.6c6-3.1,12.1-5.7,18.7-6.9
			c4.3-0.7,8.6-1.1,12.9-1.2c4.1,0,8.1,1.1,11.6,3.1c9.7,5.2,13.1,14,9.1,24.3c-1.7,4-3.8,7.8-6.2,11.4c-3.2,4.8-6.8,9.4-10.2,14.1
			s-6.9,9.3-8.8,15c-0.5,1.6-2,2.8-2.9,4.2c-0.8,1.2-1.3,2.6-1.6,4c-0.4,1.8,0.6,3.6,2.3,4.3c1.4,0.4,2.8,0.4,4.1,0.1
			c0.8-0.1,1.4-1,2.1-1.5c12.7-9.7,28-15.5,44-16.5c9.7-0.6,19.1,0.9,27.6,6c6.8,4,9.1,9.3,7.3,17c-0.7,2.8-1.8,5.5-3.3,8
			c-1.5,2.5-3.4,4.7-5.4,6.8c-2.6,2.7-5.4,5.2-8.2,7.8c-1.9,1.8-3.9,3.5-5.9,5.2c-2.5,2.2-4.8,4.5-3.3,8.2c1,2.5,3.8,3.4,8.4,2.3
			c9.3-2.3,18.8-3.4,28.3-3.4c12.2-0.3,24.3,0.7,36,4.1c8.9,2.6,17.4,6.6,25,11.9c4.8,3.3,9.1,7.3,12.6,11.9
			c5,6.6,6.8,15.1,4.7,23.1c-1.9,8-6.3,15.2-12.5,20.5c-5.7,4.9-12.3,8.7-19.4,11.3c-10.6,4-21.7,6.3-33,6.7
			c-14.2,0.8-28.3-1.1-42.4-2.3c-2-0.3-4-0.4-6-0.5c-2.1-0.1-4,1.2-4.9,3.1c-0.9,1.9-0.4,4.2,1.2,5.6c1.6,1.6,3.5,3,5.1,4.7
			c6.3,6.4,10.5,13.9,10.8,23.1c0.3,9.5-4.4,15.5-13.7,17.2c-4.3,0.6-8.6,0.8-12.9,0.7c-2.3-0.1-4.6-0.4-6.9-0.8
			c-11-1.4-21.7-3.5-30.1-11.7c-14.5-8.5-29-17-43.5-25.3c-8.3-4.7-16.8-9.1-25.3-13.5c-2-1-4.2-1.8-6.5-2.1
			c-1.8-0.3-3.5,0.8-4.1,2.5c-0.8,1.6-0.4,3.6,1,4.8c1.1,1,2.3,1.8,3.6,2.4c6.1,3.4,12.2,6.6,18.3,10c15.4,8.6,30.8,17.2,46.1,26
			c4.5,2.6,9.1,5.1,12.4,9.4c0.8,0.9,1.7,1.6,2.8,2.1c11.8,6.9,20.6,16.8,28,28c9.8,14.7,13.6,30.9,9.7,48.3
			c-7.9,35.2-27,62-59.6,78.3c-8.3,4.1-17.3,6.7-26.6,7.6c-17.8,1.8-33.1-3.4-45.9-16c-7.8-7.6-14.1-16.5-17.6-26.7
			c-2.6-7.7-7.1-14.5-9.3-22.3c-2.3-8.1-5.1-16.1-7.6-24.2c-2.3-7.8-4.5-15.7-6.6-23.5c-2-7.9-3.8-15.8-5.7-23.8
			c-0.6-2.5-1.1-5.1-1.7-7.7c-1-3.8-3.2-5.5-5.9-5s-4.3,2.9-3.8,6.9c0.7,5.3,0,10.5-0.7,15.7c-1,7.2-3.2,14.2-6.5,20.7
			c-2.9,6-7.3,11.3-12.8,15.2c-7.1,4.9-13.8,4.2-19-2.8c-2.8-4-5.2-8.4-7-13c-4.4-10.2-6.2-21.2-8.1-32.1c-2-11.8-3.7-23.6-5.7-35.3
			c-0.5-2.6-1.4-5-2.7-7.3c-1.3-2.4-4.1-3.5-6.7-2.6c-2.8,0.9-4.4,3.9-3.5,6.8c0,0.1,0.1,0.2,0.1,0.2c3.5,9.6,1.9,19-1.1,28.2
			c-1.3,3.5-3,6.9-5.1,10c-4.9,7.4-11.9,9.7-20.4,7.9c-8.1-1.7-14.2-6-19.3-14.1c4.1-7,7.8-13.9,12.1-20.5
			c3.9-5.8,5.8-12.8,5.2-19.9c-0.4-7.9-3.1-15.5-7.9-21.8c-1.8-2.2-3.9-4.2-6.3-5.9c-2-1.5-4.5-1-6.3,0.7c-2.1,1.8-2.5,4.8-0.9,7.1
			c0.9,1.2,1.8,2.3,2.8,3.3c4.9,5.1,6.8,11.5,7.3,18.3c0.6,9.1-5.9,17.2-15,18.5c-6.7,1.1-13.5-0.5-19-4.4c-5-3.4-9.8-7.2-14.4-11.2
			c-4.1-3.6-7.8-7.7-11.8-11.6c-1.4-1.5-2.9-2.9-4.5-4.1c-1.9-1.5-4.5-1.6-6.5-0.3c-2.1,1.2-3.1,3.6-2.6,6c0.3,1.1,0.7,2.2,1.1,3.3
			c4.2,15.6-7.8,27.5-18.2,30.3c-3.1,0.8-6.4,0.5-9.4-0.6c-7.6-2.5-13.7-8-17-15.2c-2.5-5.2-4.2-10.8-6.3-16.2
			c-0.7-1.9-1.3-3.7-2.2-6.3c-1.6,0.9-3.1,1.8-4.5,2.9c-4.5,3.8-9.9,6.3-15.6,7.3c-9,1.7-18.1,3.2-27.5,4.8c-1.2,1.5,0.4,3,1,4.4
			c6,14.2,5.9,28.3,0.2,42.5c-1.1,3-2.7,5.8-4.8,8.2c-8.9,9.3-18.5,17.6-31,21.7c-2.7,0.9-5.6,1.5-8.4,2.2l-4.7,1.2
			c0.2,3,2,3.5,3.7,3.4c5.5-0.3,10.9-0.7,16.4-1.3c2.8-0.3,5.6-1.1,8.6-1.8c3.7,6,4.5,12.7,5.4,19.3c2,13.9,0.2,28.1-5.2,41.1
			c-7.6,18.3-20.8,30.6-39.5,36.6c-9.4,3-19,2.2-28.2-0.6c-22-6.6-36.9-21.2-44.8-42.8c-3.5-10.2-5.9-20.8-6.9-31.5
			c-0.3-2.6-1.1-5.1-2.4-7.3c-1.2-2.3-4-3.2-6.2-2c-0.7,0.4-1.3,0.9-1.8,1.6c-0.9,1.5-1.8,3-2.5,4.5c-9.3,17.7-23.8,29.8-41.7,37.8
			c-3.7,1.6-7.7,2.6-11.7,3.1c-11.8,1.5-18.3-3.9-21.8-11.9c-4.9-11.2-6.1-23-4.6-35.1c0.9-7.3,2.8-14.2,7.8-20
			c2.2-2.6,3.5-6,4.9-9.2c0.5-1.2,0.4-2.8,0.7-5.7c-2.3,2.6-3.8,3.8-4.8,5.4c-8.1,13-20.5,20.2-33.8,26.3c-2.4,1.1-4.9,1.8-7.5,2.2
			c-12.4,2.3-19.5-2.9-22.2-16.3c1.7-1.6,3.5-3.4,5.4-5.1c7.8-7,14.8-14.8,20.9-23.3c7.5-10.5,12.6-22.4,15-35
			c0.4-2.3,0.6-4.6,0.6-6.9c0-1.2-0.2-2.3-0.6-3.4c-0.7-2-2.7-3.2-4.8-2.9c-1.8,0.2-3.3,1.5-3.6,3.3c-0.4,2-0.5,4-0.9,6
			c-1.5,11-5.6,21.5-11.9,30.7c-16.1,23-36.7,40.2-63,50c-17.7,6.7-37.3,7.1-55.3,1.1c-5.5-1.8-10.7-4.2-15.8-7.1
			c-17.1-9.7-24.9-25.3-26.4-44.5c-0.4-4.6-0.1-9.3-0.2-14c0-2.9-1-5.8-2.9-8c-2.7-3.4-6.2-3.5-8.6-0.1c-1.1,1.7-2.1,3.5-3,5.3
			c-4.7,8.7-10.8,16.6-17.9,23.5c-8.8,8.3-18.7,14.7-30.6,17.4c-3.4,0.8-6.8,1.1-10.3,1c-7.8-0.2-11.6-3.6-12.7-11.5
			c-0.3-3.5-0.3-7,0.1-10.4c0.1-2.9,0.8-5.8,0.9-8.7c0.1-4.1-0.6-4.9-5.3-6.5c-0.5-0.2-1-0.5-2-1c1.6-8.4,3.2-16.8,4.8-25.8
			c1.9-1.1,3.9-2,6-2.9c12.5-4.5,25.1-8.8,37.6-13.3c3.6-1.3,6.6-0.9,9.5,1.9c3.9,3.5,7.9,6.8,12.1,9.9c2.1,1.6,4.4,2.8,6.8,3.6
			c2.4,0.9,5.1-0.4,6-2.8c0.2-0.4,0.2-0.9,0.3-1.4c0.2-2.3,0.1-4.6-0.2-6.9c-2.1-16.2-6.6-32-13.3-46.9c-0.8-1.8-1.4-3.7-2.2-5.7
			c3.4-1,6.5-1.7,9.5-2.8c1.6-0.7,3-1.6,4.3-2.8c1.4-1.3,1.5-4,0.3-5.6c-1-1.5-2.8-2.2-4.5-1.8c-0.8,0.2-1.7,0.5-2.5,0.8
			c-11,4.1-21.2,1.8-30.3-5c-4.6-3.4-8.4-7.9-12.5-12c-2.6-2.7-4.9-5.8-7.7-8.3s-6.3-1.8-8,1.5c-0.9,1.8-1.6,3.7-2.1,5.7
			c-2.6,8.3-8,13.9-15.7,17.6c-11.3,5.5-22.6,6.4-34.4,1.6c-2.5-0.8-4.4-2.7-5.4-5.1c-1.7-4-3.5-7.9-5.7-11.7
			c-1.1-2-2.5-3.9-4.1-5.6c-1.2-1.2-2.7-2.2-4.3-2.8c-2.3-1-5.1,0-6,1.9s-0.9,4.1,1,5.5c4.6,3.5,7,8.5,9.1,13.6
			c4.2,9.7,5.5,20.4,3.7,30.8c-1.5,8.7-5.2,16-12.3,21.4c-1.4,1-2.7,2.1-4,3.3c-1.5,1.5-1.6,3.9-0.4,5.6c1.2,1.7,3.6,2.8,5.3,1.8
			c3.2-2,6.2-4.2,9-6.6c2.2-1.8,4-4,6.3-6.4c1.5,3.2,2.7,5.8,3.9,8.5c6.6,14.9,14.8,29,24.4,42.2c3,4,5.9,8,11.8,9.3
			c-0.8,1.5-1.7,2.9-2.8,4.3c-5.8,6.2-12.9,10.9-20.8,13.9c-1.9,0.8-3.8,1.3-5.8,1.7c-8,1.3-12.1-1.9-12.8-10.1
			c-0.1-2.3,0.1-4.7,0.7-6.9c1.5-6.5,4.2-12.7,8-18.3c1-1.4,1.9-2.9,2.6-4.5c0.8-2,0.1-4.2-1.6-5.4c-1.5-1.1-3.4-1.1-4.9-0.1
			c-1.7,1.1-3.2,2.5-4.4,4.2c-3.3,4.6-7.7,7.9-12.3,10.9c-16.2,10.4-33.6,16.9-53.1,16.2c-5.8-0.3-11.5-1.6-16.8-3.9
			c-14.5-6-19.9-22-12.3-35.5c3.5-6.4,8.2-12,13.8-16.6c5.2-4.2,10.5-8.2,15.7-12.4c1.6-1.2,3-2.7,4.3-4.3c1.9-2.8-0.4-7.1-3.8-6.9
			c-2,0.2-4,0.7-5.8,1.5c-8.6,3.6-17.5,6-26.7,7.3c-20.7,2.8-40.4-0.2-58.3-11.6c-7.4-4.6-13.8-10.7-18.8-17.9
			C3.2,357.8,6.3,333.2,26,317.1z"/>
		<path class="st2" d="M923,478.2c4.1-7,7.8-13.9,12.1-20.5c3.9-5.8,5.8-12.8,5.2-19.9c-0.4-7.9-3.1-15.5-7.9-21.8
			c-1.8-2.2-3.9-4.2-6.3-5.9c-2-1.5-4.5-1-6.3,0.7c-2.1,1.8-2.5,4.8-0.9,7.1c0.9,1.2,1.8,2.3,2.8,3.3c4.9,5.1,6.8,11.5,7.2,18.3
			c0.6,9.1-5.9,17.2-15,18.5c-6.7,1.1-13.5-0.5-19-4.4c-5-3.4-9.8-7.2-14.4-11.2c-4.1-3.6-7.8-7.7-11.8-11.6
			c-1.4-1.5-2.9-2.9-4.5-4.1c-1.9-1.5-4.5-1.6-6.5-0.3c-2.1,1.2-3.1,3.6-2.6,6c0.3,1.1,0.7,2.2,1.1,3.3c4.2,15.6-7.8,27.5-18.2,30.3
			c-3.1,0.8-6.4,0.5-9.4-0.6c-7.6-2.5-13.7-8-17-15.2c-2.5-5.2-4.2-10.8-6.3-16.2c-0.7-1.9-1.3-3.7-2.2-6.3
			c-1.6,0.9-3.1,1.8-4.5,2.9c-4.5,3.8-9.9,6.3-15.7,7.3c-9,1.7-18.1,3.2-27.5,4.8c-1.2,1.5,0.4,3,1,4.4c6,14.2,5.9,28.3,0.2,42.5
			c-1.1,3-2.7,5.8-4.8,8.2c-8.9,9.3-18.5,17.6-31,21.7c-2.7,0.9-5.6,1.5-8.4,2.2l-4.7,1.2c0.2,3,2,3.5,3.7,3.4
			c5.5-0.3,10.9-0.7,16.4-1.3c2.8-0.3,5.6-1.1,8.6-1.8c3.7,6,4.5,12.7,5.4,19.3c2,13.9,0.2,28.1-5.2,41.1
			c-7.6,18.3-20.8,30.6-39.5,36.6c-9.4,3-19,2.2-28.2-0.6c-22-6.6-36.9-21.2-44.8-42.8c-3.5-10.2-5.9-20.8-6.9-31.5
			c-0.3-2.6-1.1-5.1-2.4-7.3c-1.2-2.3-4-3.2-6.2-2c-0.7,0.4-1.3,0.9-1.8,1.6c-0.9,1.5-1.8,3-2.5,4.5c-9.3,17.7-23.8,29.8-41.7,37.8
			c-3.7,1.6-7.7,2.6-11.7,3.1c-11.8,1.5-18.3-3.9-21.8-11.9c-4.9-11.2-6.1-23-4.6-35.1c0.9-7.3,2.8-14.2,7.8-20
			c2.2-2.6,3.5-6,4.9-9.2c0.5-1.2,0.4-2.8,0.7-5.7c-2.3,2.6-3.8,3.8-4.8,5.4c-8.1,13-20.5,20.2-33.8,26.3c-2.4,1.1-4.9,1.8-7.5,2.2
			c-12.4,2.3-19.5-2.9-22.2-16.3c1.7-1.6,3.5-3.4,5.4-5.1c7.8-7,14.8-14.8,20.9-23.3c7.5-10.5,12.6-22.4,15-35
			c0.4-2.3,0.6-4.6,0.6-6.9c0-1.2-0.2-2.3-0.6-3.4c-0.7-2-2.7-3.2-4.8-2.9c-1.8,0.2-3.3,1.5-3.6,3.3c-0.4,2-0.5,4-0.9,6
			c-1.5,11-5.6,21.5-11.9,30.7c-16.1,23-36.7,40.2-63,50c-17.7,6.7-37.3,7.1-55.3,1.1c-5.5-1.8-10.7-4.2-15.8-7.1
			c-17.1-9.7-24.9-25.3-26.4-44.5c-0.4-4.6-0.1-9.3-0.2-14c0-2.9-1-5.8-2.9-8c-2.7-3.4-6.2-3.5-8.6-0.1c-1.1,1.7-2.1,3.5-3,5.3
			c-4.7,8.7-10.8,16.6-17.9,23.5c-8.8,8.3-18.7,14.7-30.6,17.4c-3.4,0.8-6.8,1.1-10.3,1c-7.8-0.2-11.6-3.6-12.7-11.5
			c-0.3-3.5-0.3-7,0.1-10.4c0.1-2.9,0.8-5.8,0.9-8.7c0.1-4.1-0.6-4.9-5.3-6.5c-0.5-0.2-1-0.5-2-1c1.6-8.4,3.2-16.8,4.8-25.8
			c1.9-1.1,3.9-2,6-2.9c12.5-4.5,25.1-8.8,37.6-13.3c3.6-1.3,6.6-0.9,9.5,1.9c3.9,3.5,7.9,6.8,12.1,9.9c2.1,1.6,4.4,2.8,6.8,3.6
			c2.4,0.9,5.1-0.4,6-2.8c0.2-0.4,0.2-0.9,0.3-1.4c0.2-2.3,0.1-4.6-0.2-6.9c-2.1-16.2-6.6-32-13.3-46.9c-0.8-1.8-1.4-3.7-2.2-5.7
			c3.4-1,6.5-1.7,9.5-2.8c1.6-0.7,3-1.6,4.3-2.8c1.4-1.3,1.5-4,0.3-5.6c-1-1.5-2.8-2.2-4.5-1.8c-0.8,0.2-1.7,0.5-2.5,0.8
			c-11,4.1-21.2,1.8-30.3-5c-4.6-3.4-8.4-7.9-12.5-12c-2.6-2.7-4.9-5.8-7.7-8.3s-6.3-1.8-8,1.5c-0.9,1.8-1.6,3.7-2.1,5.7
			c-2.6,8.3-8,13.9-15.7,17.6c-11.3,5.5-22.6,6.4-34.4,1.6c-2.5-0.8-4.4-2.7-5.4-5.1c-1.7-4-3.5-7.9-5.7-11.7
			c-1.1-2-2.5-3.9-4.1-5.6c-1.2-1.2-2.7-2.2-4.3-2.8c-2.3-1-5.1,0-6,1.9s-0.9,4.1,1,5.5c4.6,3.5,7,8.5,9.1,13.6
			c4.2,9.7,5.5,20.4,3.7,30.8c-1.5,8.7-5.2,16-12.3,21.4c-1.4,1-2.7,2.1-4,3.3c-1.5,1.5-1.6,3.9-0.4,5.6c1.2,1.7,3.6,2.8,5.3,1.8
			c3.2-2,6.2-4.2,9-6.6c2.2-1.8,4-4,6.3-6.4c1.5,3.2,2.7,5.8,3.9,8.5c6.6,14.9,14.8,29,24.4,42.2c3,4,5.9,8,11.8,9.3
			c-0.8,1.5-1.7,2.9-2.8,4.3c-5.8,6.2-12.9,10.9-20.8,13.9c-1.9,0.8-3.8,1.3-5.8,1.7c-8,1.3-12.1-1.9-12.8-10.1
			c-0.1-2.3,0.1-4.7,0.7-6.9c1.5-6.5,4.2-12.7,8-18.3c1-1.4,1.9-2.9,2.6-4.5c0.8-2,0.1-4.2-1.6-5.4c-1.5-1.1-3.4-1.1-4.9-0.1
			c-1.7,1.1-3.2,2.5-4.4,4.2c-3.3,4.6-7.7,7.9-12.3,10.9c-16.2,10.4-33.6,16.9-53.1,16.2c-5.8-0.3-11.5-1.6-16.8-3.9
			c-14.5-6-19.9-22-12.3-35.5c3.5-6.4,8.2-12,13.8-16.6c5.2-4.2,10.5-8.2,15.7-12.4c1.6-1.2,3-2.7,4.3-4.3c1.9-2.8-0.4-7.1-3.8-7
			c-2,0.2-4,0.7-5.8,1.5c-8.6,3.6-17.5,6-26.7,7.3c-20.7,2.8-40.4-0.2-58.3-11.6c-7.4-4.6-13.8-10.7-18.8-17.9
			C3.2,357.8,6.3,333.2,26,317.1c5.4-4.3,11.3-8,17.6-11c16.2-8,33.4-12.9,51.1-16c17.5-3,35.1-3.2,52.7-2.5
			c1.7,0.1,3.6,0.4,5.1-0.2c1.5-0.8,2.6-2.1,3.3-3.6c0.7-1.8-0.5-3.5-2-4.4c-1.5-0.8-3.1-1.4-4.8-2c-7.9-3.6-14.2-9-18.2-16.8
			c-5.1-10-2.4-15.5,8.6-17.2c4.3-0.7,8.6-0.6,13-0.8c2.6-0.1,5.2-0.1,7.8-0.4c2.8-0.4,4.5-2.1,4.7-4.4c0.2-2.1-1-4.1-3-4.9
			c-1.5-0.8-3.3-1.2-4.8-2c-3.3-1.8-6.8-3.3-9.7-5.7c-10.3-8.6-18.2-19.8-22.6-32.5c-0.1-0.3-0.2-0.6-0.2-0.8
			c-4.5-15.1,1.9-25.9,17.2-29.2c9.6-2.1,19-1.3,28.3,1.1c11.5,3.1,22.5,7.8,32.6,14c7.7,4.6,15.3,9.4,22.9,14.1
			c3.5,2.1,6.8,4.6,10.5,6c5.7,2.1,9.5,6.1,13,10.9c9.4,12.8,21.5,22.8,34.7,31.4c2.2,1.4,4.6,2.4,7.1,3c2.4,0.5,4.7-1,5.3-3.4
			c0.5-1.8-0.4-3.8-2.4-5.1c-3.9-2.5-7.9-4.8-11.7-7.5c-19.7-13.9-33.6-32.6-43.7-54.4c-4.3-9.3-7-19.1-6.3-29.6
			c0.2-5,1.8-9.8,4.6-13.9c3.6-4.9,8.2-7,14.3-5.8c4.5,1,8.8,2.8,12.7,5.3c6.6,4.2,12.7,9.3,17.9,15.1c3.3,3.6,6.5,7.4,9.8,11.1
			c1.1,1.3,2.4,2.5,3.8,3.5c2.1,1.3,4.9,0.8,6.2-1.3c0.5-0.7,0.7-1.5,0.7-2.4c-0.1-2-0.4-4-1-6c-5.8-22.5-0.6-43.1,11.1-62.5
			c2.4-4,5.7-7.4,9.6-9.9c6.5-4.2,13.1-4.1,19.5,0.2c5.2,3.4,8.9,8.3,12.1,13.5c6.7,10.9,11.5,23,13.9,35.6
			c1.7,8.6,2.5,17.3,3.8,25.9c0.5,3.2,0.8,6.4,1.4,9.5c0.3,1.8,1.6,3.2,3.4,3.5c2,0.6,4.2-0.3,5.3-2.1c1.1-1.7,1.9-3.6,2.9-5.4
			c3.2-6.2,7.4-11.8,12.5-16.6c2.5-2.4,5.3-4.5,8.3-6.2c9.2-5.2,18.2-3.2,24.6,5.2c4.4,5.7,6.4,12.4,7.2,19.4c0.8,7,0.6,14-0.7,20.9
			c-1.2,6.3-2.6,12.6-3.6,18.9c-0.7,4.3-1.1,8.6-1.2,13c-0.2,2.4,1.3,4.7,3.7,5.3c2.2,0.5,4.1-0.4,5.4-3.2
			c3.2-7.2,9.3-11.2,15.9-14.1c16.8-7.3,33.8-7,50.4,0.8c7,3.3,13.6,7.7,20.4,11.6c2.3,1.3,4.5,2.7,6.8,3.8c2.2,1.1,4.8,0.3,6-1.8
			c1.2-1.8,1-3.6-0.7-5.6c-1.5-1.8-3.2-3.3-4.9-5c-5-5.2-10.4-10.2-15.1-15.7c-8.9-10.1-14.8-22.5-17.3-35.7
			c-0.9-4.9-0.5-9.9,0.9-14.7c2.5-8.4,8.6-13.1,17.2-13.4c4.1-0.1,8.1,0.7,11.8,2.4c7.2,3.1,13.8,7.5,19.4,13c3.1,3,6.1,6.2,9,9.4
			c3.3,3.6,6.5,7.4,9.9,11c3.8,4,6.4,4.7,8.9,2.8c2.3-1.8,2.3-4.3,0.2-8.7c-0.9-1.8-2-3.5-2.8-5.4c-3.5-8.3-7.3-16.5-10.4-24.9
			c-2.8-7.4-3.8-15.3-3.1-23.2c0.7-8.5,4.1-16.5,9.7-22.9c2.8-3.3,5.9-6.4,9.4-9C601,54.3,621.8,47.9,645,50.5
			c1.7,0.2,3.4,0.5,5.1,0.9c18.5,4.5,28.1,15.6,29.9,34.8c1.2,13.2-0.2,26.2-2.4,39.1c-1.3,7.4-2.9,14.9-4.3,22.3
			c-1.3,6.9-2.8,13.6-6.2,19.9c-2.4,4.4-3.4,9.4-3,14.4c0.3,3.1,2,5.3,4.5,5.7c2.7,0.3,5.3-1.4,6-4.1c1.4-4.1,2.5-8.3,3.4-12.6
			c2.1-10.2,9.4-15.7,17.8-20c4.3-2.2,7.3-0.6,8.5,4.1c0.8,3.4,1.4,6.8,1.6,10.3c0.4,4.6,0.3,9.3,0.5,14c0,1.7,0.2,3.5,0.5,5.2
			c0.5,2.1,1.4,3.8,3.7,4.4s4.3-0.4,5.6-3.1c4-8.5,11-13.4,19.3-16.5c9.7-3.6,15.8-1.8,22.1,6.4c2.8,3.7,5.2,7.7,7.9,11.5
			c1.3,1.9,2.7,3.8,4.2,5.5c1.6,1.8,4.2,2.2,6.3,1c2.1-1.2,3-3.8,2-6.1c-1.4-3.2-2.9-6.3-4.5-9.4c-5.6-10.5-11.3-21-16.7-31.6
			c-4.3-8.3-7.7-17-10.2-26c-2.2-8.5-3.5-17.1-1.1-25.9c0.3-1.1,0.5-2.3,0.8-3.4c4.1-11.8,15.3-17.4,27.1-13.6
			c5.2,1.8,10,4.8,13.8,8.7c5.7,5.4,10.4,11.8,14,18.8c4.6,9,8.8,18.3,13.2,27.5c1.2,2.9,2.7,5.8,4.3,8.6c3.3,5,8.2,4.5,10.6-1
			c1.1-2.7,2-5.5,2.8-8.3c2.4-8.1,6.2-15.7,11.3-22.5c3.7-4.5,7.7-8.7,12-12.6c3.9-3.5,8.7-5.9,13.8-7.2c9.8-2.6,17.7,0.3,23.3,8.8
			c5,7.5,6.9,16,7.5,24.8c0.5,6.7,0.2,13.4,0.3,20.1c-0.1,2,0,4.1,0.1,6.1c0.2,2.1,1.6,3.9,3.6,4.5c2,0.7,4.2,0,5.4-1.7
			c1.3-1.6,2.3-3.3,3.5-5c6.8-9.5,15.8-17.1,26.3-22.2c3.7-1.8,7.5-3.1,11.6-3.2c6.7-0.1,10.3,2.8,11.4,9.4c0.4,2.9,0.5,5.8,0.4,8.7
			c0.2,7.3,0.2,14.6,0.4,21.8c0,1.4,0.3,2.9,0.9,4.2c0.6,1.7,2.4,2.7,4.2,2.5c1.3-0.4,2.5-1.2,3.5-2.3c0.5-0.7,0.8-1.5,1-2.4
			c8.7-26.1,25.6-44.5,50.7-55.2c6.7-2.8,13.7-4.6,21.1-3.1c8.4,1.7,14.1,6.5,17,14.5c1.4,3.8,2.2,7.8,3.3,11.7
			c0.5,2.3,1.3,4.5,2.2,6.6c2.2,4.2,6.4,5.4,10.2,2.7c2.5-1.9,4.8-4.1,6.9-6.6c9.6-10.6,21.4-18.9,34.5-24.4
			c8.3-3.6,17.4-4.9,26.3-3.8c11.3,1.5,21.5,8.6,22.9,22.4c0.4,3.8,0.5,7.5,0.3,11.3c-0.7,9-3,17.9-6.7,26.1
			c-3.4,7.7-7.2,15.3-10.8,22.9c-1.1,2.4-2.3,4.7-3.3,7.1s-0.9,4.6,1.1,6.4s4.2,1.8,6.4,0.6c6-3.1,12.1-5.7,18.7-6.9
			c4.3-0.7,8.6-1.1,12.9-1.2c4.1,0,8.1,1.1,11.6,3.1c9.7,5.2,13.1,14,9.1,24.3c-1.7,4-3.8,7.8-6.2,11.4c-3.2,4.8-6.8,9.4-10.2,14.1
			s-6.9,9.3-8.8,15c-0.5,1.6-2,2.8-2.9,4.2c-0.8,1.2-1.3,2.6-1.6,4c-0.4,1.8,0.6,3.6,2.3,4.3c1.4,0.4,2.8,0.4,4.1,0.1
			c0.8-0.1,1.4-1,2.1-1.5c12.7-9.7,28-15.5,44-16.5c9.7-0.6,19.1,0.9,27.6,6c6.8,4,9.1,9.3,7.3,17c-0.7,2.8-1.8,5.5-3.3,8
			c-1.5,2.5-3.4,4.7-5.4,6.8c-2.6,2.7-5.4,5.2-8.2,7.8c-1.9,1.8-3.9,3.5-5.9,5.2c-2.5,2.2-4.8,4.5-3.3,8.2c1,2.5,3.8,3.4,8.4,2.3
			c9.3-2.3,18.8-3.4,28.3-3.4c12.2-0.3,24.3,0.7,36,4.1c8.9,2.6,17.4,6.6,25,11.9c4.8,3.3,9.1,7.3,12.6,11.9
			c5,6.6,6.8,15.1,4.7,23.1c-1.9,8-6.3,15.2-12.5,20.5c-5.7,4.9-12.3,8.7-19.4,11.3c-10.6,4-21.7,6.3-33,6.8
			c-14.2,0.8-28.3-1.1-42.4-2.3c-2-0.3-4-0.4-6-0.5c-2.1-0.1-4,1.2-4.9,3.1c-0.9,1.9-0.4,4.2,1.2,5.6c1.6,1.6,3.5,3,5.1,4.7
			c6.3,6.4,10.5,13.9,10.8,23.1c0.3,9.5-4.4,15.5-13.7,17.2c-4.3,0.6-8.6,0.8-12.9,0.7c-2.3-0.1-4.6-0.4-6.9-0.8
			c-11-1.4-21.7-3.5-30.1-11.7c-14.5-8.5-29-17-43.6-25.3c-8.3-4.7-16.8-9.1-25.3-13.5c-2-1-4.2-1.8-6.5-2.1
			c-1.8-0.3-3.5,0.8-4.1,2.5c-0.8,1.6-0.4,3.6,1,4.8c1.1,1,2.3,1.8,3.6,2.4c6.1,3.4,12.2,6.6,18.3,10c15.4,8.6,30.8,17.2,46.1,26
			c4.5,2.6,9.1,5.1,12.4,9.4c0.8,0.9,1.7,1.6,2.8,2.1c11.8,6.9,20.6,16.8,28,28c9.8,14.7,13.6,30.9,9.7,48.3
			c-7.9,35.2-27,62-59.6,78.3c-8.3,4.1-17.3,6.7-26.6,7.6c-17.8,1.8-33.1-3.4-45.9-16c-7.8-7.6-14.1-16.5-17.6-26.7
			c-2.6-7.7-7.1-14.5-9.3-22.3c-2.3-8.1-5.1-16.1-7.6-24.2c-2.3-7.8-4.5-15.7-6.6-23.5c-2-7.9-3.8-15.8-5.7-23.8
			c-0.6-2.5-1.1-5.1-1.7-7.7c-1-3.8-3.2-5.5-5.9-5s-4.3,2.9-3.8,6.9c0.7,5.3,0,10.5-0.7,15.7c-1,7.2-3.2,14.2-6.5,20.7
			c-2.9,6-7.3,11.3-12.8,15.2c-7.1,4.9-13.8,4.2-19-2.8c-2.8-4-5.2-8.4-7-13c-4.4-10.2-6.2-21.2-8.1-32.1c-2-11.7-3.7-23.6-5.7-35.3
			c-0.5-2.6-1.4-5-2.7-7.3c-1.3-2.4-4.1-3.5-6.7-2.6c-2.8,0.9-4.4,3.9-3.5,6.8c0,0.1,0.1,0.2,0.1,0.2c3.5,9.6,1.9,19-1.1,28.2
			c-1.3,3.5-3,6.9-5.1,10c-4.9,7.4-11.9,9.7-20.4,7.9C934.2,490.6,928,486.2,923,478.2z M457.2,380.2l0.2,0.2
			c8.1-13,13-27.2,16.1-42.1c0.5-2.5,0.4-5.3,2.8-7.1c3,1,6,2.2,9,3.1c9.6,2.6,18.9,1.9,27.6-3.5c1.9-1.3,3.7-2.8,5.2-4.6
			c1.3-1.5,0.9-4.3-0.5-5.6c-1.2-1.4-3.1-1.8-4.8-1c-1.5,0.8-3,1.7-4.4,2.7c-15.5,9.2-34.6,1.1-38.7-16.6
			c-1.3-5.6-1.2-11.5-1.8-17.3c-0.2-2.2,1-3.9,2.4-5.4c2.3-2.6,4.7-5.1,6.9-7.9c1.8-2.2,1.6-4.5-0.1-6.3c-1.9-2-4.4-1.9-6.9,0.2
			c-0.9,0.8-1.7,1.6-2.5,2.5c-2.4,2.5-4.6,5.2-7.1,7.6c-4.9,5.1-11.7,7.8-18.8,7.5c-12-0.3-21.8-5.1-29-14.9
			c-2.4-3.3-4.1-7-6.2-10.5c-1-1.8-2.1-3.5-3.2-5.1c-1.3-1.6-3.6-2.1-5.5-1.2c-1.9,0.9-2.9,3-2.3,5.1c0.6,1.9,1.4,3.8,2.4,5.6
			c2.3,4.3,4.7,8.6,6.9,12.7c-0.4,1-0.8,1.9-1.3,2.8c-8.5,11.3-19.9,15.6-33.6,13.2c-5.6-1-11.1-3.1-16.7-4.6
			c-2.8-0.8-5.6-1.2-8.4-1.4c-1.1,0-2.6,1.4-3.1,2.5c-0.8,1.6-0.2,3.6,1.3,4.6c0.7,0.5,1.4,1,2.2,1.4c8.3,3.4,16.6,6.7,25.7,7.5
			c1.7,0.1,3.4,0.5,5.5,0.8c-0.1,1.8-0.4,3.5-0.7,5.3c-4.6,17.7-5.6,35.7-4.1,53.8c0.5,6,2.6,11.9,4.1,17.8c0.7,2.2,1.6,4.4,2.6,6.5
			c-3,4.1-5.8,8.2-8.9,12.1c-0.9,1.2-2.5,1.8-3.9,2.8c-3.6-5.5-4.9-11.2-6.3-16.8c-2.3-9.6-4.4-19.3-7.1-28.8
			c-1.3-4.8-3.4-9.3-6-13.5c-4.1-6.4-10.3-6.5-15.1-0.7c-1.8,2.2-3.2,4.8-4.1,7.5c-1.2,3.9-2,7.9-2.4,12
			c-0.9,13.7,0.1,27.4,2.8,40.8c1.7,8.9,3.5,17.8,7.5,25.9c1.8,4,4.1,7.6,6.9,11c4.7,5.2,10.9,6.6,17.4,3.7
			c3.7-1.6,7.1-3.8,10.1-6.6c3.7-3.7,7.1-7.7,10-12c3.4-4.7,6.2-9.8,9.4-14.7c1.5-2.4,3.2-4.7,4.5-6.7l21,4.3
			c0.9,1.8,1.8,3.6,2.7,5.4c3.4,7.1,6.5,14.3,10.2,21.2c2.4,4.6,5.3,9,8.8,12.9c6.9,7.5,16.7,8.3,25.2,2.7c2.2-1.4,4.2-3.1,5.8-5.1
			c14-17.3,24.9-36.4,31.7-57.7c1-3.1,1.4-6.2,1.4-9.4c-0.1-11.7-10.2-18.5-21-14.3c-4.3,1.7-8.2,4.4-11.5,7.7
			c-2.4,2.5-4.7,5.2-7.2,7.6C459.5,380.3,458.2,380,457.2,380.2z"/>
		<path class="st1" d="M238.8,376c3.1,4.3,4.9,9.5,7.1,14.9c-1.5,1.7-2.8,3.5-4,5.3c-1.7,2.9-0.7,6.5,2.2,8.2
			c0.3,0.2,0.6,0.3,0.9,0.4c4.6,2,10.1,0.9,13.5-2.9c3.1-3.5,3-8.2-1.1-10.3c-3.5-1.8-5-4.5-6.4-7.7c-1.6-4-3.5-7.9-5.1-11.4
			l14.4-17.5c1,0.7,1.9,1.4,2.8,2.3c7.9,9.3,17,16.6,29,19.7c2.3,0.6,4.2,2.2,5.1,4.4c1.9,3.9,4,7.8,5.7,11.8c4,10,7,20.4,9,30.9
			c0.4,2.9,0.6,5.7,0.7,8.6c-1.5-0.8-3-1.7-4.4-2.6c-3.9-3.1-7.7-6.2-11.4-9.4c-2.6-2.4-6.3-3.2-9.6-1.9c-15.4,5-30.8,9.9-45.8,16.1
			c-4.2,1.8-6.5,4.5-7,9c-0.5,4.3-1.2,8.6-2,12.9c-0.5,1.9-1.1,3.7-1.9,5.5c-1.2-1.1-2.3-2.3-3.3-3.5c-11.8-16.2-21.4-34-28.3-52.8
			c-0.6-1.6-1.2-3.5-0.8-5c2-6.8,1.7-13.8,1.8-20.8c0.1-0.5,0.2-1,0.4-1.4c6.6,0.6,13.2,1.9,19.7,1.5
			C226.1,379.7,232.2,377.5,238.8,376z M280.5,384.6c-3.9,0.1-7,3.3-7,7.2c0.2,3.7,3.9,7,7.5,6.6s6.9-4.1,6.5-7.7
			C287.1,387.1,284,384.5,280.5,384.6L280.5,384.6z M223.5,407.1c-3.7,0.2-5.7,2.5-5.4,6.4c0.2,3.3,2.5,5.7,5.4,5.7
			c3.4,0.1,6.6-3.2,6.6-6.7C230.1,409.3,227.2,406.9,223.5,407.1L223.5,407.1z"/>
		<path class="st1" d="M457.1,380.2c1-0.1,2.4,0.1,3-0.5c2.5-2.4,4.7-5.1,7.2-7.6c3.2-3.4,7.1-6,11.5-7.7c10.8-4.2,20.9,2.6,21,14.3
			c0,3.2-0.5,6.4-1.4,9.4c-6.8,21.3-17.7,40.4-31.7,57.7c-1.7,2-3.6,3.7-5.8,5.1c-8.5,5.6-18.3,4.8-25.2-2.7
			c-3.4-3.9-6.4-8.3-8.8-12.9c-3.7-6.9-6.8-14.1-10.2-21.2c-0.9-1.8-1.8-3.6-2.7-5.4l-21-4.3c-1.3,1.9-2.9,4.3-4.5,6.7
			c-3.1,4.9-6,10-9.4,14.7c-2.9,4.3-6.3,8.3-10,12c-3,2.7-6.4,4.9-10.1,6.6c-6.5,2.9-12.7,1.5-17.4-3.7c-2.8-3.3-5.2-7-6.9-11
			c-3.9-8.2-5.7-17.1-7.5-25.9c-2.8-13.4-3.7-27.1-2.9-40.8c0.3-4.1,1.1-8.1,2.4-12c0.9-2.8,2.3-5.3,4.2-7.5
			c4.8-5.8,11-5.7,15.1,0.7c2.6,4.2,4.7,8.7,6,13.5c2.7,9.5,4.8,19.2,7.1,28.8c1.4,5.7,2.7,11.3,6.3,16.8c1.4-1,3-1.6,3.9-2.8
			c3-3.9,5.9-7.9,8.9-12.1c-1-2.1-1.9-4.3-2.6-6.5c-1.5-5.9-3.6-11.8-4.1-17.8c-1.5-18.1-0.5-36.1,4.1-53.8c0.3-1.7,0.6-3.5,0.7-5.3
			c-2.1-0.3-3.8-0.7-5.5-0.8c-9.1-0.8-17.4-4.1-25.7-7.5c-0.8-0.4-1.5-0.8-2.2-1.4c-1.5-1-2.1-3-1.3-4.6c0.5-1.1,2.1-2.5,3.1-2.5
			c2.9,0.1,5.7,0.6,8.4,1.4c5.6,1.5,11,3.6,16.7,4.6c13.7,2.4,25.1-1.9,33.6-13.2c0.5-0.9,1-1.9,1.3-2.8c-2.2-4.1-4.6-8.3-6.9-12.7
			c-1-1.8-1.8-3.6-2.4-5.6c-0.6-2,0.4-4.2,2.3-5.1c1.9-0.9,4.2-0.4,5.5,1.2c1.2,1.7,2.3,3.4,3.2,5.1c2.1,3.5,3.9,7.2,6.2,10.5
			c7.1,9.9,16.9,14.7,29,14.9c7,0.2,13.9-2.5,18.8-7.5c2.5-2.5,4.7-5.1,7.1-7.6c0.8-0.9,1.6-1.7,2.5-2.5c2.5-2.2,5-2.2,6.9-0.2
			c1.7,1.8,1.9,4.1,0.1,6.3c-2.1,2.7-4.5,5.3-6.9,7.9c-1.4,1.5-2.6,3.2-2.4,5.4c0.5,5.8,0.5,11.7,1.8,17.3
			c4.1,17.7,23.2,25.8,38.7,16.6c1.4-1,2.9-1.9,4.4-2.7c1.6-0.7,3.6-0.3,4.8,1c1.3,1.3,1.7,4.2,0.5,5.6c-1.5,1.8-3.2,3.3-5.2,4.6
			c-8.6,5.3-17.9,6.1-27.5,3.5c-3-0.8-6-2-9-3.1c-2.4,1.8-2.3,4.6-2.8,7.1c-3.1,14.9-8.1,29.1-16.1,42.2c-0.9,2-1.9,4-2.8,5.9
			c-0.5,0.1-1.2,0.1-1.5,0.5c-5.4,6.4-11.9,11.7-19.2,15.7c-0.4,0.2-0.6,0.9-0.9,1.4c2.2,4.2,2.2,4.2,5.9,6.4
			c0.5-0.2,1.2-0.3,1.5-0.6c5.9-7,10.6-14.9,14-23.4C457.8,383.8,458,383.4,457.1,380.2z M419.4,400c10.8-2.9,19.4-7.8,26.1-15.7
			c5.8-7,10.4-14.8,13.7-23.2c4.2-10.3,6.6-21,8.9-31.9c0.6-2.6-0.1-5.3-1.8-7.3c-4.1-5.5-6.1-11.8-7-18.5c-0.4-3.1-1-6.2-1.6-9.4
			c-1,0-1.9,0.1-2.9,0.3c-13.9,4.6-26.8,2-38.8-5.8c-1.2-0.8-2.4-1.3-3.4-1.9c-4.5,4-8.2,8.1-12.7,11.1s-9.7,4.9-14.7,7.2
			c-2.3,5.9-4.2,12-4.5,19c9.5,5,17,12.5,24.2,21c2.3-10.4,3-11,15.2-12.9c0.7-2.5,1.5-5.3,2.2-8.1c0.7-3,2.2-5.9,1.6-9.6
			c-6.1-0.5-12.2-0.3-18.3,0.6c-1.7,0.3-3.4,0.4-5.1,0.2c-1.1-0.3-2-1.1-2.4-2.1c-0.1-1.1,0.3-2.2,1.1-2.9c1.7-1.1,3.6-1.9,5.5-2.2
			c7.7-1.3,15.5-2,23.3-0.6c9.8,1.6,18.7,6.6,25.2,14.1c0.6,0.7,1.1,1.4,1.6,2.1c1.5,2.2,1.3,4.1-0.4,5.4s-3.3,0.6-4.6-0.6
			c-1.7-1.6-3.1-3.4-4.9-5c-4.3-4-7.1-5.3-12.9-6.2c-2.3,5.9-4,12.1-4.9,18.4c2.2,2.5,4.1,4.3,5.7,6.3c4.5,5.9,2.2,12.1-5,14
			c-3.9,1-7.4-0.4-10.9-1.6c-1.4-0.5-2.5-1.4-3.9-1.9c-1.2-0.5-2-2.2-3.7-1.2C419.9,376.7,418.4,370.8,419.4,400z M422.2,407.7
			c2.6,8.5,11.1,26.2,15.3,32l0.5,0.7c6.7,8.9,15,9.4,22.7,1.3c0.4-0.4,0.8-0.9,1.1-1.3c12.7-15.9,22.6-33.9,29.1-53.2
			c0.8-2.2,1.3-4.5,1.5-6.8c0.6-8-5.2-12.2-12.2-8.6c-3.3,1.8-6.3,4-9,6.6c-5.3,5-9.3,11.1-13.1,17.3c-3.5,5.7-6.8,11.5-10.7,16.9
			c-5.1,7-11.7,7.1-17.5,0.8c-1.5-1.7-2.7-3.8-4.1-5.6C424.9,406.5,423.5,406.4,422.2,407.7L422.2,407.7z M382.8,394.9
			c-2.8,3.8-5,6.9-7.4,9.7c-1.9,2.2-4,4.2-6.4,5.8c-3.4,2.2-6.8,1.5-9.1-1.8c-1-1.4-1.9-2.9-2.5-4.6c-1.9-5.2-3.8-10.4-5.2-15.7
			c-2.5-9.5-4.6-19.2-7.1-28.8c-1-3.3-2.3-6.6-3.9-9.6c-0.5-1.1-1.9-1.9-3.3-3.3c-1.5,2.1-3.2,3.5-3.7,5.3
			c-1.4,4.1-2.3,8.4-2.8,12.7c-0.8,12.2,0,24.4,2.6,36.4c1.6,8,3.7,15.8,6.3,23.5c1.4,3.8,3.4,7.4,6,10.5c2.9,3.7,6.6,4.1,10.9,2.3
			c5-2.1,8.6-5.8,11.9-10c6.9-8.6,12-18.4,18-27.9C385.7,398,384.5,396.8,382.8,394.9L382.8,394.9z M394.6,378
			c7.4-0.1,12.2-4.8,12.1-11.9c-0.1-8-5.4-13.6-12.8-13.4c-7.2,0.1-13.4,5.7-13.6,12C379.9,371.6,386.8,378,394.6,378L394.6,378z"/>
		<path class="st3" d="M280.5,384.6c3.6-0.1,6.7,2.5,7.1,6.1c0.4,3.6-2.8,7.3-6.5,7.7s-7.3-2.9-7.5-6.6
			C273.5,387.8,276.6,384.7,280.5,384.6z"/>
		<path class="st3" d="M419.4,400c-1-29.2,0.5-23.2-10-49c1.7-1,2.5,0.7,3.7,1.2c1.3,0.6,2.5,1.4,3.9,1.9c3.5,1.3,7,2.7,10.9,1.6
			c7.2-1.9,9.5-8.1,5-14c-1.6-2.1-3.5-3.9-5.7-6.3c0.9-6.3,2.6-12.5,4.9-18.4c5.9,0.9,8.6,2.2,12.9,6.2c1.7,1.6,3.1,3.4,4.9,5
			c1.3,1.2,2.9,1.9,4.6,0.6s1.8-3.2,0.4-5.4c-0.5-0.7-1-1.4-1.6-2.1c-6.5-7.5-15.4-12.5-25.2-14.1c-7.8-1.3-15.6-0.6-23.3,0.6
			c-2,0.4-3.9,1.2-5.5,2.2c-0.8,0.7-1.3,1.8-1.1,2.9c0.4,1.1,1.3,1.9,2.4,2.1c1.7,0.2,3.4,0.1,5.1-0.2c6-0.9,12.2-1.1,18.3-0.6
			c0.6,3.8-0.9,6.7-1.6,9.6c-0.7,2.8-1.5,5.5-2.2,8.1c-12.2,1.9-12.9,2.5-15.2,12.9c-7.1-8.5-14.7-16-24.2-21c0.3-7,2.3-13,4.5-19
			c5-2.4,10.2-4.2,14.7-7.2s8.3-7.2,12.7-11.1c1,0.5,2.3,1.1,3.4,1.9c12.1,7.8,24.9,10.4,38.8,5.8c0.9-0.2,1.9-0.3,2.9-0.3
			c0.6,3.2,1.2,6.3,1.6,9.4c0.9,6.7,2.9,13.1,7,18.5c1.7,2,2.3,4.7,1.8,7.3c-2.2,10.8-4.6,21.6-8.9,31.9
			c-3.3,8.4-7.9,16.2-13.7,23.2C438.8,392.2,430.2,397.1,419.4,400z M430.1,371.1c0.1,4.6,4.3,8.3,9.4,8.1c4.5,0,8.1-3.7,8.1-8.2
			c0-0.1,0-0.1,0-0.2c0-4.5-3.2-8.1-7.2-8.2C435.3,362.4,430,366.8,430.1,371.1L430.1,371.1z"/>
		<path class="st3" d="M422.2,407.6c1.3-1.2,2.6-1.2,3.7,0.2c1.5,1.8,2.6,3.9,4.1,5.6c5.8,6.4,12.4,6.2,17.5-0.8
			c3.9-5.4,7.2-11.2,10.7-16.9c3.8-6.2,7.7-12.3,13.1-17.3c2.7-2.6,5.7-4.9,9-6.6c7-3.6,12.9,0.7,12.2,8.6c-0.2,2.3-0.7,4.6-1.5,6.8
			c-6.5,19.3-16.4,37.3-29.1,53.2c-0.4,0.5-0.7,0.9-1.1,1.3c-7.6,8-15.9,7.6-22.7-1.3l-0.5-0.7C433.4,433.8,424.9,416.1,422.2,407.6
			z"/>
		<path class="st3" d="M382.8,394.9c1.8,2,2.9,3.2,4.3,4.7c-6.1,9.5-11.2,19.2-18,27.9c-3.2,4.1-6.9,7.9-11.9,10
			c-4.4,1.9-8,1.4-10.9-2.3c-2.6-3.1-4.6-6.7-6-10.5c-2.6-7.7-4.7-15.6-6.3-23.5c-2.5-12-3.4-24.2-2.6-36.4
			c0.5-4.3,1.4-8.5,2.8-12.7c0.5-1.8,2.2-3.2,3.7-5.3c1.4,1.4,2.7,2.1,3.3,3.3c1.6,3.1,2.9,6.3,3.9,9.6c2.5,9.5,4.6,19.2,7.1,28.8
			c1.4,5.3,3.3,10.5,5.2,15.7c0.6,1.6,1.5,3.2,2.5,4.6c2.3,3.2,5.7,4,9.1,1.8c2.4-1.7,4.5-3.6,6.4-5.8
			C377.8,401.7,379.9,398.6,382.8,394.9z"/>
		<path class="st3" d="M394.6,377.9c-7.7,0.1-14.6-6.3-14.4-13.2c0.2-6.4,6.5-11.9,13.6-12c7.4-0.1,12.7,5.4,12.8,13.4
			C406.8,373.1,401.9,377.9,394.6,377.9z M393.6,359.7c-2.4,0.2-4.3,2-4.5,4.4c-0.1,3,3,6.1,6.1,6.1c2.6,0,5.5-3.4,5-6
			C399.8,361.8,396.6,359.6,393.6,359.7L393.6,359.7z"/>
		<path class="st3" d="M454.5,386.2c-3.4,8.5-8.2,16.4-14,23.4c-0.3,0.4-1,0.4-1.5,0.6c-3.7-2.1-3.7-2.1-5.9-6.4
			c0.3-0.5,0.5-1.2,0.9-1.4c7.3-4,13.9-9.3,19.2-15.7c0.3-0.3,1-0.3,1.5-0.5L454.5,386.2z"/>
		<path class="st3" d="M454.6,386.4c0.9-2,1.9-3.9,2.8-5.9l-0.3-0.2c0.8,3.2,0.6,3.6-2.7,6L454.6,386.4z"/>
		<path class="st1" d="M430.1,371.1c0-4.2,5.2-8.6,10.2-8.5c4,0.1,7.2,3.7,7.2,8.2c0.1,4.5-3.4,8.2-7.9,8.3c-0.1,0-0.1,0-0.2,0
			C434.4,379.4,430.1,375.7,430.1,371.1z"/>
		<path class="st1" d="M393.6,359.7c2.9-0.1,6.2,2.1,6.6,4.5c0.5,2.6-2.4,6-5,6c-3.1,0-6.2-3.1-6.1-6.1
			C389.4,361.8,391.3,359.9,393.6,359.7z"/>
	</g>
</g>
<g>
	<defs>
		<rect id="SVGID_00000087410052671931406910000016923647649860083847_" x="-28" y="-347.9" width="570" height="747.9"/>
	</defs>
	<clipPath id="SVGID_00000173875418110975575350000016915975685109226883_">
		<use xlink:href="#SVGID_00000087410052671931406910000016923647649860083847_"  style="overflow:visible;"/>
	</clipPath>
	<g style="clip-path:url(#SVGID_00000173875418110975575350000016915975685109226883_);">
		<path class="st1" d="M-609.3,395.7c2.1,11.2,7.4,20.7,14.8,29.1c13.3,15,30.2,23.6,49.6,27.1c13,2.4,26,2.8,39-0.4
			c1.2-0.3,2.4-0.5,3.6-0.6c1,0,2.4-0.9,3.2,1.5c-1.2,1.6-2.6,3.5-3.9,5.5c-3.8,5.2-6.8,11-8.8,17.1c-5.1,16.1,1.9,33.5,16.6,41.8
			c5.9,3.2,12.4,5.2,19,6c11.1,1.7,21.8-0.1,32.4-3.3c10.5-3.2,20.5-7.9,29.7-13.9c1.6-0.8,3.2-1.4,4.9-1.9
			c0.3,4.1,0.3,7.5,0.8,10.8c2.1,14,13.2,21.2,26.6,17.3c1.8-0.5,3.5-1.1,5.2-1.8c6.7-2.9,13-6.8,18.5-11.6c1.1-1,2.2-2.2,4.1-1
			c0.5,2.5,0.9,5.2,1.6,7.9c2.5,10,9,15.7,19.1,17.2c4.2,0.7,8.5,0.5,12.7-0.6c2.8-0.7,24.8-9.1,32.3-15l1.2-1.7
			c0.3-0.5,0.6-1,1-1.5c7.4-7.7,14.4-15.7,20.8-26.7c2.2,8.2,3.5,14.5,5.7,20.5c2,5.7,5,11,7.8,17l-1,0.6
			c5.8,5.6,11.2,11.8,16.3,15.4c0.1,0.1,0.2,0.2,0.4,0.2v-0.1c4.2-0.1,6.7,2.7,10.4,4.5c-0.1,0.6-0.2,1.3-0.3,1.9
			c3.2,1.8,6.5,3.4,9.9,4.9c0.8-1.7,1.8-2.4,2.6-1.8c0.9,0.8,1.4,2,1.1,3.2c3.4,1.3,6.8,2.4,10.2,3.3c0.4-0.8,0.9-1.5,1.4-2.2
			c0.6,0.8,0.7,1.8,0.2,2.7c4,1,8.1,1.7,12.3,2.1c0.5-1.5,1.1-3,1.6-4.6c27.2-1.6,42.2-5.6,73.9-27.6c1.2,1.5,2.5,3.1,3.7,4.7
			c10.2,13.8,20.7,17,36.7,11c3.6-1.5,7.2-3.3,10.5-5.3c1.8-1,3.5-2.2,5.1-3.2c2.7,1.2,1.8,3.3,1.9,5c0.6,8.3,1.5,16.5,4.4,24.3
			c1.5,4.3,3.5,8.4,5.8,12.4c6.5,10.7,16,15.5,28.5,14.4c2.6-0.2,5.2-0.4,7.9-0.6l2.2-0.2c6.6-2.5,12.8-5.7,18.7-9.5
			c9.3-6.1,15.5-12.6,20.9-18.3c4.4-4.7,7.9-8.9,10.2-12c1.9,17.9,8.9,35,20.2,49c7,8.5,15.5,15.7,25.1,21.2
			c4.7,1.5,42.2,13.2,74.2-9.6c22.7-16.2,29.2-40.1,31.5-49.1c8.1-31.7-2.9-57.7-6.5-65.4c5.7-6.1,12-11.9,15.8-19.7
			c3.6-7.5,6.3-15.4,6.3-23.8s-1.1-16.9-1.8-26.1c8.7-1.1,17.4-3.5,25.5-8.8c3.5,8,8.6,15.1,15.1,20.9c5.4,4.7,11.8,10.4,20.9,10.9
			c5.6,0.3,12.7-1.2,12.7-1.1c-0.4,0.1-0.8,0.2-1.2,0.3c4.4-2.6,7.4-4.1,10-6.1c3.2-2.4,6.1-5,8.7-8c2.3-2.8,4.3-5.9,5.8-9.2
			c1.5-3.2,2.4-6.8,3.8-10.9c8.1,5.2,15.3,10.3,22.9,14.7c0.7,0.4,10.6,3.1,13.5,4.5c4,0.6,8,0.7,12,0.3c4.2,16.2,18.3,27.9,35,29
			c21.2,1.3,34.6-16.8,35.6-18.2c0,0.4,0.1,0.8,0.2,1.2c3.7,26.6,21.6,74.7,53.8,48.2c5.5-4.5,11.4-16,17.7-18.6
			c7.9-3.3,8.6,1.9,12,10.7c7.9,20.3,16,39.7,25.5,59.5c0.8,1.6,1.4,3.4,1.8,5.1c0.7,1,1.4,2,2.2,2.9c5,5.8,9.7,12,15.3,17
			c14.4,12.8,31.3,18.4,50.5,16.9c15.6-1.3,30.5-6.5,43.4-15.3c31.8-21.1,49.8-51.3,55.8-88.9c3.4-21.6-1.5-41.4-14.9-58.9
			c-3.3-4.4-7.2-8.3-10.8-12.5c-1.1-1.3-2.9-2.2-2.9-4.9c2.4-0.9,5.1-0.4,7.7-0.5c6.1-0.2,12.1-0.7,17.9-2.8
			c17.3-6.1,21-23,17.5-34.8c-1.7-5.6-4.2-10.9-7.5-15.7c-0.7-1.1-1-2.5-1.7-4.5c6.3-0.1,11.8-0.1,17.2-0.2
			c13.4-0.2,26.7-1.5,39.7-5.3c12.4-3.6,24-8.9,34-17.1c8.7-7.1,15.3-15.9,18.2-26.9c4.1-15.4,1.2-29.1-10.2-40.7
			c-4.7-4.8-10.1-8.8-16-12.1c-13.1-7.3-27.6-11.6-42.5-12.9c-12.2-1.1-24.3-0.2-36.4,1.2c-1.6,0.2-3.5,1.1-5.3-1.2
			c1.3-1.8,2.7-3.7,4.1-5.6c3.6-4.6,6.2-9.9,7.7-15.6c2.9-12.9-2-24.2-13.7-30c-4.9-2.4-10.1-4.1-15.5-5.1
			c-14.8-2.9-29-0.1-42.8,5.6c-2.8,1.1-5.5,2.3-9,3.7c1-4.7,3.6-7.3,5.3-10.4c3.3-6.2,7.3-12.1,9.8-18.6c7-18.7-1.3-35.2-20.2-41.4
			c-1.2-0.4-2.3-0.7-3.5-1c-6.6-1.5-13.4-1.4-19.9,0.4c-4.6,1.2-9.2,2.5-14.8,4c0.9-2.9,1.4-4.8,2.1-6.7c2.5-7.2,5.2-14.4,7.3-21.7
			c3.5-11.5,4.2-23.7,2.2-35.5c-2.7-15.8-11.9-25.8-27.3-29.9c-7.7-2-15.8-2.2-23.5-0.4c-8,1.8-15.7,4.9-22.8,9.1
			c-11.3,6.7-21.5,15.2-29.9,25.3c-1.5,1.5-3.1,3-4.8,4.3c-2-5-3.3-9.3-5.4-13.4C490.1,47.5,479.5,41,465,41
			c-6.7,0-13.4,1.5-19.5,4.3c-10.6,4.7-20.3,11.2-28.6,19.4c-6.5,6.5-12.2,13.7-17.1,21.5c-1.1,1.5-2.3,2.9-3.6,4.2
			c-1-3.8-1.7-6.8-2.6-9.7C389.9,68.8,380,63,368,65.6c-5.3,1.2-10.4,3.3-15,6.3c-7,4.3-13.4,9.7-18.9,15.8c-1.1,1.1-2.4,2.1-3.6,3
			c-1.2-6.5-2.1-12.2-3.4-17.9c-2-9.1-5.4-17.6-11.5-24.8c-8.7-10.3-19.5-14-32.7-10.5c-6.2,1.7-12,4.6-17,8.6
			c-6,4.7-11.2,10.4-15.4,16.9c-4.6,6.9-8.2,14.4-10.7,22.3c-0.7,1.8-1.6,3.5-2.5,5.1c-2.6-4.7-4.6-8.4-6.7-12.1
			c-5.6-10.2-11.9-20-19.8-28.6c-5.5-6.2-12.2-11.2-19.6-14.7c-20.1-9.3-43.3,0.5-47.5,25.5c-0.2,1.5-0.4,3-0.5,4.6
			c-0.4,8.3,0.6,16.6,3,24.5c3.6,11.8,9.3,22.6,15.4,33.3c0.9,1.6,3.2,3.1,1.5,6c-13.2-1.3-23.7,5.3-33.8,13.2
			c-2.4-3.2-1.9-6.8-3-9.9c-1.2-3.8-2.1-7.7-4-11.1c-3.6-6.5-10.3-8.8-17.2-6.4c-2.8,1-5.4,2.7-8.2,4c-1,0.5-2,0.8-3.9,1.5
			c0.3-3.8,0.5-6.8,0.7-9.8c0.8-9.5,1.8-18.9,2.2-28.4c0.7-13-0.6-25.7-5.4-38c-5.2-13.4-14.6-22.5-28.1-27
			c-3.8-1.2-7.6-2.1-11.5-2.8c-11.5-1.7-23.2-0.9-34.3,2.3C1,20.4-13.5,28-25.9,38.5c-11.5,9.9-19.2,22.1-21.3,37.4
			c-1.4,10.3,0.5,20.1,3.8,29.8c0.9,2.5,1.7,5,3,9c-3.6-2.2-5.9-3.6-8.1-5c-7.8-4.9-16.1-8.8-25.3-10.1
			c-15.2-2.4-29.6,7.2-33.3,22.1c-2.4,8.9-1.4,17.6,1.2,26.3c2.8,9.2,7.5,17.4,12.9,25.2c1.1,1.6,2,3.4,3.6,6.2
			c-23.8-5.5-45.2-3.2-65.3,10.4c-0.3-2.3-0.4-4.6-0.4-6.9c0.3-4.6,0.9-9.1,1.3-13.7c0.8-10.6-1.2-20.8-5.1-30.6
			c-2.2-5.7-5.7-10.9-10.2-15.1c-9.8-9-23.3-10.8-34.7-4.1c-4.1,2.6-7.9,5.6-11.4,9.1c-2.6,2.5-4.6,5.7-6.9,8.5
			c-0.9,1.1-1.5,2.8-3.9,2.4c-1-4.2-2.1-8.6-3.2-13c-3.5-14.6-9.4-28.6-17.5-41.2c-3.7-6-8.3-11.4-13.7-16
			c-15.2-12.7-32.4-11.2-44.8,4.4c-3.7,4.8-6.8,10.1-9.2,15.7c-5.9,13.5-8.7,28.2-8.1,43c0.1,2.3,0.6,4.7-0.3,7.8l-5-3.4
			c-5.6-3.8-10.9-7.9-16.8-11.1c-4.8-2.6-10-4.5-15.4-5.6c-12.4-2.5-22.3,2.7-27.8,14.1c-1.4,3-2.5,6.2-3.2,9.5
			c-1.4,6.9-1.3,14.1,0.5,21c2.2,8.9,5.6,17.5,10.2,25.5c0.6,1.1,2.1,2.4-0.2,4.1c-5.8-3-11.7-6.1-17.6-9.2
			c-11.8-6.3-24.3-11.4-37.2-15c-11.2-3.1-22.9-3.9-34.4-2.3c-6.7,0.8-13.1,3-18.9,6.5c-12,7.4-17.2,20.1-14,34
			c1.3,5.7,3.6,11.1,6.5,16.1c5.4,9.3,12.3,17.6,20.3,24.7c1.2,1.1,3.4,1.8,3,4.6c-3.3,1.2-6.5,2.5-9.7,4
			c-8.6,4.6-11.7,12.1-9.3,21.5c1.6,5.6,4.4,10.8,8.2,15.2c1.5,1.8,2.9,3.6,4.3,5.4c-2.1,2.3-4.4,1.8-6.3,1.9
			c-12.4,1.1-24.7,3.3-36.8,6.7c-18.5,5.1-36.3,12.2-52.9,22.1c-9,5.4-17.1,11.7-23.5,20.2C-608.7,364.1-612.4,379.1-609.3,395.7z
			 M-356.4,467.8c-0.2,4.6-0.6,9.2-1.1,13.7c-0.4,2-0.9,4-1.6,5.9c-1.3-1.1-2.5-2.3-3.7-3.5c-13.7-16.1-25-34.1-33.7-53.3
			c-0.7-1.6-1.5-3.6-1.2-5.2c1.5-7.3,0.8-14.6,0.3-22c0-0.5,0.2-1,0.4-1.5c7,0.1,14,1,20.8,0c6.5-0.9,12.7-3.6,19.6-5.7
			c3.5,4.3,5.9,9.6,8.6,15.1c-1.4,1.9-2.7,3.8-3.8,5.9c-1.7,3.7,0.1,7.5,4,8.8c5,1.8,10.7,0.2,14-4c3-4,2.5-8.8-1.9-10.8
			c-3.8-1.6-5.6-4.3-7.3-7.6c-2-4.1-4.3-8-6.2-11.6l13.8-19.5c1.1,0.6,2.1,1.4,3.1,2.2c9,9.1,19.1,16.1,31.9,18.5
			c2.4,0.4,4.5,2,5.7,4.2c2.3,4,4.8,7.8,6.8,11.9c4.9,10.2,8.9,20.8,11.8,31.8c0.7,2.6,0.8,5.3,1.4,9c-1.7-0.7-3.3-1.5-4.9-2.4
			c-4.3-2.9-8.5-5.9-12.7-9c-2.9-2.4-6.9-2.9-10.2-1.3c-15.8,6.4-31.6,12.7-46.8,20.4C-354,460-356.2,463.1-356.4,467.8
			L-356.4,467.8z M-584.7,350.6c5.4-5,11.3-9.3,17.7-12.9c16.4-9.6,34.1-16.1,52.5-20.7c18.1-4.5,36.6-6.1,55.2-6.7
			c1.8-0.1,3.8,0.2,5.3-0.6c1.5-0.9,2.6-2.4,3.1-4.1c0.6-1.9-0.8-3.6-2.5-4.5c-1.7-0.7-3.4-1.3-5.1-1.7c-8.5-3.2-15.6-8.4-20.4-16.3
			c-6.1-10.1-3.7-16.1,7.7-18.8c4.4-1,9-1.3,13.6-1.8c2.7-0.3,5.5-0.5,8.1-1c2.9-0.6,4.6-2.6,4.6-4.9c0-2.2-1.4-4.2-3.5-4.9
			c-1.7-0.7-3.5-1-5.2-1.7c-3.6-1.6-7.4-3-10.6-5.3c-11.5-8.2-20.6-19.4-26.2-32.4c-0.1-0.3-0.2-0.6-0.3-0.9
			c-5.9-15.5,0-27.4,15.8-32c9.9-2.9,19.8-2.8,29.8-1c12.4,2.2,24,6.6,35.3,12.2c8.5,4.2,16.8,8.7,25.2,13.1c3.8,2,7.5,4.4,11.5,5.5
			c6.2,1.8,10.5,5.7,14.5,10.4c10.9,12.7,24.3,22.2,38.8,30.3c2.4,1.3,5,2.2,7.7,2.6c2.5,0.3,4.9-1.4,5.4-3.9c0.4-2-0.7-4-2.9-5.2
			c-4.3-2.3-8.7-4.4-12.8-7c-21.8-13.1-37.8-31.7-50-53.8c-5.2-9.5-8.8-19.5-8.9-30.6c-0.2-5.2,1.2-10.4,3.8-14.9
			c3.4-5.4,8.1-8,14.6-7.2c4.8,0.7,9.5,2.3,13.8,4.6c7.3,3.9,14,8.8,20,14.5c3.8,3.6,7.4,7.3,11.1,10.9c1.3,1.3,2.7,2.5,4.3,3.4
			c2.3,1.3,5.2,0.4,6.4-1.9c0.4-0.8,0.6-1.6,0.6-2.5c-0.3-2.1-0.8-4.2-1.5-6.2c-7.9-23.3-3.9-45.3,6.9-66.6
			c2.2-4.4,5.4-8.2,9.3-11.2c6.5-4.9,13.4-5.3,20.5-1.3c5.7,3.2,10,8,13.8,13.2c7.9,11,13.8,23.3,17.3,36.3c2.4,8.9,4,17.9,6,26.9
			c0.7,3.3,1.3,6.6,2.2,9.9c0.4,1.8,2,3.2,3.9,3.4c2.2,0.5,4.4-0.6,5.4-2.6c1-1.9,1.8-3.9,2.6-5.9c2.9-6.8,6.9-13,11.9-18.4
			c2.4-2.7,5.2-5.1,8.2-7.2c9.2-6.1,18.8-4.7,26.2,3.6c5,5.6,7.7,12.5,9.1,19.8c1.4,7.2,1.7,14.7,0.9,22c-0.8,6.7-1.8,13.4-2.4,20.1
			c-0.4,4.6-0.5,9.2-0.2,13.8c-0.1,2.6,1.7,4.8,4.2,5.3c2.3,0.4,4.3-0.7,5.4-3.8c2.8-7.8,8.9-12.4,15.6-16c17.1-9,35-10,53-3
			c7.6,3,14.9,7,22.3,10.6c2.5,1.2,4.9,2.5,7.4,3.5c2.3,1,5,0,6.1-2.2c1.1-1.9,0.8-3.9-1.1-5.8c-1.7-1.7-3.7-3.2-5.5-4.9
			c-5.7-5.1-11.7-9.9-17-15.3c-10.1-10-17.3-22.4-20.8-36.2c-1.3-5.1-1.3-10.4-0.2-15.5c2-9,8.1-14.4,17-15.4
			c4.3-0.5,8.6,0.1,12.6,1.6c7.8,2.7,15,6.9,21.4,12.2c3.5,2.9,6.8,6.1,10.2,9.2c3.8,3.6,7.4,7.2,11.3,10.8c4.2,3.9,7,4.5,9.5,2.2
			c2.2-2,2.1-4.6-0.5-9.1c-1.1-1.9-2.4-3.6-3.4-5.5c-4.4-8.4-9-16.7-12.8-25.4c-3.5-7.6-5.2-15.8-5.1-24.1c0.1-9,3.1-17.6,8.4-24.8
			c2.7-3.7,5.7-7.1,9.2-10.2c18.6-15.8,40-24.1,64.6-23.1c1.8,0.1,3.6,0.3,5.4,0.6C70.1,27.6,81,38.5,84.4,58.5
			c2.3,13.7,1.8,27.5,0.4,41.3c-0.8,7.9-1.9,15.8-2.8,23.7c-0.8,7.3-1.9,14.5-5,21.3c-2.2,4.8-2.9,10.1-2.1,15.3
			c0.5,3.3,2.6,5.4,5.2,5.6c2.9,0.1,5.4-1.9,6-4.7c1.2-4.4,2.1-8.9,2.7-13.5c1.4-10.9,8.7-17.2,17.1-22.4c4.4-2.7,7.7-1.2,9.3,3.6
			c1.1,3.5,1.9,7.1,2.5,10.7c0.7,4.9,1,9.8,1.6,14.6c0.2,1.8,0.5,3.6,0.9,5.4c0.6,2.1,1.8,3.9,4.2,4.3s4.5-0.7,5.6-3.7
			c3.5-9.2,10.5-14.9,19-18.8c9.9-4.5,16.5-3.1,23.7,5c3.2,3.6,6.1,7.7,9.2,11.4c1.5,1.9,3.1,3.8,4.9,5.5c1.8,1.8,4.6,2,6.7,0.6
			c2.1-1.4,2.9-4.2,1.7-6.5c-1.7-3.3-3.5-6.4-5.5-9.5c-6.6-10.6-13.5-21.2-20-31.9c-5.2-8.3-9.4-17.2-12.6-26.4
			c-2.9-8.8-5-17.7-3.2-27.1c0.2-1.2,0.3-2.4,0.6-3.6c3.4-12.7,14.7-19.4,27.4-16.4c5.8,1.4,10.7,4.4,15.2,8.1
			c6.4,5.3,11.8,11.6,16.1,18.6c5.6,9.1,10.6,18.6,15.9,27.9c1.5,3,3.2,5.9,5.1,8.7c3.8,5,9,4.1,11.1-1.8c0.9-2.9,1.7-5.9,2.3-8.9
			c2-8.7,5.1-17.1,10.2-24.4c3.5-5,7.4-9.7,11.6-14.1c3.9-3.9,8.6-6.9,13.9-8.5c10.1-3.5,18.6-1,25.2,7.5c5.8,7.5,8.5,16.3,9.8,25.5
			c1,7,1.3,14,1.9,21.1c0.2,2.1,0.2,4.3,0.6,6.4c0.3,2.2,1.9,4,4.1,4.5c2.1,0.6,4.4-0.3,5.6-2.2c1.2-1.7,2.2-3.7,3.3-5.5
			c6.4-10.5,15.3-19.2,25.9-25.3c3.7-2.1,7.6-3.9,12-4.2c7-0.6,11,2.1,12.6,9c0.6,3,1,6.1,1.1,9.1c0.7,7.6,1.3,15.3,2,22.9
			c0.1,1.5,0.6,3,1.3,4.3c0.8,1.7,2.7,2.7,4.6,2.3c1.4-0.6,2.6-1.5,3.5-2.6c0.5-0.8,0.8-1.7,0.8-2.6c7.1-28,23.5-48.6,49-61.9
			c6.8-3.5,14-5.9,22-4.8c8.9,1.2,15.3,5.8,19,13.9c1.8,3.9,2.9,8.1,4.4,12.1c0.7,2.3,1.7,4.6,2.8,6.7c2.6,4.3,7.1,5.2,10.9,2
			c2.5-2.2,4.8-4.7,6.8-7.4c9.3-11.8,21-21.5,34.4-28.2c8.4-4.4,17.8-6.5,27.3-6c12,0.7,23.2,7.4,25.7,21.8
			c0.7,3.9,1.1,7.9,1.1,11.9c0,9.5-1.8,19-5.1,27.9c-3,8.3-6.4,16.6-9.5,24.8c-1,2.6-2,5.1-2.9,7.7s-0.6,4.8,1.6,6.6
			s4.5,1.5,6.8,0.2c6-3.7,12.2-6.9,19.1-8.6c4.4-1,8.9-1.8,13.5-2.3c4.3-0.3,8.6,0.5,12.4,2.4c10.5,4.8,14.8,13.7,11.4,24.8
			c-1.5,4.3-3.4,8.5-5.7,12.5c-3,5.3-6.5,10.4-9.7,15.6s-6.6,10.3-8.1,16.4c-0.4,1.7-1.9,3.1-2.7,4.7c-0.7,1.3-1.1,2.8-1.3,4.3
			c-0.3,1.9,0.9,3.7,2.7,4.3c1.4,0.3,2.9,0.2,4.3-0.2c0.8-0.2,1.4-1.1,2.1-1.7c12.6-11.2,28.3-18.4,45-20.7
			c10.1-1.4,20.1-0.5,29.4,4.2c7.4,3.7,10.2,9.1,9,17.3c-0.5,3-1.5,5.9-2.8,8.6c-1.4,2.7-3.2,5.2-5.2,7.5c-2.5,3.1-5.3,5.9-8,8.8
			c-1.9,2-3.8,3.9-5.8,5.9c-2.5,2.5-4.6,5.1-2.8,8.9c1.2,2.6,4.3,3.3,9,1.7c9.6-3.3,19.5-4.8,29.5-5.8c12.8-1.2,25.5-1.1,38.2,1.6
			c9.6,2,18.7,5.6,27.1,10.6c5.3,3,10.1,7,14.1,11.6c5.8,6.5,8.3,15.4,6.7,24c-1.4,8.5-5.4,16.4-11.6,22.5
			c-5.7,5.6-12.3,10.1-19.5,13.4c-10.8,5-22.3,8.2-34.1,9.6c-14.9,1.9-29.8,1-44.7,0.8c-2.1-0.1-4.2-0.1-6.4,0
			c-2.2,0.1-4.1,1.5-4.9,3.6c-0.8,2.1-0.1,4.4,1.7,5.8c1.8,1.6,3.9,2.9,5.7,4.5c7.1,6.2,12.1,13.8,13.1,23.5
			c1.1,9.9-3.4,16.6-13,19.1c-4.4,1.1-9,1.4-13.5,1.7c-2.4,0.1-4.9,0-7.3-0.3c-11.6-0.6-23.1-2-32.5-10
			c-15.9-7.8-31.7-15.6-47.6-23.2c-9.1-4.3-18.3-8.3-27.5-12.3c-2.2-0.9-4.6-1.5-7-1.8c-1.9-0.1-3.7,1.1-4.1,3
			c-0.7,1.8-0.2,3.8,1.4,5c1.2,0.9,2.5,1.7,3.9,2.2c6.6,3,13.3,6,20,9.1c16.8,7.9,33.7,15.7,50.4,23.8c4.9,2.4,9.9,4.7,13.7,9
			c0.9,0.8,1.9,1.5,3,2c12.9,6.3,22.9,16.1,31.6,27.3c11.4,14.7,16.6,31.4,13.8,50c-5.7,37.4-23.7,67-56.6,86.5
			c-8.4,5-17.7,8.4-27.3,10c-18.5,3.3-35-1.1-49.4-13.2c-8.8-7.4-16.1-16.3-20.5-26.7c-3.3-7.9-8.5-14.7-11.4-22.8
			c-3-8.4-6.6-16.5-9.8-24.8c-3-8-5.9-16.1-8.7-24.2c-2.7-8.1-5.2-16.3-7.8-24.5c-0.8-2.6-1.5-5.3-2.4-7.9c-1.3-3.9-3.7-5.6-6.6-4.8
			s-4.3,3.4-3.4,7.5c1.1,5.5,0.8,11,0.4,16.5c-0.5,7.6-2.2,15.2-5.2,22.2c-2.6,6.6-6.8,12.4-12.2,16.9c-7.1,5.7-14.2,5.4-20.2-1.5
			c-3.3-4-6.1-8.4-8.4-13c-5.4-10.4-8.2-21.8-11-33.1c-3-12.2-5.7-24.5-8.7-36.6c-0.7-2.6-1.8-5.2-3.3-7.4c-1.5-2.5-4.6-3.4-7.2-2.2
			c-2.9,1.2-4.3,4.4-3.1,7.3c0,0.1,0.1,0.2,0.1,0.3c4.4,9.8,3.5,19.8,1,29.7c-1,3.9-2.6,7.6-4.6,11c-4.6,8.1-11.8,11.1-20.8,9.9
			c-8.6-1.1-15.4-5.3-21.3-13.3c3.8-7.7,7.2-15.2,11.1-22.4c3.7-6.4,5.1-13.9,4-21.2c-1-8.3-4.5-16.1-10-22.3
			c-2.1-2.2-4.5-4.1-7.1-5.7c-2.3-1.5-4.8-0.8-6.6,1.2c-2.1,2-2.3,5.3-0.5,7.5c1,1.2,2.1,2.2,3.2,3.2c5.5,5,8,11.5,9,18.6
			c1.3,9.5-4.9,18.5-14.3,20.5c-6.9,1.6-14.2,0.5-20.3-3.1c-5.5-3.2-10.8-6.8-15.9-10.7c-4.6-3.5-8.8-7.5-13.2-11.3
			c-1.6-1.5-3.2-2.8-5-4c-2.1-1.4-4.9-1.4-6.9,0.2c-2.1,1.5-3,4.1-2.3,6.5c0.4,1.1,0.9,2.3,1.4,3.4c5.5,16.1-6.1,29.4-16.8,33.2
			c-3.2,1-6.7,1.1-9.9,0.1c-8.1-2-15-7.3-19-14.7c-3-5.3-5.3-11-7.8-16.6c-0.9-1.9-1.7-3.8-2.8-6.5c-1.6,1.1-3.2,2.2-4.6,3.5
			c-4.4,4.3-9.8,7.3-15.8,8.8c-9.4,2.5-18.8,4.7-28.5,7.1c-1.1,1.7,0.6,3.1,1.3,4.5c7.3,14.4,8.3,29.3,3.4,44.6
			c-0.9,3.2-2.4,6.3-4.4,9c-8.6,10.4-18.1,19.9-30.9,25.1c-2.8,1.1-5.7,2-8.6,3c-1.6,0.6-3.3,1.1-4.8,1.7c0.4,3.2,2.4,3.5,4.1,3.2
			c5.7-0.7,11.4-1.5,17.1-2.6c2.9-0.5,5.8-1.6,8.9-2.5c4.3,6.1,5.7,13,7.2,19.8c3.2,14.5,2.3,29.5-2.3,43.6
			c-6.6,19.7-19.4,33.7-38.7,41.4c-9.6,3.8-19.8,3.7-29.7,1.5C89.8,614,73,599.8,63.1,577.7c-4.5-10.4-7.7-21.3-9.6-32.5
			c-0.5-2.7-1.6-5.2-3.1-7.5c-1.4-2.3-4.4-3-6.7-1.6c-0.7,0.4-1.3,1-1.7,1.8c-0.9,1.6-1.7,3.3-2.3,5C31.2,562.2,17,576-1.2,585.7
			c-3.8,1.9-7.8,3.3-12,4.1c-12.2,2.5-19.5-2.7-23.8-10.8c-6-11.4-8.2-23.7-7.5-36.5c0.4-7.7,1.9-15.1,6.7-21.6
			c2.1-2.9,3.2-6.6,4.5-10c0.5-1.3,0.2-2.9,0.3-6.1c-2.2,2.9-3.7,4.3-4.6,6c-7.5,14.2-20,22.8-33.5,30.2c-2.4,1.3-5,2.3-7.7,2.9
			c-12.8,3.3-20.7-1.6-24.5-15.4c1.6-1.8,3.4-3.8,5.3-5.8c7.6-8,14.4-16.7,20.2-26c7-11.5,11.5-24.5,13.1-37.9
			c0.3-2.4,0.3-4.9,0.2-7.3c-0.1-1.2-0.4-2.4-0.9-3.5c-0.9-2-3.1-3.1-5.3-2.7c-1.9,0.3-3.3,1.8-3.5,3.6c-0.3,2.1-0.3,4.3-0.4,6.4
			c-0.8,11.7-4.3,23-10.2,33.1c-15.1,25.3-35.4,45-62.4,57.3c-18.1,8.4-38.6,10.3-57.9,5.4c-5.9-1.5-11.6-3.6-17.1-6.2
			c-18.7-8.9-28.1-24.6-31.1-44.7c-0.7-4.8-0.9-9.8-1.3-14.7c-0.2-3.1-1.5-6-3.6-8.2c-3.1-3.4-6.8-3.2-9,0.5
			c-1.1,1.8-1.8,3.9-2.7,5.8c-4.3,9.5-10,18.3-17,26c-8.6,9.3-18.5,16.9-30.8,20.6c-3.5,1.1-7.1,1.7-10.7,1.9
			c-8.2,0.4-12.5-2.9-14.2-11.1c-0.8-3.5-0.6-7.3-0.7-11c-0.1-3.1,0.4-6.1,0.2-9.2c-0.2-4.3-1-5.1-6-6.4c-0.6-0.1-1.1-0.4-2.2-0.9
			l3.1-27.4c2-1.3,4-2.4,6.1-3.5c12.8-5.6,25.7-11.2,38.5-16.8c3.7-1.6,6.8-1.4,10.1,1.2c4.3,3.4,8.8,6.5,13.5,9.5
			c2.3,1.5,4.8,2.6,7.4,3.2c2.7,0.7,5.4-0.9,6.1-3.6c0.1-0.4,0.2-0.9,0.2-1.3c0-2.4-0.2-4.9-0.8-7.3c-3.4-16.8-9.3-33.1-17.5-48.2
			c-1-1.8-1.8-3.8-2.7-5.8c3.5-1.3,6.7-2.3,9.7-3.7c1.6-0.8,3.1-1.9,4.3-3.3c1.4-1.5,1.2-4.3-0.1-6c-1.2-1.5-3.1-2.1-4.9-1.5
			c-0.9,0.3-1.7,0.6-2.5,1c-11.3,5.2-22.1,3.5-32.2-2.9c-5.1-3.2-9.4-7.7-14-11.7c-3-2.6-5.6-5.7-8.7-8.1s-6.7-1.4-8.3,2.2
			c-0.8,2-1.4,4.1-1.8,6.1c-2.1,8.9-7.4,15.2-15.2,19.7c-11.4,6.7-23.3,8.4-36,4.3c-2.6-0.7-4.9-2.5-6-5c-2.1-4-4.5-8-7-11.7
			c-1.3-2-2.9-3.9-4.8-5.5c-1.4-1.2-3-2.1-4.7-2.6c-2.5-0.9-5.4,0.4-6.2,2.5s-0.6,4.4,1.4,5.8c5,3.4,8,8.4,10.6,13.6
			c5.1,9.8,7.3,21,6.2,32c-0.9,9.2-4.3,17.2-11.2,23.4c-1.4,1.2-2.7,2.4-4,3.8c-1.4,1.7-1.4,4.2,0,5.9c1.4,1.7,4,2.7,5.7,1.5
			c3.2-2.3,6.2-4.9,9-7.6c2.1-2.1,3.9-4.5,6.1-7.2c1.8,3.3,3.3,5.9,4.8,8.6c8.1,15.1,17.8,29.3,28.9,42.4c3.4,4,6.8,7.9,13,8.9
			c-0.7,1.6-1.6,3.2-2.6,4.7c-5.6,6.9-12.7,12.4-20.7,16.2c-1.9,0.9-3.9,1.7-6,2.2c-8.3,2-12.9-1.1-14.2-9.6
			c-0.3-2.4-0.2-4.9,0.2-7.3c1.2-7,3.2-13.7,7-19.8c1-1.5,1.8-3.2,2.5-4.9c0.7-2.1-0.2-4.4-2.1-5.5c-1.6-1-3.7-0.9-5.2,0.3
			c-1.7,1.3-3.1,2.9-4.3,4.7c-3.1,5.1-7.5,8.9-12.1,12.4c-16.2,12.1-33.9,20.3-54.5,21c-6.1,0.2-12.2-0.8-17.9-2.8
			c-15.7-5.2-22.5-21.6-15.6-36.3c3.2-7,7.7-13.3,13.3-18.5c5.1-4.8,10.4-9.4,15.6-14.2c1.6-1.4,3-3,4.1-4.8c1.8-3-1-7.5-4.5-7
			c-2.1,0.3-4.1,1-6,2c-8.7,4.4-18,7.6-27.5,9.7c-21.5,4.6-42.3,2.9-62.1-7.7c-8.1-4.3-15.3-10.1-21-17.2
			C-605.5,395.1-604.1,369-584.7,350.6L-584.7,350.6z"/>
		<path class="st5" d="M806.4,277.8c-4-4.6-8.8-8.5-14.1-11.6c-8.4-5-17.6-8.5-27.1-10.6c-12.6-2.8-25.4-2.8-38.2-1.6
			c-10,0.9-19.9,2.5-29.5,5.8c-4.7,1.6-7.8,0.9-9-1.7c-1.8-3.8,0.4-6.4,2.8-8.9c1.9-2,3.9-3.9,5.8-5.9c2.7-2.9,5.5-5.8,8-8.8
			c2-2.3,3.7-4.8,5.2-7.5c1.4-2.7,2.3-5.6,2.8-8.6c1.2-8.2-1.6-13.6-9-17.3c-9.3-4.7-19.3-5.6-29.4-4.2c-16.7,2.3-32.4,9.5-45,20.7
			c-0.7,0.6-1.3,1.5-2.1,1.7c-1.4,0.4-2.9,0.5-4.3,0.2c-1.8-0.6-3-2.4-2.7-4.3c0.2-1.5,0.6-2.9,1.3-4.3c0.8-1.6,2.3-3,2.7-4.7
			c1.6-6.1,4.9-11.2,8.1-16.4s6.7-10.3,9.7-15.6c2.3-3.9,4.2-8.1,5.7-12.5c3.4-11.1-0.9-20-11.4-24.8c-3.8-1.9-8.1-2.8-12.4-2.4
			c-4.5,0.5-9,1.2-13.5,2.3c-6.8,1.7-13,5-19.1,8.6c-2.2,1.4-4.6,1.6-6.8-0.2s-2.5-4.1-1.6-6.6s2-5.2,2.9-7.7
			c3.2-8.3,6.5-16.5,9.5-24.8c3.4-8.9,5.1-18.4,5.1-27.9c-0.1-4-0.5-7.9-1.2-11.8c-2.5-14.4-13.8-21.1-25.7-21.8
			c-9.5-0.5-18.9,1.6-27.3,6c-13.4,6.8-25.1,16.4-34.4,28.2c-2,2.7-4.3,5.2-6.8,7.4c-3.8,3.2-8.3,2.3-10.9-2
			c-1.2-2.2-2.1-4.4-2.8-6.7c-1.5-4-2.6-8.2-4.4-12.1c-3.7-8.2-10.1-12.7-19-13.9c-8-1-15.2,1.3-22,4.8
			c-25.5,13.2-41.8,33.8-49,61.9c-0.1,0.9-0.4,1.8-0.8,2.6c-0.9,1.2-2.1,2.1-3.5,2.6c-1.9,0.4-3.8-0.6-4.6-2.3
			c-0.7-1.3-1.2-2.8-1.3-4.3c-0.8-7.6-1.3-15.3-2-22.9c-0.2-3.1-0.5-6.1-1.1-9.1c-1.6-6.9-5.7-9.6-12.6-9c-4.4,0.3-8.2,2.1-12,4.2
			c-10.6,6.1-19.5,14.8-25.9,25.3c-1.1,1.8-2.1,3.8-3.3,5.5c-1.2,1.9-3.4,2.8-5.6,2.2c-2.2-0.5-3.8-2.3-4.1-4.5
			c-0.4-2.1-0.4-4.3-0.6-6.4c-0.6-7-0.9-14.1-1.9-21.1c-1.3-9.2-4-18-9.8-25.5c-6.6-8.5-15.1-11-25.2-7.5c-5.3,1.7-10,4.6-13.9,8.5
			c-4.2,4.4-8.1,9.1-11.6,14.1c-4.8,7.4-8.3,15.7-10.1,24.4c-0.6,3-1.4,6-2.3,8.9c-2.1,5.9-7.2,6.8-11.1,1.8
			c-1.9-2.8-3.6-5.7-5.1-8.7c-5.3-9.3-10.4-18.8-15.9-27.9c-4.3-7.1-9.8-13.4-16.1-18.7c-4.5-3.7-9.4-6.7-15.2-8.1
			c-12.7-3.1-24.1,3.7-27.4,16.4c-0.3,1.2-0.4,2.4-0.6,3.6c-1.8,9.4,0.2,18.3,3.2,27.1c3.2,9.3,7.4,18.2,12.6,26.5
			c6.5,10.7,13.3,21.2,20,31.9c2,3.1,3.8,6.3,5.5,9.5c1.2,2.3,0.5,5.1-1.7,6.5c-2.1,1.4-4.9,1.2-6.7-0.6c-1.8-1.7-3.4-3.5-4.9-5.5
			c-3.1-3.8-5.9-7.8-9.2-11.4c-7.2-8.1-13.8-9.6-23.7-5c-8.6,3.9-15.5,9.5-19,18.8c-1.1,3-3.3,4-5.6,3.7s-3.6-2.2-4.2-4.3
			c-0.5-1.8-0.8-3.6-0.9-5.4c-0.6-4.9-0.9-9.8-1.6-14.6c-0.5-3.6-1.3-7.2-2.5-10.7c-1.6-4.8-4.9-6.3-9.3-3.6
			c-8.5,5.2-15.8,11.5-17.1,22.4c-0.6,4.5-1.5,9-2.7,13.4c-0.6,2.8-3.1,4.8-6,4.7c-2.6-0.2-4.7-2.3-5.2-5.6
			c-0.8-5.2-0.1-10.5,2.1-15.3c3.1-6.8,4.2-14,5-21.3c0.9-7.9,2.1-15.8,2.8-23.7c1.4-13.8,1.9-27.5-0.4-41.3
			c-3.3-20-14.2-30.9-34-34.2c-1.8-0.3-3.6-0.5-5.4-0.6c-24.6-1-46,7.3-64.6,23.1c-3.4,3-6.5,6.5-9.2,10.2
			c-5.4,7.2-8.3,15.9-8.4,24.8c-0.1,8.3,1.6,16.5,5.1,24.1c3.9,8.6,8.5,17,12.8,25.4c1,1.9,2.3,3.6,3.4,5.5c2.6,4.5,2.7,7.1,0.5,9.1
			c-2.5,2.2-5.3,1.7-9.5-2.2c-3.8-3.5-7.5-7.2-11.3-10.8c-3.3-3.1-6.7-6.3-10.2-9.2c-6.3-5.3-13.6-9.4-21.4-12.1
			c-4-1.5-8.3-2-12.6-1.6c-9,1-15.1,6.4-17,15.4c-1.2,5.1-1.1,10.4,0.2,15.5c3.6,13.7,10.7,26.2,20.8,36.1
			c5.3,5.4,11.3,10.2,17,15.3c1.8,1.6,3.8,3.1,5.5,4.9c1.9,1.9,2.2,3.9,1.1,5.8c-1.1,2.3-3.8,3.4-6.2,2.3c-2.5-1-5-2.3-7.4-3.5
			c-7.4-3.6-14.6-7.6-22.3-10.6c-18-7-35.8-6-53,3c-6.8,3.5-12.8,8.2-15.6,16c-1.1,3.1-3.1,4.2-5.4,3.8c-2.5-0.5-4.3-2.7-4.2-5.3
			c-0.2-4.6-0.1-9.2,0.2-13.8c0.6-6.7,1.6-13.4,2.4-20.1c0.8-7.3,0.6-14.8-0.9-22c-1.4-7.3-4.1-14.2-9.1-19.8
			c-7.4-8.3-17-9.7-26.2-3.6c-3,2.1-5.8,4.5-8.2,7.2c-5,5.4-9,11.6-11.9,18.4c-0.8,2-1.6,4-2.6,5.9c-1,2-3.2,3.1-5.4,2.6
			c-1.9-0.2-3.4-1.6-3.9-3.4c-0.9-3.3-1.5-6.6-2.2-9.9c-2-9-3.5-18.1-6-26.9c-3.5-13.1-9.3-25.4-17.2-36.4
			c-3.8-5.2-8.1-10-13.8-13.2c-7.1-4-14-3.6-20.5,1.3c-3.9,2.9-7.1,6.8-9.3,11.2c-10.8,21.3-14.8,43.3-6.9,66.6
			c0.8,2,1.3,4.1,1.5,6.2c0.1,2.6-1.9,4.8-4.5,5c-0.9,0-1.8-0.2-2.5-0.6c-1.6-1-3-2.1-4.3-3.4c-3.8-3.6-7.4-7.3-11.1-10.9
			c-6-5.7-12.7-10.6-20-14.5c-4.3-2.4-8.9-3.9-13.8-4.6c-6.5-0.9-11.3,1.7-14.6,7.2c-2.7,4.5-4,9.7-3.8,14.9
			c0,11.1,3.6,21.1,8.9,30.6c12.2,22.1,28.3,40.7,50,53.8c4.2,2.5,8.6,4.6,12.8,7c2.2,1.2,3.3,3.2,2.9,5.2c-0.5,2.5-2.8,4.3-5.4,3.9
			c-2.7-0.4-5.3-1.3-7.7-2.6c-14.5-8.1-27.9-17.6-38.8-30.3c-4-4.7-8.3-8.6-14.5-10.4c-4-1.2-7.7-3.6-11.5-5.5
			c-8.4-4.3-16.7-8.9-25.2-13.1c-11.2-5.6-22.9-10-35.3-12.2c-10-1.8-20-1.9-29.8,1c-15.8,4.6-21.7,16.5-15.8,32
			c0.1,0.3,0.2,0.6,0.3,0.9c5.6,13,14.7,24.2,26.2,32.4c3.2,2.3,7,3.6,10.6,5.3c1.6,0.8,3.5,1,5.2,1.7c2.1,0.7,3.5,2.7,3.5,4.9
			c0,2.4-1.6,4.4-4.6,4.9c-2.7,0.5-5.4,0.7-8.1,1c-4.5,0.6-9.1,0.8-13.6,1.8c-11.4,2.6-13.8,8.6-7.7,18.8c4.8,7.9,11.9,13,20.4,16.3
			c1.7,0.5,3.5,1.1,5.1,1.7c1.7,0.9,3,2.6,2.5,4.5c-0.5,1.7-1.6,3.1-3.1,4.1c-1.5,0.8-3.5,0.5-5.3,0.6c-18.6,0.6-37,2.1-55.2,6.7
			c-18.4,4.6-36.1,11.1-52.5,20.7c-6.4,3.6-12.3,7.9-17.7,12.9c-19.4,18.4-20.7,44.5-3.9,65.3c5.8,7.2,12.9,13.1,21.1,17.4
			c19.7,10.6,40.6,12.3,62.1,7.7c9.5-2,18.8-5.3,27.5-9.7c1.9-1,3.9-1.7,6-2c3.5-0.5,6.3,4,4.5,7c-1.2,1.8-2.5,3.4-4.1,4.8
			c-5.1,4.8-10.5,9.4-15.6,14.2c-5.6,5.3-10.1,11.6-13.3,18.5c-6.9,14.8-0.1,31.1,15.6,36.3c5.8,2,11.8,3,17.9,2.8
			c20.6-0.8,38.3-8.9,54.5-21c4.6-3.5,9-7.3,12.1-12.4c1.1-1.8,2.6-3.4,4.3-4.7c1.5-1.2,3.5-1.3,5.2-0.3c1.9,1.1,2.8,3.4,2.1,5.5
			c-0.6,1.7-1.5,3.3-2.5,4.9c-3.7,6.1-5.8,12.8-7,19.8c-0.5,2.4-0.5,4.9-0.2,7.3c1.3,8.5,5.9,11.6,14.2,9.6c2.1-0.5,4.1-1.3,6-2.2
			c8.1-3.7,15.2-9.3,20.7-16.2c1-1.5,1.9-3.1,2.6-4.7c-6.2-1-9.6-4.9-13-8.9c-11.1-13.1-20.8-27.3-28.9-42.5
			c-1.5-2.6-2.9-5.3-4.8-8.6c-2.3,2.7-4,5.1-6.1,7.2c-2.8,2.8-5.8,5.3-9,7.6c-1.7,1.2-4.3,0.3-5.7-1.5c-1.4-1.7-1.5-4.2,0-5.9
			c1.3-1.3,2.6-2.6,4-3.8c7-6.2,10.3-14.2,11.2-23.4c1-11-1.1-22.2-6.2-32c-2.6-5.2-5.6-10.2-10.6-13.6c-2-1.4-2.3-3.6-1.4-5.8
			s3.7-3.4,6.2-2.5c1.7,0.6,3.3,1.5,4.7,2.6c1.8,1.6,3.4,3.5,4.8,5.5c2.5,3.8,4.9,7.8,6.9,11.9c1.1,2.5,3.4,4.3,6,5
			c12.7,4.1,24.5,2.4,36-4.3c7.8-4.5,13.1-10.8,15.2-19.7c0.4-2.1,1-4.2,1.8-6.1c1.6-3.6,5.2-4.6,8.3-2.2s5.7,5.5,8.7,8.1
			c4.6,4,8.9,8.5,14,11.7c10.1,6.4,20.9,8.1,32.2,2.9c0.8-0.4,1.7-0.7,2.5-1c1.8-0.6,3.8,0,4.9,1.5c1.3,1.6,1.5,4.5,0.1,6
			c-1.2,1.3-2.7,2.5-4.3,3.3c-3,1.4-6.2,2.4-9.7,3.7c0.9,2,1.7,4,2.7,5.8c8.2,15.1,14.1,31.3,17.5,48.2c0.5,2.4,0.8,4.8,0.8,7.3
			c0,2.8-2.2,5-4.9,5.1c-0.5,0-0.9-0.1-1.3-0.2c-2.6-0.7-5.1-1.8-7.4-3.2c-4.7-2.9-9.2-6.1-13.5-9.5c-3.3-2.6-6.4-2.9-10.1-1.2
			c-12.8,5.6-25.7,11.2-38.5,16.8c-2.1,1-4.1,2.2-6.1,3.5l-3.1,27.4c1.1,0.4,1.6,0.7,2.2,0.9c5,1.4,5.9,2.1,6,6.4
			c0.1,3-0.3,6.1-0.2,9.2c0.1,3.7,0,7.4,0.7,11c1.7,8.2,6,11.5,14.2,11.1c3.6-0.2,7.2-0.8,10.7-1.9c12.3-3.7,22.1-11.3,30.8-20.6
			c7-7.7,12.7-16.5,17-26c0.9-1.9,1.6-4,2.7-5.8c2.2-3.8,5.9-3.9,9-0.5c2.1,2.2,3.4,5.2,3.6,8.2c0.4,4.9,0.6,9.8,1.3,14.7
			c3,20.1,12.4,35.8,31.1,44.7c5.5,2.6,11.2,4.7,17.1,6.2c19.4,4.9,39.8,3,57.9-5.4c27-12.3,47.3-32,62.4-57.3
			c5.9-10.1,9.4-21.4,10.2-33.1c0.2-2.1,0.1-4.3,0.4-6.4c0.2-1.9,1.6-3.4,3.5-3.7c2.2-0.5,4.4,0.5,5.4,2.5c0.5,1.1,0.8,2.3,0.9,3.5
			c0.1,2.4,0.1,4.9-0.2,7.3c-1.6,13.4-6.1,26.3-13.1,37.9c-5.8,9.3-12.6,18-20.2,26c-1.9,2-3.6,4-5.3,5.8
			c3.8,13.8,11.7,18.7,24.5,15.4c2.7-0.6,5.2-1.6,7.7-2.9c13.4-7.5,26-16,33.5-30.2c0.9-1.7,2.4-3.2,4.6-6c-0.1,3.2,0.2,4.8-0.3,6.1
			c-1.3,3.4-2.4,7.1-4.5,10c-4.8,6.5-6.3,13.8-6.7,21.6c-0.6,12.8,1.6,25,7.5,36.5c4.2,8.2,11.5,13.3,23.8,10.8
			c4.2-0.8,8.3-2.1,12.1-4.1c18.2-9.7,32.5-23.6,40.9-42.9c0.6-1.7,1.4-3.4,2.3-5c1.3-2.3,4.3-3.2,6.6-1.9c0.7,0.4,1.3,1,1.8,1.7
			c1.5,2.3,2.6,4.8,3.1,7.5c1.9,11.2,5.1,22.1,9.6,32.5c9.9,22.1,26.7,36.3,50.2,41.5c9.9,2.2,20.1,2.3,29.7-1.5
			c19.2-7.7,32.1-21.6,38.7-41.4c4.7-14.1,5.4-29.1,2.3-43.6c-1.4-6.8-2.9-13.8-7.2-19.8c-3.2,0.9-6,2-8.9,2.5
			c-5.7,1-11.4,1.9-17.1,2.6c-1.7,0.2-3.7-0.1-4.1-3.2c1.5-0.5,3.1-1.1,4.8-1.7c2.9-1,5.8-1.8,8.6-3c12.8-5.2,22.3-14.7,30.9-25.1
			c2-2.7,3.5-5.7,4.4-9c4.9-15.3,3.9-30.2-3.4-44.6c-0.7-1.4-2.4-2.8-1.3-4.5c9.7-2.4,19.1-4.6,28.5-7.1c5.9-1.5,11.4-4.5,15.8-8.8
			c1.4-1.2,2.9-2.4,4.5-3.4c1.1,2.6,1.9,4.6,2.8,6.5c2.6,5.5,4.8,11.3,7.8,16.6c4,7.4,10.9,12.7,19,14.7c3.2,1,6.7,0.9,9.9-0.1
			c10.7-3.8,22.4-17.2,16.8-33.2c-0.5-1.1-1-2.2-1.4-3.4c-0.7-2.4,0.2-5,2.3-6.5c2-1.6,4.8-1.6,6.9-0.2c1.8,1.2,3.4,2.5,5,4
			c2.5,2.1,4.8,4.2,7.3,6.4V434h61.8c-2.9,5.7-5.6,11.6-8.6,17.5c5.9,8,12.7,12.2,21.3,13.3c9,1.2,16.3-1.7,20.8-9.9
			c2-3.4,3.6-7.1,4.6-11c0.9-3.3,1.5-6.6,1.8-10h15c1.5,6.3,2.9,12.7,4.5,19c2.8,11.3,5.6,22.7,11,33.1c2.3,4.7,5.1,9,8.4,13
			c6,6.9,13.1,7.2,20.2,1.5c5.4-4.5,9.7-10.3,12.3-16.9c3-7.1,4.7-14.6,5.2-22.3c0.4-5.5,0.7-11-0.4-16.5c-0.8-4.1,0.7-6.8,3.4-7.5
			s5.2,0.9,6.6,4.8c0.9,2.6,1.6,5.3,2.4,7.9c2.6,8.2,5,16.4,7.8,24.5s5.6,16.2,8.7,24.2c3.2,8.3,6.8,16.4,9.8,24.8
			c2.9,8.1,8.1,14.9,11.4,22.8c4.4,10.4,11.8,19.3,20.5,26.7c14.4,12.2,30.9,16.5,49.4,13.2c9.6-1.6,18.9-5,27.3-10
			c32.9-19.5,50.9-49.1,56.6-86.6c2.8-18.6-2.4-35.3-13.8-50c-8.7-11.2-18.7-21-31.6-27.3c-1.1-0.5-2.1-1.1-3-2
			c-3.8-4.2-8.8-6.6-13.7-9c-16.7-8.1-33.6-16-50.4-23.8c-6.6-3.1-13.3-6-20-9.1c-1.4-0.6-2.7-1.3-3.9-2.2c-1.5-1.2-2.1-3.2-1.4-5
			c0.4-1.9,2.2-3.1,4.1-3c2.4,0.2,4.8,0.8,7,1.8c9.2,4,18.5,8,27.5,12.3c15.9,7.6,31.8,15.5,47.6,23.2c9.4,8,20.9,9.3,32.5,10
			c2.4,0.3,4.9,0.4,7.3,0.3c4.5-0.4,9.1-0.6,13.5-1.7c9.6-2.5,14.1-9.2,13-19.1c-1-9.6-6-17.2-13.1-23.5c-1.8-1.6-3.9-2.9-5.7-4.5
			c-1.8-1.3-2.5-3.7-1.7-5.8c0.7-2.1,2.7-3.5,4.9-3.6c2.1-0.1,4.2-0.1,6.4,0c14.9,0.2,29.8,1.1,44.7-0.8c11.8-1.4,23.3-4.6,34.1-9.6
			c7.2-3.3,13.9-7.8,19.5-13.4c6.1-6,10.2-13.9,11.6-22.4C814.6,293.1,812.2,284.3,806.4,277.8z M-67.4,322.8
			c-1.4,2-3.1,3.7-5.1,5.2c-8.6,6.3-18.3,7.8-28.7,5.7c-3.3-0.6-6.5-1.7-9.7-2.5c-2.3,2.1-2,5-2.4,7.6c-2.1,15.8-6.2,31-13.6,45.2
			c0.9-0.2,2.1-0.1,2.7-0.7c2.4-2.7,4.6-5.7,7-8.5c3.1-3.8,7-6.9,11.4-9c11-5.2,22.2,1.2,23.1,13.4c0.2,3.4,0,6.7-0.8,10
			c-5.5,22.9-15.5,43.8-28.9,63c-1.6,2.2-3.5,4.2-5.7,5.8c-8.5,6.6-18.9,6.4-26.7-0.9c-3.9-3.9-7.3-8.2-10.2-12.9
			c-4.4-7-8.3-14.3-12.4-21.5c-1.1-1.9-2.1-3.7-3.2-5.5l-22.4-2.9c-1.2,2.1-2.7,4.7-4.2,7.3c-2.9,5.4-5.5,10.9-8.7,16.1
			c-2.8,4.7-6,9.2-9.6,13.4c-2.9,3.1-6.3,5.7-10.1,7.6c-6.6,3.5-13.2,2.6-18.6-2.6c-3.2-3.3-5.9-7-8.1-11
			c-4.8-8.3-7.3-17.5-9.8-26.6c-3.9-13.8-6-28.1-6.2-42.5c0-4.3,0.6-8.5,1.6-12.7c0.8-3,2.1-5.8,3.9-8.2c4.6-6.5,11.1-6.8,15.9-0.4
			c3.1,4.2,5.5,8.8,7.3,13.7c3.6,9.8,6.5,19.8,9.6,29.7c1.9,5.8,3.7,11.7,7.9,17.2c1.4-1.1,3-1.9,3.9-3.2c2.9-4.3,5.5-8.8,8.4-13.4
			c-1.2-2.1-2.3-4.4-3.2-6.6c-2.1-6.1-4.7-12.1-5.7-18.4c-2.9-18.9-3.3-37.8,0.3-56.7c0.2-1.9,0.4-3.7,0.4-5.6
			c-2.2-0.2-4-0.4-5.8-0.5c-9.6-0.1-18.6-3-27.5-5.9c-0.9-0.3-1.7-0.7-2.4-1.2c-1.7-0.9-2.4-3-1.7-4.8c0.5-1.2,2-2.8,3.1-2.8
			c3-0.1,6,0.2,8.9,0.8c6,1.1,11.9,3,17.9,3.6c14.6,1.5,26.2-3.9,34.2-16.5c0.5-1,0.9-2,1.2-3.1c-2.6-4.1-5.5-8.4-8.2-12.8
			c-1.2-1.8-2.1-3.7-2.9-5.7c-0.8-2.1,0-4.4,2-5.5c1.9-1.1,4.3-0.8,5.8,0.8c1.4,1.6,2.6,3.4,3.8,5.2c2.4,3.5,4.6,7.2,7.4,10.5
			c8.2,9.8,18.9,14.1,31.5,13.5c7.4-0.3,14.4-3.7,19.1-9.4c2.4-2.8,4.6-5.7,6.9-8.6c0.7-1,1.6-1.9,2.4-2.8c2.5-2.5,5.1-2.7,7.2-0.8
			c1.9,1.8,2.3,4.2,0.6,6.6c-2,3-4.3,5.9-6.6,8.8c-1.4,1.7-2.5,3.5-2.1,5.9c1,6,1.4,12.3,3.2,18c5.6,18.3,26.3,25.3,41.9,14.5
			c1.4-1.1,2.9-2.2,4.5-3.1c1.7-0.9,3.7-0.6,5.1,0.7C-66.8,318.3-66.2,321.2-67.4,322.8z"/>
	</g>
</g>
</svg>
