<svg id="Слой_1" data-name="Слой 1" xmlns="http://www.w3.org/2000/svg" xmlns:xlink="http://www.w3.org/1999/xlink" viewBox="0 0 100 100"><defs><style>.cls-1{fill:none;}.cls-2{clip-path:url(#clip-path);}.cls-3{fill:#48b9ba;}</style><clipPath id="clip-path"><rect class="cls-1" x="195.32" y="-997.65" width="570" height="747.94"/></clipPath></defs><rect class="cls-3" x="31.75" y="8.82" width="26" height="40"/><path class="cls-3" d="M82.31,96.37a3,3,0,0,1-2.53-2.89c-.1-1.2-.33-2.39-.53-3.58a12.84,12.84,0,0,0-7-9.79,22.39,22.39,0,0,0-6-2.26,10.34,10.34,0,0,1-7.33-5.48c-.35-.65-.73-1.3-1.07-2a22,22,0,0,0-6-7.22,23.46,23.46,0,0,1-2.35-2,8,8,0,0,1-1.4-2,1.32,1.32,0,0,1,1-1.88,8.08,8.08,0,0,1,5.14.78A17.46,17.46,0,0,1,59,61.44a8,8,0,0,0,1.23,1.1.84.84,0,0,0,.78-.08.81.81,0,0,0,.29-.7A7.29,7.29,0,0,0,60.47,60c-1.33-1.91-2.76-3.74-4-5.68-2.72-4.1-5.38-8.25-8-12.4a8,8,0,0,1-1.48-4,.88.88,0,0,1,1.35,0,16.47,16.47,0,0,1,2,1.88,121.62,121.62,0,0,1,9,11c.79,1.14,1.75,2.16,2.65,3.22a2.5,2.5,0,0,0,.81.75,1.3,1.3,0,0,0,1,.05.83.83,0,0,0,.29-1.21,22.14,22.14,0,0,0-1.29-1.81,26.82,26.82,0,0,1-2-2.68A8.64,8.64,0,0,1,60,46.46a.87.87,0,0,1,1.3-.89,15.44,15.44,0,0,1,2.65,2,27.69,27.69,0,0,1,1.93,2.37,21.51,21.51,0,0,0,1.9,2c.68.62,1.43.71,1.72.3a1.23,1.23,0,0,0-.21-1.54c-.72-1-1.48-1.91-2.2-2.87A13.64,13.64,0,0,1,65.85,46a7.72,7.72,0,0,1-.47-1.6,1.64,1.64,0,0,1,2.29.32c1.53,1.5,3,3,4.54,4.53.38.38.75.79,1.15,1.22l2-.81a13.41,13.41,0,0,1,1.39,1.6c2.82,4.47,4.75,9.24,4.8,14.63a17.07,17.07,0,0,0,3.12,9.66,95.49,95.49,0,0,1,8.65,16.21c.33.77.6,1.56.85,2.35a4.24,4.24,0,0,1,.09,1,13,13,0,0,1-1.6.9A15.67,15.67,0,0,1,82.31,96.37Z"/><path class="cls-3" d="M26.52,30.41c.13,2.69.2,5.38.31,8.07a6,6,0,0,1-.89,3.17c-.66,1.22-1.34,2.45-1.89,3.71a10.86,10.86,0,0,0-.62,2.4.74.74,0,0,0,.42.61.86.86,0,0,0,.74-.22A5,5,0,0,0,25.36,47c.72-1.4,1.44-2.81,2.12-4.23a11.32,11.32,0,0,1,4-4.51,1.28,1.28,0,0,1,2.13.82,3.59,3.59,0,0,1,0,1.63,17.67,17.67,0,0,1-.91,2.62,11.13,11.13,0,0,0-.3,8.41,10.12,10.12,0,0,1-.4,8.37c-1.46,2.85-3.66,4.25-6.77,3.71a4.16,4.16,0,0,0-4.49,1.93c-1.56,2.07-3.26,4-4.93,6-.4.48-.87.91-1.26,1.32C10.16,72,7.27,69.33,5.4,64.52a70.5,70.5,0,0,1,8.76-7.45,12.29,12.29,0,0,0,4.71-6,24.14,24.14,0,0,0,1-4.61c.33-2.29.43-4.62.79-6.91a20.07,20.07,0,0,1,3.62-8.95c.43-.57.79-1.28,1.84-1.32A4.05,4.05,0,0,1,26.52,30.41Z"/><path d="M52.37,51.89c-.43-.59-.74-1-1-1.34a2.81,2.81,0,0,0-3-1.45c-3.86.37-7.74.58-11.6.88a3,3,0,0,0-2.4.81,4.67,4.67,0,0,0,.82,2.68C39.07,53.61,49.34,52.72,52.37,51.89Zm4.16-8c.28.31.48.83,1.06.61.11-.18.26-.33.26-.49,0-.65-.05-1.3-.11-1.94-.74-7.11-1.16-14.23-1.21-21.38,0-2.88-.1-5.75-.19-8.62a4.53,4.53,0,0,0-.5-2.73,3.34,3.34,0,0,0-.77-.12q-10.57.33-21.14.7a8.77,8.77,0,0,0-1.64.39c-.06.74-.15,1.38-.14,2q.32,10.71.63,21.41A3.31,3.31,0,0,0,34,36.35,4.23,4.23,0,0,1,35.75,40a12.34,12.34,0,0,1-.56,2.7c-.38,1.24-.92,2.43-1.29,3.68a5.46,5.46,0,0,0,0,1.65c.7,0,1.25.09,1.79.05q6-.44,11.93-.92a5.13,5.13,0,0,0,1.06-.44c-.42-.83-.77-1.48-1.1-2.14-.74-1.49-1.55-3-2.18-4.5a9.41,9.41,0,0,1-.6-3,1.71,1.71,0,0,1,2.38-1.81,5.81,5.81,0,0,1,1.73.85,16.35,16.35,0,0,1,2.32,2C53.05,40,54.77,42,56.53,43.86Zm2.93-4.35c.09.83.14,1.67.29,2.49s.48,1,2,.78c0-1.09,0-2.19-.05-3.3q-.37-6.81-.79-13.61-.49-8.65-1-17.31c0-.26,0-.5-.05-.76,0-.92.07-1.88-.93-2.59-.63,0-1.37,0-2.11,0q-4.17,0-8.34.13-8.36.21-16.7.46c-1.09,0-2.24-.11-3.36.86,0,1-.14,2.05-.13,3.14q0,7.94.14,15.87c0,3.15.15,6.31.26,9.45,0,.72-.12,1.53.64,2.06a2.1,2.1,0,0,0,1.5-2.09,20.85,20.85,0,0,0,0-2.5c-.18-7.42-.38-14.84-.53-22.26,0-2,.33-2.28,2.22-2.33h.27q8.91-.3,17.8-.62c2-.07,3.89-.21,5.84-.27,1.24,0,1.75.38,1.81,1.58.1,2,.12,4.09.14,6.13C58.44,23,58.66,31.29,59.46,39.51ZM5.4,64.52c1.87,4.81,4.76,7.49,9.19,8.59.39-.41.86-.84,1.26-1.32,1.67-2,3.37-4,4.93-6a4.16,4.16,0,0,1,4.49-1.93c3.11.54,5.31-.86,6.77-3.71a10.12,10.12,0,0,0,.4-8.37,11.13,11.13,0,0,1,.3-8.41,17.67,17.67,0,0,0,.91-2.62,3.59,3.59,0,0,0,0-1.63,1.28,1.28,0,0,0-2.13-.82,11.32,11.32,0,0,0-4,4.51c-.68,1.42-1.4,2.83-2.12,4.23a5,5,0,0,1-.77,1.14.86.86,0,0,1-.74.22.74.74,0,0,1-.42-.61,10.86,10.86,0,0,1,.62-2.4c.55-1.26,1.23-2.49,1.89-3.71a6,6,0,0,0,.89-3.17c-.11-2.69-.18-5.38-.31-8.07a4.05,4.05,0,0,0-.4-1.17c-1.05,0-1.41.75-1.84,1.32a20.07,20.07,0,0,0-3.62,9c-.36,2.29-.46,4.62-.79,6.91a24.14,24.14,0,0,1-1,4.61,12.29,12.29,0,0,1-4.71,6A70.5,70.5,0,0,0,5.4,64.52Zm74.38,29a3,3,0,0,0,2.53,2.89A15.67,15.67,0,0,0,92.69,96a13,13,0,0,0,1.6-.9,4.24,4.24,0,0,0-.09-1c-.25-.79-.52-1.58-.85-2.35A95.49,95.49,0,0,0,84.7,75.55a17.07,17.07,0,0,1-3.12-9.66c0-5.39-2-10.16-4.8-14.63a13.41,13.41,0,0,0-1.39-1.6l-2,.81c-.4-.43-.77-.84-1.15-1.22-1.51-1.52-3-3-4.54-4.53a1.64,1.64,0,0,0-2.29-.32,7.72,7.72,0,0,0,.47,1.6,13.64,13.64,0,0,0,1.28,1.83c.72,1,1.48,1.91,2.2,2.87a1.23,1.23,0,0,1,.21,1.54c-.29.41-1,.32-1.72-.3a21.51,21.51,0,0,1-1.9-2A27.69,27.69,0,0,0,64,47.54a15.44,15.44,0,0,0-2.65-2,.87.87,0,0,0-1.3.89,8.64,8.64,0,0,0,.82,2.61,26.82,26.82,0,0,0,2,2.68,22.14,22.14,0,0,1,1.29,1.81.83.83,0,0,1-.29,1.21,1.3,1.3,0,0,1-1-.05A2.5,2.5,0,0,1,62,54c-.9-1.06-1.86-2.08-2.65-3.22a121.62,121.62,0,0,0-9-11,16.47,16.47,0,0,0-2-1.88.88.88,0,0,0-1.35,0,8,8,0,0,0,1.48,4c2.64,4.15,5.3,8.3,8,12.4,1.28,1.94,2.71,3.77,4,5.68a7.29,7.29,0,0,1,.86,1.72.81.81,0,0,1-.29.7.84.84,0,0,1-.78.08A8,8,0,0,1,59,61.44a17.46,17.46,0,0,0-4.77-3.36,8.08,8.08,0,0,0-5.14-.78,1.32,1.32,0,0,0-1,1.88,8,8,0,0,0,1.4,2,23.46,23.46,0,0,0,2.35,2,22,22,0,0,1,6,7.22c.34.66.72,1.31,1.07,2a10.34,10.34,0,0,0,7.33,5.48,22.39,22.39,0,0,1,6,2.26,12.84,12.84,0,0,1,7,9.79C79.45,91.09,79.68,92.28,79.78,93.48ZM23.64,11.88c0-2.05,0-4.09,0-6.13,0-.56,0-1.12,0-1.67.12-1.23.51-1.64,1.69-1.82a12.81,12.81,0,0,1,1.39-.12q16-.6,32-1.17a23.45,23.45,0,0,1,2.78,0c1.62.11,2.05.56,2.23,2.23.09.83.12,1.67.16,2.51Q64.67,21,65.39,36.34c.07,1.48.17,3,.27,4.65,2.29,1.56,4.26,3.67,7.21,4.37a6.09,6.09,0,0,1,2.39,1.36,15.17,15.17,0,0,1,2.67,2.82c3.27,4.75,5.44,9.94,5.56,15.8a17.05,17.05,0,0,0,3,9.4A94.73,94.73,0,0,1,95.11,91l2,4.72A16.88,16.88,0,0,1,84,98.74a32,32,0,0,1-4.22-1.39,2.58,2.58,0,0,1-1.65-2.09c-.24-1.37-.45-2.75-.62-4.13a11.68,11.68,0,0,0-7.73-10,29.87,29.87,0,0,0-4.49-1.48,11.85,11.85,0,0,1-8.07-6.3c-.09-.17-.2-.32-.28-.49a24,24,0,0,0-8-9.45,6.37,6.37,0,0,1-3-5.35,2.81,2.81,0,0,0-.22-.75A26,26,0,0,0,35,58.16c-1.76,5.33-5,8.77-11.41,7.51-.78.86-1.55,1.65-2.24,2.51-1.57,1.95-3.07,3.95-4.65,5.9-1.27,1.56-1.71,1.66-3.6.94a16.56,16.56,0,0,1-7.45-5.63,21.28,21.28,0,0,1-2.8-5.23A11.15,11.15,0,0,1,4.11,62.7c2.73-2.24,5.41-4.54,8.24-6.64A13,13,0,0,0,18,46.28c.24-2.68.62-5.34.95-8a16.93,16.93,0,0,1,3.49-8.38A7.18,7.18,0,0,0,23.87,25C23.68,20.6,23.69,16.24,23.64,11.88Z"/></svg>