<svg id="Слой_1" data-name="Слой 1" xmlns="http://www.w3.org/2000/svg" xmlns:xlink="http://www.w3.org/1999/xlink" viewBox="0 0 100 100"><defs><style>.cls-1{fill:none;}.cls-2{clip-path:url(#clip-path);}.cls-3{fill:#070707;}.cls-4{fill:#fff;}.cls-5{fill:#48b9ba;}</style><clipPath id="clip-path"><rect class="cls-1" x="195.32" y="-747.65" width="570" height="747.94"/></clipPath></defs><g class="cls-2"><path class="cls-3" d="M-398.07-54.57c1.22,10.73,5.55,20.15,12,28.58,11.6,15.09,27,24.45,45.15,29.12,12.12,3.12,24.46,4.39,36.95,2.26A16.67,16.67,0,0,1-300.49,5c1,0,2.38-.69,3,1.62-1.22,1.47-2.68,3.18-4.1,4.92a57.34,57.34,0,0,0-9.47,15.58A33.78,33.78,0,0,0-298.2,67.87a52.79,52.79,0,0,0,17.63,7c10.4,2.34,20.7,1.39,30.94-.92a114.81,114.81,0,0,0,29.1-11.09,27.79,27.79,0,0,1,4.75-1.5c0,3.89-.19,7.1,0,10.27,1,13.41,11.05,21,24,18.23a41.92,41.92,0,0,0,5-1.38,69,69,0,0,0,18.34-9.72c1.11-.82,2.23-2,4-.65.3,2.43.5,5,1,7.61,1.71,9.59,7.46,15.48,16.91,17.56a30,30,0,0,0,12,.33c2.71-.5,24.08-6.93,31.67-12l1.23-1.48a11.23,11.23,0,0,1,1.08-1.37C-93,82-85.84,74.91-79,64.87c1.53,7.9,2.32,14,4,19.8,1.55,5.52,4,10.78,6.25,16.63-.35.17-.68.36-1,.54,5.08,5.74,9.79,11.9,14.38,15.73.1.09.22.16.33.25l0-.08c4,.21,6.18,3.05,9.55,5-.16.61-.29,1.21-.42,1.82a99.09,99.09,0,0,0,9,5.28c.92-1.58,1.83-2.19,2.54-1.48a3.28,3.28,0,0,1,.86,3.15A93.39,93.39,0,0,0-24,135.36a10.15,10.15,0,0,1,1.52-2,2.3,2.3,0,0,1,0,2.58A93.71,93.71,0,0,0-11,138.77c.6-1.37,1.22-2.76,1.83-4.21,25.89.32,40.35-2.43,71.91-21.08,1,1.53,2.14,3.08,3.16,4.68,8.75,13.76,18.44,17.53,34,12.91a84.1,84.1,0,0,0,10.37-4.32c1.79-.8,3.48-1.83,5-2.65,2.45,1.34,1.5,3.29,1.5,4.86,0,7.88.3,15.75,2.54,23.35a70.66,70.66,0,0,0,4.61,12.18c5.39,10.56,14.15,15.75,26,15.59,2.46,0,4.93,0,7.52,0h2.1a91.4,91.4,0,0,0,18.38-7.76c9.23-5.18,15.53-10.87,21.08-15.94,4.53-4.14,8.07-7.87,10.54-10.62a89,89,0,0,0,15.81,47.8,85.66,85.66,0,0,0,22.35,21.8c4.33,1.78,39,15.4,70.93-4,22.59-13.76,30.41-36,33.2-44.33,9.86-29.43,1.22-54.84-1.68-62.43C356,99.22,362.28,94.11,366.41,87c4-6.87,7-14.17,7.62-22.08s.12-16.13.12-24.82c8.29-.5,16.69-2.12,24.74-6.58A56.6,56.6,0,0,0,411.82,54.3c4.78,4.84,10.51,10.65,19,11.79,5.26.7,12.1-.31,12.11-.17a8.24,8.24,0,0,1-1.16.16c4.32-2.19,7.29-3.37,9.91-5.1a54.14,54.14,0,0,0,8.81-7,39.83,39.83,0,0,0,6.15-8.35c1.69-3,2.76-6.31,4.34-10.08,7.29,5.52,13.75,10.85,20.66,15.52.62.42,9.88,3.64,12.52,5.23a47.16,47.16,0,0,0,11.39,1.08,37.15,37.15,0,0,0,31.21,29.94c20,2.69,34-13.58,35-14.8l.09,1.14c1.7,25.47,15.37,72.31,47.71,49.34,5.49-3.9,11.86-14.35,18.05-16.45,7.74-2.62,8,2.36,10.64,11,6.1,19.8,12.46,38.69,20.07,58.14a28.86,28.86,0,0,1,1.37,5,30.84,30.84,0,0,0,1.86,2.91c4.33,5.8,8.32,12,13.34,17.13,12.74,13.08,28.45,19.55,46.74,19.46a85.77,85.77,0,0,0,42.22-11.56c31.57-17.85,50.73-45.21,59-80.41,4.74-20.24,1.43-39.37-10.07-56.81C829.87,67,826.52,63,823.4,58.8c-1-1.32-2.63-2.25-2.42-4.8,2.35-.73,4.86-.07,7.32,0,5.79.18,11.51.12,17.2-1.43C862.32,48,867,32.24,864.44,20.82a55.59,55.59,0,0,0-6-15.38c-.62-1.09-.76-2.44-1.33-4.4,6,.37,11.15.71,16.32,1,12.74.76,25.43.37,38-2.34,12-2.6,23.31-6.79,33.43-13.89,8.77-6.15,15.57-14,19.12-24.23,4.94-14.28,3.16-27.53-6.84-39.24a66.93,66.93,0,0,0-14.37-12.55,99.86,99.86,0,0,0-39.39-15.1c-11.5-1.86-23-1.86-34.59-1.35-1.57.07-3.4.82-5-1.53l4.24-5a40.06,40.06,0,0,0,8.22-14.24c3.59-12-.21-23-10.89-29.42A58.91,58.91,0,0,0,851-162.76c-13.83-3.78-27.5-2.05-41,2.32-2.68.87-5.34,1.77-8.82,2.92,1.3-4.34,3.94-6.65,5.73-9.47,3.57-5.64,7.79-11,10.56-17,7.94-17.22,1.17-33.48-16.35-40.59-1.07-.44-2.15-.85-3.25-1.18a38.81,38.81,0,0,0-18.87-1c-4.48.84-8.94,1.74-14.3,2.79,1-2.66,1.67-4.47,2.41-6.23,2.82-6.7,5.9-13.29,8.46-20.09a73.32,73.32,0,0,0,4.51-33.48c-1.51-15.13-9.54-25.31-23.82-30.23a46.22,46.22,0,0,0-22.24-2,75.51,75.51,0,0,0-22.23,7.06A108.83,108.83,0,0,0,681.76-287a48.2,48.2,0,0,1-4.77,3.78c-1.52-4.84-2.53-9.09-4.16-13.08-5.23-12.8-14.84-19.68-28.55-20.66a45.71,45.71,0,0,0-18.75,2.71,91.3,91.3,0,0,0-28.46,16.37,110.77,110.77,0,0,0-17.64,19.19,37.66,37.66,0,0,1-3.7,3.71c-.71-3.67-1.16-6.54-1.81-9.36-2.68-11.43-11.68-17.65-23.21-16A45.09,45.09,0,0,0,536-295.39a82.17,82.17,0,0,0-19,13.67,28.82,28.82,0,0,1-3.67,2.56c-.7-6.24-1.2-11.73-2-17.18-1.23-8.76-3.9-17.06-9.14-24.26-7.54-10.33-17.57-14.65-30.29-12.25a44.79,44.79,0,0,0-16.67,7,66.07,66.07,0,0,0-15.7,14.93,86.83,86.83,0,0,0-11.68,20.36,41.24,41.24,0,0,1-2.73,4.68c-2.11-4.6-3.81-8.27-5.49-12-4.6-10.08-9.86-19.78-16.79-28.46a59,59,0,0,0-17.61-15.31c-18.4-10.15-41.11-2.5-46.73,20.92a39.5,39.5,0,0,0-.76,4.3,67.41,67.41,0,0,0,1.19,23.43c2.62,11.44,7.27,22.07,12.32,32.58.78,1.62,2.78,3.19,1,5.75-12.41-2.1-22.82,3.36-32.92,10.22-2.07-3.22-1.38-6.59-2.12-9.62-.89-3.65-1.47-7.49-3-10.84-3-6.42-9.12-9.09-15.91-7.29-2.76.73-5.34,2.15-8,3.21-1,.38-2,.63-3.81,1.19.53-3.58.93-6.4,1.36-9.22,1.37-8.91,3-17.8,4.08-26.75,1.53-12.24,1.21-24.43-2.5-36.33-4-13-12.29-22.26-24.84-27.41a69.58,69.58,0,0,0-10.72-3.41,77.85,77.85,0,0,0-32.7-.23A101.51,101.51,0,0,0,179.27-353c-11.55,8.56-19.72,19.58-22.71,34-2,9.63-.93,19.12,1.6,28.51.66,2.44,1.24,4.9,2.2,8.7-3.24-2.32-5.32-3.79-7.38-5.29-7.1-5.14-14.64-9.38-23.27-11.28a28.12,28.12,0,0,0-33.12,18.64c-2.85,8.24-2.58,16.62-.67,25,2,8.88,5.88,17,10.5,24.8,1,1.6,1.64,3.35,3,6.16-22.14-6.81-42.64-6.1-62.62,5.36a53.52,53.52,0,0,1,.05-6.57c.59-4.32,1.49-8.6,2.14-12.91a64.5,64.5,0,0,0-2.73-29.32,38.45,38.45,0,0,0-8.66-15C29-291.34,16.28-294,5-288.49a60.1,60.1,0,0,0-11.39,7.84c-2.66,2.18-4.76,5-7.15,7.59-.94,1-1.61,2.53-3.81,2-.69-4.1-1.41-8.35-2.12-12.59a127.89,127.89,0,0,0-13.76-40.27A65.69,65.69,0,0,0-45.07-340c-13.57-13.12-30-12.86-42.75,1.13a70.05,70.05,0,0,0-9.85,14.28,92.52,92.52,0,0,0-10.58,40.18c-.09,2.2.24,4.5-.83,7.41l-4.5-3.55c-5-3.93-9.76-8.28-15.11-11.66a53.91,53.91,0,0,0-14.18-6.34c-11.54-3.22-21.29,1-27.32,11.44a42.15,42.15,0,0,0-3.68,8.82,44,44,0,0,0-1,19.9A96.38,96.38,0,0,0-167-233.51c.49,1.08,1.87,2.44-.43,3.83-5.24-3.24-10.64-6.57-16-9.92a175.5,175.5,0,0,0-34.22-16.8A81.55,81.55,0,0,0-250-261a44.74,44.74,0,0,0-18.31,4.83c-11.93,6.23-17.72,17.91-15.62,31.25a54.52,54.52,0,0,0,5.09,15.72,96.16,96.16,0,0,0,17.57,24.78c1.11,1.14,3.05,1.89,2.52,4.52a98.25,98.25,0,0,0-9.47,3.16c-8.51,3.75-11.92,10.65-10.28,19.79a37.22,37.22,0,0,0,6.72,15c1.27,1.79,2.49,3.62,3.69,5.38-2.14,2.07-4.24,1.37-6.14,1.39a189.43,189.43,0,0,0-35.3,3.8A202.48,202.48,0,0,0-361.22-114c-8.85,4.47-17,10-23.6,17.5C-395.32-84.51-399.89-70.57-398.07-54.57Zm234.65,85.68c-.53,4.33-1.22,8.64-2,12.93a39.85,39.85,0,0,1-1.92,5.47A47.84,47.84,0,0,1-170.65,46a216.65,216.65,0,0,1-28.3-52.83c-.59-1.57-1.22-3.52-.79-5,2-6.84,1.72-13.82,1.8-20.8a4.25,4.25,0,0,1,.44-1.42c6.6.56,13.19,1.88,19.68,1.47,6.2-.4,12.3-2.59,18.95-4.1,3.06,4.34,4.94,9.5,7.08,14.9a44.05,44.05,0,0,0-4.05,5.34,6,6,0,0,0,3.14,8.64,11.88,11.88,0,0,0,13.52-2.83c3.15-3.54,3-8.2-1.11-10.33-3.47-1.81-5.05-4.46-6.4-7.74-1.64-4-3.51-7.9-5.08-11.41l14.38-17.56a17.55,17.55,0,0,1,2.77,2.31c7.86,9.26,17,16.55,29,19.67a7.62,7.62,0,0,1,5.09,4.35c1.93,3.9,4,7.75,5.66,11.77a169.82,169.82,0,0,1,9,30.94,80.2,80.2,0,0,1,.7,8.64,43.23,43.23,0,0,1-4.42-2.61Q-95.33,12.76-101,8a9.24,9.24,0,0,0-9.62-1.93c-15.39,5-30.8,9.86-45.78,16.07C-160.63,23.89-162.87,26.61-163.42,31.11ZM-371.73-95.63a90.81,90.81,0,0,1,17.62-11c16.19-8,33.4-12.94,51.14-16,17.47-3,35.08-3.25,52.73-2.53,1.7.07,3.63.42,5.07-.22a7,7,0,0,0,3.26-3.65c.68-1.76-.46-3.48-2-4.42a48.94,48.94,0,0,0-4.77-2c-7.85-3.63-14.2-9-18.18-16.81-5.1-10-2.4-15.54,8.57-17.25,4.26-.66,8.64-.57,13-.81,2.59-.14,5.21-.09,7.78-.41,2.81-.35,4.5-2.12,4.66-4.36a4.85,4.85,0,0,0-3-4.88c-1.54-.79-3.29-1.17-4.81-2-3.29-1.79-6.83-3.34-9.67-5.71a74.14,74.14,0,0,1-22.6-32.52c-.1-.27-.17-.56-.25-.83-4.51-15.08,1.9-25.94,17.18-29.24,9.55-2.07,19-1.3,28.33,1.09a125.42,125.42,0,0,1,32.6,14c7.73,4.56,15.29,9.42,23,14.1,3.46,2.11,6.8,4.63,10.53,6,5.72,2.16,9.53,6.11,13,10.87,9.43,12.8,21.48,22.75,34.65,31.38a23.76,23.76,0,0,0,7.09,3,4.58,4.58,0,0,0,5.34-3.36c.52-1.84-.37-3.84-2.39-5.14-3.89-2.51-7.91-4.82-11.68-7.48-19.72-13.9-33.6-32.62-43.7-54.37-4.33-9.32-7-19.08-6.31-29.58a26.06,26.06,0,0,1,4.67-13.87c3.56-4.9,8.23-7,14.34-5.78a39.19,39.19,0,0,1,12.75,5.3,86,86,0,0,1,17.91,15.09c3.34,3.63,6.51,7.42,9.82,11.08a20.51,20.51,0,0,0,3.8,3.54,4.49,4.49,0,0,0,6.93-3.69,24.53,24.53,0,0,0-1-6c-5.85-22.6-.62-43.22,11.11-62.62a30.23,30.23,0,0,1,9.62-9.93c6.54-4.18,13.1-4.13,19.53.15,5.17,3.44,8.92,8.26,12.16,13.49a106.14,106.14,0,0,1,13.88,35.58c1.68,8.56,2.56,17.27,3.79,25.91.45,3.17.81,6.36,1.39,9.5a4.27,4.27,0,0,0,3.42,3.53,4.61,4.61,0,0,0,5.27-2.09c1.08-1.71,1.94-3.57,2.87-5.37A61.38,61.38,0,0,1-.8-272.58a42.7,42.7,0,0,1,8.3-6.25c9.18-5.17,18.16-3.2,24.6,5.19,4.37,5.69,6.44,12.35,7.24,19.39a68.37,68.37,0,0,1-.71,20.88C37.41-227.08,36-220.82,35-214.5a101.25,101.25,0,0,0-1.16,13,4.93,4.93,0,0,0,3.65,5.27c2.16.54,4.09-.35,5.37-3.2,3.22-7.16,9.26-11.16,15.92-14.06,16.83-7.32,33.81-7,50.38.83,7,3.34,13.61,7.67,20.39,11.55,2.26,1.29,4.47,2.69,6.81,3.82a4.48,4.48,0,0,0,6-1.78c1.16-1.76,1-3.6-.66-5.58-1.51-1.75-3.25-3.31-4.86-5-5.05-5.2-10.37-10.17-15.08-15.68A74.8,74.8,0,0,1,104.51-261a31.23,31.23,0,0,1,.93-14.67c2.48-8.35,8.63-13.07,17.2-13.42a26.34,26.34,0,0,1,11.8,2.36,66,66,0,0,1,19.41,13c3.12,3,6.07,6.24,9,9.44,3.35,3.62,6.55,7.38,9.94,11,3.76,4,6.37,4.71,8.86,2.75,2.26-1.78,2.34-4.27.17-8.71-.89-1.83-2-3.54-2.83-5.41-3.55-8.28-7.33-16.47-10.42-24.92a53.13,53.13,0,0,1-3.14-23.19,40,40,0,0,1,9.66-22.94,57.08,57.08,0,0,1,9.39-9c18.76-13.64,39.58-20.07,62.82-17.42a42.11,42.11,0,0,1,5.11.93c18.55,4.48,28.12,15.57,29.93,34.76,1.23,13.17-.18,26.19-2.43,39.14-1.3,7.45-2.9,14.85-4.32,22.28-1.32,6.87-2.8,13.62-6.22,19.88a25.37,25.37,0,0,0-3,14.35c.26,3.14,2,5.3,4.51,5.66a5.55,5.55,0,0,0,6-4,103.58,103.58,0,0,0,3.46-12.61c2.06-10.23,9.38-15.72,17.78-20,4.32-2.22,7.34-.61,8.53,4.06a61.83,61.83,0,0,1,1.59,10.33c.36,4.64.33,9.31.52,14a32.15,32.15,0,0,0,.52,5.2c.45,2,1.42,3.83,3.73,4.36s4.3-.36,5.57-3.1c4-8.51,11-13.36,19.33-16.47,9.7-3.61,15.82-1.81,22.11,6.4,2.83,3.68,5.24,7.67,7.91,11.48a50.68,50.68,0,0,0,4.24,5.51,5,5,0,0,0,6.32,1,4.83,4.83,0,0,0,2-6.07A103,103,0,0,0,376-234.6c-5.56-10.54-11.31-21-16.74-31.59a125.45,125.45,0,0,1-10.15-26c-2.18-8.52-3.5-17.13-1.14-25.88.3-1.13.47-2.29.85-3.39,4.07-11.78,15.28-17.41,27.13-13.64a36.07,36.07,0,0,1,13.85,8.74,70,70,0,0,1,14,18.79c4.64,9,8.79,18.34,13.17,27.51a72.79,72.79,0,0,0,4.27,8.57c3.26,5,8.2,4.49,10.6-1a76.3,76.3,0,0,0,2.78-8.26,68.3,68.3,0,0,1,11.33-22.47,108.34,108.34,0,0,1,12-12.55,32.51,32.51,0,0,1,13.76-7.15c9.8-2.62,17.69.32,23.34,8.84,5,7.48,6.9,16,7.49,24.8.45,6.67.25,13.39.34,20.09a59,59,0,0,0,.1,6.1,5.17,5.17,0,0,0,3.56,4.54,4.75,4.75,0,0,0,5.43-1.71c1.3-1.54,2.34-3.32,3.54-4.95a69.64,69.64,0,0,1,26.32-22.21c3.68-1.76,7.45-3.15,11.61-3.18,6.66-.05,10.27,2.78,11.37,9.45a60.08,60.08,0,0,1,.42,8.71c.15,7.28.19,14.56.38,21.83a10.4,10.4,0,0,0,.94,4.16,3.88,3.88,0,0,0,4.16,2.49,8.16,8.16,0,0,0,3.49-2.26,6,6,0,0,0,1-2.38q13-39.09,50.65-55.25c6.66-2.85,13.67-4.6,21.13-3.06,8.38,1.73,14.1,6.51,17,14.5,1.4,3.8,2.19,7.83,3.33,11.74a35.94,35.94,0,0,0,2.21,6.59c2.18,4.22,6.43,5.38,10.21,2.65a47.55,47.55,0,0,0,6.91-6.56,97.38,97.38,0,0,1,34.51-24.4,50.19,50.19,0,0,1,26.3-3.79c11.28,1.52,21.53,8.61,22.87,22.45a70,70,0,0,1,.31,11.3,76.09,76.09,0,0,1-6.74,26.08c-3.42,7.71-7.16,15.27-10.75,22.9-1.12,2.36-2.26,4.72-3.32,7.11s-.91,4.55,1.06,6.4,4.2,1.77,6.42.63c6-3.06,12.06-5.74,18.66-6.86a101.28,101.28,0,0,1,12.9-1.23,22.4,22.4,0,0,1,11.59,3.15c9.66,5.24,13.11,14,9.11,24.28a62.24,62.24,0,0,1-6.25,11.43c-3.19,4.84-6.83,9.4-10.21,14.12s-6.93,9.31-8.82,15c-.52,1.56-2,2.76-2.89,4.25a11.68,11.68,0,0,0-1.55,4,3.74,3.74,0,0,0,2.27,4.27,8.55,8.55,0,0,0,4.12.07c.76-.13,1.4-1,2.09-1.48a80.87,80.87,0,0,1,44-16.49c9.67-.62,19.07.92,27.56,6,6.76,4,9.06,9.3,7.32,17a27.91,27.91,0,0,1-3.29,8,38.85,38.85,0,0,1-5.42,6.79c-2.6,2.73-5.42,5.24-8.19,7.8-1.92,1.77-3.89,3.48-5.86,5.19-2.51,2.17-4.75,4.51-3.31,8.21,1,2.54,3.84,3.44,8.4,2.26a121.61,121.61,0,0,1,28.34-3.43c12.18-.26,24.27.67,36,4.14a86.16,86.16,0,0,1,25,11.86,52.39,52.39,0,0,1,12.57,11.93A26.82,26.82,0,0,1,956.11-46,38.43,38.43,0,0,1,943.6-25.53,63.67,63.67,0,0,1,924.19-14.2a106.2,106.2,0,0,1-33,6.74c-14.21.77-28.28-1.13-42.38-2.33a55.84,55.84,0,0,0-6-.48,5.17,5.17,0,0,0-4.87,3.07,4.75,4.75,0,0,0,1.22,5.59c1.62,1.65,3.5,3,5.12,4.69,6.33,6.41,10.5,13.92,10.82,23.13.34,9.46-4.39,15.54-13.68,17.23a77.18,77.18,0,0,1-12.92.71,52,52,0,0,1-6.88-.8c-11-1.41-21.72-3.49-30.11-11.68-14.51-8.45-29-17-43.55-25.3-8.3-4.73-16.78-9.13-25.26-13.53A22.38,22.38,0,0,0,716.2-9.3a3.72,3.72,0,0,0-4.09,2.55,4.1,4.1,0,0,0,.95,4.8A16,16,0,0,0,716.64.44c6.08,3.36,12.23,6.59,18.29,10,15.4,8.63,30.84,17.2,46.12,26.05,4.46,2.58,9.08,5.14,12.37,9.42A9,9,0,0,0,796.17,48c11.81,6.85,20.56,16.84,28,28,9.82,14.71,13.58,30.9,9.66,48.29-7.94,35.2-27,62-59.56,78.26a76.9,76.9,0,0,1-26.55,7.57c-17.79,1.84-33.1-3.42-45.91-16-7.78-7.61-14.14-16.53-17.62-26.72-2.63-7.7-7.08-14.5-9.26-22.34C672.71,137,669.83,129,667.42,121q-3.49-11.72-6.55-23.55c-2-7.88-3.82-15.84-5.69-23.77-.6-2.55-1.06-5.13-1.73-7.66-1-3.79-3.15-5.55-5.91-5s-4.26,2.88-3.76,6.87c.68,5.31,0,10.48-.74,15.66a65.6,65.6,0,0,1-6.48,20.73,40.15,40.15,0,0,1-12.76,15.18c-7.11,4.94-13.81,4.15-19-2.8a63.54,63.54,0,0,1-7-12.95c-4.41-10.23-6.25-21.18-8.12-32.08-2-11.75-3.68-23.57-5.69-35.32a23.88,23.88,0,0,0-2.66-7.28,5.48,5.48,0,0,0-6.71-2.62,5.36,5.36,0,0,0-3.37,7c3.49,9.62,1.92,19-1.11,28.23a42.91,42.91,0,0,1-5.12,10C560.09,79,553,81.3,544.55,79.56c-8.07-1.66-14.24-6-19.26-14.07,4.12-7,7.83-13.92,12.1-20.45a31.44,31.44,0,0,0,5.25-19.85,39,39,0,0,0-7.93-21.81,32.11,32.11,0,0,0-6.3-5.9c-2-1.53-4.48-1-6.33.69a5.29,5.29,0,0,0-.94,7.09A25.39,25.39,0,0,0,524,8.54c4.88,5.1,6.81,11.46,7.25,18.27a17.44,17.44,0,0,1-15,18.47,25.92,25.92,0,0,1-19-4.35,144.93,144.93,0,0,1-14.36-11.24C478.75,26.07,475,22,471.1,18.1A36.85,36.85,0,0,0,466.61,14a5.46,5.46,0,0,0-6.5-.28,5.66,5.66,0,0,0-2.64,6A34.14,34.14,0,0,0,458.55,23c4.16,15.59-7.78,27.47-18.21,30.34a15.8,15.8,0,0,1-9.38-.6,28.23,28.23,0,0,1-17-15.23c-2.47-5.23-4.24-10.81-6.29-16.25-.7-1.85-1.3-3.73-2.21-6.33a43.28,43.28,0,0,0-4.51,2.9,33.14,33.14,0,0,1-15.56,7.29c-9.05,1.68-18.14,3.17-27.49,4.78-1.17,1.54.36,3,.95,4.39,6,14.16,5.88,28.34.15,42.49A25.85,25.85,0,0,1,354.18,85c-8.88,9.28-18.52,17.62-31,21.66-2.74.89-5.57,1.47-8.36,2.2l-4.65,1.25c.16,3,2,3.45,3.65,3.37,5.47-.27,10.94-.68,16.39-1.28,2.81-.31,5.57-1.13,8.63-1.77,3.65,6,4.54,12.74,5.43,19.28a78.4,78.4,0,0,1-5.19,41.12c-7.6,18.29-20.77,30.62-39.53,36.59-9.38,3-19,2.16-28.24-.6-22-6.58-36.92-21.15-44.77-42.76a135.81,135.81,0,0,1-6.89-31.49,19.77,19.77,0,0,0-2.41-7.31,4.61,4.61,0,0,0-7.95-.38,33,33,0,0,0-2.52,4.56c-9.34,17.72-23.75,29.82-41.72,37.8a42.07,42.07,0,0,1-11.7,3c-11.78,1.49-18.31-3.89-21.78-11.91-4.87-11.24-6.13-23-4.64-35.08.9-7.3,2.85-14.16,7.84-20,2.2-2.58,3.49-6,4.93-9.17.54-1.21.36-2.75.69-5.74-2.29,2.58-3.77,3.84-4.75,5.41-8.07,13-20.53,20.19-33.78,26.34a31,31,0,0,1-7.44,2.22c-12.36,2.26-19.54-2.93-22.19-16.29,1.67-1.59,3.5-3.4,5.4-5.14A151.17,151.17,0,0,0,98.52,77.63a89.25,89.25,0,0,0,15-35,42.36,42.36,0,0,0,.65-6.94,10,10,0,0,0-.62-3.4,4.49,4.49,0,0,0-4.8-2.9,4,4,0,0,0-3.59,3.28c-.43,2-.54,4-.86,6a71.88,71.88,0,0,1-11.9,30.66c-16.06,23-36.66,40.22-63.05,50a82.28,82.28,0,0,1-55.27,1.12,85.75,85.75,0,0,1-15.77-7.08C-58.78,103.69-66.59,88.15-68,68.94c-.35-4.64-.14-9.32-.2-14a12.68,12.68,0,0,0-2.86-8.05c-2.73-3.4-6.22-3.54-8.6-.11a60,60,0,0,0-3,5.34,95,95,0,0,1-17.92,23.45c-8.81,8.26-18.67,14.74-30.57,17.44a42.37,42.37,0,0,1-10.29,1c-7.83-.18-11.65-3.59-12.72-11.47a57.83,57.83,0,0,1,.07-10.44c.15-2.9.77-5.78.86-8.68.13-4.1-.63-4.87-5.29-6.52-.52-.18-1-.48-2-.95,1.57-8.35,3.16-16.84,4.84-25.76a60.23,60.23,0,0,1,6-2.85c12.52-4.48,25.09-8.82,37.61-13.3,3.61-1.29,6.58-.85,9.52,1.85a153,153,0,0,0,12.13,9.89,23.75,23.75,0,0,0,6.83,3.58,4.71,4.71,0,0,0,6.29-4.2,30.46,30.46,0,0,0-.24-6.94,164.7,164.7,0,0,0-13.3-46.85c-.81-1.8-1.41-3.7-2.16-5.67,3.44-1,6.53-1.73,9.48-2.83a13.8,13.8,0,0,0,4.27-2.82c1.44-1.31,1.48-4,.32-5.65a4.25,4.25,0,0,0-4.55-1.76,14.75,14.75,0,0,0-2.46.81c-11,4.13-21.19,1.78-30.29-5-4.59-3.41-8.41-7.92-12.47-12-2.65-2.68-4.92-5.75-7.69-8.28s-6.26-1.78-8,1.52a33.88,33.88,0,0,0-2.1,5.71c-2.61,8.28-8,13.88-15.73,17.64-11.28,5.53-22.63,6.38-34.38,1.62A8.66,8.66,0,0,1-202-50.43a110.59,110.59,0,0,0-5.74-11.73,26.53,26.53,0,0,0-4.13-5.58,13.28,13.28,0,0,0-4.26-2.83c-2.32-1-5.12,0-6,1.93s-.85,4.14,1,5.55c4.55,3.54,7,8.49,9.12,13.6a54.71,54.71,0,0,1,3.7,30.78c-1.49,8.66-5.23,16-12.26,21.41a41.24,41.24,0,0,0-4,3.3,4.35,4.35,0,0,0-.37,5.6c1.23,1.74,3.6,2.83,5.31,1.78a79.67,79.67,0,0,0,9-6.64c2.15-1.8,4-4,6.3-6.39,1.49,3.24,2.71,5.84,3.9,8.45A229.84,229.84,0,0,0-176,51c3,4,5.93,8,11.75,9.32A27.7,27.7,0,0,1-167,64.58a54.8,54.8,0,0,1-20.75,13.91,31.4,31.4,0,0,1-5.81,1.7c-8,1.31-12.13-1.94-12.76-10.1a21.75,21.75,0,0,1,.72-6.9,53.14,53.14,0,0,1,8-18.26A24.51,24.51,0,0,0-195,40.47a4.5,4.5,0,0,0-1.61-5.41,4.27,4.27,0,0,0-4.91-.06,18.14,18.14,0,0,0-4.39,4.17c-3.27,4.62-7.67,7.93-12.3,10.89-16.18,10.36-33.55,16.87-53.08,16.19a47.86,47.86,0,0,1-16.8-3.89c-14.53-6-19.87-22-12.3-35.5a56.55,56.55,0,0,1,13.85-16.62C-281.36,6-276,2.05-270.81-2.12a21.54,21.54,0,0,0,4.26-4.27c1.93-2.77-.44-7.13-3.8-6.94a17.84,17.84,0,0,0-5.81,1.52,107.38,107.38,0,0,1-26.71,7.26c-20.7,2.88-40.34-.17-58.29-11.55A64.56,64.56,0,0,1-379.94-34C-394.44-54.92-391.34-79.51-371.73-95.63Z"/><path class="cls-3" d="M741,216.47c-16.51,0-31.08-6.06-43.31-18-9.14-8.93-15.56-18.71-19.11-29.08a92.72,92.72,0,0,0-4-9.36,83.07,83.07,0,0,1-5.35-13.31c-1.25-4.49-2.74-9.06-4.18-13.48-1.12-3.44-2.28-7-3.34-10.57-2.37-8-4.6-16-6.61-23.76-1.51-5.85-2.9-11.81-4.24-17.57-.32-1.39-.65-2.78-1-4.17-.2,2.39-.52,4.76-.87,7.16a72.23,72.23,0,0,1-7.07,22.61,45.91,45.91,0,0,1-14.69,17.37,21.28,21.28,0,0,1-12.16,4.23c-4,0-9.9-1.45-15.07-8.37A69.65,69.65,0,0,1,592.24,106c-4.63-10.76-6.57-22.08-8.45-33l-.07-.42c-1-6-2-12-2.89-17.89-.54-3.42-1.08-6.92-1.64-10.41a59,59,0,0,1-3.4,19.2A48.61,48.61,0,0,1,570,74.93c-4.82,7.32-11.83,11.19-20.26,11.19a31.76,31.76,0,0,1-6.37-.68c-9.76-2-17.33-7.48-23.15-16.76l-1.93-3.08,1.84-3.14c1.26-2.14,2.47-4.27,3.68-6.38,2.3-4,4.66-8.14,7.18-12.15a23.92,23.92,0,0,1-13.76,7.27,31.77,31.77,0,0,1-23.32-5.29,150.28,150.28,0,0,1-14.95-11.7c-2.92-2.56-5.61-5.31-8.21-8-1.27-1.3-2.54-2.6-3.83-3.87l-.83-.82a29,29,0,0,0-2.51-2.34c0,.07.06.14.08.2a18.08,18.08,0,0,1,.71,2c4.83,18.13-7.87,33.67-22.42,37.67a19.3,19.3,0,0,1-5.1.68,24,24,0,0,1-7.8-1.38A34.41,34.41,0,0,1,408.5,40.08c-1.88-4-3.35-8.09-4.78-12-.44-1.24-.89-2.49-1.35-3.72A39.27,39.27,0,0,1,386.46,31c-6.38,1.19-12.63,2.25-19.24,3.37l-1.79.3c5.41,14.6,5.12,29.5-.89,44.34a31.54,31.54,0,0,1-6,10.08,111.78,111.78,0,0,1-16.66,14.71L344,107.3c4.29,7.09,5.32,14.75,6.23,21.51a84.4,84.4,0,0,1-5.58,44.29c-8.33,20.07-22.88,33.53-43.25,40a47.14,47.14,0,0,1-14.3,2.18,61,61,0,0,1-17.49-2.74c-23.67-7.1-40.05-22.73-48.68-46.46a141.45,141.45,0,0,1-7.21-32.87,13.46,13.46,0,0,0-.68-2.86l-.21.42c-.24.48-.48,1-.73,1.43-9.45,17.93-24.45,31.56-44.59,40.5a47.91,47.91,0,0,1-13.38,3.52,37.06,37.06,0,0,1-4.51.29c-10.92,0-19.06-5.46-23.53-15.78-5.06-11.67-6.77-24.52-5.08-38.19a60.28,60.28,0,0,1,1.17-6.71,125.86,125.86,0,0,1-17.76,9.75,37,37,0,0,1-8.89,2.67,35.86,35.86,0,0,1-6.32.61c-8.46,0-19.29-3.75-22.83-21.63l-.27-1.34A131.71,131.71,0,0,1,31.46,125,89.6,89.6,0,0,1,.24,130.73a90.78,90.78,0,0,1-28-4.54,91.69,91.69,0,0,1-16.89-7.56C-62.43,108.52-72.32,92-74,69.39c-.26-3.39-.24-6.74-.22-10,0-1.46,0-2.92,0-4.38a6.64,6.64,0,0,0-1.14-3.82c-.32.56-.63,1.17-1,1.81s-.7,1.37-1.07,2A99.88,99.88,0,0,1-96.47,80C-107.2,90-118.11,96.22-129.81,98.88a48.3,48.3,0,0,1-10.72,1.22l-1,0c-10.82-.25-17.05-5.85-18.52-16.66a49.42,49.42,0,0,1-.08-9.79c0-.59.07-1.18.1-1.77.08-1.59.27-3.08.46-4.53s.33-2.58.38-3.75c-.26.42-.5.84-.73,1.24a19.39,19.39,0,0,1-2.71,3.89,61.14,61.14,0,0,1-23,15.4,37.61,37.61,0,0,1-7,2,25.71,25.71,0,0,1-4.16.36c-4.31,0-14.45-1.55-15.55-15.93a27.52,27.52,0,0,1,.88-8.82,68.93,68.93,0,0,1,4.29-12.34A64.72,64.72,0,0,1-215,55.12C-233,66.68-250.56,72.3-268.5,72.3c-1,0-2,0-3,0a53.87,53.87,0,0,1-18.89-4.34,30.94,30.94,0,0,1-17.78-18.44,31,31,0,0,1,2.54-25.54A63,63,0,0,1-290.32,5.57c2.79-2.25,5.64-4.47,8.4-6.61,1.74-1.34,3.52-2.72,5.27-4.11A114.1,114.1,0,0,1-302,1.4a110,110,0,0,1-15,1.07A86.87,86.87,0,0,1-364.37-11a71,71,0,0,1-20.51-19.54c-16.37-23.64-12.62-51.65,9.34-69.69A96.17,96.17,0,0,1-356.76-112c15.6-7.67,32.86-13.09,52.76-16.55a220.82,220.82,0,0,1,38.1-3c3.81,0,7.79.06,12.07.2a42.12,42.12,0,0,1-18.4-18.24c-3.53-7-4.09-12.6-1.7-17.27s7.17-7.45,14.69-8.62a77.39,77.39,0,0,1,9.79-.73c1.26,0,2.52-.08,3.78-.15.89,0,1.78-.08,2.67-.1l-.54-.28-2.28-1.2a45.57,45.57,0,0,1-8.38-5.18,80.29,80.29,0,0,1-24.4-35.1c-.11-.32-.21-.65-.3-1l-.05-.16c-2.71-9-2.1-17.29,1.77-23.83s10.73-11,19.89-13a60,60,0,0,1,12.62-1.33A73.75,73.75,0,0,1-226.21-255c11.13,2.84,22.31,7.62,34.17,14.62,4.87,2.87,9.73,5.89,14.42,8.81,2.87,1.79,5.73,3.57,8.61,5.32.95.59,1.89,1.19,2.83,1.8a37.46,37.46,0,0,0,6.68,3.75,28.68,28.68,0,0,1,5.54,2.78,168.75,168.75,0,0,1-10.75-19.75c-5.34-11.5-7.58-22.14-6.85-32.53a31.72,31.72,0,0,1,5.79-17c5.17-7.12,11.5-8.61,15.9-8.61a22.28,22.28,0,0,1,4.52.48,44.75,44.75,0,0,1,14.7,6.07,91.42,91.42,0,0,1,19.16,16.13c1.88,2,3.71,4.14,5.47,6.16,1.28,1.47,2.56,2.93,3.86,4.38v0c-5.82-22.5-2-44.49,11.79-67.22a36,36,0,0,1,11.52-11.89,23.85,23.85,0,0,1,12.92-4,23.59,23.59,0,0,1,13.16,4.25c5.23,3.47,9.53,8.2,13.94,15.33a112.38,112.38,0,0,1,14.67,37.58c1.2,6.11,2,12.3,2.78,18.29.34,2.65.68,5.29,1.06,7.93.14,1,.27,1.95.4,2.92s.23,1.74.35,2.58l.19-.38.74-1.45A67.34,67.34,0,0,1-4.91-276.95a49,49,0,0,1,9.46-7.11,26.17,26.17,0,0,1,12.91-3.61c7.37,0,14.26,3.68,19.4,10.37,4.66,6.08,7.42,13.39,8.44,22.37a74.61,74.61,0,0,1-.78,22.71q-.57,2.92-1.17,5.83c-.86,4.22-1.74,8.58-2.42,12.83-.35,2.21-.62,4.49-.81,6.89,4.66-6.64,11.31-10.15,16.26-12.3a67,67,0,0,1,26.74-5.78,66.49,66.49,0,0,1,28.61,6.69c5.09,2.41,9.9,5.29,14.55,8.07l4.31,2.57c-.87-.89-1.75-1.77-2.63-2.65-3.6-3.6-7.31-7.31-10.74-11.33a81,81,0,0,1-18.61-38.52,36.84,36.84,0,0,1,1.07-17.45c3.22-10.8,11.49-17.25,22.71-17.71l1.25,0a32.67,32.67,0,0,1,13.21,2.9A72,72,0,0,1,158-278.06c3,2.95,5.91,6.05,8.69,9.06l.57.61c1.51,1.64,3,3.29,4.47,4.95.87,1,1.75,2,2.64,2.95-.3-.59-.6-1.21-.88-1.86-.88-2-1.77-4.09-2.67-6.13-2.7-6.18-5.49-12.57-7.87-19.09a59,59,0,0,1-3.48-25.8,46,46,0,0,1,11.08-26.3A61.26,61.26,0,0,1,181-349.61c17.48-12.71,36.37-19.16,56.17-19.16a95.07,95.07,0,0,1,10.86.63,47.91,47.91,0,0,1,5.84,1.06c21.16,5.1,32.44,18.2,34.49,40,1.43,15.22-.58,29.76-2.49,40.72-.82,4.72-1.77,9.46-2.69,14-.56,2.78-1.12,5.56-1.65,8.35-.59,3.06-1.23,6.21-2.08,9.36,4.34-6,10.47-9.83,15.93-12.64a13.73,13.73,0,0,1,6.25-1.64c5.27,0,9.31,3.57,10.83,9.56A66.75,66.75,0,0,1,314.2-248c.24,3.09.32,6.16.39,9.13,0,1.68.08,3.37.15,5.06,0,.33,0,.68,0,1,4.41-7.43,11.32-12.82,21-16.43a30.31,30.31,0,0,1,10.52-2.14c9.31,0,15,6,18.44,10.52,1.67,2.16,3.18,4.4,4.63,6.59q-2.49-4.69-5-9.36c-3.48-6.5-7.09-13.21-10.51-19.91a130.19,130.19,0,0,1-10.62-27.21c-2.15-8.39-4-18.39-1.13-28.93.09-.34.17-.7.25-1a23.17,23.17,0,0,1,.73-2.74c4-11.62,13.8-18.84,25.54-18.84a29.9,29.9,0,0,1,9.08,1.45c5.63,1.79,10.91,5.1,16.17,10.11a76.11,76.11,0,0,1,15.21,20.39c3.22,6.28,6.24,12.74,9.16,19,1.36,2.9,2.71,5.8,4.09,8.69.4.84.78,1.69,1.17,2.54a40.05,40.05,0,0,0,2.7,5.33l0,0,.07-.15a50.36,50.36,0,0,0,2-5.8c.19-.61.37-1.22.56-1.83,3-9.78,7.08-17.76,12.35-24.42a112.64,112.64,0,0,1,12.64-13.25,38.5,38.5,0,0,1,16.25-8.52,31.71,31.71,0,0,1,8.15-1.13c8.83,0,16.35,4.31,21.74,12.46,5,7.48,7.73,16.54,8.48,27.71.32,4.84.32,9.68.32,14.36,0,2,0,4,0,6,0,.71,0,1.42,0,2.13,0,.34,0,.68,0,1,.13-.18.25-.36.37-.55.48-.7.95-1.4,1.46-2.08a75.84,75.84,0,0,1,28.57-24.08c3.63-1.73,8.51-3.72,14.15-3.76h.2c9.65,0,15.57,5,17.13,14.47a49.28,49.28,0,0,1,.48,7.73c0,.61,0,1.23,0,1.84.06,2.94.1,5.87.14,8.8,0,2.53.07,5.12.12,7.7,9.72-24.78,27.18-42.7,52-53.31,6.55-2.8,12.22-4.11,17.84-4.11a33.48,33.48,0,0,1,6.86.7c10.42,2.14,17.84,8.47,21.46,18.29a80.39,80.39,0,0,1,2.37,8.08c.36,1.41.71,2.75,1.09,4.07.14.48.27,1,.4,1.45a23,23,0,0,0,1.38,4.05,2,2,0,0,0,.72.89,2,2,0,0,0,.65-.34,43.5,43.5,0,0,0,6-5.76,103.71,103.71,0,0,1,36.61-25.88,58,58,0,0,1,22.34-4.67,52.38,52.38,0,0,1,7.07.48c15.84,2.12,26.58,12.78,28,27.81a74.59,74.59,0,0,1,.33,12.27,81.57,81.57,0,0,1-7.24,28.13c-2.39,5.38-5,10.75-7.44,15.93q-1.7,3.54-3.38,7.09l-.84,1.77c-.61,1.29-1.2,2.53-1.76,3.76a68,68,0,0,1,19-6.73,108.18,108.18,0,0,1,13.66-1.31h1a28.61,28.61,0,0,1,13.75,3.89c12.49,6.78,16.92,18.63,11.84,31.72a67.91,67.91,0,0,1-6.83,12.56c-2.13,3.23-4.42,6.31-6.65,9.29-1.24,1.67-2.48,3.34-3.69,5l-1,1.36c-2.88,4-5.61,7.77-7,12a9.47,9.47,0,0,1-.37.93,86.26,86.26,0,0,1,42.37-14.24c1.47-.1,2.94-.15,4.37-.15A51.3,51.3,0,0,1,862.93-154c9,5.37,12.42,13.27,10.11,23.47a33.89,33.89,0,0,1-4,9.71,44.42,44.42,0,0,1-6.24,7.87c-2.25,2.36-4.63,4.55-6.93,6.66l-1.53,1.41c-1.94,1.79-3.94,3.52-5.87,5.2l-.19.16c8.45-2.17,17.81-3.29,29.44-3.54,1.28,0,2.57,0,3.86,0,12.77,0,23.89,1.45,34,4.42A92.69,92.69,0,0,1,942.3-86a58.39,58.39,0,0,1,14,13.29A32.81,32.81,0,0,1,962-44.64,44.61,44.61,0,0,1,947.56-21a69.19,69.19,0,0,1-21.2,12.42,111.83,111.83,0,0,1-34.83,7.15c-2.29.12-4.7.18-7.15.18-9.27,0-18.5-.88-27.43-1.74-2.88-.27-5.76-.55-8.64-.8-.68-.05-1.36-.13-2-.2l-1-.12.4.35c.94.82,1.92,1.67,2.89,2.66,8,8.08,12.2,17.21,12.55,27.13.44,12.42-6.52,21.14-18.61,23.34a69.71,69.71,0,0,1-12.28.8h-1.84a35,35,0,0,1-5.63-.57c-.63-.1-1.26-.2-1.89-.28a91.33,91.33,0,0,1-16.69-3.38c9.11,6.3,17.17,14.93,25.06,26.74,11.15,16.68,14.69,34.49,10.53,52.94-8.6,38.13-29.71,65.82-62.73,82.3a83.07,83.07,0,0,1-28.61,8.18C745.88,216.33,743.39,216.47,741,216.47ZM-197.48.92c.89,1.92,1.7,3.65,2.49,5.39a222.84,222.84,0,0,0,23.8,41.07c1.93,2.59,3.38,4.47,5.15,5.68l5-26.88,2.73-1.32c.53-.26,1.07-.54,1.62-.83a39.74,39.74,0,0,1,4.95-2.27q9.58-3.44,19.19-6.79c6.14-2.16,12.29-4.31,18.42-6.51a16.68,16.68,0,0,1,5.64-1,14.52,14.52,0,0,1,10,4.12A143.6,143.6,0,0,0-86.82,21a18.92,18.92,0,0,0,3.63,2.13,30,30,0,0,0-.29-4.11A159.67,159.67,0,0,0-96.29-26.09c-.66-1.44-1.16-2.86-1.66-4.23-.21-.59-.42-1.19-.65-1.79l-2.3-6.08,1.26-.36c-6.94-.59-13.7-3.3-20.15-8.09A79.54,79.54,0,0,1-130-56.19c-1-1-2-2.08-3-3.09-1.25-1.27-2.38-2.56-3.48-3.81s-2.07-2.37-3.1-3.4c-.32.8-.61,1.74-.91,2.71l-.33,1c-3,9.42-9.3,16.57-18.81,21.22a49.15,49.15,0,0,1-21.7,5.33,46.66,46.66,0,0,1-17.57-3.54,17.18,17.18,0,0,1-4.51-2.61,59.36,59.36,0,0,1,1,24.66,45.34,45.34,0,0,1-3.22,10.75l3.07-3.15ZM20.31-9.2l2.12,4.32c.62,1.27,1.24,2.54,1.85,3.81q1.56,3.27,3.07,6.55c2.23,4.79,4.53,9.75,7,14.4a57.11,57.11,0,0,0,7.93,11.69A12.6,12.6,0,0,0,51.68,36a14.73,14.73,0,0,0,8.08-2.65,20.1,20.1,0,0,0,4.5-3.93C78.34,12,88.65-6.72,94.9-26.37a25,25,0,0,0,1.16-7.57c0-5.66-3.57-9.62-8.63-9.62a11.57,11.57,0,0,0-4.17.84A26.8,26.8,0,0,0,73.9-36.4c-1,1-1.88,2-2.86,3.07-1.4,1.53-2.85,3.12-4.45,4.65a7.17,7.17,0,0,1-3.1,1.74L61.06-23l-3.6-3.23-9,.9L52-31.15l-5.33-4.8,9.44-1.94C62.43-48.72,67-61.1,70-75.64c.08-.4.15-.82.21-1.23.37-2.41,1-6.45,4.78-9.36l2.09-1.61A32.6,32.6,0,0,1,66.15-105.7a77.51,77.51,0,0,1-1.54-13.08c-.11-1.75-.21-3.4-.36-5A11.3,11.3,0,0,1,64.4-127a30.54,30.54,0,0,1-19.72,6.91h-.77c-12.52-.27-22.79-4.83-30.59-13.57L12.57-132c-.16.35-.28.67-.4,1a12.28,12.28,0,0,1-1.57,3c-6.79,9-15.27,14.36-25.29,15.85l-.73,5.44c-.08.58-.14,1.13-.19,1.67a28.79,28.79,0,0,1-.7,4.33c-4.2,16-5.5,32.91-4,51.73a65,65,0,0,0,2.68,12.22c.43,1.51.86,3,1.25,4.53A24.23,24.23,0,0,0-15-28.82c.33.75.67,1.52,1,2.3l1.26,3.09-2,2.7c-.83,1.15-1.65,2.29-2.46,3.43-2.1,2.92-4.26,6-6.55,8.85a14.15,14.15,0,0,1-4.26,3.39c-.34.19-.69.39-1,.62L-34-1l-3.33-5.14c-4.14-6.4-5.7-12.93-7.07-18.7q-.86-3.58-1.69-7.19c-1.64-7.06-3.34-14.35-5.33-21.36a45.3,45.3,0,0,0-5.26-11.86c-.86-1.34-1.82-2.17-2.51-2.17s-1.66.54-2.89,2a17.16,17.16,0,0,0-3.13,5.53A46.62,46.62,0,0,0-67.35-49.3,146.1,146.1,0,0,0-64.6-10.06c1.62,8.29,3.31,16.87,7,24.48a40.36,40.36,0,0,0,6,9.54,8.53,8.53,0,0,0,6.38,3.21,10.23,10.23,0,0,0,4.12-1,30.12,30.12,0,0,0,8.41-5.42A78,78,0,0,0-23.45,9.64c2.09-2.93,4-6,6-9.28,1.05-1.73,2.11-3.46,3.2-5.17s2.29-3.48,3.33-5l1.2-1.78,2.24-3.35ZM274-240.95a19.23,19.23,0,0,0-1.64,6.13C273-236.95,273.53-239,274-240.95Z"/><path class="cls-3" d="M525.29,65.49c4.12-7,7.83-13.92,12.1-20.45a31.44,31.44,0,0,0,5.25-19.85,39,39,0,0,0-7.93-21.81,32.11,32.11,0,0,0-6.3-5.9c-2-1.53-4.48-1-6.33.69a5.3,5.3,0,0,0-.94,7.1A26,26,0,0,0,524,8.54c4.88,5.1,6.81,11.46,7.25,18.27a17.44,17.44,0,0,1-15,18.47,25.92,25.92,0,0,1-19-4.35,144.93,144.93,0,0,1-14.36-11.24C478.75,26.07,475,22,471.1,18.1A36.85,36.85,0,0,0,466.61,14a5.46,5.46,0,0,0-6.5-.28,5.66,5.66,0,0,0-2.64,6c.17,1.12.79,2.17,1.08,3.29,4.16,15.59-7.78,27.47-18.21,30.34a15.8,15.8,0,0,1-9.38-.6,28.23,28.23,0,0,1-17-15.23c-2.47-5.23-4.24-10.81-6.29-16.25-.69-1.85-1.3-3.73-2.21-6.33a43.28,43.28,0,0,0-4.51,2.9,33.14,33.14,0,0,1-15.56,7.29c-9.05,1.68-18.14,3.17-27.49,4.78-1.17,1.54.36,3,.95,4.39,6,14.16,5.88,28.34.15,42.49A25.85,25.85,0,0,1,354.18,85c-8.88,9.28-18.52,17.62-31,21.66-2.74.89-5.57,1.47-8.36,2.21-1.59.41-3.18.85-4.65,1.24.16,3,2,3.45,3.65,3.37,5.47-.27,10.94-.68,16.39-1.28,2.81-.31,5.57-1.13,8.63-1.77,3.65,6,4.54,12.74,5.43,19.28a78.4,78.4,0,0,1-5.19,41.12c-7.6,18.29-20.77,30.62-39.53,36.59-9.38,3-19,2.16-28.24-.6-22-6.58-36.92-21.15-44.77-42.76a135.81,135.81,0,0,1-6.89-31.49,19.77,19.77,0,0,0-2.41-7.31,4.61,4.61,0,0,0-7.95-.38,33,33,0,0,0-2.52,4.56c-9.34,17.72-23.75,29.82-41.72,37.8a42.07,42.07,0,0,1-11.7,3c-11.78,1.49-18.31-3.89-21.78-11.91-4.87-11.24-6.13-23-4.64-35.08.9-7.3,2.85-14.16,7.84-20,2.2-2.58,3.49-6,4.93-9.17.54-1.21.36-2.75.69-5.74-2.29,2.58-3.77,3.84-4.75,5.41-8.07,13-20.53,20.19-33.78,26.35a31.41,31.41,0,0,1-7.44,2.21c-12.36,2.26-19.54-2.94-22.19-16.29,1.67-1.59,3.5-3.4,5.4-5.14A151.17,151.17,0,0,0,98.52,77.63a89.25,89.25,0,0,0,15-35,42.36,42.36,0,0,0,.65-6.94,10,10,0,0,0-.62-3.4,4.49,4.49,0,0,0-4.8-2.9,4,4,0,0,0-3.59,3.28c-.43,2-.54,4-.86,6a71.88,71.88,0,0,1-11.9,30.66c-16.06,23-36.66,40.22-63.05,50a82.28,82.28,0,0,1-55.27,1.12,85.75,85.75,0,0,1-15.77-7.08C-58.78,103.69-66.59,88.15-68,68.94c-.35-4.64-.14-9.32-.2-14a12.68,12.68,0,0,0-2.86-8.05c-2.73-3.4-6.22-3.54-8.6-.11a60,60,0,0,0-3,5.34,95,95,0,0,1-17.92,23.45c-8.81,8.26-18.67,14.74-30.57,17.44a42.37,42.37,0,0,1-10.29,1c-7.83-.18-11.65-3.59-12.72-11.47a56.93,56.93,0,0,1,.07-10.44c.15-2.9.77-5.78.86-8.68.13-4.1-.63-4.87-5.29-6.52-.52-.18-1-.48-2-.95,1.57-8.35,3.16-16.84,4.84-25.76a60.23,60.23,0,0,1,6-2.85c12.52-4.48,25.09-8.82,37.61-13.3,3.61-1.29,6.58-.85,9.52,1.85a153,153,0,0,0,12.13,9.89,24,24,0,0,0,6.83,3.59,4.72,4.72,0,0,0,6.29-4.21,30.46,30.46,0,0,0-.24-6.94,164.7,164.7,0,0,0-13.3-46.85c-.81-1.8-1.41-3.7-2.16-5.67,3.44-1,6.53-1.73,9.47-2.83a13.72,13.72,0,0,0,4.28-2.82c1.44-1.31,1.48-4,.32-5.65a4.25,4.25,0,0,0-4.55-1.76,14.75,14.75,0,0,0-2.46.81c-11,4.13-21.19,1.78-30.29-5-4.59-3.41-8.41-7.92-12.47-12-2.65-2.68-4.92-5.75-7.69-8.28s-6.26-1.78-8,1.52a33.88,33.88,0,0,0-2.1,5.71c-2.61,8.28-8,13.88-15.73,17.64-11.28,5.53-22.63,6.38-34.38,1.62A8.66,8.66,0,0,1-202-50.43a110.59,110.59,0,0,0-5.74-11.73,26.53,26.53,0,0,0-4.13-5.58,13.12,13.12,0,0,0-4.26-2.83c-2.32-1-5.12,0-6,1.93s-.85,4.14,1,5.55c4.55,3.54,7,8.49,9.12,13.6a54.71,54.71,0,0,1,3.7,30.78c-1.49,8.66-5.23,16-12.26,21.41a41.24,41.24,0,0,0-4,3.3,4.35,4.35,0,0,0-.37,5.6c1.23,1.74,3.6,2.83,5.31,1.78a78.67,78.67,0,0,0,9-6.64c2.16-1.8,4-4,6.31-6.39,1.49,3.24,2.71,5.84,3.9,8.45A229.84,229.84,0,0,0-176,51c3,4,5.93,8,11.75,9.32A27.7,27.7,0,0,1-167,64.58a54.91,54.91,0,0,1-20.75,13.91,31.4,31.4,0,0,1-5.81,1.7c-8,1.31-12.13-1.93-12.76-10.1a21.75,21.75,0,0,1,.72-6.9,53.14,53.14,0,0,1,8-18.26A24.51,24.51,0,0,0-195,40.47a4.5,4.5,0,0,0-1.61-5.41,4.27,4.27,0,0,0-4.91-.06,18.14,18.14,0,0,0-4.39,4.17c-3.27,4.62-7.67,7.93-12.3,10.89-16.18,10.36-33.55,16.87-53.08,16.19a47.86,47.86,0,0,1-16.8-3.89c-14.53-6-19.87-22-12.3-35.5a56.71,56.71,0,0,1,13.85-16.63C-281.36,6-276,2.05-270.81-2.12a21.28,21.28,0,0,0,4.26-4.27c1.93-2.77-.44-7.13-3.8-6.94a17.84,17.84,0,0,0-5.81,1.52,107.38,107.38,0,0,1-26.71,7.26c-20.7,2.88-40.34-.17-58.29-11.55A64.56,64.56,0,0,1-379.94-34c-14.5-20.93-11.4-45.52,8.21-61.64a90.81,90.81,0,0,1,17.62-11c16.19-8,33.4-12.94,51.14-16,17.47-3,35.08-3.25,52.73-2.53,1.7.07,3.63.42,5.07-.22a7,7,0,0,0,3.26-3.65c.68-1.76-.46-3.48-2-4.42a48.94,48.94,0,0,0-4.77-2c-7.85-3.63-14.2-9-18.18-16.81-5.1-10-2.4-15.53,8.57-17.25,4.26-.66,8.64-.57,13-.81,2.59-.14,5.21-.09,7.78-.41,2.81-.35,4.5-2.12,4.66-4.37a4.85,4.85,0,0,0-3-4.87c-1.54-.79-3.29-1.17-4.81-2-3.29-1.79-6.83-3.34-9.67-5.71a74.14,74.14,0,0,1-22.6-32.52c-.1-.27-.17-.56-.25-.83-4.51-15.08,1.9-25.94,17.18-29.24,9.55-2.07,19-1.29,28.33,1.09a125.42,125.42,0,0,1,32.6,14c7.73,4.56,15.29,9.42,23,14.1,3.46,2.11,6.8,4.63,10.53,6,5.72,2.15,9.53,6.11,13,10.87,9.43,12.8,21.48,22.75,34.65,31.38a23.76,23.76,0,0,0,7.09,3,4.58,4.58,0,0,0,5.34-3.36c.52-1.84-.37-3.84-2.39-5.14-3.89-2.51-7.91-4.82-11.68-7.48-19.72-13.9-33.6-32.62-43.7-54.36-4.33-9.33-7-19.09-6.31-29.58a26.07,26.07,0,0,1,4.67-13.88c3.56-4.9,8.23-7,14.34-5.78a39.19,39.19,0,0,1,12.75,5.3,86,86,0,0,1,17.91,15.09c3.34,3.63,6.51,7.42,9.82,11.08a20.18,20.18,0,0,0,3.8,3.54,4.49,4.49,0,0,0,6.93-3.69,24.53,24.53,0,0,0-1-6c-5.85-22.6-.62-43.22,11.11-62.62a30.23,30.23,0,0,1,9.62-9.93c6.54-4.18,13.1-4.13,19.53.15,5.17,3.44,8.92,8.26,12.16,13.49a106.14,106.14,0,0,1,13.88,35.58c1.68,8.56,2.56,17.27,3.79,25.91.45,3.17.81,6.36,1.39,9.5a4.27,4.27,0,0,0,3.42,3.53,4.61,4.61,0,0,0,5.27-2.09c1.08-1.71,1.94-3.57,2.87-5.37A61.38,61.38,0,0,1-.8-272.58a42.7,42.7,0,0,1,8.3-6.25c9.18-5.17,18.16-3.2,24.6,5.19,4.37,5.69,6.44,12.35,7.24,19.39a68.37,68.37,0,0,1-.71,20.88C37.41-227.08,36-220.82,35-214.5a101.25,101.25,0,0,0-1.16,13,4.93,4.93,0,0,0,3.65,5.27c2.16.54,4.09-.35,5.37-3.2,3.22-7.16,9.26-11.16,15.92-14.06,16.83-7.32,33.81-7,50.38.83,7,3.34,13.61,7.67,20.39,11.55,2.27,1.29,4.47,2.69,6.81,3.82a4.48,4.48,0,0,0,6-1.78c1.16-1.76,1-3.6-.66-5.58-1.51-1.75-3.25-3.31-4.86-5-5.05-5.2-10.37-10.17-15.08-15.68A74.8,74.8,0,0,1,104.51-261a31.23,31.23,0,0,1,.93-14.67c2.48-8.35,8.63-13.07,17.2-13.42a26.34,26.34,0,0,1,11.8,2.36,66,66,0,0,1,19.41,13c3.12,3,6.07,6.24,9,9.44,3.35,3.62,6.55,7.38,9.94,11,3.76,4,6.37,4.71,8.86,2.75,2.26-1.78,2.34-4.27.17-8.71-.89-1.83-2-3.54-2.83-5.41-3.55-8.28-7.33-16.47-10.42-24.92a53,53,0,0,1-3.13-23.19,40,40,0,0,1,9.65-22.94,57.08,57.08,0,0,1,9.39-9c18.76-13.64,39.58-20.07,62.82-17.42a42.11,42.11,0,0,1,5.11.93c18.55,4.48,28.12,15.57,29.93,34.76,1.23,13.17-.18,26.19-2.43,39.14-1.3,7.45-2.9,14.85-4.32,22.28-1.32,6.87-2.8,13.62-6.22,19.88a25.37,25.37,0,0,0-3,14.35c.26,3.14,2,5.3,4.51,5.66a5.56,5.56,0,0,0,6-4,104.23,104.23,0,0,0,3.46-12.62c2.06-10.23,9.38-15.72,17.78-20,4.32-2.22,7.34-.61,8.53,4.06a61.83,61.83,0,0,1,1.59,10.33c.36,4.64.33,9.31.52,14a32.15,32.15,0,0,0,.52,5.2c.45,2,1.42,3.84,3.73,4.36s4.3-.36,5.57-3.1c4-8.51,11-13.36,19.33-16.47,9.7-3.61,15.82-1.81,22.11,6.4,2.83,3.68,5.24,7.67,7.91,11.48a50.68,50.68,0,0,0,4.24,5.51,5,5,0,0,0,6.32,1,4.82,4.82,0,0,0,2-6.07,104.13,104.13,0,0,0-4.54-9.4c-5.56-10.54-11.31-21-16.74-31.59a125.45,125.45,0,0,1-10.15-26c-2.18-8.52-3.5-17.13-1.14-25.88.3-1.13.47-2.29.85-3.39,4.07-11.78,15.28-17.41,27.13-13.64a36.07,36.07,0,0,1,13.85,8.74,70,70,0,0,1,14,18.79c4.64,9,8.79,18.33,13.17,27.51a72.79,72.79,0,0,0,4.27,8.57c3.26,5,8.2,4.49,10.6-1a76.3,76.3,0,0,0,2.78-8.26,68.3,68.3,0,0,1,11.33-22.47,108.34,108.34,0,0,1,12-12.55,32.51,32.51,0,0,1,13.76-7.15c9.8-2.62,17.69.32,23.34,8.84,5,7.48,6.9,16,7.49,24.8.45,6.67.25,13.39.34,20.09a59,59,0,0,0,.1,6.1,5.17,5.17,0,0,0,3.56,4.54,4.75,4.75,0,0,0,5.43-1.71c1.3-1.54,2.34-3.32,3.54-4.95a69.64,69.64,0,0,1,26.32-22.21c3.68-1.76,7.45-3.15,11.61-3.18,6.66-.05,10.27,2.78,11.37,9.45a60.08,60.08,0,0,1,.42,8.71c.15,7.28.19,14.56.38,21.83a10.4,10.4,0,0,0,.94,4.16c.78,1.64,2.32,2.87,4.16,2.49a8.16,8.16,0,0,0,3.49-2.26,6,6,0,0,0,1-2.38q13-39.09,50.65-55.25c6.66-2.85,13.67-4.6,21.13-3.06,8.38,1.73,14.1,6.51,17,14.5,1.4,3.8,2.19,7.83,3.33,11.74a35.94,35.94,0,0,0,2.21,6.59c2.18,4.22,6.43,5.38,10.21,2.65a47.55,47.55,0,0,0,6.91-6.56,97.38,97.38,0,0,1,34.51-24.4,50.19,50.19,0,0,1,26.3-3.79c11.28,1.52,21.53,8.61,22.87,22.45a70,70,0,0,1,.31,11.3,76.09,76.09,0,0,1-6.74,26.08c-3.42,7.71-7.16,15.27-10.75,22.9-1.12,2.36-2.26,4.72-3.32,7.11s-.91,4.55,1.06,6.4,4.2,1.77,6.42.63c6-3.06,12.06-5.74,18.66-6.86a101.28,101.28,0,0,1,12.9-1.23,22.4,22.4,0,0,1,11.59,3.15c9.66,5.24,13.11,14,9.11,24.28a62.24,62.24,0,0,1-6.25,11.43c-3.19,4.84-6.83,9.4-10.21,14.12s-6.93,9.32-8.82,15c-.52,1.56-2,2.76-2.89,4.25a11.68,11.68,0,0,0-1.55,4,3.73,3.73,0,0,0,2.27,4.27,8.55,8.55,0,0,0,4.12.07c.76-.13,1.4-1,2.09-1.48a80.79,80.79,0,0,1,44-16.49c9.67-.62,19.07.92,27.56,6,6.76,4,9.06,9.3,7.32,17a27.91,27.91,0,0,1-3.29,8,39.22,39.22,0,0,1-5.42,6.79c-2.6,2.73-5.42,5.24-8.19,7.8-1.92,1.77-3.89,3.48-5.86,5.19-2.51,2.17-4.75,4.5-3.31,8.21,1,2.54,3.84,3.44,8.4,2.26a121.61,121.61,0,0,1,28.34-3.43c12.18-.26,24.27.67,36,4.14a86.16,86.16,0,0,1,25,11.86,52.39,52.39,0,0,1,12.57,11.93A26.82,26.82,0,0,1,956.11-46,38.43,38.43,0,0,1,943.6-25.53,63.67,63.67,0,0,1,924.19-14.2a106.2,106.2,0,0,1-33,6.74c-14.21.77-28.28-1.13-42.38-2.33a55.84,55.84,0,0,0-6-.48,5.17,5.17,0,0,0-4.87,3.07,4.75,4.75,0,0,0,1.22,5.59c1.62,1.65,3.5,3,5.12,4.69,6.33,6.41,10.5,13.92,10.82,23.13.34,9.46-4.39,15.54-13.68,17.23a77.18,77.18,0,0,1-12.92.71,52,52,0,0,1-6.88-.8c-11-1.41-21.72-3.49-30.11-11.68-14.51-8.45-29-17-43.55-25.3-8.3-4.73-16.78-9.13-25.26-13.53A22.38,22.38,0,0,0,716.2-9.3a3.72,3.72,0,0,0-4.09,2.55,4.12,4.12,0,0,0,.95,4.8,16.36,16.36,0,0,0,3.58,2.4c6.08,3.35,12.23,6.59,18.29,10,15.4,8.63,30.84,17.2,46.12,26.05,4.46,2.58,9.08,5.14,12.37,9.42A9,9,0,0,0,796.17,48c11.81,6.85,20.56,16.84,28,28,9.82,14.71,13.58,30.9,9.66,48.29-7.94,35.2-27,62-59.56,78.26a76.9,76.9,0,0,1-26.55,7.57c-17.79,1.84-33.1-3.42-45.91-16-7.78-7.61-14.14-16.53-17.62-26.72-2.63-7.7-7.08-14.5-9.26-22.34C672.71,137,669.83,129,667.42,121q-3.49-11.72-6.55-23.55c-2-7.88-3.82-15.84-5.69-23.77-.6-2.55-1.06-5.13-1.73-7.66-1-3.79-3.15-5.55-5.91-5s-4.26,2.88-3.76,6.87c.68,5.31,0,10.48-.74,15.66a65.6,65.6,0,0,1-6.48,20.73,40.15,40.15,0,0,1-12.76,15.18c-7.11,4.94-13.81,4.15-19-2.8a63.54,63.54,0,0,1-7-12.95c-4.41-10.23-6.25-21.18-8.12-32.09-2-11.74-3.68-23.56-5.69-35.31a23.88,23.88,0,0,0-2.66-7.28,5.48,5.48,0,0,0-6.71-2.62,5.36,5.36,0,0,0-3.37,7c3.49,9.62,1.92,19-1.11,28.23a42.91,42.91,0,0,1-5.12,10C560.09,79,553,81.3,544.55,79.56,536.48,77.9,530.31,73.51,525.29,65.49ZM59.52-32.46l.22.19c8.07-13,13-27.21,16.14-42.14.52-2.49.42-5.25,2.78-7.07,3,1,6,2.24,9,3.08,9.63,2.63,18.92,1.86,27.55-3.47a23.3,23.3,0,0,0,5.15-4.57c1.29-1.46.89-4.3-.45-5.64a4.12,4.12,0,0,0-4.76-1,43.89,43.89,0,0,0-4.44,2.67C95.22-81.29,76.09-89.32,72-107c-1.3-5.61-1.25-11.53-1.78-17.32-.2-2.21,1-3.85,2.38-5.4,2.33-2.58,4.71-5.14,6.85-7.88,1.76-2.24,1.56-4.54-.12-6.33-1.87-2-4.37-1.92-6.92.25a30,30,0,0,0-2.47,2.45c-2.37,2.55-4.64,5.2-7.11,7.65A25,25,0,0,1,44-126.09c-12-.26-21.84-5.07-28.95-14.93-2.36-3.28-4.15-7-6.23-10.47a51.23,51.23,0,0,0-3.23-5.15,4.49,4.49,0,0,0-5.48-1.2,4.22,4.22,0,0,0-2.3,5.08,31.85,31.85,0,0,0,2.38,5.58c2.27,4.34,4.67,8.61,6.88,12.67a17.51,17.51,0,0,1-1.31,2.84C-2.7-120.33-14.08-116-27.78-118.43c-5.65-1-11.09-3.15-16.68-4.6a38,38,0,0,0-8.43-1.36c-1.07,0-2.6,1.36-3.15,2.49a3.62,3.62,0,0,0,1.31,4.61,10.08,10.08,0,0,0,2.21,1.35c8.31,3.39,16.63,6.74,25.69,7.52,1.69.15,3.37.51,5.46.84a45.84,45.84,0,0,1-.74,5.27c-4.64,17.66-5.62,35.66-4.14,53.75.49,6,2.57,11.89,4.11,17.78a53.5,53.5,0,0,0,2.61,6.53c-3,4.15-5.82,8.22-8.87,12.08-.92,1.17-2.53,1.8-3.94,2.76-3.57-5.51-4.92-11.16-6.27-16.83C-40.91-35.86-43-45.54-45.7-55a51.43,51.43,0,0,0-6-13.46C-55.77-74.87-62-75-66.76-69.21A23,23,0,0,0-71-61.67a52.66,52.66,0,0,0-2.35,11.92A152.63,152.63,0,0,0-70.49-8.9C-68.75,0-67,8.85-63,17A46.55,46.55,0,0,0-56.09,28c4.72,5.25,10.93,6.6,17.41,3.71a36.2,36.2,0,0,0,10.1-6.56,83,83,0,0,0,10-12c3.37-4.72,6.23-9.81,9.35-14.71C-7.69-4-6.06-6.32-4.77-8.25l21,4.33C17.09-2.12,18-.3,18.87,1.52,22.26,8.6,25.38,15.83,29.1,22.73a64.08,64.08,0,0,0,8.79,12.89c6.86,7.49,16.73,8.34,25.2,2.71a26.55,26.55,0,0,0,5.84-5.14c14-17.31,24.9-36.41,31.69-57.74A30.78,30.78,0,0,0,102.06-34c-.06-11.68-10.22-18.54-21-14.33A32.75,32.75,0,0,0,69.61-40.6C67.18-38.11,65-35.42,62.44-33,61.84-32.44,60.48-32.66,59.52-32.46Z"/><path class="cls-3" d="M59.47-32.51c1-.15,2.37.07,3-.5,2.51-2.41,4.74-5.1,7.17-7.59a32.75,32.75,0,0,1,11.46-7.71c10.77-4.21,20.93,2.65,21,14.33a30.78,30.78,0,0,1-1.44,9.43C93.83-3.22,83,15.88,68.93,33.19a26.55,26.55,0,0,1-5.84,5.14c-8.47,5.63-18.34,4.78-25.2-2.71A64.08,64.08,0,0,1,29.1,22.73C25.38,15.83,22.26,8.6,18.87,1.52,18-.3,17.09-2.12,16.21-3.92l-21-4.33C-6.06-6.32-7.69-4-9.22-1.58c-3.12,4.9-6,10-9.35,14.71a83,83,0,0,1-10,12,36.2,36.2,0,0,1-10.1,6.56c-6.48,2.89-12.69,1.54-17.41-3.71A46.55,46.55,0,0,1-63,17C-67,8.85-68.75,0-70.49-8.9a152.63,152.63,0,0,1-2.84-40.85A52.66,52.66,0,0,1-71-61.67a23,23,0,0,1,4.22-7.54c4.78-5.81,11-5.66,15.08.71A51.43,51.43,0,0,1-45.7-55c2.71,9.5,4.79,19.18,7.09,28.8,1.35,5.67,2.7,11.32,6.27,16.83,1.41-1,3-1.59,3.94-2.76,3-3.86,5.85-7.93,8.87-12.08a53.5,53.5,0,0,1-2.61-6.53c-1.54-5.89-3.62-11.78-4.11-17.78-1.48-18.09-.5-36.09,4.14-53.75a45.84,45.84,0,0,0,.74-5.27c-2.09-.33-3.77-.69-5.46-.84-9.06-.78-17.38-4.13-25.69-7.52a10.08,10.08,0,0,1-2.21-1.35A3.62,3.62,0,0,1-56-121.9c.55-1.13,2.08-2.51,3.15-2.49A38,38,0,0,1-44.46-123c5.59,1.45,11,3.62,16.68,4.6,13.7,2.4,25.08-1.9,33.58-13.24a17.51,17.51,0,0,0,1.31-2.84C4.9-138.57,2.5-142.84.23-147.18a31.85,31.85,0,0,1-2.38-5.58,4.22,4.22,0,0,1,2.3-5.08,4.49,4.49,0,0,1,5.48,1.2,51.23,51.23,0,0,1,3.23,5.15c2.08,3.49,3.87,7.19,6.23,10.47,7.11,9.86,16.9,14.67,29,14.93a25,25,0,0,0,18.79-7.54c2.47-2.45,4.74-5.1,7.11-7.65a30,30,0,0,1,2.47-2.45c2.55-2.17,5-2.24,6.92-.25,1.68,1.79,1.88,4.09.12,6.33-2.14,2.74-4.52,5.3-6.85,7.88-1.41,1.55-2.58,3.19-2.38,5.4.53,5.79.48,11.71,1.78,17.32,4.09,17.73,23.22,25.76,38.74,16.59a43.89,43.89,0,0,1,4.44-2.67,4.12,4.12,0,0,1,4.76,1c1.34,1.34,1.74,4.18.45,5.64a23.3,23.3,0,0,1-5.15,4.57c-8.63,5.33-17.92,6.1-27.55,3.47-3-.84-6-2-9-3.08-2.36,1.82-2.26,4.58-2.78,7.07-3.11,14.93-8.07,29.14-16.11,42.17-.92,2-1.87,4-2.81,5.93-.53.14-1.25.11-1.54.45A66.4,66.4,0,0,1,36.18-10.17c-.42.23-.6.93-.89,1.41,2.18,4.23,2.18,4.23,5.92,6.37.52-.21,1.22-.26,1.53-.64,5.78-7.14,10.76-14.77,14-23.44C60.14-28.9,60.32-29.31,59.47-32.51ZM21.73-12.75C32.51-15.6,41.09-20.5,47.87-28.46A85.24,85.24,0,0,0,61.53-51.63c4.23-10.26,6.64-21,8.87-31.87a8.57,8.57,0,0,0-1.78-7.31c-4.08-5.47-6.11-11.8-7-18.54-.42-3.12-1-6.22-1.59-9.43a14.5,14.5,0,0,0-2.88.28c-13.91,4.58-26.75,2-38.84-5.8-1.16-.75-2.44-1.32-3.43-1.85-4.45,4-8.21,8.11-12.72,11.13s-9.72,4.85-14.7,7.24c-2.27,5.93-4.23,12-4.53,19,9.49,5,17,12.53,24.17,21,2.31-10.41,3-11,15.17-12.9.7-2.53,1.52-5.28,2.21-8.07.74-3,2.22-5.88,1.65-9.65a79.21,79.21,0,0,0-18.26.65,16.26,16.26,0,0,1-5.1.21A3.51,3.51,0,0,1,.4-99.69a3.36,3.36,0,0,1,1.15-2.91,16.07,16.07,0,0,1,5.54-2.25c7.72-1.26,15.52-2,23.29-.64A42.08,42.08,0,0,1,55.61-91.38a21.47,21.47,0,0,1,1.58,2.08c1.46,2.16,1.32,4.11-.35,5.38s-3.32.63-4.65-.6c-1.7-1.57-3.15-3.41-4.85-5-4.29-4-7.09-5.32-12.94-6.25a85.57,85.57,0,0,0-4.9,18.41c2.22,2.46,4.11,4.28,5.68,6.34,4.47,5.91,2.16,12.13-5,14-3.91,1-7.41-.38-10.93-1.65-1.35-.49-2.55-1.35-3.88-1.92-1.16-.51-2-2.16-3.68-1.18C22.25-36,20.71-41.95,21.73-12.75Zm2.83,7.68C27.2,3.41,35.67,21.09,39.91,27l.51.7c6.74,8.88,15,9.36,22.67,1.31q.6-.63,1.14-1.32A174.5,174.5,0,0,0,93.38-25.55a29.52,29.52,0,0,0,1.51-6.78c.63-8-5.22-12.2-12.22-8.64a39.88,39.88,0,0,0-9,6.63c-5.32,5-9.28,11.1-13.06,17.33C57.13-11.31,53.82-5.47,49.89-.1,44.76,6.9,38.16,7,32.37.68,30.82-1,29.71-3.11,28.26-4.9,27.19-6.23,25.85-6.29,24.56-5.07ZM-14.93-17.85c-2.84,3.75-5,6.87-7.43,9.69a33.3,33.3,0,0,1-6.35,5.81C-32.09-.1-35.48-.9-37.79-4.12A18.46,18.46,0,0,1-40.3-8.68c-1.85-5.18-3.78-10.36-5.19-15.67-2.53-9.54-4.57-19.21-7.09-28.76a55.31,55.31,0,0,0-3.93-9.63c-.55-1.14-1.85-1.9-3.26-3.27-1.54,2.12-3.2,3.53-3.72,5.28A61.89,61.89,0,0,0-66.24-48a133.06,133.06,0,0,0,2.59,36.44,203.48,203.48,0,0,0,6.29,23.53,35.8,35.8,0,0,0,6,10.5c2.87,3.69,6.56,4.12,10.92,2.27,4.95-2.1,8.6-5.83,11.86-10,6.84-8.65,12-18.41,18-27.89C-12-14.68-13.13-15.9-14.93-17.85ZM-3.1-34.79C4.26-34.86,9.07-39.58,9-46.65c-.11-8-5.41-13.58-12.81-13.43-7.16.14-13.41,5.66-13.65,12C-17.76-41.08-10.84-34.71-3.1-34.79Z"/><path class="cls-4" d="M24.56-5.07c1.29-1.22,2.63-1.16,3.7.17C29.71-3.11,30.82-1,32.37.68,38.16,7,44.76,6.9,49.89-.1,53.82-5.47,57.13-11.31,60.59-17c3.78-6.23,7.74-12.34,13.06-17.33a39.88,39.88,0,0,1,9-6.63c7-3.56,12.85.67,12.22,8.64a29.52,29.52,0,0,1-1.51,6.78A174.5,174.5,0,0,1,64.23,27.64q-.54.69-1.14,1.32c-7.65,8-15.93,7.57-22.67-1.31l-.51-.7C35.67,21.09,27.2,3.41,24.56-5.07Z"/></g><path class="cls-4" d="M79.86,69.11a1.43,1.43,0,0,1-.19-.27c.06,0,.15,0,.17,0a1.38,1.38,0,0,1,.19.28S79.89,69.14,79.86,69.11Z"/><path class="cls-4" d="M78.52,70.63a3.11,3.11,0,0,1-2.43.37,12.65,12.65,0,0,1-1.8-3C76.35,67.29,77.4,67.54,78.52,70.63Z"/><path class="cls-4" d="M77.48,64a11.48,11.48,0,0,1,.86,1.63c-1.32.09-1.43-.91-2-1.45C76.8,63.46,77.24,63.69,77.48,64Z"/><path d="M92.65,39.8A55.78,55.78,0,0,0,95.6,53.61a24.06,24.06,0,0,1,.71,2.65A.86.86,0,0,1,96,57a1,1,0,0,1-.79,0,2.71,2.71,0,0,1-.92-.83c-1.16-1.77-2.31-3.54-3.4-5.35A7.12,7.12,0,0,1,90,47.35a72.9,72.9,0,0,1,.27-10.13,7.17,7.17,0,0,1,.56-2c.09-.21.53-.27.82-.4a2.9,2.9,0,0,1,.46.6,7.51,7.51,0,0,1,.27,1.23C92.46,37.69,92.57,38.74,92.65,39.8Z"/><path class="cls-5" d="M71.58,57.21c1.61,0,3.22,0,4.82,0a3.94,3.94,0,0,1,3.5,1.52A121.7,121.7,0,0,1,90,71.79c1.32,2,2.69,4,4,6A16,16,0,0,1,95.17,80a1.17,1.17,0,0,1-.74,1.7,7.25,7.25,0,0,1-1.64.39c-1.27.12-2.54.23-3.81.23-7.07,0-14.14,0-21.2,0-.36,0-.71,0-1,0a19.4,19.4,0,0,1-3.34-8.66,6.57,6.57,0,0,1,2.25-.29l14.62-.77A11.78,11.78,0,0,0,82,72.38a1.17,1.17,0,0,0,.93-1.59,5.29,5.29,0,0,0-.55-1.15,57.82,57.82,0,0,1-4.75-9.47c-.21-.51-.5-1-.78-1.53-.6-.07-1.15-.16-1.7-.19-1.19-.07-2.38-.12-3.57-.16Z"/><path class="cls-4" d="M72,67.72A7.62,7.62,0,0,1,73.92,71a3.45,3.45,0,0,1-2.48.35,2.14,2.14,0,0,1-1.2-.74,7.46,7.46,0,0,1-1.49-2.77A6.84,6.84,0,0,1,72,67.72Z"/><path class="cls-4" d="M75.52,60.11c.73.21.81.85.79,1.65a1.64,1.64,0,0,1-2.24-1.31C74.44,59.75,75,60,75.52,60.11Z"/><path class="cls-4" d="M75.13,65.84c-1.95.77-2.89,0-3.71-2.1C73.19,62.77,74.86,63.61,75.13,65.84Z"/><path class="cls-4" d="M71.66,60c.35.13.38.28.75,1.47-.84.62-1.74.19-2.76.24l-.88-1.68A3,3,0,0,1,71.66,60Z"/><path class="cls-4" d="M66.42,67.88a6.7,6.7,0,0,1,2,3.39c-.54.53-1.28.37-1.93.44s-1.4.09-2.2.14a10.82,10.82,0,0,1-2.06-3.52C63.87,67.65,64.25,67.62,66.42,67.88Z"/><path class="cls-4" d="M69.29,63.86c.41.56.8,1.13,1.29,1.81a3.43,3.43,0,0,1-3.09.25,3.22,3.22,0,0,1-1.72-2.35A3.75,3.75,0,0,1,68,63.23,1.48,1.48,0,0,1,69.29,63.86Z"/><path d="M87.24,42.82a42,42,0,0,0,6.33,20.62,7.36,7.36,0,0,1,.67,1.31.86.86,0,0,1-.14.78,2.13,2.13,0,0,1-1,.21c-.12,0-.25-.11-.48-.21s-.53-.51-.84-.79a43.63,43.63,0,0,1-7.06-8.68,5.65,5.65,0,0,1-.93-3.83A64.24,64.24,0,0,0,84,42.72,92.73,92.73,0,0,1,84.47,30c.08-.69.2-1.39.34-2.09a1,1,0,0,1,.88-.79,1.12,1.12,0,0,1,1.19.68,3.19,3.19,0,0,1,.15,1C87.11,33.51,87.11,38.17,87.24,42.82Z"/><path class="cls-4" d="M60.18,68.07a14,14,0,0,1,1.9,3.71,27.29,27.29,0,0,1-4.46.28,9.94,9.94,0,0,1-1.22-3.53,7.12,7.12,0,0,1,1.18-.31C58.41,68.14,59.25,68.12,60.18,68.07Z"/><path class="cls-4" d="M67.32,61.42a5.29,5.29,0,0,1-2.88.23c-.29-.49-.57-.95-.89-1.47a2.12,2.12,0,0,1,1.59-.54C66.54,59.61,66.66,59.71,67.32,61.42Z"/><path class="cls-4" d="M65,66a14.5,14.5,0,0,1-1.65.32c-.69,0-1.39,0-2,0a4.8,4.8,0,0,1-1.45-2.67,5.17,5.17,0,0,1,3.26-.29,1.07,1.07,0,0,1,.68.42A6.57,6.57,0,0,1,65,66Z"/><path class="cls-4" d="M58.29,60.05a7,7,0,0,1,3.18-.24c.25.56.49,1.11.75,1.67a6.36,6.36,0,0,1-3.13.33A1.93,1.93,0,0,1,58.29,60.05Z"/><path class="cls-4" d="M59.08,66.28a7.06,7.06,0,0,1-3.3.46,5.59,5.59,0,0,1-1-2.83,1.62,1.62,0,0,1,.25-.18C57.71,63.05,58.26,63.6,59.08,66.28Z"/><path class="cls-4" d="M55.58,71.69c-1.36.56-1.46.57-3.95.35A6.57,6.57,0,0,1,51.19,69c1-.7,2-.51,3.09-.48A6.2,6.2,0,0,1,55.58,71.69Z"/><path class="cls-4" d="M56.62,60.75a6.49,6.49,0,0,1,.19.84c-.18.13-.33.32-.5.34-.62.06-1.24.06-2.26.09,0-.48-.09-.83-.11-1.18,0-.19,0-.4,0-.74l2.26-.19C56.4,60.27,56.54,60.5,56.62,60.75Z"/><path class="cls-4" d="M52.82,63.79a5.21,5.21,0,0,1,.94,2.73,3.58,3.58,0,0,1-2.62.46,4.37,4.37,0,0,1-.4-3A2.72,2.72,0,0,1,52.82,63.79Z"/><path class="cls-4" d="M49.18,68.74c.74,1,.57,2,.59,3.22a7.83,7.83,0,0,1-3.7.25,4.49,4.49,0,0,1,.2-3.1A4.82,4.82,0,0,1,49.18,68.74Z"/><path class="cls-4" d="M64.28,81.4a3.25,3.25,0,0,1,0,.73,9,9,0,0,1-1.41.24l-21.58.19a9.23,9.23,0,0,1-1-.13,3.64,3.64,0,0,1-.06-.69,2.88,2.88,0,0,1,.19-.82c.8-2.25,1.63-4.5,2.48-6.85,6.1-.47,12.16-.4,18.2-.58a8.61,8.61,0,0,1,.66,1.18C62.6,76.91,63.44,79.15,64.28,81.4Z"/><path class="cls-4" d="M48.6,63.78c.73,1,.58,2,.61,3.3l-2.33.13c-.61-1.13-.18-2.1.08-3.18Z"/><path class="cls-4" d="M52,60.28a4.38,4.38,0,0,1,.29.74c.14.69,0,1-.61,1.08s-1.09-.2-1.1-.88C50.56,60.37,50.77,60.23,52,60.28Z"/><path class="cls-5" d="M25.34,48.52c0,.49.05,1,.11,1.48.15,1.12.46,1.41,1.64,1.56.21,0,.42,0,.63,0,4.45.15,8.9.43,13.35.42,10.75,0,21.49-.15,32.23-.24.36,0,.71,0,1.06,0,1.12-.09,1.4-.41,1.27-1.47-.08-.7-.24-1.4-.26-2.1C75.21,44,75,39.86,75,35.69s.08-8.48.16-12.72a30,30,0,0,1,.42-6.59,3.07,3.07,0,0,0-1-.44,15.06,15.06,0,0,0-1.9,0c-6.43.25-12.86.53-19.29.73-9,.3-18,.34-26.93,0A5,5,0,0,0,23.7,17a19.85,19.85,0,0,0,0,4.22Q24.51,34.86,25.34,48.52ZM77.82,54.1c-.65.69-1.4.51-2.08.5-7.43-.14-14.85-.21-22.27-.46-9.47-.33-18.94-.7-28.42-.38-.62,0-1.26,0-2,0A7.13,7.13,0,0,1,22.58,51c-.42-5.65-.81-11.29-1.26-16.93-.17-2.26-.42-4.51-.71-6.75a35.32,35.32,0,0,1-.29-7.41A34.6,34.6,0,0,1,21,16.19a1.69,1.69,0,0,1,1.63-1.42l1.26-.14c4.15-.43,8.3-.83,12.45-1.27A85.68,85.68,0,0,1,48,12.9c6.71.18,13.43.35,20.14.59,2.19.08,4.36.36,6.55.52a3.47,3.47,0,0,1,3.25,2.6,17.21,17.21,0,0,1,1,5,86.94,86.94,0,0,1-.31,12.71,110.57,110.57,0,0,0-.69,17.16C78,52.36,77.85,53.28,77.82,54.1Z"/><path d="M25.15,18.57c0,.87,0,1.64,0,2.41Q26,34.75,26.94,48.5c0,.48.15,1,.24,1.51.78.07,1.47.15,2.17.19,5.65.28,11.3.43,17,.33,4.67-.08,9.33-.12,14-.16,3.82,0,7.63,0,11.45,0,.69,0,1.42.16,2.09-.55,0-.89,0-1.88-.07-2.86-.11-4.81-.3-9.61-.33-14.41,0-4.1.15-8.2.22-12.3a5.33,5.33,0,0,0-.22-2.48,4.3,4.3,0,0,0-2.32-.18c-7.14.23-14.27.59-21.4.71s-14.57,0-21.85,0A5.72,5.72,0,0,0,25.15,18.57Zm50.4-2.19A30,30,0,0,0,75.13,23c-.08,4.24-.2,8.48-.16,12.72s.24,8.34.4,12.5c0,.7.18,1.4.26,2.1.13,1.06-.15,1.38-1.27,1.47-.35,0-.7,0-1.06,0-10.74.09-21.48.23-32.23.24-4.45,0-8.9-.27-13.35-.42-.21,0-.42,0-.63,0-1.18-.15-1.49-.44-1.64-1.56-.06-.49-.08-1-.11-1.48q-.82-13.65-1.66-27.31a19.85,19.85,0,0,1,0-4.22,5,5,0,0,1,2.75-.27c9,.29,18,.25,26.93,0,6.43-.2,12.86-.48,19.29-.73a15.06,15.06,0,0,1,1.9,0A3.07,3.07,0,0,1,75.55,16.38Z"/><path class="cls-4" d="M43.05,68.91a9.27,9.27,0,0,1,1.2.09c.29,1.69.29,1.69-.63,3.33a5.39,5.39,0,0,1-2.79,0,5.36,5.36,0,0,1,.69-3.21C42.09,69,42.57,68.93,43.05,68.91Z"/><path class="cls-4" d="M48.35,60.11c.47,0,.65.37.61,1.12,0,.21-.06.41-.11.74a4.38,4.38,0,0,1-1.13.09c-.17,0-.3-.41-.39-.64s0-.27.06-.4C47.56,60.39,47.89,60.09,48.35,60.11Z"/><path class="cls-4" d="M43,64l2.26-.08c-.19,1.29-.33,2.24-.46,3.18a6,6,0,0,1-2.57.29A3.71,3.71,0,0,1,43,64Z"/><path class="cls-4" d="M45.63,60.27c.18,2,0,2.14-2,1.81C43.59,60.25,43.81,60.05,45.63,60.27Z"/><path class="cls-4" d="M39.2,69.13c.28,1.15.28,1.15-.43,3.21a7.22,7.22,0,0,1-3.69.15,4.54,4.54,0,0,1,1.06-3.15A6.89,6.89,0,0,1,39.2,69.13Z"/><path d="M56.45,35.9a1.16,1.16,0,0,1,.44,1.46,1.46,1.46,0,0,1-1.8.63,1.18,1.18,0,0,1-.4-1.47A1.31,1.31,0,0,1,56.45,35.9Z"/><path class="cls-4" d="M40.47,64.06c.49,1.26-.1,2.23-.48,3.33a5.56,5.56,0,0,1-3-.07,7.6,7.6,0,0,1,1.45-3.13Z"/><path class="cls-4" d="M42,60.11c-.29,2.38-.51,2.55-2.54,2.07-.09-.76.37-1.3.8-2Z"/><path class="cls-4" d="M31.75,69.31l2.19-.14a5.13,5.13,0,0,1-1,3.34,3.56,3.56,0,0,1-2.45.06C30.47,71.29,31.23,70.42,31.75,69.31Z"/><path class="cls-4" d="M34,64.7c.53-.57,1.25-.43,2.19-.2-.29.77-.47,1.37-.73,1.92a2.56,2.56,0,0,1-.74,1,1.72,1.72,0,0,1-1.72,0A3,3,0,0,1,34,64.7Z"/><path class="cls-4" d="M37.93,60.32a1.89,1.89,0,0,1-.68,2,1.87,1.87,0,0,1-2,.15C35.62,60.26,35.8,60.12,37.93,60.32Z"/><path class="cls-4" d="M25,72.89c.25-.68.35-1,.49-1.32,1-2.22,1.34-2.42,4-2a4.13,4.13,0,0,1-1.13,3,1.12,1.12,0,0,1-.76.31C26.82,72.91,26.06,72.89,25,72.89Z"/><path class="cls-4" d="M34,60.4a5,5,0,0,1-1,2.31l-2.6.18c-.48-1,0-1.59.42-2.22s1-.52,1.52-.5S33.38,60.32,34,60.4Z"/><path class="cls-4" d="M31.75,64.64a3.44,3.44,0,0,1-.92,2.66.85.85,0,0,1-.52.31,3.64,3.64,0,0,1-2.62,0,1.68,1.68,0,0,1,0-.47C28.24,65,28.66,64,31.75,64.64Z"/><path d="M51.47,38.06a1,1,0,0,1,.68,1,1,1,0,0,1-1,.92,3.08,3.08,0,0,1-1,0c-.81-.21-1.61-.49-2.24-.68A6.32,6.32,0,0,1,44.83,35a.81.81,0,0,1,.41-.9.89.89,0,0,1,1.16.08,3.05,3.05,0,0,1,.72,1,4.62,4.62,0,0,0,3.55,2.68A3.67,3.67,0,0,1,51.47,38.06Z"/><path class="cls-4" d="M26.44,64.77c.21,1.29-.59,2.13-1.2,3.16a5.71,5.71,0,0,1-3.12.07,5.71,5.71,0,0,1,1-3.16A6,6,0,0,1,26.44,64.77Z"/><path d="M47,27.43a1.26,1.26,0,0,1,.51,1.62,1.22,1.22,0,1,1-2.14-1.18A1.22,1.22,0,0,1,47,27.43Z"/><path class="cls-4" d="M28.71,60.36c-.19.64-.27,1-.42,1.43A1.75,1.75,0,0,1,26.54,63c-.89,0-1.8,0-2.68,0-.3-1.64.47-2.75,1.89-2.86a10.6,10.6,0,0,1,1.26,0Z"/><path class="cls-5" d="M45.74,29.54a1.3,1.3,0,0,0,1.78-.49A1.26,1.26,0,0,0,47,27.43a1.22,1.22,0,0,0-1.63.44A1.31,1.31,0,0,0,45.74,29.54Zm8.95,7a1.18,1.18,0,0,0,.4,1.47,1.46,1.46,0,0,0,1.8-.63,1.16,1.16,0,0,0-.44-1.46A1.31,1.31,0,0,0,54.69,36.52ZM51.18,40a1,1,0,0,0,1-.92,1,1,0,0,0-.68-1,3.67,3.67,0,0,0-.8-.23,4.62,4.62,0,0,1-3.55-2.68,3.05,3.05,0,0,0-.72-1,.89.89,0,0,0-1.16-.08.81.81,0,0,0-.41.9,6.32,6.32,0,0,0,3.06,4.3c.63.19,1.43.47,2.24.68A3.08,3.08,0,0,0,51.18,40Zm8.41-5.21a7.36,7.36,0,0,1-3,5,20.77,20.77,0,0,1-5.59,3,33.72,33.72,0,0,1-7.23,1.59,9.43,9.43,0,0,1-1.37,0c-.19-1-.36-2-.53-3A49.85,49.85,0,0,1,41,29.46a13.43,13.43,0,0,1,.57-3.32,5.68,5.68,0,0,1,3.48-3.76A3.7,3.7,0,0,1,50,24.13a7.77,7.77,0,0,1,.29,7.14c-.19.46-.48.87-.65,1.34a2.49,2.49,0,0,0-.12,1,.82.82,0,0,0,1.1.68A9.61,9.61,0,0,0,52,33.45a11.47,11.47,0,0,1,4-1.94C58.67,30.88,60,32.05,59.59,34.74Z"/><path class="cls-4" d="M24.26,70c-.75,2.93-1.91,3.6-4.75,2.61a6.31,6.31,0,0,1,.19-.74C20.75,69.67,21.63,69.31,24.26,70Z"/><path d="M37.93,60.32c-2.13-.2-2.31-.06-2.63,2.19a1.87,1.87,0,0,0,2-.15A1.89,1.89,0,0,0,37.93,60.32ZM25.48,71.57c-.14.31-.24.64-.49,1.32,1.07,0,1.83,0,2.59,0a1.12,1.12,0,0,0,.76-.31,4.13,4.13,0,0,0,1.13-3C26.82,69.15,26.44,69.35,25.48,71.57Zm2.17-4.46a1.68,1.68,0,0,0,0,.47,3.64,3.64,0,0,0,2.62,0,.85.85,0,0,0,.52-.31,3.44,3.44,0,0,0,.92-2.66C28.66,64,28.24,65,27.65,67.11Zm5.24,5.4a5.13,5.13,0,0,0,1-3.34l-2.19.14c-.52,1.11-1.28,2-1.31,3.26A3.56,3.56,0,0,0,32.89,72.51Zm-13.38.13c2.84,1,4,.32,4.75-2.61-2.63-.72-3.51-.36-4.56,1.87A6.31,6.31,0,0,0,19.51,72.64ZM4.89,85.88a1.69,1.69,0,0,0,1.5,1.78,9.25,9.25,0,0,0,2.11.11c5.44-.16,10.88-.44,16.32-.52,9.19-.13,18.38-.12,27.57-.19,11.74-.09,23.48,0,35.21-.59,1.34-.07,2.68-.21,4-.4a5,5,0,0,0,2.81-1.38,6.48,6.48,0,0,0,.74-1.17c-.69,0-1.17,0-1.65,0-2.62.1-5.23.28-7.84.28-8.34,0-16.68,0-25,0q-17.72.06-35.39,1.15C18.48,85.35,11.73,86.11,4.89,85.88ZM25.24,67.93c.61-1,1.41-1.87,1.2-3.16a6,6,0,0,0-3.33.07,5.71,5.71,0,0,0-1,3.16A5.71,5.71,0,0,0,25.24,67.93Zm39.09,3.92c.8,0,1.5-.06,2.2-.14s1.39.09,1.93-.44a6.7,6.7,0,0,0-2-3.39c-2.17-.26-2.55-.23-4.15.45A10.82,10.82,0,0,0,64.33,71.85Zm5.32-10.11c1-.05,1.92.38,2.76-.24C72,60.31,72,60.16,71.66,60a3,3,0,0,0-2.89,0ZM35.08,72.49a7.22,7.22,0,0,0,3.69-.15c.71-2.06.71-2.06.43-3.21a6.89,6.89,0,0,0-3.06.21A4.54,4.54,0,0,0,35.08,72.49ZM45.63,60.27c-1.82-.22-2,0-2,1.81C45.64,62.41,45.81,62.26,45.63,60.27ZM40,67.39c.38-1.1,1-2.07.48-3.33l-2,.13A7.6,7.6,0,0,0,37,67.32,5.56,5.56,0,0,0,40,67.39Zm1.53,1.73a5.36,5.36,0,0,0-.69,3.21,5.39,5.39,0,0,0,2.79,0c.92-1.64.92-1.64.63-3.33a9.27,9.27,0,0,0-1.2-.09C42.57,68.93,42.09,69,41.52,69.12Zm5.81-7.7c.09.23.22.6.39.64A4.38,4.38,0,0,0,48.85,62c0-.33.09-.53.11-.74,0-.75-.14-1.09-.61-1.12s-.79.28-1,.91C47.35,61.15,47.28,61.31,47.33,61.42Zm3.25-.2c0,.68.39,1,1.1.88s.75-.39.61-1.08a4.38,4.38,0,0,0-.29-.74C50.77,60.23,50.56,60.37,50.58,61.22Zm3.36-.38c0,.35.06.7.11,1.18,1,0,1.64,0,2.26-.09.17,0,.32-.21.5-.34a6.49,6.49,0,0,0-.19-.84c-.08-.25-.22-.48-.38-.84L54,60.1C54,60.44,53.93,60.65,53.94,60.84ZM50.74,64a4.37,4.37,0,0,0,.4,3,3.58,3.58,0,0,0,2.62-.46,5.21,5.21,0,0,0-.94-2.73A2.72,2.72,0,0,0,50.74,64Zm-1.53,3.11c0-1.29.12-2.32-.61-3.3L47,64c-.26,1.08-.69,2-.08,3.18Zm-2.94,2a4.49,4.49,0,0,0-.2,3.1,7.83,7.83,0,0,0,3.7-.25c0-1.21.15-2.27-.59-3.22A4.82,4.82,0,0,0,46.27,69.11Zm15.95-7.63c-.26-.56-.5-1.11-.75-1.67a7,7,0,0,0-3.18.24,1.93,1.93,0,0,0,.8,1.76A6.36,6.36,0,0,0,62.22,61.48Zm-7.39,2.43a5.59,5.59,0,0,0,1,2.83,7.06,7.06,0,0,0,3.3-.46c-.82-2.68-1.37-3.23-4-2.55A1.62,1.62,0,0,0,54.83,63.91Zm9.61-2.26a5.29,5.29,0,0,0,2.88-.23c-.66-1.71-.78-1.81-2.18-1.78a2.12,2.12,0,0,0-1.59.54C63.87,60.7,64.15,61.16,64.44,61.65ZM62.08,71.78a14,14,0,0,0-1.9-3.71c-.93.05-1.77.07-2.6.15a7.12,7.12,0,0,0-1.18.31,9.94,9.94,0,0,0,1.22,3.53A27.29,27.29,0,0,0,62.08,71.78Zm1.31-5.45A14.5,14.5,0,0,0,65,66a6.57,6.57,0,0,0-1.21-2.19,1.07,1.07,0,0,0-.68-.42,5.17,5.17,0,0,0-3.26.29,4.8,4.8,0,0,0,1.45,2.67C62,66.35,62.7,66.38,63.39,66.33Zm2.38-2.76a3.22,3.22,0,0,0,1.72,2.35,3.43,3.43,0,0,0,3.09-.25c-.49-.68-.88-1.25-1.29-1.81A1.48,1.48,0,0,0,68,63.23,3.75,3.75,0,0,0,65.77,63.57Zm13.9,5.27a1.43,1.43,0,0,0,.19.27s.12,0,.17,0a1.38,1.38,0,0,0-.19-.28S79.73,68.83,79.67,68.84ZM51.19,69A6.57,6.57,0,0,0,51.63,72c2.49.22,2.59.21,3.95-.35a6.2,6.2,0,0,0-1.3-3.18C53.18,68.48,52.14,68.29,51.19,69ZM22.58,51A7.13,7.13,0,0,0,23,53.71c.75,0,1.39.08,2,0,9.48-.32,19,.05,28.42.38,7.42.25,14.84.32,22.27.46.68,0,1.43.19,2.08-.5,0-.82.13-1.74.08-2.65a110.57,110.57,0,0,1,.69-17.16,86.94,86.94,0,0,0,.31-12.71,17.21,17.21,0,0,0-1-5A3.47,3.47,0,0,0,74.66,14c-2.19-.16-4.36-.44-6.55-.52-6.71-.24-13.43-.41-20.14-.59a85.68,85.68,0,0,0-11.66.46c-4.15.44-8.3.84-12.45,1.27l-1.26.14A1.69,1.69,0,0,0,21,16.19a34.6,34.6,0,0,0-.65,3.75,35.32,35.32,0,0,0,.29,7.41c.29,2.24.54,4.49.71,6.75C21.77,39.74,22.16,45.38,22.58,51Zm51.49,9.42a1.64,1.64,0,0,0,2.24,1.31c0-.8-.06-1.44-.79-1.65C75,60,74.44,59.75,74.07,60.45ZM64.3,82.13a3.25,3.25,0,0,0,0-.73c-.84-2.25-1.68-4.49-2.54-6.73a8.61,8.61,0,0,0-.66-1.18c-6,.18-12.1.11-18.2.58-.85,2.35-1.68,4.6-2.48,6.85a2.88,2.88,0,0,0-.19.82,3.64,3.64,0,0,0,.06.69,9.23,9.23,0,0,0,1,.13l21.58-.19A9,9,0,0,0,64.3,82.13Zm5.94-11.49a2.14,2.14,0,0,0,1.2.74A3.45,3.45,0,0,0,73.92,71,7.62,7.62,0,0,0,72,67.72a6.84,6.84,0,0,0-3.28.15A7.46,7.46,0,0,0,70.24,70.64Zm1.18-6.9c.82,2.14,1.76,2.87,3.71,2.1C74.86,63.61,73.19,62.77,71.42,63.74ZM74.29,68a12.65,12.65,0,0,0,1.8,3,3.11,3.11,0,0,0,2.43-.37C77.4,67.54,76.35,67.29,74.29,68Zm3.31-7.83a57.82,57.82,0,0,0,4.75,9.47,5.29,5.29,0,0,1,.55,1.15A1.17,1.17,0,0,1,82,72.38a11.78,11.78,0,0,1-1.68.15l-14.62.77a6.57,6.57,0,0,0-2.25.29,19.4,19.4,0,0,0,3.34,8.66c.31,0,.66,0,1,0,7.06,0,14.13.06,21.2,0,1.27,0,2.54-.11,3.81-.23a7.25,7.25,0,0,0,1.64-.39,1.17,1.17,0,0,0,.74-1.7A16,16,0,0,0,94,77.79c-1.31-2-2.68-4-4-6A121.7,121.7,0,0,0,79.9,58.69a3.94,3.94,0,0,0-3.5-1.52c-1.6.09-3.21.08-4.82,0l-.69,0q-13.35-.37-26.7-.8c-6.86-.2-13.71-.25-20.57,0A2.88,2.88,0,0,0,21,57.86c-1.91,3-3.83,6-5.92,8.8A124.79,124.79,0,0,0,6,81.92,5,5,0,0,0,5.5,83.1a1,1,0,0,0,.85,1.25,7.23,7.23,0,0,0,1.47.11c1.42,0,2.83-.09,4.24-.18L36,82.79c.69-.05,1.39-.13,2.16-.21.54-1.39,1.1-2.68,1.54-4a13.94,13.94,0,0,0,1.16-4.29,6.94,6.94,0,0,1-1.79.06,15.79,15.79,0,0,0-4.23-.14c-3.18.08-6.36.21-9.53.29-1.91.05-3.82.06-5.73.05A2.57,2.57,0,0,1,17.5,74a2.56,2.56,0,0,1,.08-.77,31.62,31.62,0,0,1,1.31-3.12,32.76,32.76,0,0,0,3.25-8,8.71,8.71,0,0,1,.78-2,2.34,2.34,0,0,1,2.41-1.42c2.54.27,5.06-.49,7.6,0C41,58.58,49,58.52,57.1,58.33c4.82-.12,9.63-.19,14.45,0,1.19,0,2.38.09,3.57.16.55,0,1.1.12,1.7.19C77.1,59.18,77.39,59.66,77.6,60.17ZM98.3,82A5.4,5.4,0,0,1,96.8,86a8.39,8.39,0,0,1-4.75,2.61,35.66,35.66,0,0,1-4,.41c-13.21.62-26.43.53-39.64.62-5.52,0-11,0-16.55.06s-11,.34-16.53.52l-7.62.26a5.45,5.45,0,0,1-3.43-.88,4.55,4.55,0,0,1-2.17-4.52,9.37,9.37,0,0,1,1.08-3.42c1-1.8,2-3.59,3-5.39A70.44,70.44,0,0,1,12.45,66c2.14-3.15,4.27-6.33,6.44-9.47a6.79,6.79,0,0,0,1.17-4.61c-.52-6.48-1-13-1.46-19.45C18.46,30.7,18.21,29,18,27.2a36.63,36.63,0,0,1-.23-7.83,19.3,19.3,0,0,1,.62-3.54A5.45,5.45,0,0,1,24,11.57a44.68,44.68,0,0,0,6.75-.44,187.92,187.92,0,0,1,25-.69c4.59.15,9.18.27,13.77.5a50.21,50.21,0,0,1,6.11.63c3,.51,4.5,2.1,5.15,5.11A50.28,50.28,0,0,1,81.5,30c-.13,2.61-.4,5.21-.64,7.81a93,93,0,0,0-.38,12.71c0,1.06,0,2.13,0,3.18a3.8,3.8,0,0,0,1,2.91c1,1,1.79,2.19,2.74,3.24a78.59,78.59,0,0,1,7,9.09c1.45,2.17,2.93,4.33,4.36,6.51.66,1,1.26,2,1.85,3.1A7.16,7.16,0,0,1,98.3,82ZM76.37,64.19c.54.54.65,1.54,2,1.45A11.48,11.48,0,0,0,77.48,64C77.24,63.69,76.8,63.46,76.37,64.19ZM44.81,67.08c.13-.94.27-1.89.46-3.18L43,64a3.71,3.71,0,0,0-.77,3.39A6,6,0,0,0,44.81,67.08Zm-5.37-4.9c2,.48,2.25.31,2.54-2.07l-1.74.09C39.81,60.88,39.35,61.42,39.44,62.18Zm-4.68,5.23a2.56,2.56,0,0,0,.74-1c.26-.55.44-1.15.73-1.92-.94-.23-1.66-.37-2.19.2a3,3,0,0,0-1,2.7A1.72,1.72,0,0,0,34.76,67.41ZM33,62.71a5,5,0,0,0,1-2.31c-.58-.08-1.12-.2-1.66-.23s-1.16-.05-1.52.5-.9,1.26-.42,2.22ZM26.54,63a1.75,1.75,0,0,0,1.75-1.24c.15-.39.23-.79.42-1.43L27,60.23a10.6,10.6,0,0,0-1.26,0c-1.42.11-2.19,1.22-1.89,2.86C24.74,63.05,25.65,63,26.54,63Z"/><path class="cls-3" d="M93.51,83.52c.48,0,1,0,1.65,0a6.48,6.48,0,0,1-.74,1.17,5,5,0,0,1-2.81,1.38c-1.33.19-2.67.33-4,.4-11.73.57-23.47.5-35.21.59-9.19.07-18.38.06-27.57.19-5.44.08-10.88.36-16.32.52a9.25,9.25,0,0,1-2.11-.11,1.69,1.69,0,0,1-1.5-1.78c6.84.23,13.59-.53,20.36-1q17.69-1.11,35.39-1.15c8.35,0,16.69,0,25,0C88.28,83.8,90.89,83.62,93.51,83.52Z"/><path class="cls-3" d="M73.78,46.91c0,1,0,2,.07,2.86-.67.71-1.4.54-2.09.55-3.82,0-7.63,0-11.45,0-4.67,0-9.33.08-14,.16-5.66.1-11.31-.05-17-.33-.7,0-1.39-.12-2.17-.19-.09-.56-.21-1-.24-1.51Q26.06,34.74,25.19,21c-.05-.77,0-1.54,0-2.41a5.72,5.72,0,0,1,2.73-.31c7.28,0,14.57.11,21.85,0s14.26-.48,21.4-.71a4.3,4.3,0,0,1,2.32.18,5.33,5.33,0,0,1,.22,2.48c-.07,4.1-.24,8.2-.22,12.3C73.48,37.3,73.67,42.1,73.78,46.91ZM37.39,25.28c.59.21,1.26.23,1.77.92-.1.65-.21,1.4-.37,2.45-1.13-.24-2-.46-2.9-.61a5,5,0,0,0-1.45,0,.85.85,0,0,0-.36,1.37,6.53,6.53,0,0,0,1.48.78c.72.3,1.47.51,2.18.8a1.48,1.48,0,0,1,1,1.49c0,.21,0,.43,0,.64a92.23,92.23,0,0,0,1.34,10.73,15.12,15.12,0,0,0,.42,1.86c.31,1,.73,1.23,1.75,1.09,1.26-.17,2.52-.39,3.78-.61a30.51,30.51,0,0,0,10-3.34,7.85,7.85,0,0,1,1.09-.39c.71.72,1.42,1.39,2.08,2.12.53.57,1,1.2,1.49,1.79a1.6,1.6,0,0,0,.63.54,1.29,1.29,0,0,0,1,0,1.05,1.05,0,0,0,.4-.87,7.93,7.93,0,0,0-1-1.84c-.82-1.14-1.9-2.07-2.61-3.26.82-1.27,1.08-1.38,1.92-.66a29.44,29.44,0,0,1,2.1,2.08c.39.41.71.89,1.11,1.28s1.11.57,1.51.2a1.13,1.13,0,0,0,.06-1.55,10,10,0,0,0-1-1.31C63.89,40,63,39.06,62.11,38.2a1.79,1.79,0,0,1-.61-1.87,13.9,13.9,0,0,0,.29-3.15,4,4,0,0,0-3.66-4,7.61,7.61,0,0,0-3.34.38c-.51.15-1,.54-1.66.15,0-.67,0-1.37,0-2.08a8.89,8.89,0,0,0-1.52-5A5.8,5.8,0,0,0,45,20.11,7,7,0,0,0,41.7,22c-.5.49-1,1-1.46,1.48-1.07.18-2-.36-2.94-.49-.56-.08-1.11-.24-1.66-.3a.9.9,0,0,0-.94.7.73.73,0,0,0,.36.91A19.92,19.92,0,0,0,37.39,25.28Z"/><path class="cls-5" d="M6.35,84.35A1,1,0,0,1,5.5,83.1,5,5,0,0,1,6,81.92a124.79,124.79,0,0,1,9.16-15.26c2.09-2.85,4-5.82,5.92-8.8a2.88,2.88,0,0,1,2.58-1.45c6.86-.28,13.71-.23,20.57,0q13.35.42,26.7.8l.69,0,0,1.08c-4.82-.15-9.63-.08-14.45,0-8.06.19-16.11.25-24.17.37-2.54-.47-5.06.29-7.6,0a2.34,2.34,0,0,0-2.41,1.42,8.71,8.71,0,0,0-.78,2,32.76,32.76,0,0,1-3.25,8,31.62,31.62,0,0,0-1.31,3.12,2.56,2.56,0,0,0-.08.77,2.57,2.57,0,0,0,2.06.52c1.91,0,3.82,0,5.73-.05,3.17-.08,6.35-.21,9.53-.29a15.79,15.79,0,0,1,4.23.14,6.94,6.94,0,0,0,1.79-.06,13.94,13.94,0,0,1-1.16,4.29c-.44,1.33-1,2.62-1.54,4-.77.08-1.47.16-2.16.21L12.06,84.28c-1.41.09-2.82.14-4.24.18A7.23,7.23,0,0,1,6.35,84.35Z"/><path d="M41.6,26.14A13.43,13.43,0,0,0,41,29.46a49.85,49.85,0,0,0,.87,11.82c.17,1,.34,1.93.53,3a9.43,9.43,0,0,0,1.37,0A33.72,33.72,0,0,0,51,42.69a20.77,20.77,0,0,0,5.59-3,7.36,7.36,0,0,0,3-5c.4-2.69-.92-3.86-3.6-3.23a11.47,11.47,0,0,0-4,1.94,9.61,9.61,0,0,1-1.44.86.82.82,0,0,1-1.1-.68,2.49,2.49,0,0,1,.12-1c.17-.47.46-.88.65-1.34A7.77,7.77,0,0,0,50,24.13a3.7,3.7,0,0,0-4.88-1.75A5.68,5.68,0,0,0,41.6,26.14Zm-6,4a6.53,6.53,0,0,1-1.48-.78A.85.85,0,0,1,34.44,28a5,5,0,0,1,1.45,0c.89.15,1.77.37,2.9.61.16-1,.27-1.8.37-2.45-.51-.69-1.18-.71-1.77-.92a19.92,19.92,0,0,1-2.33-1,.73.73,0,0,1-.36-.91.9.9,0,0,1,.94-.7c.55.06,1.1.22,1.66.3,1,.13,1.87.67,2.94.49.48-.48,1-1,1.46-1.48A7,7,0,0,1,45,20.11a5.8,5.8,0,0,1,6.64,2.52,8.89,8.89,0,0,1,1.52,5c0,.71,0,1.41,0,2.08.65.39,1.15,0,1.66-.15a7.61,7.61,0,0,1,3.34-.38,4,4,0,0,1,3.66,4,13.9,13.9,0,0,1-.29,3.15,1.79,1.79,0,0,0,.61,1.87C63,39.06,63.89,40,64.76,41a10,10,0,0,1,1,1.31,1.13,1.13,0,0,1-.06,1.55c-.4.37-1,.32-1.51-.2s-.72-.87-1.11-1.28A29.44,29.44,0,0,0,61,40.25c-.84-.72-1.1-.61-1.92.66.71,1.19,1.79,2.12,2.61,3.26a7.93,7.93,0,0,1,1,1.84,1.05,1.05,0,0,1-.4.87,1.29,1.29,0,0,1-1,0,1.6,1.6,0,0,1-.63-.54c-.5-.59-1-1.22-1.49-1.79-.66-.73-1.37-1.4-2.08-2.12a7.85,7.85,0,0,0-1.09.39,30.51,30.51,0,0,1-10,3.34c-1.26.22-2.52.44-3.78.61-1,.14-1.44-.13-1.75-1.09a15.12,15.12,0,0,1-.42-1.86A92.23,92.23,0,0,1,38.75,33.1c0-.21,0-.43,0-.64a1.48,1.48,0,0,0-1-1.49C37,30.68,36.28,30.47,35.56,30.17Z"/><path d="M15.1,51.78a4,4,0,0,1-1.68-2.11c-2.22-8.89-3.69-17.83-2.22-27a17.79,17.79,0,0,1,.41-2.08A4.92,4.92,0,0,1,13.29,18a1.3,1.3,0,0,1,1.55-.07,2.85,2.85,0,0,1,.47.94,6.3,6.3,0,0,1,0,1.89,66.55,66.55,0,0,0-.34,17.94c.36,3.58.81,7.15,1.21,10.73a14.86,14.86,0,0,1,.1,1.89A.76.76,0,0,1,15.1,51.78Z"/><path d="M6.62,27.09A144.93,144.93,0,0,0,9,44.69c.3,1.52.48,3.07.69,4.6a4.76,4.76,0,0,1,0,1.25c0,.17-.22.44-.37.46a1,1,0,0,1-.75-.15,2.72,2.72,0,0,1-.6-1.09c-.38-1.28-.66-2.6-1-3.88C6,42.77,5.06,39.65,4,36.57a10.67,10.67,0,0,1-.53-5.19c.34-1.94.6-3.9.91-5.85a3.1,3.1,0,0,1,.39-1.18c.17-.24.57-.31.93-.49.22.29.49.48.53.72A23.67,23.67,0,0,1,6.62,27.09Z"/></svg>