<svg id="Слой_1" data-name="Слой 1" xmlns="http://www.w3.org/2000/svg" xmlns:xlink="http://www.w3.org/1999/xlink" viewBox="0 0 100 100"><defs><style>.cls-1{fill:none;}.cls-2{fill:#070707;}.cls-3{fill:#48b9ba;}.cls-4{fill:#fff;}.cls-5{fill:#fafafa;}.cls-6{clip-path:url(#clip-path);}</style><clipPath id="clip-path"><rect class="cls-1" x="195.32" y="-872.65" width="570" height="747.94"/></clipPath></defs><path class="cls-2" d="M50.47,93.62A47.13,47.13,0,0,1,19.9,82.69c-8.76-7.23-14.17-16.5-15.62-27.8A40.52,40.52,0,0,1,14.06,22.3,44.66,44.66,0,0,1,40.68,7.23a43.34,43.34,0,0,1,9.37-.84C60.93,6.73,70.8,10,79.38,16.81A43.14,43.14,0,0,1,94.92,41a41,41,0,0,1-2,25.6c-.44,1.09-1.23,2.1-.7,3.42a.82.82,0,0,1-.59,1c-1.09.26-1.5,1.15-2,1.95a43.9,43.9,0,0,1-20.26,17A45.51,45.51,0,0,1,50.47,93.62Zm6.34-26.15c-.26.74.18,1.21.69,1.63,2.12,1.75,4,3.75,5.94,5.68s1.67,1.94,4,.62c5.21-2.9,10.39-5.86,15.59-8.8,1-.59,1-.6.78-1.69-1.09-4.63-2.3-9.23-3-13.93a2,2,0,0,0-.93-1.58q-4.76-2.9-9.49-5.81a1.43,1.43,0,0,0-1.76.09,120.24,120.24,0,0,0-9.89,7.37,3.34,3.34,0,0,0-1.33,2.65C57.28,58.29,57,62.88,56.81,67.47ZM68,30.3H68c0-1.13,0-2.26,0-3.39,0-1.3-.06-1.36-1.25-1.68-1.48-.41-3-.81-4.44-1.17Q57,22.8,51.65,21.58a2.27,2.27,0,0,0-2.07.16,60.61,60.61,0,0,0-7.94,6.71,2.33,2.33,0,0,0-.71,1.72c0,1.86,0,3.72-.1,5.57-.08,2.09-.19,4.19-.34,6.27a1.46,1.46,0,0,0,.89,1.54,141.37,141.37,0,0,0,13.19,6,1.91,1.91,0,0,0,2.2-.36c.3-.26.63-.5.94-.76a76.6,76.6,0,0,1,7.92-6c.34-.22.66-.46,1-.68a1.88,1.88,0,0,0,.86-1.63C67.65,36.9,67.85,33.6,68,30.3ZM38.17,36.56c0-1.53,0-3.07,0-4.6,0-1.06-.12-1.21-1.19-1.43-2.75-.58-5.52-1.12-8.27-1.73-3.18-.71-3.17-.73-6,1L21,30.8c-3.3,2-6.61,4-9.89,6.07-1.36.85-1.47,1.21-1,2.56,1.61,4.47,3.25,8.93,5.22,13.26a2.14,2.14,0,0,0,1.77,1.42c2.81.35,5.51,1.18,8.26,1.79a2,2,0,0,0,2.14-.55c3.3-3.09,6.14-6.61,9.26-9.86a3.54,3.54,0,0,0,.86-2A60.38,60.38,0,0,0,38.17,36.56ZM49,71.26V71.2c-3.79.12-7.58.25-11.37.34A1.49,1.49,0,0,0,36,72.64a103.45,103.45,0,0,0-3.58,11.8,17.67,17.67,0,0,0-.24,1.92A1.08,1.08,0,0,0,33,87.48c.44.19.89.37,1.34.54a50.58,50.58,0,0,0,12,2.76,46.25,46.25,0,0,0,12.27-.49c1.22-.2,1.93-.55,1.87-1.91a3.46,3.46,0,0,1,.39-1.13c.85-2.44,1.66-4.89,2.55-7.31a1.4,1.4,0,0,0-.32-1.72C62,77.15,60.9,76,59.8,75s-2.48-2.32-3.7-3.49A2,2,0,0,0,54.34,71C52.58,71.14,50.8,71.17,49,71.26ZM15.43,56.5a1.5,1.5,0,0,0-1.45.72C12.59,59.1,11.22,61,9.83,62.87a1.64,1.64,0,0,0-.18,1.81c.16.37.32.74.49,1.1a42.72,42.72,0,0,0,15.32,17.7c1,.68,2.07,1.25,3.13,1.83a.68.68,0,0,0,1.08-.52,86.93,86.93,0,0,1,3.82-13,2.36,2.36,0,0,0-.28-2.27,106.16,106.16,0,0,0-6.4-8.8c-1.7-2.15-1.72-2.13-4.52-2.82-.86-.21-1.71-.46-2.58-.64C18.29,57,16.86,56.76,15.43,56.5ZM52.11,9.16c-.69,0-1.41,0-2.13,0s-.86.31-.84.92A47.59,47.59,0,0,0,50.23,18a1.1,1.1,0,0,0,1,.87c4.36.75,8.63,1.89,12.92,3,1.24.31,2.49.55,3.74.83,1-.84,2-1.65,2.91-2.53s1.94-1.92,2.88-2.91c.42-.44.33-.83-.18-1.21-.2-.14-.4-.28-.6-.4A45.9,45.9,0,0,0,52.11,9.16ZM93.35,50.88a34,34,0,0,0-.24-5.36c-.09-.62-.45-.86-1-.64a42.64,42.64,0,0,0-6.75,3.22c-2.15,1.35-2.11.75-1.69,3.64.37,2.62,1,5.2,1.64,7.79.48,2.12,1,4.22,1.56,6.32A2.29,2.29,0,0,0,89,67.45a.85.85,0,0,0,.6-.32,7.8,7.8,0,0,0,.67-1.28A36.07,36.07,0,0,0,93.35,50.88Zm-72-31.46c-.93,0-1.39.62-1.91,1.08a40.75,40.75,0,0,0-9.15,12.38c-.13.28-.39.6-.14.88s.73,0,1-.18c2.08-1.24,4.16-2.48,6.23-3.74,1.65-1,3.29-2,4.95-3a1.18,1.18,0,0,0,.66-1.4A49.08,49.08,0,0,0,21.38,19.42Z"/><path class="cls-3" d="M56.81,67.47c.22-4.59.47-9.18.64-13.77a3.34,3.34,0,0,1,1.33-2.65,120.24,120.24,0,0,1,9.89-7.37,1.43,1.43,0,0,1,1.76-.09q4.72,2.92,9.49,5.81A2,2,0,0,1,80.85,51c.71,4.7,1.92,9.3,3,13.93.26,1.09.25,1.1-.78,1.69-5.2,2.94-10.38,5.9-15.59,8.8-2.38,1.32-2,1.37-4-.62s-3.82-3.93-5.94-5.68C57,68.68,56.55,68.21,56.81,67.47Z"/><path class="cls-4" d="M68,30.3c-.19,3.3-.39,6.6-.55,9.9a1.88,1.88,0,0,1-.86,1.63c-.34.22-.66.46-1,.68a76.6,76.6,0,0,0-7.92,6c-.31.26-.64.5-.94.76a1.91,1.91,0,0,1-2.2.36,141.37,141.37,0,0,1-13.19-6A1.46,1.46,0,0,1,40.49,42c.15-2.08.26-4.18.34-6.27.07-1.85.09-3.71.1-5.57a2.33,2.33,0,0,1,.71-1.72,60.61,60.61,0,0,1,7.94-6.71,2.27,2.27,0,0,1,2.07-.16q5.31,1.23,10.6,2.48c1.48.36,3,.76,4.44,1.17,1.19.32,1.23.38,1.25,1.68,0,1.13,0,2.26,0,3.39Z"/><path class="cls-3" d="M38.17,36.56a60.38,60.38,0,0,1-.53,7,3.54,3.54,0,0,1-.86,2c-3.12,3.25-6,6.77-9.26,9.86a2,2,0,0,1-2.14.55c-2.75-.61-5.45-1.44-8.26-1.79a2.14,2.14,0,0,1-1.77-1.42c-2-4.33-3.61-8.79-5.22-13.26-.48-1.35-.37-1.71,1-2.56,3.28-2,6.59-4,9.89-6.07l1.65-1c2.87-1.73,2.86-1.71,6-1,2.75.61,5.52,1.15,8.27,1.73,1.07.22,1.19.37,1.19,1.43C38.17,33.49,38.17,35,38.17,36.56Z"/><path class="cls-3" d="M49,71.26c1.77-.09,3.55-.12,5.31-.29a2,2,0,0,1,1.76.51c1.22,1.17,2.48,2.31,3.7,3.49s2.15,2.18,3.26,3.25a1.4,1.4,0,0,1,.32,1.72c-.89,2.42-1.7,4.87-2.55,7.31a3.46,3.46,0,0,0-.39,1.13c.06,1.36-.65,1.71-1.87,1.91a46.25,46.25,0,0,1-12.27.49,50.58,50.58,0,0,1-12-2.76c-.45-.17-.9-.35-1.34-.54a1.08,1.08,0,0,1-.75-1.12,17.67,17.67,0,0,1,.24-1.92A103.45,103.45,0,0,1,36,72.64a1.49,1.49,0,0,1,1.62-1.1c3.79-.09,7.58-.22,11.37-.34Z"/><path class="cls-4" d="M15.43,56.5c1.43.26,2.86.5,4.28.79.87.18,1.72.43,2.58.64,2.8.69,2.82.67,4.52,2.82a106.16,106.16,0,0,1,6.4,8.8,2.36,2.36,0,0,1,.28,2.27,86.93,86.93,0,0,0-3.82,13,.68.68,0,0,1-1.08.52c-1.06-.58-2.13-1.15-3.13-1.83a42.72,42.72,0,0,1-15.32-17.7c-.17-.36-.33-.73-.49-1.1a1.64,1.64,0,0,1,.18-1.81C11.22,61,12.59,59.1,14,57.22A1.5,1.5,0,0,1,15.43,56.5Z"/><path class="cls-3" d="M52.11,9.16a45.9,45.9,0,0,1,20.82,6.42c.2.12.4.26.6.4.51.38.6.77.18,1.21-.94,1-1.89,2-2.88,2.91s-1.94,1.69-2.91,2.53c-1.25-.28-2.5-.52-3.74-.83-4.29-1.08-8.56-2.22-12.92-3a1.1,1.1,0,0,1-1-.87,47.59,47.59,0,0,1-1.09-7.88c0-.61.24-.89.84-.92S51.42,9.16,52.11,9.16Z"/><path class="cls-5" d="M93.35,50.88a36.07,36.07,0,0,1-3.06,15,7.8,7.8,0,0,1-.67,1.28.85.85,0,0,1-.6.32,2.29,2.29,0,0,1-2.14-1.6c-.56-2.1-1.08-4.2-1.56-6.32-.59-2.59-1.27-5.17-1.64-7.79-.42-2.89-.46-2.29,1.69-3.64a42.64,42.64,0,0,1,6.75-3.22c.54-.22.9,0,1,.64A34,34,0,0,1,93.35,50.88Z"/><path class="cls-5" d="M21.38,19.42a49.08,49.08,0,0,1,1.68,6,1.18,1.18,0,0,1-.66,1.4c-1.66,1-3.3,2-4.95,3-2.07,1.26-4.15,2.5-6.23,3.74-.31.18-.66.58-1,.18s0-.6.14-.88A40.75,40.75,0,0,1,19.47,20.5C20,20,20.45,19.41,21.38,19.42Z"/><g class="cls-6"><path class="cls-2" d="M-398.07-179.57c1.22,10.73,5.55,20.15,12,28.58,11.6,15.09,27,24.45,45.15,29.12,12.12,3.12,24.46,4.39,36.95,2.26a16.67,16.67,0,0,1,3.44-.35c1,0,2.38-.69,3,1.62-1.22,1.47-2.68,3.18-4.1,4.92a57.34,57.34,0,0,0-9.47,15.58A33.78,33.78,0,0,0-298.2-57.13a52.79,52.79,0,0,0,17.63,7c10.4,2.34,20.7,1.39,30.94-.92a114.81,114.81,0,0,0,29.1-11.09,27.79,27.79,0,0,1,4.75-1.5c0,3.89-.19,7.1,0,10.27,1,13.41,11.05,21,24,18.23a41.92,41.92,0,0,0,5-1.38,69,69,0,0,0,18.34-9.72c1.11-.82,2.23-2,4-.65.3,2.43.5,5,1,7.61,1.71,9.59,7.46,15.48,16.91,17.56a30,30,0,0,0,12,.33c2.71-.5,24.08-6.93,31.67-12l1.23-1.48a11.23,11.23,0,0,1,1.08-1.37C-93-43-85.84-50.09-79-60.13c1.53,7.9,2.32,14,4,19.8,1.55,5.52,4,10.78,6.25,16.63-.35.17-.68.36-1,.54,5.08,5.74,9.79,11.9,14.38,15.73.1.09.22.16.33.25l0-.08c4,.21,6.18,3.05,9.55,5-.16.61-.29,1.21-.42,1.82a99.09,99.09,0,0,0,9,5.28c.92-1.58,1.83-2.19,2.54-1.48a3.28,3.28,0,0,1,.86,3.15A93.39,93.39,0,0,0-24,10.36a10.15,10.15,0,0,1,1.52-2,2.3,2.3,0,0,1,0,2.58A93.71,93.71,0,0,0-11,13.77c.6-1.37,1.22-2.76,1.83-4.21,25.89.32,40.35-2.43,71.91-21.08,1,1.53,2.14,3.08,3.16,4.68,8.75,13.76,18.44,17.53,34,12.91a84.1,84.1,0,0,0,10.37-4.32c1.79-.8,3.48-1.83,5-2.65,2.45,1.34,1.5,3.29,1.5,4.86,0,7.88.3,15.75,2.54,23.35a70.66,70.66,0,0,0,4.61,12.18c5.39,10.56,14.15,15.75,26,15.59,2.46,0,4.93,0,7.52,0h2.1a91.4,91.4,0,0,0,18.38-7.76c9.23-5.18,15.53-10.87,21.08-15.94,4.53-4.14,8.07-7.87,10.54-10.62a89,89,0,0,0,15.81,47.8,85.66,85.66,0,0,0,22.35,21.8c4.33,1.78,39,15.4,70.93-4,22.59-13.76,30.41-36,33.2-44.33,9.86-29.43,1.22-54.84-1.68-62.43C356-25.78,362.28-30.89,366.41-38c4-6.87,7-14.17,7.62-22.08s.12-16.13.12-24.82c8.29-.5,16.69-2.12,24.74-6.58A56.6,56.6,0,0,0,411.82-70.7c4.78,4.84,10.51,10.65,19,11.79,5.26.7,12.1-.31,12.11-.17a8.24,8.24,0,0,1-1.16.16c4.32-2.19,7.29-3.37,9.91-5.1a54.14,54.14,0,0,0,8.81-7,39.83,39.83,0,0,0,6.15-8.35c1.69-3,2.76-6.31,4.34-10.08,7.29,5.52,13.75,10.85,20.66,15.52.62.42,9.88,3.64,12.52,5.23a47.16,47.16,0,0,0,11.39,1.08,37.86,37.86,0,0,0,10.13,19.32,37.59,37.59,0,0,0,21.08,10.62c20,2.69,34-13.58,35-14.8l.09,1.14C583.54-25.86,597.21,21,629.55-2c5.49-3.9,11.86-14.35,18.05-16.45,7.74-2.62,8,2.36,10.64,11,6.1,19.8,12.46,38.69,20.07,58.14a28.86,28.86,0,0,1,1.37,5,30.84,30.84,0,0,0,1.86,2.91c4.33,5.8,8.32,12,13.34,17.13,12.74,13.08,28.45,19.55,46.74,19.46A85.77,85.77,0,0,0,783.84,83.6c31.57-17.85,50.73-45.21,59-80.41,4.74-20.24,1.43-39.37-10.07-56.81C829.87-58,826.52-62,823.4-66.2c-1-1.32-2.63-2.25-2.42-4.8,2.35-.73,4.86-.07,7.32,0,5.79.18,11.51.12,17.2-1.43C862.32-77,867-92.76,864.44-104.18a55.59,55.59,0,0,0-6-15.38c-.62-1.09-.76-2.44-1.33-4.4,6,.37,11.15.71,16.32,1,12.74.76,25.43.37,38-2.34,12-2.6,23.31-6.79,33.43-13.89,8.77-6.15,15.57-14,19.12-24.23,4.94-14.28,3.16-27.53-6.84-39.24a66.93,66.93,0,0,0-14.37-12.55,99.86,99.86,0,0,0-39.39-15.1c-11.5-1.86-23-1.86-34.59-1.35-1.57.07-3.4.82-5-1.53l4.24-5a40.06,40.06,0,0,0,8.22-14.24c3.59-12-.21-23-10.89-29.42A58.91,58.91,0,0,0,851-287.76c-13.83-3.78-27.5-2.05-41,2.32-2.68.87-5.34,1.77-8.82,2.92,1.3-4.34,3.94-6.65,5.73-9.47,3.57-5.64,7.79-11,10.56-17,7.94-17.22,1.17-33.48-16.35-40.59-1.07-.44-2.15-.85-3.25-1.18a38.81,38.81,0,0,0-18.87-1c-4.48.84-8.94,1.74-14.3,2.79,1-2.66,1.67-4.47,2.41-6.23,2.82-6.7,5.9-13.29,8.46-20.09a73.32,73.32,0,0,0,4.51-33.48c-1.51-15.13-9.54-25.31-23.82-30.23a46.22,46.22,0,0,0-22.24-2,75.51,75.51,0,0,0-22.23,7.06A108.83,108.83,0,0,0,681.76-412a48.2,48.2,0,0,1-4.77,3.78c-1.52-4.84-2.53-9.09-4.16-13.08-5.23-12.8-14.84-19.68-28.55-20.66a45.71,45.71,0,0,0-18.75,2.71,91.3,91.3,0,0,0-28.46,16.37,110.77,110.77,0,0,0-17.64,19.19,37.66,37.66,0,0,1-3.7,3.71c-.71-3.67-1.16-6.54-1.81-9.36-2.68-11.43-11.68-17.65-23.21-16A45.09,45.09,0,0,0,536-420.39a82.17,82.17,0,0,0-19,13.67,28.82,28.82,0,0,1-3.67,2.56c-.7-6.24-1.2-11.73-2-17.18-1.23-8.76-3.9-17.06-9.14-24.26-7.54-10.33-17.57-14.65-30.29-12.25a44.79,44.79,0,0,0-16.67,7,66.07,66.07,0,0,0-15.7,14.93,86.83,86.83,0,0,0-11.68,20.36,41.24,41.24,0,0,1-2.73,4.68c-2.11-4.6-3.81-8.27-5.49-12-4.6-10.08-9.86-19.78-16.79-28.46a59,59,0,0,0-17.61-15.31c-18.4-10.15-41.11-2.5-46.73,20.92a39.5,39.5,0,0,0-.76,4.3,67.41,67.41,0,0,0,1.19,23.43c2.62,11.44,7.27,22.07,12.32,32.58.78,1.62,2.78,3.19,1,5.75-12.41-2.1-22.82,3.36-32.92,10.22-2.07-3.22-1.38-6.59-2.12-9.62-.89-3.65-1.47-7.49-3-10.84-3-6.42-9.12-9.09-15.91-7.29-2.76.73-5.34,2.15-8,3.21-1,.38-2,.63-3.81,1.19.53-3.58.93-6.4,1.36-9.22,1.37-8.91,3-17.8,4.08-26.75,1.53-12.24,1.21-24.43-2.5-36.33-4-13-12.29-22.26-24.84-27.41a69.58,69.58,0,0,0-10.72-3.41,77.85,77.85,0,0,0-32.7-.23A101.51,101.51,0,0,0,179.27-478c-11.55,8.56-19.72,19.58-22.71,34-2,9.63-.93,19.12,1.6,28.51.66,2.44,1.24,4.9,2.2,8.7-3.24-2.32-5.32-3.79-7.38-5.29-7.1-5.14-14.64-9.38-23.27-11.28a28.12,28.12,0,0,0-33.12,18.64c-2.85,8.24-2.58,16.62-.67,25,2,8.88,5.88,17,10.5,24.8,1,1.6,1.64,3.35,3,6.16-22.14-6.81-42.64-6.1-62.62,5.36a53.52,53.52,0,0,1,.05-6.57c.59-4.32,1.49-8.6,2.14-12.91a64.5,64.5,0,0,0-2.73-29.32,38.45,38.45,0,0,0-8.66-15C29-416.34,16.28-419,5-413.49a60.1,60.1,0,0,0-11.39,7.84c-2.66,2.18-4.76,5-7.15,7.59-.94,1-1.61,2.53-3.81,2-.69-4.1-1.41-8.35-2.12-12.59a127.89,127.89,0,0,0-13.76-40.27A65.69,65.69,0,0,0-45.07-465c-13.57-13.12-30-12.86-42.75,1.13a70.05,70.05,0,0,0-9.85,14.28,92.52,92.52,0,0,0-10.58,40.18c-.09,2.2.24,4.5-.83,7.41l-4.5-3.55c-5-3.93-9.76-8.28-15.11-11.66a53.91,53.91,0,0,0-14.18-6.34c-11.54-3.22-21.29,1-27.32,11.44a42.15,42.15,0,0,0-3.68,8.82,44,44,0,0,0-1,19.9A96.38,96.38,0,0,0-167-358.51c.49,1.08,1.87,2.44-.43,3.83-5.24-3.24-10.64-6.57-16-9.92a175.5,175.5,0,0,0-34.22-16.8A81.55,81.55,0,0,0-250-386a44.74,44.74,0,0,0-18.31,4.83c-11.93,6.23-17.72,17.91-15.62,31.25a54.52,54.52,0,0,0,5.09,15.72,96.16,96.16,0,0,0,17.57,24.78c1.11,1.14,3.05,1.89,2.52,4.52a98.25,98.25,0,0,0-9.47,3.16c-8.51,3.75-11.92,10.65-10.28,19.79a37.22,37.22,0,0,0,6.72,15c1.27,1.79,2.49,3.62,3.69,5.38-2.14,2.07-4.24,1.37-6.14,1.39a189.43,189.43,0,0,0-35.3,3.8A202.48,202.48,0,0,0-361.22-239c-8.85,4.47-17,9.95-23.6,17.5C-395.32-209.51-399.89-195.57-398.07-179.57Zm234.65,85.68c-.53,4.33-1.22,8.64-2,12.93a39.85,39.85,0,0,1-1.92,5.47A47.84,47.84,0,0,1-170.65-79a216.65,216.65,0,0,1-28.3-52.83c-.59-1.57-1.22-3.52-.79-5,2-6.84,1.72-13.82,1.8-20.8a4.25,4.25,0,0,1,.44-1.42c6.6.56,13.19,1.88,19.68,1.47,6.2-.4,12.3-2.59,18.95-4.1,3.06,4.34,4.94,9.5,7.08,14.9a44.05,44.05,0,0,0-4.05,5.34,6,6,0,0,0,3.14,8.64,11.88,11.88,0,0,0,13.52-2.83c3.15-3.54,3-8.2-1.11-10.33-3.47-1.81-5.05-4.46-6.4-7.74-1.64-4-3.51-7.9-5.08-11.41l14.38-17.56a17.55,17.55,0,0,1,2.77,2.31c7.86,9.26,17,16.55,29,19.67a7.62,7.62,0,0,1,5.09,4.35c1.93,3.9,4,7.75,5.66,11.77a169.82,169.82,0,0,1,9,30.94,80.2,80.2,0,0,1,.7,8.64,43.23,43.23,0,0,1-4.42-2.61q-5.77-4.6-11.43-9.37a9.24,9.24,0,0,0-9.62-1.93c-15.39,5-30.8,9.86-45.78,16.07C-160.63-101.11-162.87-98.39-163.42-93.89ZM-371.73-220.63a90.81,90.81,0,0,1,17.62-11c16.19-8,33.4-12.94,51.14-16,17.47-3,35.08-3.25,52.73-2.53,1.7.07,3.63.42,5.07-.22a7,7,0,0,0,3.26-3.65c.68-1.76-.46-3.48-2-4.42a48.94,48.94,0,0,0-4.77-2c-7.85-3.63-14.2-9-18.18-16.81-5.1-10-2.4-15.54,8.57-17.25,4.26-.66,8.64-.57,13-.81,2.59-.14,5.21-.09,7.78-.41,2.81-.35,4.5-2.12,4.66-4.36a4.85,4.85,0,0,0-3-4.88c-1.54-.79-3.29-1.17-4.81-2-3.29-1.79-6.83-3.34-9.67-5.71a74.14,74.14,0,0,1-22.6-32.52c-.1-.27-.17-.56-.25-.83-4.51-15.08,1.9-25.94,17.18-29.24,9.55-2.07,19-1.3,28.33,1.09a125.42,125.42,0,0,1,32.6,14c7.73,4.56,15.29,9.42,23,14.1,3.46,2.11,6.8,4.63,10.53,6,5.72,2.16,9.53,6.11,13,10.87,9.43,12.8,21.48,22.75,34.65,31.38a23.76,23.76,0,0,0,7.09,3,4.58,4.58,0,0,0,5.34-3.36c.52-1.84-.37-3.84-2.39-5.14-3.89-2.51-7.91-4.82-11.68-7.48-19.72-13.9-33.6-32.62-43.7-54.37-4.33-9.32-7-19.08-6.31-29.58a26.06,26.06,0,0,1,4.67-13.87c3.56-4.9,8.23-7,14.34-5.78a39.19,39.19,0,0,1,12.75,5.3,86,86,0,0,1,17.91,15.09c3.34,3.63,6.51,7.42,9.82,11.08a20.51,20.51,0,0,0,3.8,3.54,4.49,4.49,0,0,0,6.93-3.69,24.53,24.53,0,0,0-1-6c-5.85-22.6-.62-43.22,11.11-62.62a30.23,30.23,0,0,1,9.62-9.93c6.54-4.18,13.1-4.13,19.53.15,5.17,3.44,8.92,8.26,12.16,13.49a106.14,106.14,0,0,1,13.88,35.58c1.68,8.56,2.56,17.27,3.79,25.91.45,3.17.81,6.36,1.39,9.5a4.27,4.27,0,0,0,3.42,3.53,4.61,4.61,0,0,0,5.27-2.09c1.08-1.71,1.94-3.57,2.87-5.37A61.38,61.38,0,0,1-.8-397.58a42.7,42.7,0,0,1,8.3-6.25c9.18-5.17,18.16-3.2,24.6,5.19,4.37,5.69,6.44,12.35,7.24,19.39a68.37,68.37,0,0,1-.71,20.88C37.41-352.08,36-345.82,35-339.5a101.25,101.25,0,0,0-1.16,13,4.93,4.93,0,0,0,3.65,5.27c2.16.54,4.09-.35,5.37-3.2,3.22-7.16,9.26-11.16,15.92-14.06,16.83-7.32,33.81-7,50.38.83,7,3.34,13.61,7.67,20.39,11.55,2.26,1.29,4.47,2.69,6.81,3.82a4.48,4.48,0,0,0,6-1.78c1.16-1.76,1-3.6-.66-5.58-1.51-1.75-3.25-3.31-4.86-5-5.05-5.2-10.37-10.17-15.08-15.68A74.8,74.8,0,0,1,104.51-386a31.23,31.23,0,0,1,.93-14.67c2.48-8.35,8.63-13.07,17.2-13.42a26.34,26.34,0,0,1,11.8,2.36,66,66,0,0,1,19.41,13c3.12,3,6.07,6.24,9,9.44,3.35,3.62,6.55,7.38,9.94,11,3.76,4,6.37,4.71,8.86,2.75,2.26-1.78,2.34-4.27.17-8.71-.89-1.83-2-3.54-2.83-5.41-3.55-8.28-7.33-16.47-10.42-24.92a53.13,53.13,0,0,1-3.14-23.19,40,40,0,0,1,9.66-22.94,57.08,57.08,0,0,1,9.39-9c18.76-13.64,39.58-20.07,62.82-17.42a42.11,42.11,0,0,1,5.11.93c18.55,4.48,28.12,15.57,29.93,34.76,1.23,13.17-.18,26.19-2.43,39.14-1.3,7.45-2.9,14.85-4.32,22.28-1.32,6.87-2.8,13.62-6.22,19.88a25.37,25.37,0,0,0-3,14.35c.26,3.14,2,5.3,4.51,5.66a5.55,5.55,0,0,0,6-4.05,103.58,103.58,0,0,0,3.46-12.61c2.06-10.23,9.38-15.72,17.78-20,4.32-2.22,7.34-.61,8.53,4.06a61.83,61.83,0,0,1,1.59,10.33c.36,4.64.33,9.31.52,14a32.15,32.15,0,0,0,.52,5.2c.45,2.05,1.42,3.83,3.73,4.36s4.3-.36,5.57-3.1c4-8.51,11-13.36,19.33-16.47,9.7-3.61,15.82-1.81,22.11,6.4,2.83,3.68,5.24,7.67,7.91,11.48a50.68,50.68,0,0,0,4.24,5.51,5,5,0,0,0,6.32,1,4.83,4.83,0,0,0,2-6.07A103,103,0,0,0,376-359.6c-5.56-10.54-11.31-21-16.74-31.59a125.45,125.45,0,0,1-10.15-26c-2.18-8.52-3.5-17.13-1.14-25.88.3-1.13.47-2.29.85-3.39,4.07-11.78,15.28-17.41,27.13-13.64a36.07,36.07,0,0,1,13.85,8.74,70,70,0,0,1,14,18.79c4.64,9,8.79,18.34,13.17,27.51a72.79,72.79,0,0,0,4.27,8.57c3.26,5,8.2,4.49,10.6-1a76.3,76.3,0,0,0,2.78-8.26,68.3,68.3,0,0,1,11.33-22.47,108.34,108.34,0,0,1,12-12.55,32.51,32.51,0,0,1,13.76-7.15c9.8-2.62,17.69.32,23.34,8.84,5,7.48,6.9,16,7.49,24.8.45,6.67.25,13.39.34,20.09a59,59,0,0,0,.1,6.1,5.17,5.17,0,0,0,3.56,4.54,4.75,4.75,0,0,0,5.43-1.71c1.3-1.54,2.34-3.32,3.54-4.95a69.64,69.64,0,0,1,26.32-22.21c3.68-1.76,7.45-3.15,11.61-3.18,6.66-.05,10.27,2.78,11.37,9.45a60.08,60.08,0,0,1,.42,8.71c.15,7.28.19,14.56.38,21.83a10.4,10.4,0,0,0,.94,4.16,3.88,3.88,0,0,0,4.16,2.49,8.16,8.16,0,0,0,3.49-2.26,6,6,0,0,0,1-2.38q13-39.09,50.65-55.25c6.66-2.85,13.67-4.6,21.13-3.06,8.38,1.73,14.1,6.51,17,14.5,1.4,3.8,2.19,7.83,3.33,11.74a35.94,35.94,0,0,0,2.21,6.59c2.18,4.22,6.43,5.38,10.21,2.65a47.55,47.55,0,0,0,6.91-6.56,97.38,97.38,0,0,1,34.51-24.4,50.19,50.19,0,0,1,26.3-3.79c11.28,1.52,21.53,8.61,22.87,22.45a70,70,0,0,1,.31,11.3,76.09,76.09,0,0,1-6.74,26.08c-3.42,7.71-7.16,15.27-10.75,22.9-1.12,2.36-2.26,4.72-3.32,7.11s-.91,4.55,1.06,6.4,4.2,1.77,6.42.63c6-3.06,12.06-5.74,18.66-6.86a101.28,101.28,0,0,1,12.9-1.23,22.4,22.4,0,0,1,11.59,3.15c9.66,5.24,13.11,14,9.11,24.28a62.24,62.24,0,0,1-6.25,11.43c-3.19,4.84-6.83,9.4-10.21,14.12s-6.93,9.31-8.82,15c-.52,1.56-2,2.76-2.89,4.25a11.68,11.68,0,0,0-1.55,4,3.74,3.74,0,0,0,2.27,4.27,8.55,8.55,0,0,0,4.12.07c.76-.13,1.4-1,2.09-1.48a80.87,80.87,0,0,1,44-16.49c9.67-.62,19.07.92,27.56,6,6.76,4,9.06,9.3,7.32,17a27.91,27.91,0,0,1-3.29,8,38.85,38.85,0,0,1-5.42,6.79c-2.6,2.73-5.42,5.24-8.19,7.8-1.92,1.77-3.89,3.48-5.86,5.19-2.51,2.17-4.75,4.51-3.31,8.21,1,2.54,3.84,3.44,8.4,2.26a121.61,121.61,0,0,1,28.34-3.43c12.18-.26,24.27.67,36,4.14a86.16,86.16,0,0,1,25,11.86,52.39,52.39,0,0,1,12.57,11.93A26.82,26.82,0,0,1,956.11-171a38.43,38.43,0,0,1-12.51,20.48,63.67,63.67,0,0,1-19.41,11.33,106.2,106.2,0,0,1-33,6.74c-14.21.77-28.28-1.13-42.38-2.33a55.84,55.84,0,0,0-6-.48,5.17,5.17,0,0,0-4.87,3.07,4.75,4.75,0,0,0,1.22,5.59c1.62,1.65,3.5,3,5.12,4.69,6.33,6.41,10.5,13.92,10.82,23.13.34,9.46-4.39,15.54-13.68,17.23a77.18,77.18,0,0,1-12.92.71,52,52,0,0,1-6.88-.8c-11-1.41-21.72-3.49-30.11-11.68-14.51-8.45-29-17-43.55-25.3-8.3-4.73-16.78-9.13-25.26-13.53a22.38,22.38,0,0,0-6.47-2.14,3.72,3.72,0,0,0-4.09,2.55,4.1,4.1,0,0,0,.95,4.8,16,16,0,0,0,3.58,2.39c6.08,3.36,12.23,6.59,18.29,10,15.4,8.63,30.84,17.2,46.12,26.05,4.46,2.58,9.08,5.14,12.37,9.42A9,9,0,0,0,796.17-77c11.81,6.85,20.56,16.84,28,28C834-34.3,837.79-18.11,833.87-.72c-7.94,35.2-27,62-59.56,78.26a76.9,76.9,0,0,1-26.55,7.57c-17.79,1.84-33.1-3.42-45.91-16-7.78-7.61-14.14-16.53-17.62-26.72-2.63-7.7-7.08-14.5-9.26-22.34C672.71,12,669.83,4,667.42-4q-3.49-11.71-6.55-23.55c-2-7.88-3.82-15.84-5.69-23.77-.6-2.55-1.06-5.13-1.73-7.66-1-3.79-3.15-5.55-5.91-5s-4.26,2.88-3.76,6.87c.68,5.31,0,10.48-.74,15.66a65.6,65.6,0,0,1-6.48,20.73A40.15,40.15,0,0,1,623.8-5.63c-7.11,4.94-13.81,4.15-19-2.8a63.54,63.54,0,0,1-7-12.95c-4.41-10.23-6.25-21.18-8.12-32.08-2-11.75-3.68-23.57-5.69-35.32a23.88,23.88,0,0,0-2.66-7.28,5.48,5.48,0,0,0-6.71-2.62,5.36,5.36,0,0,0-3.37,7c3.49,9.62,1.92,19-1.11,28.23A42.91,42.91,0,0,1,565-53.37C560.09-46,553-43.7,544.55-45.44c-8.07-1.66-14.24-6.05-19.26-14.07,4.12-7,7.83-13.92,12.1-20.45a31.44,31.44,0,0,0,5.25-19.85,39,39,0,0,0-7.93-21.81,32.11,32.11,0,0,0-6.3-5.9c-2-1.53-4.48-1-6.33.69a5.29,5.29,0,0,0-.94,7.09,25.39,25.39,0,0,0,2.85,3.28c4.88,5.1,6.81,11.46,7.25,18.27a17.44,17.44,0,0,1-15,18.47,25.92,25.92,0,0,1-19-4.35,144.93,144.93,0,0,1-14.36-11.24C478.75-98.93,475-103,471.1-106.9a36.85,36.85,0,0,0-4.49-4.09,5.46,5.46,0,0,0-6.5-.28,5.66,5.66,0,0,0-2.64,6,34.14,34.14,0,0,0,1.08,3.29c4.16,15.59-7.78,27.47-18.21,30.34a15.8,15.8,0,0,1-9.38-.6,28.23,28.23,0,0,1-17-15.23c-2.47-5.23-4.24-10.81-6.29-16.25-.7-1.85-1.3-3.73-2.21-6.33a43.28,43.28,0,0,0-4.51,2.9,33.14,33.14,0,0,1-15.56,7.29c-9.05,1.68-18.14,3.17-27.49,4.78-1.17,1.54.36,3,.95,4.39,6,14.16,5.88,28.34.15,42.49A25.85,25.85,0,0,1,354.18-40c-8.88,9.28-18.52,17.62-31,21.66-2.74.89-5.57,1.47-8.36,2.2l-4.65,1.25c.16,3,2,3.45,3.65,3.37,5.47-.27,10.94-.68,16.39-1.28,2.81-.31,5.57-1.13,8.63-1.77,3.65,6,4.54,12.74,5.43,19.28a78.4,78.4,0,0,1-5.19,41.12c-7.6,18.29-20.77,30.62-39.53,36.59-9.38,3-19,2.16-28.24-.6-22-6.58-36.92-21.15-44.77-42.76a135.81,135.81,0,0,1-6.89-31.49A19.77,19.77,0,0,0,217.22.23a4.61,4.61,0,0,0-7.95-.38,33,33,0,0,0-2.52,4.56C197.41,22.13,183,34.23,165,42.21a42.07,42.07,0,0,1-11.7,3c-11.78,1.49-18.31-3.89-21.78-11.91-4.87-11.24-6.13-23-4.64-35.08.9-7.3,2.85-14.16,7.84-20,2.2-2.58,3.49-6,4.93-9.17.54-1.21.36-2.75.69-5.74-2.29,2.58-3.77,3.84-4.75,5.41-8.07,13-20.53,20.19-33.78,26.34A31,31,0,0,1,94.4-2.65C82-.39,74.86-5.58,72.21-18.94c1.67-1.59,3.5-3.4,5.4-5.14A151.17,151.17,0,0,0,98.52-47.37a89.25,89.25,0,0,0,15-35,42.36,42.36,0,0,0,.65-6.94,10,10,0,0,0-.62-3.4,4.49,4.49,0,0,0-4.8-2.9,4,4,0,0,0-3.59,3.28c-.43,2-.54,4-.86,6a71.88,71.88,0,0,1-11.9,30.66c-16.06,23-36.66,40.22-63.05,50A82.28,82.28,0,0,1-25.89-4.51a85.75,85.75,0,0,1-15.77-7.08C-58.78-21.31-66.59-36.85-68-56.06c-.35-4.64-.14-9.32-.2-14a12.68,12.68,0,0,0-2.86-8c-2.73-3.4-6.22-3.54-8.6-.11a60,60,0,0,0-3,5.34,95,95,0,0,1-17.92,23.45c-8.81,8.26-18.67,14.74-30.57,17.44a42.37,42.37,0,0,1-10.29,1c-7.83-.18-11.65-3.59-12.72-11.47a57.83,57.83,0,0,1,.07-10.44c.15-2.9.77-5.78.86-8.68.13-4.1-.63-4.87-5.29-6.52-.52-.18-1-.48-2-1,1.57-8.35,3.16-16.84,4.84-25.76a60.23,60.23,0,0,1,6-2.85c12.52-4.48,25.09-8.82,37.61-13.3,3.61-1.29,6.58-.85,9.52,1.85a153,153,0,0,0,12.13,9.89,23.75,23.75,0,0,0,6.83,3.58,4.71,4.71,0,0,0,6.29-4.2,30.46,30.46,0,0,0-.24-6.94,164.7,164.7,0,0,0-13.3-46.85c-.81-1.8-1.41-3.7-2.16-5.67,3.44-1,6.53-1.73,9.48-2.83a13.8,13.8,0,0,0,4.27-2.82c1.44-1.31,1.48-4,.32-5.65a4.25,4.25,0,0,0-4.55-1.76,14.75,14.75,0,0,0-2.46.81c-11,4.13-21.19,1.78-30.29-5-4.59-3.41-8.41-7.92-12.47-12-2.65-2.68-4.92-5.75-7.69-8.28s-6.26-1.78-8,1.52a33.88,33.88,0,0,0-2.1,5.71c-2.61,8.28-8,13.88-15.73,17.64-11.28,5.53-22.63,6.38-34.38,1.62a8.66,8.66,0,0,1-5.37-5.14,110.59,110.59,0,0,0-5.74-11.73,26.53,26.53,0,0,0-4.13-5.58,13.28,13.28,0,0,0-4.26-2.83c-2.32-1-5.12,0-6,1.93s-.85,4.14,1,5.55c4.55,3.54,7,8.49,9.12,13.6a54.71,54.71,0,0,1,3.7,30.78c-1.49,8.66-5.23,16-12.26,21.41a41.24,41.24,0,0,0-4,3.3,4.35,4.35,0,0,0-.37,5.6c1.23,1.74,3.6,2.83,5.31,1.78a79.67,79.67,0,0,0,9-6.64c2.15-1.8,4-4,6.3-6.39,1.49,3.24,2.71,5.84,3.9,8.45A229.84,229.84,0,0,0-176-74c3,4,5.93,8,11.75,9.32A27.7,27.7,0,0,1-167-60.42a54.8,54.8,0,0,1-20.75,13.91,31.4,31.4,0,0,1-5.81,1.7c-8,1.31-12.13-1.94-12.76-10.1a21.75,21.75,0,0,1,.72-6.9,53.14,53.14,0,0,1,8-18.26A24.51,24.51,0,0,0-195-84.53a4.5,4.5,0,0,0-1.61-5.41,4.27,4.27,0,0,0-4.91-.06,18.14,18.14,0,0,0-4.39,4.17c-3.27,4.62-7.67,7.93-12.3,10.89-16.18,10.36-33.55,16.87-53.08,16.19a47.86,47.86,0,0,1-16.8-3.89c-14.53-6-19.87-22-12.3-35.5a56.55,56.55,0,0,1,13.85-16.62c5.18-4.2,10.52-8.19,15.73-12.36a21.54,21.54,0,0,0,4.26-4.27c1.93-2.77-.44-7.13-3.8-6.94a17.84,17.84,0,0,0-5.81,1.52,107.38,107.38,0,0,1-26.71,7.26c-20.7,2.88-40.34-.17-58.29-11.55A64.56,64.56,0,0,1-379.94-159C-394.44-179.92-391.34-204.51-371.73-220.63Z"/><path class="cls-2" d="M741,91.47c-16.51,0-31.08-6.06-43.31-18-9.14-8.93-15.56-18.71-19.11-29.08a92.72,92.72,0,0,0-4-9.36,83.07,83.07,0,0,1-5.35-13.31c-1.25-4.49-2.74-9.06-4.18-13.48-1.12-3.44-2.28-7-3.34-10.57-2.37-8-4.6-15.95-6.61-23.76-1.51-5.85-2.9-11.81-4.24-17.57-.32-1.39-.65-2.78-1-4.17-.2,2.39-.52,4.76-.87,7.16a72.23,72.23,0,0,1-7.07,22.61A45.91,45.91,0,0,1,627.22-.7a21.28,21.28,0,0,1-12.16,4.23c-4,0-9.9-1.45-15.07-8.37A69.65,69.65,0,0,1,592.24-19c-4.63-10.76-6.57-22.08-8.45-33l-.07-.42c-1-6-2-12-2.89-17.89-.54-3.42-1.08-6.92-1.64-10.41a59,59,0,0,1-3.4,19.2A48.61,48.61,0,0,1,570-50.07c-4.82,7.32-11.83,11.19-20.26,11.19a31.76,31.76,0,0,1-6.37-.68c-9.76-2-17.33-7.48-23.15-16.76l-1.93-3.08,1.84-3.14c1.26-2.14,2.47-4.27,3.68-6.38,2.3-4,4.66-8.14,7.18-12.15a23.92,23.92,0,0,1-13.76,7.27,32.25,32.25,0,0,1-5.16.42,32.07,32.07,0,0,1-18.16-5.71,150.28,150.28,0,0,1-14.95-11.7c-2.92-2.56-5.61-5.31-8.21-8-1.27-1.3-2.54-2.6-3.83-3.87l-.83-.82a29,29,0,0,0-2.51-2.34c0,.07.06.14.08.2a18.08,18.08,0,0,1,.71,2c4.83,18.13-7.87,33.67-22.42,37.67a19.3,19.3,0,0,1-5.1.68,24,24,0,0,1-7.8-1.38A34.41,34.41,0,0,1,408.5-84.92c-1.88-4-3.35-8.09-4.78-12-.44-1.24-.89-2.49-1.35-3.72A39.27,39.27,0,0,1,386.46-94c-6.38,1.19-12.63,2.25-19.24,3.37l-1.79.3c5.41,14.6,5.12,29.5-.89,44.34a31.54,31.54,0,0,1-6,10.08,111.78,111.78,0,0,1-16.66,14.71L344-17.7c4.29,7.09,5.32,14.75,6.23,21.51A84.4,84.4,0,0,1,344.6,48.1c-8.33,20.07-22.88,33.53-43.25,40a47.14,47.14,0,0,1-14.3,2.18,61,61,0,0,1-17.49-2.74c-23.67-7.1-40.05-22.73-48.68-46.46a141.45,141.45,0,0,1-7.21-32.87A13.46,13.46,0,0,0,213,5.35l-.21.42c-.24.48-.48,1-.73,1.43-9.45,17.93-24.45,31.56-44.59,40.5a47.91,47.91,0,0,1-13.38,3.52,37.06,37.06,0,0,1-4.51.29c-10.92,0-19.06-5.46-23.53-15.78C121,24.06,119.27,11.21,121-2.46a60.28,60.28,0,0,1,1.17-6.71A125.86,125.86,0,0,1,104.37.58a37,37,0,0,1-8.89,2.67,35.86,35.86,0,0,1-6.32.61C80.7,3.86,69.87.11,66.33-17.77l-.27-1.34A131.71,131.71,0,0,1,31.46,0,89.6,89.6,0,0,1,.24,5.73a90.78,90.78,0,0,1-28-4.54A91.69,91.69,0,0,1-44.63-6.37C-62.43-16.48-72.32-33-74-55.61c-.26-3.39-.24-6.74-.22-10,0-1.46,0-2.92,0-4.38a6.64,6.64,0,0,0-1.14-3.82c-.32.56-.63,1.17-1,1.81s-.7,1.37-1.07,2A99.88,99.88,0,0,1-96.47-45C-107.2-35-118.11-28.78-129.81-26.12a48.3,48.3,0,0,1-10.72,1.22l-1,0c-10.82-.25-17.05-5.85-18.52-16.66a49.42,49.42,0,0,1-.08-9.79c0-.59.07-1.18.1-1.77.08-1.59.27-3.08.46-4.53s.33-2.58.38-3.75c-.26.42-.5.84-.73,1.24a19.39,19.39,0,0,1-2.71,3.89,61.14,61.14,0,0,1-23,15.4,37.61,37.61,0,0,1-7,2,25.71,25.71,0,0,1-4.16.36c-4.31,0-14.45-1.55-15.55-15.93a27.52,27.52,0,0,1,.88-8.82,68.93,68.93,0,0,1,4.29-12.34A64.72,64.72,0,0,1-215-69.88C-233-58.32-250.56-52.7-268.5-52.7c-1,0-2,0-3,0a53.87,53.87,0,0,1-18.89-4.34,30.94,30.94,0,0,1-17.78-18.44,31,31,0,0,1,2.54-25.54,63,63,0,0,1,15.31-18.36c2.79-2.25,5.64-4.47,8.4-6.61,1.74-1.34,3.52-2.72,5.27-4.11A114.1,114.1,0,0,1-302-123.6a110,110,0,0,1-15,1.07A86.87,86.87,0,0,1-364.37-136a71,71,0,0,1-20.51-19.54c-16.37-23.64-12.62-51.65,9.34-69.69A96.17,96.17,0,0,1-356.76-237c15.6-7.67,32.86-13.09,52.76-16.55a220.82,220.82,0,0,1,38.1-3c3.81,0,7.79.06,12.07.2a42.12,42.12,0,0,1-18.4-18.24c-3.53-6.95-4.09-12.6-1.7-17.27s7.17-7.45,14.69-8.62a77.39,77.39,0,0,1,9.79-.73c1.26,0,2.52-.08,3.78-.15.89-.05,1.78-.08,2.67-.1l-.54-.28-2.28-1.2a45.57,45.57,0,0,1-8.38-5.18,80.29,80.29,0,0,1-24.4-35.1c-.11-.32-.21-.65-.3-1l-.05-.16c-2.71-9.05-2.1-17.29,1.77-23.83s10.73-11,19.89-13a60,60,0,0,1,12.62-1.33A73.75,73.75,0,0,1-226.21-380c11.13,2.84,22.31,7.62,34.17,14.62,4.87,2.87,9.73,5.89,14.42,8.81,2.87,1.79,5.73,3.57,8.61,5.32.95.59,1.89,1.19,2.83,1.8a37.46,37.46,0,0,0,6.68,3.75,28.68,28.68,0,0,1,5.54,2.78,168.75,168.75,0,0,1-10.75-19.75c-5.34-11.5-7.58-22.14-6.85-32.53a31.72,31.72,0,0,1,5.79-17c5.17-7.12,11.5-8.61,15.9-8.61a22.28,22.28,0,0,1,4.52.48,44.75,44.75,0,0,1,14.7,6.07,91.42,91.42,0,0,1,19.16,16.13c1.88,2,3.71,4.14,5.47,6.16,1.28,1.47,2.56,2.93,3.86,4.38v0c-5.82-22.5-2-44.49,11.79-67.22a36,36,0,0,1,11.52-11.89,23.85,23.85,0,0,1,12.92-4,23.59,23.59,0,0,1,13.16,4.25c5.23,3.47,9.53,8.2,13.94,15.33a112.38,112.38,0,0,1,14.67,37.58c1.2,6.11,2,12.3,2.78,18.29.34,2.65.68,5.29,1.06,7.93.14,1,.27,1.95.4,2.92s.23,1.74.35,2.58l.19-.38.74-1.45A67.34,67.34,0,0,1-4.91-401.95a49,49,0,0,1,9.46-7.11,26.17,26.17,0,0,1,12.91-3.61c7.37,0,14.26,3.68,19.4,10.37,4.66,6.08,7.42,13.39,8.44,22.37a74.61,74.61,0,0,1-.78,22.71q-.57,2.93-1.17,5.83c-.86,4.22-1.74,8.58-2.42,12.83-.35,2.21-.62,4.49-.81,6.89,4.66-6.64,11.31-10.15,16.26-12.3a67,67,0,0,1,26.74-5.78,66.49,66.49,0,0,1,28.61,6.69c5.09,2.41,9.9,5.29,14.55,8.07l4.31,2.57c-.87-.89-1.75-1.77-2.63-2.65-3.6-3.6-7.31-7.31-10.74-11.33a81,81,0,0,1-18.61-38.52,36.84,36.84,0,0,1,1.07-17.45c3.22-10.8,11.49-17.25,22.71-17.71l1.25,0a32.67,32.67,0,0,1,13.21,2.9A72,72,0,0,1,158-403.06c3,2.95,5.91,6.05,8.69,9.06l.57.61c1.51,1.64,3,3.29,4.47,4.95.87,1,1.75,2,2.64,2.95-.3-.59-.6-1.21-.88-1.86-.88-2-1.77-4.09-2.67-6.13-2.7-6.18-5.49-12.57-7.87-19.09a59,59,0,0,1-3.48-25.8,46,46,0,0,1,11.08-26.3A61.26,61.26,0,0,1,181-474.61c17.48-12.71,36.37-19.16,56.17-19.16a95.07,95.07,0,0,1,10.86.63,47.91,47.91,0,0,1,5.84,1.06c21.16,5.1,32.44,18.2,34.49,40,1.43,15.22-.58,29.76-2.49,40.72-.82,4.72-1.77,9.46-2.69,14-.56,2.78-1.12,5.56-1.65,8.35-.59,3.06-1.23,6.21-2.08,9.36,4.34-6,10.47-9.83,15.93-12.64a13.73,13.73,0,0,1,6.25-1.64c5.27,0,9.31,3.57,10.83,9.56A66.75,66.75,0,0,1,314.2-373c.24,3.09.32,6.16.39,9.13,0,1.68.08,3.37.15,5.06,0,.33,0,.68,0,1,4.41-7.43,11.32-12.82,21-16.43a30.31,30.31,0,0,1,10.52-2.14c9.31,0,15,6,18.44,10.52,1.67,2.16,3.18,4.4,4.63,6.59q-2.49-4.69-5-9.36c-3.48-6.5-7.09-13.21-10.51-19.91a130.19,130.19,0,0,1-10.62-27.21c-2.15-8.39-4-18.39-1.13-28.93.09-.34.17-.7.25-1a23.17,23.17,0,0,1,.73-2.74c4-11.62,13.8-18.84,25.54-18.84a29.9,29.9,0,0,1,9.08,1.45c5.63,1.79,10.91,5.1,16.17,10.11a76.11,76.11,0,0,1,15.21,20.39c3.22,6.28,6.24,12.74,9.16,19,1.36,2.9,2.71,5.8,4.09,8.69.4.84.78,1.69,1.17,2.54a40.05,40.05,0,0,0,2.7,5.33l0,0,.07-.15a50.36,50.36,0,0,0,2-5.8c.19-.61.37-1.22.56-1.83,3-9.78,7.08-17.76,12.35-24.42a112.64,112.64,0,0,1,12.64-13.25,38.5,38.5,0,0,1,16.25-8.52,31.71,31.71,0,0,1,8.15-1.13c8.83,0,16.35,4.31,21.74,12.46,5,7.48,7.73,16.54,8.48,27.71.32,4.84.32,9.68.32,14.36,0,2,0,4,0,6,0,.71,0,1.42,0,2.13,0,.34,0,.68,0,1,.13-.18.25-.36.37-.55.48-.7.95-1.4,1.46-2.08a75.84,75.84,0,0,1,28.57-24.08c3.63-1.73,8.51-3.72,14.15-3.76h.2c9.65,0,15.57,5,17.13,14.47a49.28,49.28,0,0,1,.48,7.73c0,.61,0,1.23,0,1.84.06,2.94.1,5.87.14,8.8,0,2.53.07,5.12.12,7.7,9.72-24.78,27.18-42.7,52-53.31,6.55-2.8,12.22-4.11,17.84-4.11a33.48,33.48,0,0,1,6.86.7c10.42,2.14,17.84,8.47,21.46,18.29a80.39,80.39,0,0,1,2.37,8.08c.36,1.41.71,2.75,1.09,4.07.14.48.27,1,.4,1.45a23,23,0,0,0,1.38,4.05,2,2,0,0,0,.72.89,2,2,0,0,0,.65-.34,43.5,43.5,0,0,0,6-5.76,103.71,103.71,0,0,1,36.61-25.88,58,58,0,0,1,22.34-4.67,52.38,52.38,0,0,1,7.07.48c15.84,2.12,26.58,12.78,28,27.81a74.59,74.59,0,0,1,.33,12.27,81.57,81.57,0,0,1-7.24,28.13c-2.39,5.38-5,10.75-7.44,15.93q-1.7,3.54-3.38,7.09l-.84,1.77c-.61,1.29-1.2,2.53-1.76,3.76a68,68,0,0,1,19-6.73,108.18,108.18,0,0,1,13.66-1.31h1a28.61,28.61,0,0,1,13.75,3.89c12.49,6.78,16.92,18.63,11.84,31.72a67.91,67.91,0,0,1-6.83,12.56c-2.13,3.23-4.42,6.31-6.65,9.29-1.24,1.67-2.48,3.34-3.69,5l-1,1.36c-2.88,4-5.61,7.77-7,12a9.47,9.47,0,0,1-.37.93,86.26,86.26,0,0,1,42.37-14.24c1.47-.1,2.94-.15,4.37-.15a51.3,51.3,0,0,1,26.64,7c9,5.37,12.42,13.27,10.11,23.47a33.89,33.89,0,0,1-4,9.71,44.42,44.42,0,0,1-6.24,7.87c-2.25,2.36-4.63,4.55-6.93,6.66l-1.53,1.41c-1.94,1.79-3.94,3.52-5.87,5.2l-.19.16c8.45-2.17,17.81-3.29,29.44-3.54,1.28,0,2.57,0,3.86,0,12.77,0,23.89,1.45,34,4.42A92.69,92.69,0,0,1,942.3-211a58.39,58.39,0,0,1,14,13.29A32.81,32.81,0,0,1,962-169.64,44.61,44.61,0,0,1,947.56-146a69.19,69.19,0,0,1-21.2,12.42,111.83,111.83,0,0,1-34.83,7.15c-2.29.12-4.7.18-7.15.18-9.27,0-18.5-.88-27.43-1.74-2.88-.27-5.76-.55-8.64-.8-.68-.05-1.36-.13-2-.2l-1-.12.4.35c.94.82,1.92,1.67,2.89,2.66,8,8.08,12.2,17.21,12.55,27.13.44,12.42-6.52,21.14-18.61,23.34a69.71,69.71,0,0,1-12.28.8h-1.84a35,35,0,0,1-5.63-.57c-.63-.1-1.26-.2-1.89-.28a91.33,91.33,0,0,1-16.69-3.38c9.11,6.3,17.17,14.93,25.06,26.74C840.34-35.66,843.88-17.85,839.72.6,831.12,38.73,810,66.42,777,82.9a83.07,83.07,0,0,1-28.61,8.18C745.88,91.33,743.39,91.47,741,91.47ZM-197.48-124.08c.89,1.92,1.7,3.65,2.49,5.39a222.84,222.84,0,0,0,23.8,41.07c1.93,2.59,3.38,4.47,5.15,5.68l5-26.88,2.73-1.32c.53-.26,1.07-.54,1.62-.83a39.74,39.74,0,0,1,4.95-2.27q9.58-3.44,19.19-6.79c6.14-2.16,12.29-4.31,18.42-6.51a16.68,16.68,0,0,1,5.64-1,14.52,14.52,0,0,1,10,4.12A143.6,143.6,0,0,0-86.82-104a18.92,18.92,0,0,0,3.63,2.13,30,30,0,0,0-.29-4.11,159.67,159.67,0,0,0-12.81-45.15c-.66-1.44-1.16-2.86-1.66-4.23-.21-.59-.42-1.19-.65-1.79l-2.3-6.08,1.26-.36c-6.94-.59-13.7-3.3-20.15-8.09a79.54,79.54,0,0,1-10.2-9.55c-1-1-2-2.08-3-3.09-1.25-1.27-2.38-2.56-3.48-3.81s-2.07-2.37-3.1-3.4c-.32.8-.61,1.74-.91,2.71l-.33,1c-3,9.42-9.3,16.57-18.81,21.22a49.15,49.15,0,0,1-21.7,5.33,46.66,46.66,0,0,1-17.57-3.54,17.18,17.18,0,0,1-4.51-2.61,59.36,59.36,0,0,1,1,24.66,45.34,45.34,0,0,1-3.22,10.75l3.07-3.15ZM20.31-134.2l2.12,4.32c.62,1.27,1.24,2.54,1.85,3.81q1.56,3.27,3.07,6.55c2.23,4.79,4.53,9.75,7,14.4a57.11,57.11,0,0,0,7.93,11.69A12.6,12.6,0,0,0,51.68-89a14.73,14.73,0,0,0,8.08-2.65,20.1,20.1,0,0,0,4.5-3.93C78.34-113,88.65-131.72,94.9-151.37a25,25,0,0,0,1.16-7.57c0-5.66-3.57-9.62-8.63-9.62a11.57,11.57,0,0,0-4.17.84,26.8,26.8,0,0,0-9.36,6.32c-1,1-1.88,2-2.86,3.07-1.4,1.53-2.85,3.12-4.45,4.65a7.17,7.17,0,0,1-3.1,1.74L61.06-148l-3.6-3.23-9,.9L52-156.15l-5.33-4.8,9.44-1.94C62.43-173.72,67-186.1,70-200.64c.08-.4.15-.82.21-1.23.37-2.41,1-6.45,4.78-9.36l2.09-1.61A32.6,32.6,0,0,1,66.15-230.7a77.51,77.51,0,0,1-1.54-13.08c-.11-1.75-.21-3.4-.36-5A11.3,11.3,0,0,1,64.4-252a30.54,30.54,0,0,1-19.72,6.91h-.77c-12.52-.27-22.79-4.83-30.59-13.57L12.57-257c-.16.35-.28.67-.4.95a12.28,12.28,0,0,1-1.57,3c-6.79,9-15.27,14.36-25.29,15.85l-.73,5.44c-.08.58-.14,1.13-.19,1.67a28.79,28.79,0,0,1-.7,4.33c-4.2,16-5.5,32.91-4,51.73a65,65,0,0,0,2.68,12.22c.43,1.51.86,3,1.25,4.53A24.23,24.23,0,0,0-15-153.82c.33.75.67,1.52,1,2.3l1.26,3.09-2,2.7c-.83,1.15-1.65,2.29-2.46,3.43-2.1,2.92-4.26,6-6.55,8.85a14.15,14.15,0,0,1-4.26,3.39c-.34.19-.69.39-1,.62L-34-126l-3.33-5.14c-4.14-6.4-5.7-12.93-7.07-18.7q-.86-3.59-1.69-7.19c-1.64-7.06-3.34-14.35-5.33-21.36a45.3,45.3,0,0,0-5.26-11.86c-.86-1.34-1.82-2.17-2.51-2.17s-1.66.54-2.89,2a17.16,17.16,0,0,0-3.13,5.53,46.62,46.62,0,0,0-2.09,10.57,146.1,146.1,0,0,0,2.75,39.24c1.62,8.29,3.31,16.87,7,24.48a40.36,40.36,0,0,0,6,9.54,8.53,8.53,0,0,0,6.38,3.21,10.23,10.23,0,0,0,4.12-1,30.12,30.12,0,0,0,8.41-5.42,78,78,0,0,0,9.27-11.14c2.09-2.93,4-6,6-9.28,1.05-1.73,2.11-3.46,3.2-5.17s2.29-3.48,3.33-5l1.2-1.78,2.24-3.35ZM274-365.95a19.23,19.23,0,0,0-1.64,6.13C273-361.95,273.53-364,274-365.95Z"/><path class="cls-2" d="M525.29-59.51c4.12-7,7.83-13.92,12.1-20.45a31.44,31.44,0,0,0,5.25-19.85,39,39,0,0,0-7.93-21.81,32.11,32.11,0,0,0-6.3-5.9c-2-1.53-4.48-1-6.33.69a5.3,5.3,0,0,0-.94,7.1,26,26,0,0,0,2.85,3.27c4.88,5.1,6.81,11.46,7.25,18.27a17.44,17.44,0,0,1-15,18.47,25.92,25.92,0,0,1-19-4.35,144.93,144.93,0,0,1-14.36-11.24C478.75-98.93,475-103,471.1-106.9a36.85,36.85,0,0,0-4.49-4.09,5.46,5.46,0,0,0-6.5-.28,5.66,5.66,0,0,0-2.64,6c.17,1.12.79,2.17,1.08,3.29,4.16,15.59-7.78,27.47-18.21,30.34a15.8,15.8,0,0,1-9.38-.6,28.23,28.23,0,0,1-17-15.23c-2.47-5.23-4.24-10.81-6.29-16.25-.69-1.85-1.3-3.73-2.21-6.33a43.28,43.28,0,0,0-4.51,2.9,33.14,33.14,0,0,1-15.56,7.29c-9.05,1.68-18.14,3.17-27.49,4.78-1.17,1.54.36,3,.95,4.39,6,14.16,5.88,28.34.15,42.49A25.85,25.85,0,0,1,354.18-40c-8.88,9.28-18.52,17.62-31,21.66-2.74.89-5.57,1.47-8.36,2.21-1.59.41-3.18.85-4.65,1.24.16,3,2,3.45,3.65,3.37,5.47-.27,10.94-.68,16.39-1.28,2.81-.31,5.57-1.13,8.63-1.77,3.65,6,4.54,12.74,5.43,19.28a78.4,78.4,0,0,1-5.19,41.12c-7.6,18.29-20.77,30.62-39.53,36.59-9.38,3-19,2.16-28.24-.6-22-6.58-36.92-21.15-44.77-42.76a135.81,135.81,0,0,1-6.89-31.49A19.77,19.77,0,0,0,217.22.23a4.61,4.61,0,0,0-7.95-.38,33,33,0,0,0-2.52,4.56C197.41,22.13,183,34.23,165,42.21a42.07,42.07,0,0,1-11.7,3c-11.78,1.49-18.31-3.89-21.78-11.91-4.87-11.24-6.13-23-4.64-35.08.9-7.3,2.85-14.16,7.84-20,2.2-2.58,3.49-6,4.93-9.17.54-1.21.36-2.75.69-5.74-2.29,2.58-3.77,3.84-4.75,5.41-8.07,13-20.53,20.19-33.78,26.35A31.41,31.41,0,0,1,94.4-2.65C82-.39,74.86-5.59,72.21-18.94c1.67-1.59,3.5-3.4,5.4-5.14A151.17,151.17,0,0,0,98.52-47.37a89.25,89.25,0,0,0,15-35,42.36,42.36,0,0,0,.65-6.94,10,10,0,0,0-.62-3.4,4.49,4.49,0,0,0-4.8-2.9,4,4,0,0,0-3.59,3.28c-.43,2-.54,4-.86,6a71.88,71.88,0,0,1-11.9,30.66c-16.06,23-36.66,40.22-63.05,50A82.28,82.28,0,0,1-25.89-4.51a85.75,85.75,0,0,1-15.77-7.08C-58.78-21.31-66.59-36.85-68-56.06c-.35-4.64-.14-9.32-.2-14a12.68,12.68,0,0,0-2.86-8c-2.73-3.4-6.22-3.54-8.6-.11a60,60,0,0,0-3,5.34,95,95,0,0,1-17.92,23.45c-8.81,8.26-18.67,14.74-30.57,17.44a42.37,42.37,0,0,1-10.29,1c-7.83-.18-11.65-3.59-12.72-11.47a56.93,56.93,0,0,1,.07-10.44c.15-2.9.77-5.78.86-8.68.13-4.1-.63-4.87-5.29-6.52-.52-.18-1-.48-2-1,1.57-8.35,3.16-16.84,4.84-25.76a60.23,60.23,0,0,1,6-2.85c12.52-4.48,25.09-8.82,37.61-13.3,3.61-1.29,6.58-.85,9.52,1.85a153,153,0,0,0,12.13,9.89,24,24,0,0,0,6.83,3.59,4.72,4.72,0,0,0,6.29-4.21,30.46,30.46,0,0,0-.24-6.94,164.7,164.7,0,0,0-13.3-46.85c-.81-1.8-1.41-3.7-2.16-5.67,3.44-1,6.53-1.73,9.47-2.83a13.72,13.72,0,0,0,4.28-2.82c1.44-1.31,1.48-4,.32-5.65a4.25,4.25,0,0,0-4.55-1.76,14.75,14.75,0,0,0-2.46.81c-11,4.13-21.19,1.78-30.29-5-4.59-3.41-8.41-7.92-12.47-12-2.65-2.68-4.92-5.75-7.69-8.28s-6.26-1.78-8,1.52a33.88,33.88,0,0,0-2.1,5.71c-2.61,8.28-8,13.88-15.73,17.64-11.28,5.53-22.63,6.38-34.38,1.62a8.66,8.66,0,0,1-5.37-5.14,110.59,110.59,0,0,0-5.74-11.73,26.53,26.53,0,0,0-4.13-5.58,13.12,13.12,0,0,0-4.26-2.83c-2.32-1-5.12,0-6,1.93s-.85,4.14,1,5.55c4.55,3.54,7,8.49,9.12,13.6a54.71,54.71,0,0,1,3.7,30.78c-1.49,8.66-5.23,16-12.26,21.41a41.24,41.24,0,0,0-4,3.3,4.35,4.35,0,0,0-.37,5.6c1.23,1.74,3.6,2.83,5.31,1.78a78.67,78.67,0,0,0,9-6.64c2.16-1.8,4-4,6.31-6.39,1.49,3.24,2.71,5.84,3.9,8.45A229.84,229.84,0,0,0-176-74c3,4,5.93,8,11.75,9.32A27.7,27.7,0,0,1-167-60.42a54.91,54.91,0,0,1-20.75,13.91,31.4,31.4,0,0,1-5.81,1.7c-8,1.31-12.13-1.93-12.76-10.1a21.75,21.75,0,0,1,.72-6.9,53.14,53.14,0,0,1,8-18.26A24.51,24.51,0,0,0-195-84.53a4.5,4.5,0,0,0-1.61-5.41,4.27,4.27,0,0,0-4.91-.06,18.14,18.14,0,0,0-4.39,4.17c-3.27,4.62-7.67,7.93-12.3,10.89-16.18,10.36-33.55,16.87-53.08,16.19a47.86,47.86,0,0,1-16.8-3.89c-14.53-6-19.87-22-12.3-35.5a56.71,56.71,0,0,1,13.85-16.63c5.18-4.19,10.52-8.18,15.73-12.35a21.28,21.28,0,0,0,4.26-4.27c1.93-2.77-.44-7.13-3.8-6.94a17.84,17.84,0,0,0-5.81,1.52,107.38,107.38,0,0,1-26.71,7.26c-20.7,2.88-40.34-.17-58.29-11.55A64.56,64.56,0,0,1-379.94-159c-14.5-20.93-11.4-45.52,8.21-61.64a90.81,90.81,0,0,1,17.62-11c16.19-8,33.4-12.94,51.14-16,17.47-3,35.08-3.25,52.73-2.53,1.7.07,3.63.42,5.07-.22a7,7,0,0,0,3.26-3.65c.68-1.76-.46-3.48-2-4.42a48.94,48.94,0,0,0-4.77-2c-7.85-3.63-14.2-9-18.18-16.81-5.1-10-2.4-15.53,8.57-17.25,4.26-.66,8.64-.57,13-.81,2.59-.14,5.21-.09,7.78-.41,2.81-.35,4.5-2.12,4.66-4.37a4.85,4.85,0,0,0-3-4.87c-1.54-.79-3.29-1.17-4.81-2-3.29-1.79-6.83-3.34-9.67-5.71a74.14,74.14,0,0,1-22.6-32.52c-.1-.27-.17-.56-.25-.83-4.51-15.08,1.9-25.94,17.18-29.24,9.55-2.07,19-1.29,28.33,1.09a125.42,125.42,0,0,1,32.6,14c7.73,4.56,15.29,9.42,23,14.1,3.46,2.11,6.8,4.63,10.53,6,5.72,2.15,9.53,6.11,13,10.87,9.43,12.8,21.48,22.75,34.65,31.38a23.76,23.76,0,0,0,7.09,3,4.58,4.58,0,0,0,5.34-3.36c.52-1.84-.37-3.84-2.39-5.14-3.89-2.51-7.91-4.82-11.68-7.48-19.72-13.9-33.6-32.62-43.7-54.36-4.33-9.33-7-19.09-6.31-29.58a26.07,26.07,0,0,1,4.67-13.88c3.56-4.9,8.23-7,14.34-5.78a39.19,39.19,0,0,1,12.75,5.3,86,86,0,0,1,17.91,15.09c3.34,3.63,6.51,7.42,9.82,11.08a20.18,20.18,0,0,0,3.8,3.54,4.49,4.49,0,0,0,6.93-3.69,24.53,24.53,0,0,0-1-6c-5.85-22.6-.62-43.22,11.11-62.62a30.23,30.23,0,0,1,9.62-9.93c6.54-4.18,13.1-4.13,19.53.15,5.17,3.44,8.92,8.26,12.16,13.49a106.14,106.14,0,0,1,13.88,35.58c1.68,8.56,2.56,17.27,3.79,25.91.45,3.17.81,6.36,1.39,9.5a4.27,4.27,0,0,0,3.42,3.53,4.61,4.61,0,0,0,5.27-2.09c1.08-1.71,1.94-3.57,2.87-5.37A61.38,61.38,0,0,1-.8-397.58a42.7,42.7,0,0,1,8.3-6.25c9.18-5.17,18.16-3.2,24.6,5.19,4.37,5.69,6.44,12.35,7.24,19.39a68.37,68.37,0,0,1-.71,20.88C37.41-352.08,36-345.82,35-339.5a101.25,101.25,0,0,0-1.16,13,4.93,4.93,0,0,0,3.65,5.27c2.16.54,4.09-.35,5.37-3.2,3.22-7.16,9.26-11.16,15.92-14.06,16.83-7.32,33.81-7,50.38.83,7,3.34,13.61,7.67,20.39,11.55,2.27,1.29,4.47,2.69,6.81,3.82a4.48,4.48,0,0,0,6-1.78c1.16-1.76,1-3.6-.66-5.58-1.51-1.75-3.25-3.31-4.86-5-5.05-5.2-10.37-10.17-15.08-15.68A74.8,74.8,0,0,1,104.51-386a31.23,31.23,0,0,1,.93-14.67c2.48-8.35,8.63-13.07,17.2-13.42a26.34,26.34,0,0,1,11.8,2.36,66,66,0,0,1,19.41,13c3.12,3,6.07,6.24,9,9.44,3.35,3.62,6.55,7.38,9.94,11,3.76,4,6.37,4.71,8.86,2.75,2.26-1.78,2.34-4.27.17-8.71-.89-1.83-2-3.54-2.83-5.41-3.55-8.28-7.33-16.47-10.42-24.92a53,53,0,0,1-3.13-23.19,40,40,0,0,1,9.65-22.94,57.08,57.08,0,0,1,9.39-9c18.76-13.64,39.58-20.07,62.82-17.42a42.11,42.11,0,0,1,5.11.93c18.55,4.48,28.12,15.57,29.93,34.76,1.23,13.17-.18,26.19-2.43,39.14-1.3,7.45-2.9,14.85-4.32,22.28-1.32,6.87-2.8,13.62-6.22,19.88a25.37,25.37,0,0,0-3,14.35c.26,3.14,2,5.3,4.51,5.66a5.56,5.56,0,0,0,6-4,104.23,104.23,0,0,0,3.46-12.62c2.06-10.23,9.38-15.72,17.78-20,4.32-2.22,7.34-.61,8.53,4.06a61.83,61.83,0,0,1,1.59,10.33c.36,4.64.33,9.31.52,14a32.15,32.15,0,0,0,.52,5.2c.45,2.05,1.42,3.84,3.73,4.36s4.3-.36,5.57-3.1c4-8.51,11-13.36,19.33-16.47,9.7-3.61,15.82-1.81,22.11,6.4,2.83,3.68,5.24,7.67,7.91,11.48a50.68,50.68,0,0,0,4.24,5.51,5,5,0,0,0,6.32,1,4.82,4.82,0,0,0,2-6.07,104.13,104.13,0,0,0-4.54-9.4c-5.56-10.54-11.31-21-16.74-31.59a125.45,125.45,0,0,1-10.15-26c-2.18-8.52-3.5-17.13-1.14-25.88.3-1.13.47-2.29.85-3.39,4.07-11.78,15.28-17.41,27.13-13.64a36.07,36.07,0,0,1,13.85,8.74,70,70,0,0,1,14,18.79c4.64,9,8.79,18.33,13.17,27.51a72.79,72.79,0,0,0,4.27,8.57c3.26,5,8.2,4.49,10.6-1a76.3,76.3,0,0,0,2.78-8.26,68.3,68.3,0,0,1,11.33-22.47,108.34,108.34,0,0,1,12-12.55,32.51,32.51,0,0,1,13.76-7.15c9.8-2.62,17.69.32,23.34,8.84,5,7.48,6.9,16,7.49,24.8.45,6.67.25,13.39.34,20.09a59,59,0,0,0,.1,6.1,5.17,5.17,0,0,0,3.56,4.54,4.75,4.75,0,0,0,5.43-1.71c1.3-1.54,2.34-3.32,3.54-4.95a69.64,69.64,0,0,1,26.32-22.21c3.68-1.76,7.45-3.15,11.61-3.18,6.66-.05,10.27,2.78,11.37,9.45a60.08,60.08,0,0,1,.42,8.71c.15,7.28.19,14.56.38,21.83a10.4,10.4,0,0,0,.94,4.16c.78,1.64,2.32,2.87,4.16,2.49a8.16,8.16,0,0,0,3.49-2.26,6,6,0,0,0,1-2.38q13-39.09,50.65-55.25c6.66-2.85,13.67-4.6,21.13-3.06,8.38,1.73,14.1,6.51,17,14.5,1.4,3.8,2.19,7.83,3.33,11.74a35.94,35.94,0,0,0,2.21,6.59c2.18,4.22,6.43,5.38,10.21,2.65a47.55,47.55,0,0,0,6.91-6.56,97.38,97.38,0,0,1,34.51-24.4,50.19,50.19,0,0,1,26.3-3.79c11.28,1.52,21.53,8.61,22.87,22.45a70,70,0,0,1,.31,11.3,76.09,76.09,0,0,1-6.74,26.08c-3.42,7.71-7.16,15.27-10.75,22.9-1.12,2.36-2.26,4.72-3.32,7.11s-.91,4.55,1.06,6.4,4.2,1.77,6.42.63c6-3.06,12.06-5.74,18.66-6.86a101.28,101.28,0,0,1,12.9-1.23,22.4,22.4,0,0,1,11.59,3.15c9.66,5.24,13.11,14,9.11,24.28a62.24,62.24,0,0,1-6.25,11.43c-3.19,4.84-6.83,9.4-10.21,14.12s-6.93,9.32-8.82,15c-.52,1.56-2,2.76-2.89,4.25a11.68,11.68,0,0,0-1.55,4,3.73,3.73,0,0,0,2.27,4.27,8.55,8.55,0,0,0,4.12.07c.76-.13,1.4-1,2.09-1.48a80.79,80.79,0,0,1,44-16.49c9.67-.62,19.07.92,27.56,6,6.76,4,9.06,9.3,7.32,17a27.91,27.91,0,0,1-3.29,8,39.22,39.22,0,0,1-5.42,6.79c-2.6,2.73-5.42,5.24-8.19,7.8-1.92,1.77-3.89,3.48-5.86,5.19-2.51,2.17-4.75,4.5-3.31,8.21,1,2.54,3.84,3.44,8.4,2.26a121.61,121.61,0,0,1,28.34-3.43c12.18-.26,24.27.67,36,4.14a86.16,86.16,0,0,1,25,11.86,52.39,52.39,0,0,1,12.57,11.93A26.82,26.82,0,0,1,956.11-171a38.43,38.43,0,0,1-12.51,20.48,63.67,63.67,0,0,1-19.41,11.33,106.2,106.2,0,0,1-33,6.74c-14.21.77-28.28-1.13-42.38-2.33a55.84,55.84,0,0,0-6-.48,5.17,5.17,0,0,0-4.87,3.07,4.75,4.75,0,0,0,1.22,5.59c1.62,1.65,3.5,3,5.12,4.69,6.33,6.41,10.5,13.92,10.82,23.13.34,9.46-4.39,15.54-13.68,17.23a77.18,77.18,0,0,1-12.92.71,52,52,0,0,1-6.88-.8c-11-1.41-21.72-3.49-30.11-11.68-14.51-8.45-29-17-43.55-25.3-8.3-4.73-16.78-9.13-25.26-13.53a22.38,22.38,0,0,0-6.47-2.14,3.72,3.72,0,0,0-4.09,2.55,4.12,4.12,0,0,0,.95,4.8,16.36,16.36,0,0,0,3.58,2.4c6.08,3.35,12.23,6.59,18.29,10,15.4,8.63,30.84,17.2,46.12,26.05,4.46,2.58,9.08,5.14,12.37,9.42A9,9,0,0,0,796.17-77c11.81,6.85,20.56,16.84,28,28C834-34.3,837.79-18.11,833.87-.72c-7.94,35.2-27,62-59.56,78.26a76.9,76.9,0,0,1-26.55,7.57c-17.79,1.84-33.1-3.42-45.91-16-7.78-7.61-14.14-16.53-17.62-26.72-2.63-7.7-7.08-14.5-9.26-22.34C672.71,12,669.83,4,667.42-4q-3.49-11.71-6.55-23.55c-2-7.88-3.82-15.84-5.69-23.77-.6-2.55-1.06-5.13-1.73-7.66-1-3.79-3.15-5.55-5.91-5s-4.26,2.88-3.76,6.87c.68,5.31,0,10.48-.74,15.66a65.6,65.6,0,0,1-6.48,20.73A40.15,40.15,0,0,1,623.8-5.63c-7.11,4.94-13.81,4.15-19-2.8a63.54,63.54,0,0,1-7-12.95c-4.41-10.23-6.25-21.18-8.12-32.09-2-11.74-3.68-23.56-5.69-35.31a23.88,23.88,0,0,0-2.66-7.28,5.48,5.48,0,0,0-6.71-2.62,5.36,5.36,0,0,0-3.37,7c3.49,9.62,1.92,19-1.11,28.23A42.91,42.91,0,0,1,565-53.37C560.09-46,553-43.7,544.55-45.44,536.48-47.1,530.31-51.49,525.29-59.51Zm-465.77-98,.22.19c8.07-13,13-27.21,16.14-42.14.52-2.49.42-5.25,2.78-7.07,3,1,6,2.24,9,3.08,9.63,2.63,18.92,1.86,27.55-3.47a23.3,23.3,0,0,0,5.15-4.57c1.29-1.46.89-4.3-.45-5.64a4.12,4.12,0,0,0-4.76-1,43.89,43.89,0,0,0-4.44,2.67C95.22-206.29,76.09-214.32,72-232c-1.3-5.61-1.25-11.53-1.78-17.32-.2-2.21,1-3.85,2.38-5.4,2.33-2.58,4.71-5.14,6.85-7.88,1.76-2.24,1.56-4.54-.12-6.33-1.87-2-4.37-1.92-6.92.25a30,30,0,0,0-2.47,2.45c-2.37,2.55-4.64,5.2-7.11,7.65A25,25,0,0,1,44-251.09c-12-.26-21.84-5.07-28.95-14.93-2.36-3.28-4.15-7-6.23-10.47a51.23,51.23,0,0,0-3.23-5.15,4.49,4.49,0,0,0-5.48-1.2,4.22,4.22,0,0,0-2.3,5.08,31.85,31.85,0,0,0,2.38,5.58c2.27,4.34,4.67,8.61,6.88,12.67a17.51,17.51,0,0,1-1.31,2.84C-2.7-245.33-14.08-241-27.78-243.43c-5.65-1-11.09-3.15-16.68-4.6a38,38,0,0,0-8.43-1.36c-1.07,0-2.6,1.36-3.15,2.49a3.62,3.62,0,0,0,1.31,4.61,10.08,10.08,0,0,0,2.21,1.35c8.31,3.39,16.63,6.74,25.69,7.52,1.69.15,3.37.51,5.46.84a45.84,45.84,0,0,1-.74,5.27c-4.64,17.66-5.62,35.66-4.14,53.75.49,6,2.57,11.89,4.11,17.78a53.5,53.5,0,0,0,2.61,6.53c-3,4.15-5.82,8.22-8.87,12.08-.92,1.17-2.53,1.8-3.94,2.76-3.57-5.51-4.92-11.16-6.27-16.83-2.3-9.62-4.38-19.3-7.09-28.8a51.43,51.43,0,0,0-6-13.46c-4.09-6.37-10.3-6.52-15.08-.71A23,23,0,0,0-71-186.67a52.66,52.66,0,0,0-2.35,11.92,152.63,152.63,0,0,0,2.84,40.85C-68.75-125-67-116.15-63-108A46.55,46.55,0,0,0-56.09-97c4.72,5.25,10.93,6.6,17.41,3.71a36.2,36.2,0,0,0,10.1-6.56,83,83,0,0,0,10-12c3.37-4.72,6.23-9.81,9.35-14.71,1.53-2.41,3.16-4.74,4.45-6.67l21,4.33c.88,1.8,1.79,3.62,2.66,5.44,3.39,7.08,6.51,14.31,10.23,21.21a64.08,64.08,0,0,0,8.79,12.89c6.86,7.49,16.73,8.34,25.2,2.71a26.55,26.55,0,0,0,5.84-5.14c14-17.31,24.9-36.41,31.69-57.74a30.78,30.78,0,0,0,1.44-9.43c-.06-11.68-10.22-18.54-21-14.33a32.75,32.75,0,0,0-11.46,7.71c-2.43,2.49-4.66,5.18-7.17,7.59C61.84-157.44,60.48-157.66,59.52-157.46Z"/></g></svg>