<?xml version="1.0" encoding="utf-8"?>
<!-- Generator: Adobe Illustrator 26.0.3, SVG Export Plug-In . SVG Version: 6.00 Build 0)  -->
<svg version="1.1" id="Слой_1" xmlns="http://www.w3.org/2000/svg" xmlns:xlink="http://www.w3.org/1999/xlink" x="0px" y="0px"
	 viewBox="0 0 368.5 100" style="enable-background:new 0 0 368.5 100;" xml:space="preserve">
<style type="text/css">
	.st0{fill:#111827;}
</style>
<g>
	<path class="st0" d="M94,14.3h17.4l-4.9,23.3l12,8l-4.7,22.6L86.6,49.4L94,14.3z M128.3,13.4h17.5l-16.8,79l-14.1-15.5L128.3,13.4z
		"/>
	<path class="st0" d="M150.4,14.3h17.4l-4.9,23.3l12,8L170,68.3l-27.1-18.9L150.4,14.3z M184.7,13.4h17.5l-16.8,79l-14.1-15.5
		L184.7,13.4z"/>
	<g>
		<path class="st0" d="M275.3,89.1c-0.7-0.2-1.3-0.7-1.6-1.4l-16.5-28.3c-1.3-2.1-1.7-4.6-1.4-7.1l5.2-41.7c0.1-0.5,0.4-0.9,0.8-1.1
			c-1.1-1.5-2.7-2.6-4.3-3.2c0.2,0.3,0.3,0.7,0.4,1c0.1,0.3,0.1,0.7,0,1l-5.7,41.9c-0.1,0.6-0.1,0.9-0.2,1.1
			c-0.6,1.9-2.3,3.2-4.3,3.4l-45.2,3.2c-1.4,0.1-2.5-0.5-3.2-1.5v0.2h0.2c-0.6,3,0,6.1,1.7,8.6c-0.2-1.2,0.3-2.6,1.3-3.4
			c0.5-0.3,1.2-0.6,1.7-0.7l42.7-3.5c3.1-0.2,6.1,1.3,7.8,3.9L261,72c-0.3-0.7-0.6-1.4-0.9-2.1c1.1,1.4,2.2,2.9,3.2,4.4
			c-0.9-1.7-1.7-3.3-2.3-5c0.9,1.1,1.8,2.3,2.6,3.5c-0.7-1.3-1.3-2.7-1.8-4c1.2,1.5,2.3,3,3.4,4.6c1,1.6,2.1,3.1,3,4.7
			s1.9,3.2,2.8,4.9c0.9,1.7,1.7,3.5,2.4,5.2c-1-1.2-1.8-2.4-2.7-3.7c0.7,1.4,1.4,2.8,1.9,4.2c-1.1-1.4-2.2-2.8-3.2-4.3
			c0.9,1.6,1.6,3.1,2.3,4.8c-0.5-0.6-0.9-1.2-1.4-1.8l1.7,2.8c0.4,0.9,0.5,1.9,0.3,2.8v0.1c2-0.7,3.6-2.1,4.7-4
			C276.4,89.3,275.9,89.3,275.3,89.1z"/>
		<path class="st0" d="M231.6,94.5l37.5-0.8c0.2,0,0.5,0,0.7,0c0.4-0.1,0.8-0.4,1.1-0.8c0.3-0.7,0.2-1.5-0.1-2.1l-17.1-28.6
			c-1.4-2.3-3.9-3.7-6.7-3.5l-42.7,3.5c-0.8,0.1-1.6,0.6-2,1.4c-0.2,0.1-0.2,0.1-0.2,0.2c-0.2,0.7-0.1,1.5,0.3,2.1L216,83.7l4.7,5.8
			C223.4,92.7,227.3,94.6,231.6,94.5z M234.4,71.5c0.3,0,0.7-0.1,1-0.1s0.7,0,1,0s0.7,0,1,0.1c1.2,0.2,2.4,0.5,3.4,1l2.5-11.2
			l3.1,0.1c-0.1,0-0.2,0-0.3,0c-1.6-0.2-2.5-0.2-6.4-0.5l-1.4-0.1l8.3-0.7c2.4,0.1,4.5,1.2,5.5,3l16.9,28c0.1,0.2,0.1,0.5,0.1,0.7
			c-0.1,0.2-0.5,0.2-0.7,0.2l-21.9,0.5l8.6-1.4l-5.2-0.9l5.5-0.3c-0.3-0.1-0.6-0.2-0.8-0.3l-0.5-0.2c-0.1-0.1-0.3-0.1-0.5-0.2
			c-0.1-0.1-0.6-0.3-0.9-0.5c-0.3-0.1-0.6-0.3-0.8-0.6c-0.2-0.2-0.6-0.5-0.8-0.7s-0.5-0.5-0.7-0.7s-0.5-0.5-0.6-0.8
			c0.9,0.9,2,1.6,3.2,2.2c0.6,0.2,1.2,0.6,1.9,0.8c0.6,0.2,1.3,0.3,1.9,0.5c0.7,0.1,1.3,0.2,2,0.2c0.2,0,0.4,0,0.6,0
			c0.8-0.1,1.7-0.3,2.6-0.6c0.2-0.1,0.4-0.3,0.6-0.5c0.5-0.5,0.8-1,0.9-1.7c0.1-0.7,0-1.3-0.2-2c-0.2-0.6-0.6-1.2-1-1.6
			c-0.5-0.5-0.9-0.9-1.4-1.4c-0.6-0.3-1-0.8-1.6-1c-1.2-0.6-2.4-1-3.6-1.4c-1.4-0.5-2.8-0.5-4-0.4c0.3-0.1,0.6-0.2,0.9-0.2
			c0.3-0.1,0.7-0.1,1-0.1s0.7,0,1,0s0.7,0,1,0.1c1.4,0.2,2.7,0.6,3.9,1.2c0.7,0.3,1.3,0.7,1.9,1c0.3,0.2,0.5,0.4,0.8,0.6
			c-0.1-0.2-0.2-0.4-0.4-0.6l-3.2-2.4l0.3-2.1c-1.5-3-3.3-5.9-5.1-8.7l-0.6,3.7l-4.3,3.3l2.3-10.9c-0.4-0.5-0.9-1-1.5-1.4l-2.9,12.8
			c-0.6-0.8-1.4-1.5-2.2-2.1c2.3,3.7,2,4.7,1.6,4.9c0.1,0.5,0.1,0.9-0.1,1.4c-0.2,1.2-1,2.2-1.9,2.9l0.2-0.1l-2.5,9.2l-2.9,0.1
			l2.3-8.4c-0.3,0-0.6,0-1,0c-0.3,0-0.7,0-1-0.1l-0.6-0.1l-0.5-0.1l-0.5-0.1l-0.5-0.1c-0.3-0.1-0.7-0.2-0.9-0.3
			c-0.1,0-0.3-0.1-0.5-0.2l-0.1-0.2c-0.3-0.2-0.6-0.3-0.9-0.5c-0.3-0.1-0.6-0.3-0.8-0.6c-0.2-0.3-0.6-0.5-0.8-0.7s-0.5-0.5-0.7-0.7
			s-0.5-0.5-0.6-0.8c0.9,0.9,2,1.6,3.2,2.2c0.6,0.2,1.2,0.6,1.9,0.7c0.6,0.2,1.3,0.3,1.9,0.5c0.7,0.1,1.3,0.2,2,0.2s1.3-0.1,2-0.2
			c0.1-0.1,0.3-0.1,0.5-0.2s0.3-0.1,0.5-0.2s0.6-0.3,0.8-0.6c0.5-0.5,0.8-1,0.9-1.7c0.1-0.7,0-1.3-0.2-2c-0.2-0.6-0.6-1.2-1-1.6
			c-0.5-0.5-0.9-0.9-1.4-1.4c-0.6-0.3-1-0.7-1.6-1c-1.2-0.6-2.3-1-3.6-1.4c-1.8-0.3-3.1-0.4-4.3-0.2
			C233.8,71.7,234.1,71.6,234.4,71.5z M240.4,67.9L241,61l1,0.3L240.4,67.9z M249.8,81.8c0.2-0.6,0.6-0.9,1.2-1.2
			c1.4-0.7,3.6-0.5,6,0.5c3.5,1.4,5.7,3.7,5.1,5.4c-0.2,0.6-0.6,0.9-1.2,1.2c-1.4,0.7-3.6,0.5-6-0.5
			C251.4,85.8,249.2,83.5,249.8,81.8z M231.5,74.6c0.2-0.6,0.6-0.9,1.2-1.2c1.4-0.7,3.6-0.5,6,0.5c3.6,1.4,5.7,3.7,5.1,5.4
			c-0.2,0.6-0.6,0.9-1.2,1.2c-1.3,0.7-3.6,0.5-6-0.5C233.1,78.6,230.9,76.3,231.5,74.6z M204,65.2c-0.2-0.2-0.2-0.6-0.1-0.9
			c0.1-0.3,0.5-0.7,0.8-0.7l20-1.3L206.2,65c-0.2,0-0.3,0.2-0.3,0.5v0.1l6.1,9.8l0.2,0.3L204,65.2z M213.2,67.3
			c1.4-0.7,3.6-0.5,6,0.5c3.6,1.3,5.7,3.7,5.1,5.4c-0.2,0.6-0.6,0.9-1.2,1.2c-1.4,0.7-3.6,0.5-6-0.5c-3.5-1.4-5.6-3.7-5.1-5.4
			C212.2,67.9,212.6,67.6,213.2,67.3z M223.4,79.9c-0.4-0.1-0.7-2.2,0.1-3.1c-0.1,0-0.2,0.1-0.4,0.1c-0.8,0.2-1.5,0.2-2.3,0.2
			c-0.3,0-0.7,0-1-0.1l-0.5-0.1l-0.5-0.1l-0.5-0.1l-0.5-0.1c-0.3-0.1-0.7-0.2-0.9-0.3c-0.1-0.1-0.3-0.1-0.5-0.2l-0.5-0.2
			c-0.3-0.2-0.6-0.3-0.9-0.5c-0.3-0.2-0.6-0.3-0.8-0.6c-0.2-0.2-0.6-0.5-0.8-0.7s-0.5-0.5-0.7-0.7s-0.5-0.5-0.6-0.8
			c0.9,0.9,2.1,1.6,3.2,2.2c0.6,0.2,1.2,0.6,1.9,0.7c0.6,0.2,1.3,0.3,1.9,0.5c0.7,0.1,1.3,0.2,2,0.2s1.3-0.1,2-0.2
			c0.1,0,0.3-0.1,0.5-0.1c0.1,0,0.3-0.1,0.5-0.2s0.6-0.3,0.8-0.6c0.5-0.5,0.8-1,0.9-1.7c0.1-0.7,0-1.3-0.2-2c-0.2-0.6-0.6-1.2-1-1.6
			c-0.5-0.5-0.9-0.9-1.4-1.4c-0.6-0.3-1-0.7-1.6-1c-1.2-0.6-2.4-1-3.6-1.4c-1.4-0.5-2.7-0.6-4-0.3c0.3-0.1,0.6-0.2,0.9-0.3
			c0.3-0.1,0.7-0.1,1-0.1s0.7,0,1,0s0.7,0,1,0.1c1.4,0.2,2.7,0.6,3.9,1.2c0.7,0.3,1.3,0.7,1.9,1c0.2,0.2,0.5,0.4,0.7,0.6
			c-0.1-0.1-0.2-0.3-0.3-0.5l0.7-3.8l3.5-0.3l-1.5,9.6l1.3-0.3c0.1-0.1,0.4-0.1,0.6-0.1c0.6,0,1,0.6,0.9,1.2l-1.9,16.4
			c0.4,0.2,0.7,0.4,1.1,0.6l1.4-11.8l0.1,12.4c1,0.4,2.1,0.7,3.3,0.9c1.3,0.2,2.5,0.3,4,0.4l-5.2,0.1c-2.5,0.2-5.1-0.3-7.4-1.5
			c-1-0.7-2-1.6-2.8-2.5c-2.1-2.3-3.9-4.7-5.6-7.3c2,2.1,4.2,3.9,6.5,5.6c0.2,0.2,0.5,0.3,0.7,0.5l0.9-7.6c0.5-0.8,1-1.6,1.2-2.4
			C225.9,77.8,224.3,80,223.4,79.9z"/>
		<path class="st0" d="M253,5.9l-41.2,7.2c-1.3,0.2-2.4,0.9-3.2,1.8c-0.3,0.4-0.5,0.9-0.6,1.4c0,0.1-0.1,0.3-0.1,0.5L200,52.7
			l-0.2,1.2c-0.2,0.8,0,1.5,0.6,2.1s1.3,0.9,2.1,0.9l45.2-3.2c1.7-0.1,3.2-1.5,3.5-3.2l5.7-42.1c0.1-0.7-0.1-1.5-0.7-2.1
			c-0.2-0.2-0.4-0.4-0.7-0.5C254.7,5.7,253.9,5.7,253,5.9z M209.5,17.1c0-0.1,0-0.2,0.1-0.3c0.5-1.3,1.5-2.3,2.9-2.5l10.2-1.7
			c-0.3,0.1-10.4,2.7-11.6,4.7s-4.5,13.2-4.5,13.2L209.5,17.1z M220.3,24.2c-1.8,2.5-4.6,3.6-6.3,2.4s-1.7-4.2,0.1-6.8
			c1.8-2.5,4.6-3.6,6.3-2.4C222.2,18.7,222.1,21.7,220.3,24.2z M207.1,37.3l4.4-4.2c-0.2,0.2-0.6,0-0.8-0.3c-0.3-0.3-0.1-0.8,0.2-1
			c0.8-0.7,2.7-2.3,3.3-2.8c0,0-0.1,0-0.1-0.1c-0.3-0.2-0.7-0.6-1-1c-0.2-0.3-0.3-0.8-0.5-1.3c0.2,0.3,0.5,0.7,0.7,0.9
			c0.3,0.2,0.6,0.5,1,0.7c0.7,0.2,1.5,0.3,2.3,0.2c0.8-0.1,1.5-0.5,2.2-0.9s1.3-0.9,1.9-1.5c0.2-0.3,0.6-0.6,0.8-0.9
			c0.1-0.1,0.2-0.3,0.3-0.5l0.1-0.2c0-0.1,0.1-0.1,0.1-0.2c0.5-0.7,0.7-1.4,0.9-2.2c0.1-0.2,0.1-0.3,0.1-0.6c0-0.3,0.1-0.3,0.1-0.6
			s0-0.8,0-1.2c0-0.3-0.1-0.8-0.1-1.2c-0.4-0.2-0.5-0.7-0.8-1c0.3,0.2,0.7,0.6,0.9,1c0.1,0.2,0.2,0.5,0.3,0.8l5.2-4.2l-4.9,5.7
			c0,0.6,0,1.2,0,1.8c0,0.2-0.1,0.5-0.1,0.7l-0.1,0.3l-0.1,0.3l-0.1,0.3c0,0.1-0.1,0.2-0.1,0.3l-0.1,0.3L223,25
			c-0.1,0.1-0.1,0.2-0.1,0.3l-0.1,0.2c-0.1,0.2-0.2,0.3-0.3,0.6c-0.2,0.3-0.6,0.7-0.9,1c-0.3,0.3-0.7,0.7-1,0.9
			c-0.2,0.1-0.5,0.4-0.8,0.5l-1.9,2c0.3,0.1,0.4,0.2,0.5,0.3c0.4,0.4,0.3,1.3-0.2,1.6c-1,0.9-12.6,11.9-12.6,11.9L207.1,37.3z
			 M231,28.5c1.7,1.2,1.7,4.2-0.1,6.8c-1.8,2.5-4.6,3.6-6.3,2.4c-1.7-1.2-1.7-4.2,0.1-6.8C226.5,28.4,229.3,27.3,231,28.5z
			 M216.1,48.4c-1.8,2.5-4.6,3.6-6.3,2.4c-1.7-1.2-1.7-4.2,0.1-6.8c1.8-2.5,4.6-3.6,6.3-2.4C218,42.9,217.9,45.9,216.1,48.4z
			 M202.4,55.2c-0.2,0-0.5-0.1-0.7-0.2c-0.1-0.2-0.2-0.5-0.2-0.7l1.9-8.6c-0.1,0.6-1.2,7.3-0.6,8.2c0.5,0.9,5.9,0.8,6.2,0.8
			L202.4,55.2z M216.4,52.3c-0.3,0.2-0.8,0.6-1.2,0.8c-0.5,0.2-0.8,0.5-1.3,0.6l-0.3,0.1l-0.3,0.1c-0.2,0-0.5,0.1-0.7,0.1h-0.7
			c-0.2,0-0.5,0-0.7-0.1c-0.5-0.1-0.9-0.3-1.4-0.6c-0.3-0.2-0.7-0.6-1-1c-0.2-0.3-0.3-0.8-0.5-1.3c0.2,0.3,0.5,0.7,0.7,0.9
			c0.3,0.2,0.6,0.5,1,0.7c0.7,0.2,1.5,0.3,2.3,0.2s1.5-0.5,2.2-0.9c0.7-0.5,1.3-0.9,1.9-1.5c0.2-0.2,0.6-0.6,0.8-0.9l0.3-0.5
			l0.1-0.2c0-0.1,0.1-0.1,0.1-0.2c0.3-0.7,0.7-1.4,0.9-2.2c0.1-0.2,0.1-0.3,0.1-0.6c0-0.2,0.1-0.3,0.1-0.6s0.1-0.8,0.1-1.2
			s-0.1-0.8-0.2-1.2c-0.3-0.4-0.4-0.8-0.6-1.2c0.3,0.2,0.7,0.6,0.9,1c0.2,0.3,0.3,0.8,0.5,1.3c0.1,0.5,0.2,0.9,0.2,1.4
			s0,0.9-0.1,1.4c0,0.2-0.1,0.5-0.1,0.7s-0.1,0.2-0.1,0.3l-0.1,0.3l-0.1,0.3l-0.1,0.3c0,0.1-0.1,0.2-0.1,0.3l-0.1,0.3
			c0,0.1-0.1,0.2-0.1,0.3l-0.2,0.3c-0.1,0.2-0.2,0.3-0.3,0.6c-0.2,0.3-0.6,0.7-0.9,1C217.1,51.7,216.7,52.1,216.4,52.3z M217.4,54.1
			l4.1-1.4l11-11l-9.3,11.2l2.6,0.5L217.4,54.1z M249.4,50.2c0,0.1,0,0.2-0.1,0.3c-0.2,0.8-0.9,1.3-1.7,1.4l-19.2,1.4l9.7-1.7
			l-5.2-0.3l4.4-0.8c-0.3-0.1-0.5-0.2-0.8-0.4s-0.7-0.6-1-1c-0.2-0.3-0.3-0.8-0.5-1.3c0.3,0.7,0.9,1.3,1.7,1.6
			c0.7,0.2,1.5,0.3,2.3,0.2s1.5-0.5,2.2-0.9c0.7-0.5,1.3-0.9,1.9-1.5c0.2-0.3,0.6-0.6,0.8-0.9c0.1-0.1,0.2-0.3,0.3-0.5l0.1-0.2
			c0-0.1,0.1-0.1,0.1-0.2c0.5-0.7,0.7-1.4,0.9-2.2c0.1-0.2,0.1-0.3,0.1-0.6c0-0.2,0.1-0.3,0.1-0.6s0-0.8,0-1.2
			c0-0.3-0.1-0.8-0.1-1.2c-0.3-0.4-0.5-0.7-0.7-1.2c0.3,0.2,0.7,0.6,0.9,1c0.2,0.3,0.3,0.8,0.5,1.3c0.1,0.5,0.1,0.9,0.2,1.4
			c0,0.4,0,0.7,0,1s0,0.7-0.2,1.2c-0.3,1.5-0.8,2.9-1.4,4.4c0,0,3-2.1,2.7-7.5l1.9-3.4l2.4-4.9L249.4,50.2z M236.5,41
			c1.8-2.5,4.6-3.6,6.3-2.4c1.7,1.2,1.7,4.2-0.1,6.8c-1.8,2.5-4.6,3.6-6.3,2.4C234.7,46.6,234.8,43.5,236.5,41z M254.7,7.5
			L254.7,7.5L254.7,7.5l0.1,0.1c0.1,0.1,0.2,0.3,0.1,0.6l-2.4,18.4l-0.1-4.1l-6.7,7.8l-0.5-1.7l-8.8,8.2l10.9-12.5l0.5,1.3
			c1.8-2.1,2.8-4.7,2.9-7.5c-0.1,0.5-0.2,0.8-0.3,1.3c-0.6,1.6-1.5,3.1-2.8,4.3c-0.7,0.6-1.4,1-2.2,1.4c-0.8,0.5-1.7,0.7-2.5,0.8
			c-0.5,0-0.9,0-1.4,0c-0.4,0-0.8-0.1-1.2-0.2l-5.1,5c0.1,0.5,0.1,0.8,0.1,1.3c0,0.6-0.1,1-0.2,1.5c-0.1,0.5-0.3,1-0.5,1.5
			s-0.5,0.9-0.7,1.4l-0.2,0.3l-0.2,0.3l-0.2,0.3l-0.1,0.1l-0.1,0.1c-0.1,0.2-0.3,0.3-0.6,0.6l-0.2,0.2l-0.3,0.2l-0.5,0.1l-0.3,0.2
			l-0.3,0.2l-0.3,0.2c-0.5,0.2-0.9,0.5-1.4,0.6s-1,0.2-1.5,0.2c-0.2,0-0.5,0-0.7,0h-0.3c-0.1,0-0.2,0-0.3-0.1l-0.3-0.1l-0.3-0.1
			l-0.1-0.1l-0.1-0.1l-0.3-0.2c0.9,0.2,1.7,0.2,2.7,0c0.5-0.1,0.8-0.2,1.3-0.5l0.6-0.3c0.2-0.1,0.3-0.2,0.6-0.3
			c0.7-0.5,1.4-1.2,2-1.7c0.6-0.7,1-1.5,1.4-2.3c0.3-0.8,0.6-1.7,0.7-2.5c0.1-0.8,0-1.7-0.2-2.5c-0.3-0.7-0.6-1.3-1-1.9
			c-0.2-0.2-0.4-0.4-0.5-0.5c-0.2-0.2-0.5-0.4-0.9-0.5c-0.2-0.1-0.4-0.1-0.5-0.1c-0.8,0.2-1.2,0.2-1.6,0.1c0.2-0.1,0.5-0.1,0.7-0.1
			s0.5,0,0.7,0c0.1,0,0.1,0,0.2,0c0.1,0,0.1,0,0.2,0c0.1,0,0.2,0.1,0.3,0.2c0.3,0.1,0.5,0.2,0.8,0.3c0.2,0.1,0.3,0.2,0.5,0.3l4-4
			c0-0.1-0.1-0.2-0.1-0.3c0-0.1,0-0.2-0.1-0.3c0-0.2-0.1-0.5-0.1-0.6v-0.3v-0.3c0-0.2,0-0.5,0-0.6c0-0.3,0.1-0.8,0.2-1.2
			c0-0.2,0.1-0.3,0.2-0.6c0.1-0.3,0.1-0.3,0.2-0.6l0.2-0.6l0.3-0.5c-0.3,0.7-0.5,1.4-0.6,2.2c-0.1,0.7-0.1,1.5,0.1,2.2
			c0,0.2,0.1,0.3,0.1,0.6c0,0.1,0.1,0.2,0.1,0.2c0,0.1,0,0.1,0.1,0.1l0,0c0,0.1,0,0.2,0.1,0.3l0,0l0.1,0.1l0.1,0.1l0.1,0.2l0.1,0.2
			c0.5,0.6,1.2,1,1.9,1.3c0.7,0.2,1.5,0.2,2.2,0.1s1.5-0.3,2.1-0.7c1.3-0.7,2.4-1.7,3.2-3s1.4-2.7,1.5-4.2c0-0.8,0-1.5-0.2-2.2
			s-0.6-1.4-1.2-1.9c-0.6-0.5-1.3-0.9-2-1s-1.5-0.1-2.2,0c-1.1,0.3-2.4,1.1-3.4,2.2c0.6-1.1,1.5-1.9,2.6-2.5c-2.3,0.3-4.4,1-4.4,1
			l3.4-1.6l-9.4,0.5L254.7,7.5L254.7,7.5L254.7,7.5z M240.6,15.8c1.8-2.5,4.6-3.6,6.3-2.4s1.7,4.2-0.1,6.8c-1.8,2.5-4.6,3.6-6.3,2.4
			S238.9,18.4,240.6,15.8z"/>
		<path class="st0" d="M280.2,49.6c0.1-2.5-0.3-5.1-1.5-7.4l-16-31.4c0-0.1-0.1-0.1-0.1-0.2c0,0,0,0-0.1,0c-0.3,0.1-0.5,0-0.5,0.3
			l-5.2,41.7c-0.2,2.2,0.2,4.4,1.3,6.4l16.5,28.3c0.6,0.9,1.9,1.3,2.8,0.7l0,0c0.4-0.9,0.6-1.9,0.7-3L280.2,49.6z M272.6,54.1
			l0.2,0.2l0.2,0.2l0.2,0.2c0.1,0.1,0.2,0.3,0.5,0.5c0.5,0.7,0.9,1.4,1.3,2.2c0.7,1.6,1,3.2,1.2,5c0,0.5,0,0.9,0,1.3
			c0,0.5,0,0.8-0.1,1.3c-0.1,0.9-0.3,1.7-0.7,2.5c-0.2,0.5-0.3,0.8-0.7,1.2c-0.1,0.2-0.3,0.3-0.5,0.6c-0.2,0.1-0.3,0.3-0.6,0.5
			c-0.5,0.2-0.9,0.3-1.4,0.2s-0.8-0.3-1.2-0.7c0.3,0.2,0.7,0.3,1.2,0.5h0.3l0.3-0.1c0.2-0.1,0.3-0.1,0.6-0.2
			c0.3-0.2,0.6-0.6,0.8-0.9c0.2-0.3,0.3-0.8,0.5-1.2c0.2-0.8,0.5-1.6,0.5-2.4c0.1-0.8,0.1-1.6,0-2.4c-0.1-1.6-0.5-3.2-0.9-4.9
			c-0.2-0.8-0.6-1.5-1-2.2s-0.9-1.3-1.5-1.9c0.2,0.1,0.3,0.2,0.6,0.3C272.5,54,272.6,54,272.6,54.1z M268.9,62
			c-0.2-1.5-0.3-3.1-0.1-4.7c0.2-1.5,0.8-2.3,1.5-2.5c0.7-0.1,1.4,0.6,2.1,1.9c0.7,1.4,1.2,2.9,1.4,4.5c0.4,2,0.4,3.9-0.1,5.8
			c-0.4,0.8-0.7,1.3-1.3,1.4C270.9,68.6,269.5,65.2,268.9,62z M270.8,34.1c0.6,1.3,0.9,2.5,1,3.9s0.1,2.8-0.2,4.1
			c-0.1,0.7-0.3,1.4-0.7,2c-0.1,0.3-0.3,0.6-0.6,0.9c-0.1,0.1-0.2,0.2-0.3,0.3s-0.2,0.2-0.5,0.3c0.5-0.5,0.8-1,1-1.7
			c0.2-0.6,0.3-1.3,0.5-2c0.1-1.3,0.1-2.7,0-3.9c-0.1-1.3-0.5-2.5-0.8-3.8c-0.4-1.1-1.1-2.3-1.9-3.2c0.6,0.3,1,0.8,1.5,1.4
			S270.6,33.6,270.8,34.1z M263.7,19.4c0-0.2,0.2-0.5,0.5-0.5c0.2,0.1,0.4,0.2,0.4,0.4c1.4,2.7,3,5.9,4.6,9.2l-4.4-5.9l-3,11.6
			L263.7,19.4z M260.5,57.6c-0.9-1.6-1.3-3.5-1-5.2l0.4-4.3c0.3,2.1,0.8,5.3,0.9,6.6c0.2,1.7,3.8,9.7,4.7,11.5l0.2,0.3
			c0,0-0.1-0.1-0.2-0.3L260.5,57.6z M264.5,38.3c-0.5-2.9-0.3-5.6,0.5-6.6c0.2-0.2,0.4-0.4,0.9-0.6c1.6-0.1,3.1,3.2,3.7,6.6
			c0.5,1.9,0.5,3.8,0,5.7c-0.2,0.3-0.3,0.7-0.5,0.9c-0.2,0.4-0.6,0.6-0.9,0.6C266.6,45,265.1,41.7,264.5,38.3z M275.8,83L275.8,83
			l-0.2,0.2c-0.1,0-0.2,0-0.2-0.1L268,70.4l6.8,9.5l1.9-11.1L275.8,83z"/>
		<path class="st0" d="M264,87.8c0.2-0.3,0.3-0.6,0.3-1C264.3,87.2,264.1,87.5,264,87.8z"/>
		<path class="st0" d="M225.3,75.7c-0.2,0.2-0.4,0.4-0.6,0.5c1.2-0.4,1.6-1.7,1.8-2.5C226.3,74.5,225.9,75.2,225.3,75.7z"/>
	</g>
</g>
</svg>
