<?xml version="1.0" encoding="utf-8"?>
<!-- Generator: Adobe Illustrator 26.0.3, SVG Export Plug-In . SVG Version: 6.00 Build 0)  -->
<svg version="1.1" id="Слой_1" xmlns="http://www.w3.org/2000/svg" xmlns:xlink="http://www.w3.org/1999/xlink" x="0px" y="0px"
	 viewBox="0 0 368.5 99.2" style="enable-background:new 0 0 368.5 99.2;" xml:space="preserve">
<style type="text/css">
	.st0{fill:#111827;}
</style>
<g>
	<path class="st0" d="M275.2,56c0-0.1-0.1-0.1-0.2-0.2c-0.1-0.1-0.1-0.1-0.2-0.1c-4.8-1.2-8.6-5-9.8-9.8c-0.1-0.3-0.1-0.6-0.2-0.9
		c-0.1-0.6-0.1-1.2-0.1-1.8c0-1.2,0.2-2.4,0.6-3.5c0.1-0.3,0.2-0.6,0.3-0.8c0.2-0.6,0.5-1.1,0.8-1.6c0.9-1.6,2.1-2.9,3.5-4
		c0.1-0.1,0.2-0.2,0.3-0.4c0-0.2,0-0.3-0.1-0.5l-1.3-1.8c-0.4-0.6-0.9-1.2-1.3-1.7c-2.8-3.6-5.8-7-9-10.3l0,0l0,0
		c-0.1-0.1-0.2-0.1-0.3-0.2h-0.1c-0.2,0-0.4,0.1-0.5,0.2c-0.8,1-1.7,1.8-2.7,2.5c-0.8,0.6-1.8,1.1-2.7,1.5l-0.5,0.2
		c-1,0.3-2,0.5-3,0.6c-2.7,0.1-5.3-0.5-7.7-1.8c-0.7-0.4-1.4-0.9-2.1-1.4c-1.9-1.6-3.3-3.7-4.2-6c0-0.2,0-0.4,0-0.5
		c0.1-0.2,0-0.5-0.2-0.6c-0.2-0.2-0.4-0.2-0.6-0.1l-4.4,1.3c-4,1-7.9,2.4-11.8,3.9c-0.2,0.1-0.3,0.3-0.4,0.6l0,0l0,0
		c0,0.1,0,0.1,0,0.2c0.3,0.8,0.6,1.6,0.8,2.5c0.1,0.4,0.2,0.8,0.2,1.2s0.1,0.6,0.1,0.9s0,0.6,0.1,0.9c0,1.4-0.1,2.7-0.5,4l-0.2,0.5
		c-0.3,1-0.8,1.9-1.3,2.8c-0.2,0.3-0.5,0.7-0.8,1c-0.2,0.2-0.4,0.4-0.6,0.6c-0.3,0.3-0.7,0.5-1.1,0.8c-0.5,0.3-1.1,0.6-1.7,0.8
		l-0.5,0.2c-2.2,0.6-4.5,0.7-6.7,0.4c-0.7-0.1-1.3-0.2-1.9-0.4c-0.3-0.1-0.7,0.1-0.8,0.4c-0.8,1.9-1.4,3.9-2,5.8
		c-0.8,2.6-1.5,5.2-2,7.8c-0.1,0.7-0.3,1.3-0.4,2c0,0.2,0,0.3,0.1,0.5c0.1,0.1,0.3,0.2,0.4,0.3c2.4,0.4,4.7,1.1,6.8,2.1
		c1,0.5,2,1.1,2.8,1.8c0.2,0.2,0.3,0.3,0.5,0.5c0.3,0.3,0.5,0.7,0.7,1.1c0.1,0.2,0.2,0.4,0.2,0.6c0.1,0.3,0.2,0.7,0.2,1.1
		c0,0.7,0,1.5-0.1,2.2c-0.6,3.4-2.5,6.6-5.2,8.8c-0.1,0.1-0.2,0.3-0.2,0.4c0,0.2,0,0.3,0.1,0.5c0.7,0.9,1.4,1.7,2.2,2.6
		c2.6,2.8,5.4,5.3,8.4,7.6c0.1,0.1,0.2,0.1,0.2,0.1h0.1h0.1c0.2,0,0.3-0.1,0.4-0.3c0.2-0.3,0.4-0.5,0.6-0.8c0.2-0.2,0.4-0.5,0.6-0.7
		l0.1-0.1c0.4-0.4,0.9-0.7,1.4-1c0.4-0.2,0.8-0.5,1.2-0.7s0.8-0.4,1.2-0.6l0.8-0.3c1.4-0.6,2.9-1,4.5-0.9c0.8,0.1,1.7,0.4,2.4,0.8
		c0.6,0.3,1.2,0.8,1.7,1.2c0.6,0.5,1.1,1.1,1.5,1.7c0.3,0.5,0.6,1,0.9,1.5c0.2,0.3,0.3,0.7,0.5,1s0.3,0.7,0.4,1.1
		c0.3,0.9,0.5,1.8,0.5,2.8c0,0.3,0.2,0.5,0.4,0.6c0.1,0,0.2,0,0.2,0l0,0c1.9,0,3.8-0.2,5.8-0.3l1.9-0.2c2.6-0.3,5.3-0.8,8-1.3
		c0.1,0,0.1,0,0.2-0.1c0.1,0,0.1-0.1,0.1-0.1c0.1-0.1,0.2-0.2,0.2-0.4c0.1-0.5,0.1-1,0.2-1.6c0.1-0.9,0.2-1.8,0.3-2.7
		c0.2-1.4,0.5-2.8,1-4.2c0.2-0.5,0.4-1,0.7-1.5c0.4-0.8,0.9-1.4,1.5-2.1c0.2-0.2,0.5-0.5,0.7-0.7l0.4-0.3c0.2-0.2,0.5-0.4,0.8-0.5
		c0.4-0.2,0.8-0.4,1.2-0.6c0.6-0.2,1.2-0.3,1.8-0.4c0.6-0.1,1.2-0.1,1.9,0l0.6,0.1c0.4,0.1,0.8,0.2,1.3,0.3l0.6,0.2
		c0.9,0.3,1.7,0.6,2.6,0.9l0.6,0.3l0.7,0.3c0.1,0,0.1,0,0.2,0c0.2,0,0.5-0.1,0.6-0.3c1-1.7,1.9-3.4,2.8-5.2c0.9-1.8,1.6-3.7,2.4-5.7
		c0.5-1.3,0.9-2.6,1.3-3.9C275.2,56.2,275.2,56.1,275.2,56C275.2,56,275.2,56,275.2,56z M228.2,48.4c0.7-3.3,2.7-6.3,5.5-8.2
		c2.9-1.9,6.5-2.2,9.6-0.8c3.7,2,6.1,5.9,6.2,10.1c0.1,4.8-2.9,9.2-7.4,10.8c-4.6,1.4-9.6-0.2-12.5-4c-0.8-1.1-1.4-2.3-1.7-3.7
		C227.7,51.2,227.8,49.8,228.2,48.4L228.2,48.4z"/>
	<path class="st0" d="M152.2,14.1h16l-4.5,21.5l11.1,7.4l-4.4,20.8l-25-17.5L152.2,14.1z M183.7,13.2h16.1L184.4,86l-13.1-14.4
		L183.7,13.2z"/>
	<path class="st0" d="M100.2,14.1h16l-4.5,21.5l11.1,7.4l-4.4,20.8l-25-17.5L100.2,14.1z M131.7,13.2h16.1L132.4,86l-13.1-14.4
		L131.7,13.2z"/>
</g>
</svg>
