<?xml version="1.0" encoding="utf-8"?>
<!-- Generator: Adobe Illustrator 26.0.3, SVG Export Plug-In . SVG Version: 6.00 Build 0)  -->
<svg version="1.1" id="Слой_1" xmlns="http://www.w3.org/2000/svg" xmlns:xlink="http://www.w3.org/1999/xlink" x="0px" y="0px"
	 viewBox="0 0 368.5 100" style="enable-background:new 0 0 368.5 100;" xml:space="preserve">
<style type="text/css">
	.st0{fill:#111827;}
	.st1{fill:#FFFFFF;}
	.st2{fill:#8CBF4C;}
</style>
<g>
	<path class="st0" d="M94-100.6h17.4l-4.9,23.3l12,8l-4.7,22.6L86.6-65.5L94-100.6z M128.3-101.5h17.5l-16.8,79L114.9-38
		L128.3-101.5z"/>
	<path class="st0" d="M150.4-100.6h17.4l-4.9,23.3l12,8L170-46.6l-27.1-18.9L150.4-100.6z M184.7-101.5h17.5l-16.8,79L171.3-38
		L184.7-101.5z"/>
	<g>
		<path class="st0" d="M275.3-25.8c-0.7-0.2-1.3-0.7-1.6-1.4l-16.5-28.3c-1.3-2.1-1.7-4.6-1.4-7.1l5.2-41.7c0.1-0.5,0.4-0.9,0.8-1.1
			c-1.1-1.5-2.7-2.6-4.3-3.2c0.2,0.3,0.3,0.7,0.4,1c0.1,0.3,0.1,0.7,0,1l-5.7,41.9c-0.1,0.6-0.1,0.9-0.2,1.1
			c-0.6,1.9-2.3,3.2-4.3,3.4L202.5-57c-1.4,0.1-2.5-0.5-3.2-1.5v0.2h0.2c-0.6,3,0,6.1,1.7,8.6c-0.2-1.2,0.3-2.6,1.3-3.4
			c0.5-0.3,1.2-0.6,1.7-0.7l42.7-3.5c3.1-0.2,6.1,1.3,7.8,3.9l6.3,10.5c-0.3-0.7-0.6-1.4-0.9-2.1c1.1,1.4,2.2,2.9,3.2,4.4
			c-0.9-1.7-1.7-3.3-2.3-5c0.9,1.1,1.8,2.3,2.6,3.5c-0.7-1.3-1.3-2.7-1.8-4c1.2,1.5,2.3,3,3.4,4.6c1,1.6,2.1,3.1,3,4.7
			s1.9,3.2,2.8,4.9c0.9,1.7,1.7,3.5,2.4,5.2c-1-1.2-1.8-2.4-2.7-3.7c0.7,1.4,1.4,2.8,1.9,4.2c-1.1-1.4-2.2-2.8-3.2-4.3
			c0.9,1.6,1.6,3.1,2.3,4.8c-0.5-0.6-0.9-1.2-1.4-1.8l1.7,2.8c0.4,0.9,0.5,1.9,0.3,2.8v0.1c2-0.7,3.6-2.1,4.7-4
			C276.4-25.6,275.9-25.6,275.3-25.8z"/>
		<path class="st0" d="M231.6-20.4l37.5-0.8c0.2,0,0.5,0,0.7,0c0.4-0.1,0.8-0.4,1.1-0.8c0.3-0.7,0.2-1.5-0.1-2.1l-17.1-28.6
			c-1.4-2.3-3.9-3.7-6.7-3.5l-42.7,3.5c-0.8,0.1-1.6,0.6-2,1.4c-0.2,0.1-0.2,0.1-0.2,0.2c-0.2,0.7-0.1,1.5,0.3,2.1L216-31.2l4.7,5.8
			C223.4-22.2,227.3-20.3,231.6-20.4z M234.4-43.4c0.3,0,0.7-0.1,1-0.1s0.7,0,1,0s0.7,0,1,0.1c1.2,0.2,2.4,0.5,3.4,1l2.5-11.2
			l3.1,0.1c-0.1,0-0.2,0-0.3,0c-1.6-0.2-2.5-0.2-6.4-0.5l-1.4-0.1l8.3-0.7c2.4,0.1,4.5,1.2,5.5,3l16.9,28c0.1,0.2,0.1,0.5,0.1,0.7
			c-0.1,0.2-0.5,0.2-0.7,0.2l-21.9,0.5l8.6-1.4l-5.2-0.9l5.5-0.3c-0.3-0.1-0.6-0.2-0.8-0.3l-0.5-0.2c-0.1-0.1-0.3-0.1-0.5-0.2
			c-0.1-0.1-0.6-0.3-0.9-0.5c-0.3-0.1-0.6-0.3-0.8-0.6c-0.2-0.2-0.6-0.5-0.8-0.7s-0.5-0.5-0.7-0.7s-0.5-0.5-0.6-0.8
			c0.9,0.9,2,1.6,3.2,2.2c0.6,0.2,1.2,0.6,1.9,0.8c0.6,0.2,1.3,0.3,1.9,0.5c0.7,0.1,1.3,0.2,2,0.2c0.2,0,0.4,0,0.6,0
			c0.8-0.1,1.7-0.3,2.6-0.6c0.2-0.1,0.4-0.3,0.6-0.5c0.5-0.5,0.8-1,0.9-1.7s0-1.3-0.2-2c-0.2-0.6-0.6-1.2-1-1.6
			c-0.5-0.5-0.9-0.9-1.4-1.4c-0.6-0.3-1-0.8-1.6-1c-1.2-0.6-2.4-1-3.6-1.4c-1.4-0.5-2.8-0.5-4-0.4c0.3-0.1,0.6-0.2,0.9-0.2
			c0.3-0.1,0.7-0.1,1-0.1s0.7,0,1,0s0.7,0,1,0.1c1.4,0.2,2.7,0.6,3.9,1.2c0.7,0.3,1.3,0.7,1.9,1c0.3,0.2,0.5,0.4,0.8,0.6
			c-0.1-0.2-0.2-0.4-0.4-0.6l-3.2-2.4l0.3-2.1c-1.5-3-3.3-5.9-5.1-8.7l-0.6,3.7l-4.3,3.3l2.3-10.9c-0.4-0.5-0.9-1-1.5-1.4l-2.9,12.8
			c-0.6-0.8-1.4-1.5-2.2-2.1c2.3,3.7,2,4.7,1.6,4.9c0.1,0.5,0.1,0.9-0.1,1.4c-0.2,1.2-1,2.2-1.9,2.9l0.2-0.1l-2.5,9.2l-2.9,0.1
			l2.3-8.4c-0.3,0-0.6,0-1,0c-0.3,0-0.7,0-1-0.1l-0.6-0.1l-0.5-0.1l-0.5-0.1l-0.5-0.1c-0.3-0.1-0.7-0.2-0.9-0.3
			c-0.1,0-0.3-0.1-0.5-0.2l-0.1-0.2c-0.3-0.2-0.6-0.3-0.9-0.5c-0.3-0.1-0.6-0.3-0.8-0.6c-0.2-0.3-0.6-0.5-0.8-0.7s-0.5-0.5-0.7-0.7
			s-0.5-0.5-0.6-0.8c0.9,0.9,2,1.6,3.2,2.2c0.6,0.2,1.2,0.6,1.9,0.7c0.6,0.2,1.3,0.3,1.9,0.5c0.7,0.1,1.3,0.2,2,0.2s1.3-0.1,2-0.2
			c0.1-0.1,0.3-0.1,0.5-0.2s0.3-0.1,0.5-0.2s0.6-0.3,0.8-0.6c0.5-0.5,0.8-1,0.9-1.7c0.1-0.7,0-1.3-0.2-2c-0.2-0.6-0.6-1.2-1-1.6
			c-0.5-0.5-0.9-0.9-1.4-1.4c-0.6-0.3-1-0.7-1.6-1c-1.2-0.6-2.3-1-3.6-1.4c-1.8-0.3-3.1-0.4-4.3-0.2
			C233.8-43.2,234.1-43.3,234.4-43.4z M240.4-47l0.6-6.9l1,0.3L240.4-47z M249.8-33.1c0.2-0.6,0.6-0.9,1.2-1.2
			c1.4-0.7,3.6-0.5,6,0.5c3.5,1.4,5.7,3.7,5.1,5.4c-0.2,0.6-0.6,0.9-1.2,1.2c-1.4,0.7-3.6,0.5-6-0.5
			C251.4-29.1,249.2-31.4,249.8-33.1z M231.5-40.3c0.2-0.6,0.6-0.9,1.2-1.2c1.4-0.7,3.6-0.5,6,0.5c3.6,1.4,5.7,3.7,5.1,5.4
			c-0.2,0.6-0.6,0.9-1.2,1.2c-1.3,0.7-3.6,0.5-6-0.5C233.1-36.3,230.9-38.6,231.5-40.3z M204-49.7c-0.2-0.2-0.2-0.6-0.1-0.9
			c0.1-0.3,0.5-0.7,0.8-0.7l20-1.3l-18.5,2.7c-0.2,0-0.3,0.2-0.3,0.5v0.1l6.1,9.8l0.2,0.3L204-49.7z M213.2-47.6
			c1.4-0.7,3.6-0.5,6,0.5c3.6,1.3,5.7,3.7,5.1,5.4c-0.2,0.6-0.6,0.9-1.2,1.2c-1.4,0.7-3.6,0.5-6-0.5c-3.5-1.4-5.6-3.7-5.1-5.4
			C212.2-47,212.6-47.3,213.2-47.6z M223.4-35c-0.4-0.1-0.7-2.2,0.1-3.1c-0.1,0-0.2,0.1-0.4,0.1c-0.8,0.2-1.5,0.2-2.3,0.2
			c-0.3,0-0.7,0-1-0.1l-0.5-0.1l-0.5-0.1l-0.5-0.1l-0.5-0.1c-0.3-0.1-0.7-0.2-0.9-0.3c-0.1-0.1-0.3-0.1-0.5-0.2l-0.5-0.2
			c-0.3-0.2-0.6-0.3-0.9-0.5c-0.3-0.2-0.6-0.3-0.8-0.6c-0.2-0.2-0.6-0.5-0.8-0.7s-0.5-0.5-0.7-0.7s-0.5-0.5-0.6-0.8
			c0.9,0.9,2.1,1.6,3.2,2.2c0.6,0.2,1.2,0.6,1.9,0.7c0.6,0.2,1.3,0.3,1.9,0.5c0.7,0.1,1.3,0.2,2,0.2s1.3-0.1,2-0.2
			c0.1,0,0.3-0.1,0.5-0.1c0.1,0,0.3-0.1,0.5-0.2s0.6-0.3,0.8-0.6c0.5-0.5,0.8-1,0.9-1.7c0.1-0.7,0-1.3-0.2-2c-0.2-0.6-0.6-1.2-1-1.6
			c-0.5-0.5-0.9-0.9-1.4-1.4c-0.6-0.3-1-0.7-1.6-1c-1.2-0.6-2.4-1-3.6-1.4c-1.4-0.5-2.7-0.6-4-0.3c0.3-0.1,0.6-0.2,0.9-0.3
			c0.3-0.1,0.7-0.1,1-0.1s0.7,0,1,0s0.7,0,1,0.1c1.4,0.2,2.7,0.6,3.9,1.2c0.7,0.3,1.3,0.7,1.9,1c0.2,0.2,0.5,0.4,0.7,0.6
			c-0.1-0.1-0.2-0.3-0.3-0.5l0.7-3.8l3.5-0.3l-1.5,9.6l1.3-0.3c0.1-0.1,0.4-0.1,0.6-0.1c0.6,0,1,0.6,0.9,1.2l-1.9,16.4
			c0.4,0.2,0.7,0.4,1.1,0.6l1.4-11.8l0.1,12.4c1,0.4,2.1,0.7,3.3,0.9c1.3,0.2,2.5,0.3,4,0.4l-5.2,0.1c-2.5,0.2-5.1-0.3-7.4-1.5
			c-1-0.7-2-1.6-2.8-2.5c-2.1-2.3-3.9-4.7-5.6-7.3c2,2.1,4.2,3.9,6.5,5.6c0.2,0.2,0.5,0.3,0.7,0.5l0.9-7.6c0.5-0.8,1-1.6,1.2-2.4
			C225.9-37.1,224.3-34.9,223.4-35z"/>
		<path class="st0" d="M253-109l-41.2,7.2c-1.3,0.2-2.4,0.9-3.2,1.8c-0.3,0.4-0.5,0.9-0.6,1.4c0,0.1-0.1,0.3-0.1,0.5L200-62.2
			l-0.2,1.2c-0.2,0.8,0,1.5,0.6,2.1s1.3,0.9,2.1,0.9l45.2-3.2c1.7-0.1,3.2-1.5,3.5-3.2l5.7-42.1c0.1-0.7-0.1-1.5-0.7-2.1
			c-0.2-0.2-0.4-0.4-0.7-0.5C254.7-109.2,253.9-109.2,253-109z M209.5-97.8c0-0.1,0-0.2,0.1-0.3c0.5-1.3,1.5-2.3,2.9-2.5l10.2-1.7
			c-0.3,0.1-10.4,2.7-11.6,4.7s-4.5,13.2-4.5,13.2L209.5-97.8z M220.3-90.7c-1.8,2.5-4.6,3.6-6.3,2.4c-1.7-1.2-1.7-4.2,0.1-6.8
			c1.8-2.5,4.6-3.6,6.3-2.4C222.2-96.2,222.1-93.2,220.3-90.7z M207.1-77.6l4.4-4.2c-0.2,0.2-0.6,0-0.8-0.3c-0.3-0.3-0.1-0.8,0.2-1
			c0.8-0.7,2.7-2.3,3.3-2.8c0,0-0.1,0-0.1-0.1c-0.3-0.2-0.7-0.6-1-1c-0.2-0.3-0.3-0.8-0.5-1.3c0.2,0.3,0.5,0.7,0.7,0.9
			c0.3,0.2,0.6,0.5,1,0.7c0.7,0.2,1.5,0.3,2.3,0.2s1.5-0.5,2.2-0.9s1.3-0.9,1.9-1.5c0.2-0.3,0.6-0.6,0.8-0.9
			c0.1-0.1,0.2-0.3,0.3-0.5l0.1-0.2c0-0.1,0.1-0.1,0.1-0.2c0.5-0.7,0.7-1.4,0.9-2.2c0.1-0.2,0.1-0.3,0.1-0.6c0-0.3,0.1-0.3,0.1-0.6
			c0-0.3,0-0.8,0-1.2c0-0.3-0.1-0.8-0.1-1.2c-0.4-0.2-0.5-0.7-0.8-1c0.3,0.2,0.7,0.6,0.9,1c0.1,0.2,0.2,0.5,0.3,0.8l5.2-4.2
			l-4.9,5.7c0,0.6,0,1.2,0,1.8c0,0.2-0.1,0.5-0.1,0.7l-0.1,0.3l-0.1,0.3l-0.1,0.3c0,0.1-0.1,0.2-0.1,0.3l-0.1,0.3l-0.1,0.3
			c-0.1,0.1-0.1,0.2-0.1,0.3l-0.1,0.2c-0.1,0.2-0.2,0.3-0.3,0.6c-0.2,0.3-0.6,0.7-0.9,1c-0.3,0.3-0.7,0.7-1,0.9
			c-0.2,0.1-0.5,0.4-0.8,0.5l-1.9,2c0.3,0.1,0.4,0.2,0.5,0.3c0.4,0.4,0.3,1.3-0.2,1.6c-1,0.9-12.6,11.9-12.6,11.9L207.1-77.6z
			 M231-86.4c1.7,1.2,1.7,4.2-0.1,6.8c-1.8,2.5-4.6,3.6-6.3,2.4s-1.7-4.2,0.1-6.8C226.5-86.5,229.3-87.6,231-86.4z M216.1-66.5
			c-1.8,2.5-4.6,3.6-6.3,2.4c-1.7-1.2-1.7-4.2,0.1-6.8c1.8-2.5,4.6-3.6,6.3-2.4C218-72,217.9-69,216.1-66.5z M202.4-59.7
			c-0.2,0-0.5-0.1-0.7-0.2c-0.1-0.2-0.2-0.5-0.2-0.7l1.9-8.6c-0.1,0.6-1.2,7.3-0.6,8.2c0.5,0.9,5.9,0.8,6.2,0.8L202.4-59.7z
			 M216.4-62.6c-0.3,0.2-0.8,0.6-1.2,0.8c-0.5,0.2-0.8,0.5-1.3,0.6l-0.3,0.1l-0.3,0.1c-0.2,0-0.5,0.1-0.7,0.1h-0.7
			c-0.2,0-0.5,0-0.7-0.1c-0.5-0.1-0.9-0.3-1.4-0.6c-0.3-0.2-0.7-0.6-1-1c-0.2-0.3-0.3-0.8-0.5-1.3c0.2,0.3,0.5,0.7,0.7,0.9
			c0.3,0.2,0.6,0.5,1,0.7c0.7,0.2,1.5,0.3,2.3,0.2s1.5-0.5,2.2-0.9c0.7-0.5,1.3-0.9,1.9-1.5c0.2-0.2,0.6-0.6,0.8-0.9l0.3-0.5
			l0.1-0.2c0-0.1,0.1-0.1,0.1-0.2c0.3-0.7,0.7-1.4,0.9-2.2c0.1-0.2,0.1-0.3,0.1-0.6c0-0.2,0.1-0.3,0.1-0.6c0-0.3,0.1-0.8,0.1-1.2
			s-0.1-0.8-0.2-1.2c-0.3-0.4-0.4-0.8-0.6-1.2c0.3,0.2,0.7,0.6,0.9,1c0.2,0.3,0.3,0.8,0.5,1.3c0.1,0.5,0.2,0.9,0.2,1.4
			s0,0.9-0.1,1.4c0,0.2-0.1,0.5-0.1,0.7c0,0.2-0.1,0.2-0.1,0.3l-0.1,0.3l-0.1,0.3l-0.1,0.3c0,0.1-0.1,0.2-0.1,0.3l-0.1,0.3
			c0,0.1-0.1,0.2-0.1,0.3l-0.2,0.3c-0.1,0.2-0.2,0.3-0.3,0.6c-0.2,0.3-0.6,0.7-0.9,1C217.1-63.2,216.7-62.8,216.4-62.6z M217.4-60.8
			l4.1-1.4l11-11L223.2-62l2.6,0.5L217.4-60.8z M249.4-64.7c0,0.1,0,0.2-0.1,0.3c-0.2,0.8-0.9,1.3-1.7,1.4l-19.2,1.4l9.7-1.7
			l-5.2-0.3l4.4-0.8c-0.3-0.1-0.5-0.2-0.8-0.4c-0.3-0.2-0.7-0.6-1-1c-0.2-0.3-0.3-0.8-0.5-1.3c0.3,0.7,0.9,1.3,1.7,1.6
			c0.7,0.2,1.5,0.3,2.3,0.2s1.5-0.5,2.2-0.9c0.7-0.5,1.3-0.9,1.9-1.5c0.2-0.3,0.6-0.6,0.8-0.9c0.1-0.1,0.2-0.3,0.3-0.5l0.1-0.2
			c0-0.1,0.1-0.1,0.1-0.2c0.5-0.7,0.7-1.4,0.9-2.2c0.1-0.2,0.1-0.3,0.1-0.6c0-0.2,0.1-0.3,0.1-0.6c0-0.3,0-0.8,0-1.2
			c0-0.3-0.1-0.8-0.1-1.2c-0.3-0.4-0.5-0.7-0.7-1.2c0.3,0.2,0.7,0.6,0.9,1c0.2,0.3,0.3,0.8,0.5,1.3c0.1,0.5,0.1,0.9,0.2,1.4
			c0,0.4,0,0.7,0,1c0,0.3,0,0.7-0.2,1.2c-0.3,1.5-0.8,2.9-1.4,4.4c0,0,3-2.1,2.7-7.5l1.9-3.4l2.4-4.9L249.4-64.7z M236.5-73.9
			c1.8-2.5,4.6-3.6,6.3-2.4s1.7,4.2-0.1,6.8c-1.8,2.5-4.6,3.6-6.3,2.4S234.8-71.4,236.5-73.9z M254.7-107.4L254.7-107.4L254.7-107.4
			l0.1,0.1c0.1,0.1,0.2,0.3,0.1,0.6l-2.4,18.4l-0.1-4.1l-6.7,7.8l-0.5-1.7l-8.8,8.2l10.9-12.5l0.5,1.3c1.8-2.1,2.8-4.7,2.9-7.5
			c-0.1,0.5-0.2,0.8-0.3,1.3c-0.6,1.6-1.5,3.1-2.8,4.3c-0.7,0.6-1.4,1-2.2,1.4c-0.8,0.5-1.7,0.7-2.5,0.8c-0.5,0-0.9,0-1.4,0
			c-0.4,0-0.8-0.1-1.2-0.2l-5.1,5c0.1,0.5,0.1,0.8,0.1,1.3c0,0.6-0.1,1-0.2,1.5c-0.1,0.5-0.3,1-0.5,1.5s-0.5,0.9-0.7,1.4l-0.2,0.3
			l-0.2,0.3l-0.2,0.3l-0.1,0.1l-0.1,0.1c-0.1,0.2-0.3,0.3-0.6,0.6l-0.2,0.2l-0.3,0.2l-0.5,0.1l-0.3,0.2l-0.3,0.2l-0.3,0.2
			c-0.5,0.2-0.9,0.5-1.4,0.6s-1,0.2-1.5,0.2c-0.2,0-0.5,0-0.7,0h-0.3c-0.1,0-0.2,0-0.3-0.1l-0.3-0.1l-0.3-0.1l-0.1-0.1l-0.1-0.1
			l-0.3-0.2c0.9,0.2,1.7,0.2,2.7,0c0.5-0.1,0.8-0.2,1.3-0.5l0.6-0.3c0.2-0.1,0.3-0.2,0.6-0.3c0.7-0.5,1.4-1.2,2-1.7
			c0.6-0.7,1-1.5,1.4-2.3c0.3-0.8,0.6-1.7,0.7-2.5c0.1-0.8,0-1.7-0.2-2.5c-0.3-0.7-0.6-1.3-1-1.9c-0.2-0.2-0.4-0.4-0.5-0.5
			c-0.2-0.2-0.5-0.4-0.9-0.5c-0.2-0.1-0.4-0.1-0.5-0.1c-0.8,0.2-1.2,0.2-1.6,0.1c0.2-0.1,0.5-0.1,0.7-0.1s0.5,0,0.7,0
			c0.1,0,0.1,0,0.2,0c0.1,0,0.1,0,0.2,0c0.1,0,0.2,0.1,0.3,0.2c0.3,0.1,0.5,0.2,0.8,0.3c0.2,0.1,0.3,0.2,0.5,0.3l4-4
			c0-0.1-0.1-0.2-0.1-0.3s0-0.2-0.1-0.3c0-0.2-0.1-0.5-0.1-0.6v-0.3v-0.3c0-0.2,0-0.5,0-0.6c0-0.3,0.1-0.8,0.2-1.2
			c0-0.2,0.1-0.3,0.2-0.6c0.1-0.3,0.1-0.3,0.2-0.6l0.2-0.6l0.3-0.5c-0.3,0.7-0.5,1.4-0.6,2.2c-0.1,0.7-0.1,1.5,0.1,2.2
			c0,0.2,0.1,0.3,0.1,0.6c0,0.1,0.1,0.2,0.1,0.2c0,0.1,0,0.1,0.1,0.1l0,0c0,0.1,0,0.2,0.1,0.3l0,0l0.1,0.1l0.1,0.1l0.1,0.2l0.1,0.2
			c0.5,0.6,1.2,1,1.9,1.3c0.7,0.2,1.5,0.2,2.2,0.1c0.7-0.1,1.5-0.3,2.1-0.7c1.3-0.7,2.4-1.7,3.2-3c0.8-1.3,1.4-2.7,1.5-4.2
			c0-0.8,0-1.5-0.2-2.2s-0.6-1.4-1.2-1.9c-0.6-0.5-1.3-0.9-2-1s-1.5-0.1-2.2,0c-1.1,0.3-2.4,1.1-3.4,2.2c0.6-1.1,1.5-1.9,2.6-2.5
			c-2.3,0.3-4.4,1-4.4,1l3.4-1.6l-9.4,0.5L254.7-107.4L254.7-107.4L254.7-107.4z M240.6-99.1c1.8-2.5,4.6-3.6,6.3-2.4
			c1.7,1.2,1.7,4.2-0.1,6.8c-1.8,2.5-4.6,3.6-6.3,2.4C238.8-93.5,238.9-96.5,240.6-99.1z"/>
		<path class="st0" d="M280.2-65.3c0.1-2.5-0.3-5.1-1.5-7.4l-16-31.4c0-0.1-0.1-0.1-0.1-0.2c0,0,0,0-0.1,0c-0.3,0.1-0.5,0-0.5,0.3
			l-5.2,41.7c-0.2,2.2,0.2,4.4,1.3,6.4l16.5,28.3c0.6,0.9,1.9,1.3,2.8,0.7l0,0c0.4-0.9,0.6-1.9,0.7-3L280.2-65.3z M272.6-60.8
			l0.2,0.2l0.2,0.2l0.2,0.2c0.1,0.1,0.2,0.3,0.5,0.5c0.5,0.7,0.9,1.4,1.3,2.2c0.7,1.6,1,3.2,1.2,5c0,0.5,0,0.9,0,1.3
			c0,0.5,0,0.8-0.1,1.3c-0.1,0.9-0.3,1.7-0.7,2.5c-0.2,0.5-0.3,0.8-0.7,1.2c-0.1,0.2-0.3,0.3-0.5,0.6c-0.2,0.1-0.3,0.3-0.6,0.5
			c-0.5,0.2-0.9,0.3-1.4,0.2s-0.8-0.3-1.2-0.7c0.3,0.2,0.7,0.3,1.2,0.5h0.3l0.3-0.1c0.2-0.1,0.3-0.1,0.6-0.2
			c0.3-0.2,0.6-0.6,0.8-0.9c0.2-0.3,0.3-0.8,0.5-1.2c0.2-0.8,0.5-1.6,0.5-2.4c0.1-0.8,0.1-1.6,0-2.4c-0.1-1.6-0.5-3.2-0.9-4.9
			c-0.2-0.8-0.6-1.5-1-2.2s-0.9-1.3-1.5-1.9c0.2,0.1,0.3,0.2,0.6,0.3C272.5-60.9,272.6-60.9,272.6-60.8z M268.9-52.9
			c-0.2-1.5-0.3-3.1-0.1-4.7c0.2-1.5,0.8-2.3,1.5-2.5c0.7-0.1,1.4,0.6,2.1,1.9c0.7,1.4,1.2,2.9,1.4,4.5c0.4,2,0.4,3.9-0.1,5.8
			c-0.4,0.8-0.7,1.3-1.3,1.4C270.9-46.3,269.5-49.7,268.9-52.9z M270.8-80.8c0.6,1.3,0.9,2.5,1,3.9s0.1,2.8-0.2,4.1
			c-0.1,0.7-0.3,1.4-0.7,2c-0.1,0.3-0.3,0.6-0.6,0.9c-0.1,0.1-0.2,0.2-0.3,0.3s-0.2,0.2-0.5,0.3c0.5-0.5,0.8-1,1-1.7
			c0.2-0.6,0.3-1.3,0.5-2c0.1-1.3,0.1-2.7,0-3.9c-0.1-1.3-0.5-2.5-0.8-3.8c-0.4-1.1-1.1-2.3-1.9-3.2c0.6,0.3,1,0.8,1.5,1.4
			C270.3-81.9,270.6-81.3,270.8-80.8z M263.7-95.5c0-0.2,0.2-0.5,0.5-0.5c0.2,0.1,0.4,0.2,0.4,0.4c1.4,2.7,3,5.9,4.6,9.2l-4.4-5.9
			l-3,11.6L263.7-95.5z M260.5-57.3c-0.9-1.6-1.3-3.5-1-5.2l0.4-4.3c0.3,2.1,0.8,5.3,0.9,6.6c0.2,1.7,3.8,9.7,4.7,11.5l0.2,0.3
			c0,0-0.1-0.1-0.2-0.3L260.5-57.3z M264.5-76.6c-0.5-2.9-0.3-5.6,0.5-6.6c0.2-0.2,0.4-0.4,0.9-0.6c1.6-0.1,3.1,3.2,3.7,6.6
			c0.5,1.9,0.5,3.8,0,5.7c-0.2,0.3-0.3,0.7-0.5,0.9c-0.2,0.4-0.6,0.6-0.9,0.6C266.6-69.9,265.1-73.2,264.5-76.6z M275.8-31.9
			L275.8-31.9l-0.2,0.2c-0.1,0-0.2,0-0.2-0.1L268-44.5l6.8,9.5l1.9-11.1L275.8-31.9z"/>
		<path class="st0" d="M264-27.1c0.2-0.3,0.3-0.6,0.3-1C264.3-27.7,264.1-27.4,264-27.1z"/>
		<path class="st0" d="M225.3-39.2c-0.2,0.2-0.4,0.4-0.6,0.5c1.2-0.4,1.6-1.7,1.8-2.5C226.3-40.4,225.9-39.7,225.3-39.2z"/>
	</g>
</g>
<g>
	<g>
		<g>
			<g>
				<g>
					<g>
						<g>
							<path class="st1" d="M116,27.9c0.1-0.2,0.1-0.3,0.2-0.5c0-0.1,0-0.1,0-0.2c0-0.1-0.1-0.1-0.1-0.1c-0.1,0-0.1,0-0.2,0
								c-0.1,0-0.1,0.1-0.1,0.1c-0.1,0.2-0.1,0.3-0.2,0.5c0,0,0,0.1,0,0.1c0,0,0,0.1,0,0.1c0,0.1,0.1,0.1,0.1,0.1c0.1,0,0.1,0,0.2,0
								C116,28,116,28,116,27.9L116,27.9z"/>
						</g>
						<g>
							<path class="st1" d="M115,34.1c-0.1-1.6,0.2-3.2,0.6-4.7c0.1-0.3-0.4-0.4-0.5-0.1c-0.4,1.6-0.7,3.2-0.6,4.8
								C114.5,34.4,115,34.4,115,34.1L115,34.1z"/>
						</g>
					</g>
				</g>
			</g>
			<g>
				<g>
					<path class="st1" d="M133.8,22.2c0.1,0.2,0.4,0.3,0.6,0.2c2.1-1,4.5-1.6,7.1-1.6c2.4,0,4.7,0.5,6.8,1.5c0.2,0.1,0.5,0,0.6-0.2
						c2-3.4,4-6.8,5.9-10.3c0-0.1,0.1-0.1,0.1-0.2c-4-2.1-8.5-3.3-13.3-3.3c-4.8,0-9.3,1.2-13.3,3.2c-0.2,0.1-0.3,0.4-0.2,0.6
						c0.4,0.8,0.9,1.6,1.3,2.3C130.9,17.1,132.3,19.6,133.8,22.2z"/>
					<circle class="st1" cx="141.2" cy="8.7" r="5"/>
					<g>
						<g>
							<path class="st1" d="M135.9,10.6c0.2,0,0.4,0,0.6-0.1c0.1,0,0.1,0,0.2-0.1c0,0,0.1-0.1,0.1-0.2c0-0.1,0-0.1-0.1-0.2
								c0,0-0.1-0.1-0.2-0.1c-0.2,0-0.4,0-0.6,0.1c0,0-0.1,0-0.1,0c0,0-0.1,0-0.1,0.1c0,0-0.1,0.1-0.1,0.2c0,0.1,0,0.1,0.1,0.2
								C135.7,10.5,135.8,10.6,135.9,10.6L135.9,10.6z"/>
						</g>
						<g>
							<path class="st1" d="M129.9,12.5c1.3-0.9,2.9-1.4,4.4-1.7c0.3-0.1,0.2-0.6-0.1-0.5c-1.6,0.3-3.2,0.8-4.6,1.7
								C129.4,12.2,129.7,12.7,129.9,12.5L129.9,12.5z"/>
						</g>
					</g>
				</g>
			</g>
			<g>
				<g>
					<path class="st1" d="M150.3,23.4c4.1,2.7,6.9,7.1,7.4,12.3c0,0.2,0.2,0.4,0.5,0.4h7.8c0.6,0.2,0.9,0.1,1,0
						c0.7-0.4,1-1.7,0.4-3.3c0.2-0.3,0.6-0.8,1.1-1.4c0.5-0.5,0.7-0.6,0.8-1c0.3-0.8-0.3-1.6-0.5-1.9c-1.2-1.9-0.4-2.2-2.6-6.1
						c-4-7.1-8.7-9.7-9.7-9.7c-0.4,0-0.6,0.2-0.6,0.2c-0.2,0.4-0.5,0.8-0.7,1.3c-1.7,2.9-3.4,5.8-5.1,8.7
						C150,22.9,150.1,23.2,150.3,23.4z"/>
					<ellipse transform="matrix(0.2323 -0.9727 0.9727 0.2323 106.3881 178.8117)" class="st1" cx="166.5" cy="22" rx="5" ry="5"/>
					<g>
						<g>
							<path class="st1" d="M161.3,19.1c0.1,0.2,0.2,0.3,0.3,0.5c0,0.1,0.1,0.1,0.2,0.1c0.1,0,0.1,0,0.2,0c0.1,0,0.1-0.1,0.1-0.2
								c0-0.1,0-0.1,0-0.2c-0.1-0.2-0.2-0.3-0.3-0.5c0,0,0-0.1-0.1-0.1c0,0-0.1,0-0.1,0c-0.1,0-0.1,0-0.2,0c-0.1,0-0.1,0.1-0.1,0.2
								C161.2,19,161.2,19.1,161.3,19.1L161.3,19.1z"/>
						</g>
						<g>
							<path class="st1" d="M156.7,14.9c1.4,0.8,2.6,1.9,3.6,3.1c0.2,0.2,0.6-0.1,0.4-0.4c-1.1-1.2-2.3-2.4-3.7-3.1
								C156.7,14.3,156.4,14.7,156.7,14.9L156.7,14.9z"/>
						</g>
					</g>
				</g>
			</g>
			<g>
				<g>
					<path class="st1" d="M149.4,51.8c-0.1-0.2-0.4-0.3-0.6-0.2c-2.1,1-4.5,1.6-7,1.6c-2.7,0-5.2-0.7-7.5-1.8
						c-0.2-0.1-0.5,0-0.6,0.2c-1.9,3.3-3.8,6.5-5.7,9.8c-0.1,0.2-0.1,0.5,0.2,0.6c4.1,2.2,8.7,3.5,13.7,3.5c4.7,0,9.1-1.1,13-3.1
						c0.2-0.1,0.3-0.4,0.2-0.6c-0.2-0.3-0.4-0.7-0.6-1C152.8,57.7,151.1,54.7,149.4,51.8z"/>
					<ellipse transform="matrix(0.2323 -0.9727 0.9727 0.2323 45.2699 187.7216)" class="st1" cx="141.5" cy="65.2" rx="5" ry="5"/>
				</g>
			</g>
			<g>
				<g>
					<path class="st1" d="M164.5,37.6h-6.3c-0.2,0-0.4,0.2-0.5,0.4c-0.3,5.2-3.1,9.8-7.2,12.6c-0.2,0.1-0.3,0.4-0.1,0.6
						c1.9,3.3,3.8,6.6,5.7,9.9c0.1,0.2,0.4,0.1,0.6,0.2c4.4,0.7,8.8-7.2,10-9.3c0.2-0.4,0.7-1.2,1.1-2.3c0.7-1.7,1.1-2.7,1.1-4.1
						c0-1,0-3.1-1.3-4.4c-0.7-0.7-1.4-0.9-1.6-1.6c-0.2-0.8,0.4-1.4,0.1-1.8C166,37.4,165.6,37.3,164.5,37.6z"/>
					<circle class="st1" cx="166.5" cy="50.9" r="5"/>
				</g>
			</g>
			<path class="st1" d="M132.7,50.6c-4.1-2.7-6.9-7.1-7.4-12.3c0-0.2-0.2-0.4-0.5-0.4H117h-3.7c-0.3,0-0.5,0.2-0.5,0.5
				c0.5,9.7,5.8,18.2,13.6,23c0.2,0.1,0.5,0.1,0.6-0.2c0.2-0.4,0.5-0.8,0.7-1.3c1.7-2.9,3.4-5.8,5.1-8.7
				C133,51,132.9,50.7,132.7,50.6z"/>
			<ellipse transform="matrix(0.2323 -0.9727 0.9727 0.2323 38.9581 153.2286)" class="st1" cx="116.5" cy="51.9" rx="5" ry="5"/>
			<g>
				<g>
					<path class="st1" d="M118.5,36.4h6.3c0.2,0,0.4-0.2,0.5-0.4c0.3-5.2,3.1-9.8,7.2-12.6c0.2-0.1,0.3-0.4,0.1-0.6
						c-1.9-3.3-3.8-6.6-5.7-9.9c-0.1-0.2-0.4-0.3-0.6-0.2c-7.8,4.9-13,13.4-13.4,23.1c0,0.3,0.2,0.5,0.5,0.5
						C115,36.3,116.8,36.4,118.5,36.4z"/>
					<circle class="st1" cx="116.5" cy="23" r="5"/>
				</g>
			</g>
		</g>
		<g>
			<g>
				<path class="st1" d="M167.3,45.4c-0.1,0.2-0.1,0.4-0.2,0.5c0,0.1,0,0.1,0,0.2c0,0.1,0.1,0.1,0.1,0.1c0.1,0,0.1,0,0.2,0
					c0.1,0,0.1-0.1,0.1-0.1c0.1-0.2,0.1-0.4,0.2-0.5c0,0,0-0.1,0-0.1c0,0,0-0.1,0-0.1c0-0.1-0.1-0.1-0.1-0.1c-0.1,0-0.1,0-0.2,0
					C167.4,45.3,167.4,45.3,167.3,45.4L167.3,45.4z"/>
			</g>
		</g>
		<g>
			<g>
				<path class="st1" d="M147.4,63.4c-0.2,0-0.4,0.1-0.6,0.1c-0.1,0-0.1,0-0.2,0.1c0,0-0.1,0.1-0.1,0.2c0,0.1,0,0.1,0.1,0.2
					c0.1,0,0.1,0.1,0.2,0.1c0.2,0,0.4-0.1,0.6-0.1c0,0,0.1,0,0.1,0c0,0,0.1,0,0.1-0.1c0,0,0.1-0.1,0.1-0.2c0-0.1,0-0.1-0.1-0.2
					C147.5,63.5,147.5,63.4,147.4,63.4L147.4,63.4z"/>
			</g>
			<g>
				<path class="st1" d="M153.1,61c-1.3,1-2.8,1.6-4.3,2.1c-0.3,0.1-0.1,0.6,0.2,0.5c1.6-0.5,3.1-1.1,4.4-2.1
					C153.7,61.2,153.4,60.8,153.1,61L153.1,61z"/>
			</g>
		</g>
		<g>
			<g>
				<path class="st1" d="M121.3,55.2c-0.1-0.1-0.2-0.3-0.3-0.5c0-0.1-0.1-0.1-0.2-0.1c-0.1,0-0.1,0-0.2,0c-0.1,0-0.1,0.1-0.1,0.2
					c0,0.1,0,0.1,0,0.2c0.1,0.2,0.2,0.3,0.3,0.5c0,0,0,0.1,0.1,0.1c0,0,0.1,0,0.1,0c0.1,0,0.1,0,0.2,0c0.1,0,0.1-0.1,0.1-0.2
					C121.4,55.3,121.4,55.2,121.3,55.2L121.3,55.2z"/>
			</g>
			<g>
				<path class="st1" d="M126,59.2c-1.4-0.7-2.7-1.8-3.7-2.9c-0.2-0.2-0.6,0.1-0.3,0.4c1.1,1.2,2.4,2.3,3.8,3
					C126.1,59.8,126.3,59.4,126,59.2L126,59.2z"/>
			</g>
		</g>
	</g>
	<g>
		<g>
			<path class="st0" d="M158,53.4H151v-2.9c-2.7,2-5.9,2.9-9.4,2.9c-4.6,0-8.5-1.6-11.7-4.8c-3.2-3.2-4.8-7.1-4.8-11.7
				c0-4.6,1.6-8.5,4.8-11.7c3.2-3.2,7.1-4.8,11.7-4.8c4.6,0,8.5,1.6,11.7,4.8c3.2,3.2,4.8,7.1,4.8,11.7V53.4z M148.2,43.5
				c1.8-1.8,2.8-4.1,2.8-6.7c0-2.6-0.9-4.8-2.8-6.7c-1.8-1.8-4.1-2.8-6.7-2.8c-2.6,0-4.8,0.9-6.7,2.8c-1.8,1.8-2.8,4.1-2.8,6.7
				c0,2.6,0.9,4.8,2.8,6.7c1.8,1.8,4.1,2.8,6.7,2.8C144.1,46.3,146.3,45.3,148.2,43.5z"/>
			<path class="st0" d="M184.9,51.3c-2.4,1.3-5.1,2-8,2c-4.6,0-8.5-1.6-11.7-4.8c-3.2-3.2-4.8-7.1-4.8-11.7c0-4.6,1.6-8.5,4.8-11.7
				c3.2-3.2,7.1-4.8,11.7-4.8c4.6,0,8.5,1.6,11.7,4.8c3.2,3.2,4.8,7.1,4.8,11.7v9.4c0,4.6-1.6,8.5-4.8,11.7
				c-3.2,3.2-7.1,4.8-11.7,4.8v-7.1c2.6,0,4.8-0.9,6.7-2.8C184.1,52.4,184.6,51.9,184.9,51.3z M176.9,27.4c-2.6,0-4.8,0.9-6.7,2.8
				c-1.8,1.8-2.8,4.1-2.8,6.7c0,2.6,0.9,4.8,2.8,6.7c1.8,1.8,4.1,2.8,6.7,2.8c2.6,0,4.8-0.9,6.7-2.8c1.8-1.8,2.8-4.1,2.8-6.7
				c0-2.6-0.9-4.8-2.8-6.7C181.8,28.3,179.5,27.4,176.9,27.4z"/>
			<path class="st0" d="M202.9,13.2v7.1h-7.1v-7.1H202.9z M202.9,22.7v30.7h-7.1V22.7H202.9z"/>
			<path class="st0" d="M212.3,13.2v40.1h-7.1V13.2H212.3z"/>
			<path class="st0" d="M238.6,42.7h8.1c-0.8,2.1-2.1,4.1-3.8,5.8c-3.2,3.2-7.1,4.8-11.7,4.8c-4.6,0-8.5-1.6-11.7-4.8
				c-3.2-3.2-4.8-7.1-4.8-11.7c0-4.6,1.6-8.5,4.8-11.7c3.2-3.2,7.1-4.8,11.7-4.8c4.6,0,8.5,1.6,11.7,4.8c3.2,3.2,4.8,7.1,4.8,11.7
				c0,1.2-0.1,2.4-0.4,3.5h-25c0.5,1.1,1.2,2.2,2.1,3.1c1.8,1.8,4.1,2.8,6.7,2.8c2.6,0,4.8-0.9,6.7-2.8
				C238.2,43.3,238.4,43,238.6,42.7z M240,33.3c-0.5-1.1-1.2-2.2-2.1-3.1c-1.8-1.8-4.1-2.8-6.7-2.8c-2.6,0-4.8,0.9-6.7,2.8
				c-0.9,0.9-1.6,2-2.1,3.1H240z"/>
		</g>
		<g>
			<g>
				<path class="st0" d="M202.9,76.3h9.4c2.6,0,4.8-0.9,6.7-2.8c1.8-1.8,2.8-4.1,2.8-6.7v-3.5h7.1v3.5c0,4.5-1.6,8.4-4.8,11.6
					c-0.5,0.5-0.9,0.9-1.4,1.3c0.5,0.4,1,0.8,1.4,1.3c3.2,3.2,4.8,7.1,4.8,11.6v3.5h-7.1v-3.5c0-2.6-0.9-4.8-2.8-6.7
					c-1.8-1.8-4.1-2.8-6.7-2.8h-9.4v12.9h-7.1v-40h7.1V76.3z"/>
				<path class="st0" d="M238.2,56.3v7.1h-7.1v-7.1H238.2z M238.2,65.7v30.6h-7.1V65.7H238.2z"/>
				<path class="st0" d="M240.5,56.3h7.1v7.1h9.4v7.1h-9.4v9.4c0,2.6,0.9,4.8,2.8,6.7c1.8,1.8,4.1,2.8,6.7,2.8v7.1
					c-4.5,0-8.4-1.6-11.6-4.8c-3.2-3.2-4.8-7.1-4.8-11.6V56.3z"/>
			</g>
		</g>
		<path class="st2" d="M169.4,37.3"/>
	</g>
</g>
</svg>
