<?xml version="1.0" encoding="utf-8"?>
<!-- Generator: Adobe Illustrator 26.0.3, SVG Export Plug-In . SVG Version: 6.00 Build 0)  -->
<svg version="1.1" id="Слой_1" xmlns="http://www.w3.org/2000/svg" xmlns:xlink="http://www.w3.org/1999/xlink" x="0px" y="0px"
	 viewBox="0 0 368.5 100" style="enable-background:new 0 0 368.5 100;" xml:space="preserve">
<style type="text/css">
	.st0{fill:#111827;}
</style>
<g>
	<path class="st0" d="M123.2,77.4c-0.4,0.1-0.9-0.1-1.6-0.6c-0.8-0.5-1.4-1-2.1-1.7c-0.6-0.5-1.2-1.3-1.6-1.9s-0.4-1-0.1-1.3
		c3-1.6,6.1-2.9,9.4-4c3.4-1.3,6.9-2.3,10.4-3.4c-1-0.9-1.4-1.6-1.3-2.2c2.2-4.2,4.7-8.2,7.4-12c2.5-3.6,5.2-7,7.9-10.4
		c2.7-3.4,5.6-6.6,8.6-10c3-3.2,6.2-6.9,9.5-10.8c-5.5,1.9-10.7,4.5-15.5,7.8c-5.6,3.8-10.9,7.9-16,12.5c-0.4,0.3-1,0.1-2.1-0.3
		c-1-0.4-2.1-0.9-3.1-1.4c-0.9-0.5-1.8-1.2-2.7-1.8c-0.8-0.6-1-1-0.8-1.4c4.9-4.4,10.1-8.4,15.7-12.1c5.2-3.4,10.7-6.2,16.5-8.4
		c5.7-2.2,11.6-3.9,17.5-4.8c6.4-1,12.7-1.3,19.1-1c0.4,0.1,0.6,0.5,0.9,1.3c0.3,0.8,0.4,1.7,0.5,2.5s0,1.7-0.1,2.5
		s-0.4,1.2-0.8,1.3c-5.1-0.3-10-0.1-15.1,0.4c-4.4,0.5-8.7,1.4-13,2.7c0.5,0.1,1,0.5,1.4,0.8c0.5,0.4,1,0.8,1.6,1.3
		c0.4,0.4,0.8,0.9,1,1.4c0.3,0.3,0.3,0.8,0.1,1.2c-3,3.5-5.8,6.9-8.4,10c-2.6,3.1-5.1,6.2-7.4,9.4c-2.3,3.1-4.5,6.2-6.6,9.5
		c-2.1,3.3-4.2,6.6-6.1,10.4c0.6-0.1,1.3-0.1,1.9-0.3l1.8-0.1c0.4,0,0.9,0.4,1.2,1.2c0.4,0.9,0.8,1.8,0.9,2.7
		c0.3,0.9,0.4,1.9,0.4,2.9s-0.3,1.4-0.6,1.4c-4.9,0.3-9.9,0.9-14.7,1.8C132.5,73.5,127.7,75.1,123.2,77.4z"/>
	<path class="st0" d="M208.6,13.5c0.3-0.3,0.6-0.1,1.3,0.4c0.6,0.5,1.2,1.2,1.6,1.8c5.3-1,10.9-1.8,16.8-2.5
		c6.4-0.6,12.7-0.9,19.1-0.8c0.4,0.1,0.8,0.6,1.4,1.6c0.6,0.9,1.2,1.9,1.7,3c0.5,0.9,0.9,1.9,1.2,3c0.3,0.9,0.3,1.4-0.1,1.4
		c-4.9-0.1-9.5-0.1-13.5-0.1s-7.7,0.3-11,0.5c-3.4,0.3-6.6,0.6-9.5,1s-5.8,1-8.7,1.6c-3.6,4.2-7.3,8.3-10.9,12.7
		c-3.6,4.4-7.1,8.8-10.4,13.5c-3.2,4.5-6.1,9.4-8.7,14.3c-2.6,4.8-4.5,9.9-6.1,15.1c-0.3,0.4-0.6,0.4-1.6-0.1s-1.8-1.2-2.6-1.8
		c-0.9-0.8-1.7-1.6-2.3-2.5s-0.9-1.6-0.8-1.9c1.4-4.2,3.2-8.2,5.3-12.1s4.5-7.8,7-11.4c2.6-3.8,5.5-7.4,8.3-11c3-3.6,6-7.1,9.1-10.7
		c-3.1,0.9-6.5,2.1-10.1,3.2c-3.6,1.2-7.5,2.6-12,3.9c-0.5,0.1-1.2,0.1-1.7-0.1c-0.9-0.3-1.8-0.6-2.7-1.2c-1-0.5-2.1-1.2-3-1.8
		c-0.9-0.6-1.8-1.4-2.6-2.2c-0.6-0.6-1.2-1.3-1.6-2.2c-0.4-0.5-0.3-1.3,0.1-1.8c3.2-0.1,6.5-0.5,9.6-1c3.4-0.6,6.8-1.4,10.4-2.3
		l11.3-2.9c3.9-1,8.1-2.1,12.3-3L208.6,13.5z"/>
	<path class="st0" d="M203.1,42.2c0.3-0.3,0.6-0.3,1.2,0c0.6,0.4,1.2,0.9,1.7,1.4c0.6,0.6,1.2,1.4,1.6,2.2c0.4,0.5,0.6,1.2,0.6,1.9
		c-0.1,0.5-0.5,1.2-0.8,1.6c-0.5,0.9-1.2,1.9-2.1,3.1l-2.6,3.9c-0.9,1.4-1.8,2.7-2.5,3.9c-0.8,1.2-1.3,2.2-1.8,3.1
		c-0.5,0.9-0.6,1.4-0.5,1.6s0.5,0,1.2-0.4c0.8-0.6,1.6-1.4,2.2-2.1c0.9-0.9,1.9-2.1,3-3.2c1-1.2,2.2-2.6,3.4-3.9
		c1.2-1.3,2.2-2.6,3.2-3.9c1-1.3,1.9-2.3,2.9-3.4c0.6-0.5,1.2-0.5,1.6-0.1s0.5,0.9,0.1,1.6c-0.8,1-1.7,2.3-2.7,3.8
		c-1,1.4-2.2,3-3.5,4.5s-2.6,3.1-3.9,4.7c-1.3,1.6-2.7,2.9-4,4.2c-1.2,1-2.3,1.9-3.6,2.9c-0.9,0.6-1.8,0.9-2.9,0.9
		c-0.5,0-1-0.3-1.6-0.4c-0.5-0.3-1-0.5-1.4-0.9s-0.8-0.8-1.2-1.2c-0.3-0.4-0.4-0.9-0.4-1.4c0.1-1.4,0.5-2.9,1-4.2
		c0.6-1.7,1.4-3.4,2.2-4.9c0.9-1.7,1.8-3.4,2.9-5.1c1-1.7,1.9-3.2,2.9-4.5c0.9-1.3,1.7-2.5,2.3-3.4C202.2,43.5,203,42.5,203.1,42.2z
		 M210.1,30.1c0.5-0.4,1.2-0.5,1.7-0.3c0.8,0.3,1.4,0.6,2.1,1.2c0.6,0.5,1,1.2,1.4,1.8c0.4,0.5,0.3,1.2-0.1,1.7
		c-0.4,0.5-0.8,1.2-1.3,1.8s-1,1.4-1.6,2.2s-1,1.6-1.4,2.3c-0.4,0.8-0.8,1.4-1,2.2c-0.1,0.3-0.4,0.3-0.9,0.1c-0.5-0.3-1-0.5-1.4-1
		c-0.5-0.5-1-1.3-1.3-1.9c-0.3-0.9-0.4-1.8-0.1-2.7c0.1-0.4,0.4-0.9,0.6-1.4c0.3-0.5,0.5-1.3,0.9-1.9c0.4-0.6,0.8-1.3,1.2-2.1
		C209.1,31.4,209.5,30.8,210.1,30.1z"/>
	<path class="st0" d="M237.4,46.9c-0.1,1.6-0.5,3-1.2,4.4c-0.6,1.4-1.6,2.9-2.3,4.2c-0.9,1.3-1.9,2.7-2.9,4
		c-0.9,1.3-1.9,2.6-2.9,3.9c-0.3,0.4-0.5,0.9-0.6,1.4c0.1,0.3,0.5,0,1.2-0.4c0.8-0.6,1.6-1.4,2.2-2.1c0.9-0.9,1.8-2.1,3-3.2
		c1.2-1.2,2.2-2.6,3.4-3.9c1.2-1.3,2.2-2.6,3.2-3.9c1-1.3,1.9-2.3,2.9-3.4c0.4-0.5,1.2-0.5,1.7-0.1s0.5,0.9,0.3,1.6
		c-0.8,1-1.7,2.3-2.9,3.8c-1.2,1.4-2.3,3-3.6,4.5c-1.3,1.6-2.6,3.1-3.9,4.7c-1.2,1.4-2.5,2.9-3.9,4.2c-1.2,1-2.3,1.9-3.6,2.9
		c-0.9,0.6-1.8,0.9-2.9,0.9c-0.5-0.1-1-0.3-1.6-0.5c-0.5-0.3-1.2-0.6-1.6-1c-0.5-0.4-0.9-0.8-1.3-1.3c-0.4-0.4-0.5-1-0.4-1.6
		c0.1-1,0.4-2.1,0.8-3c0.5-1.2,1-2.2,1.7-3.4c0.9-1.6,1.9-3,3-4.4c1-1.4,2.1-2.9,2.9-4.3c0.5-0.8,0.9-1.6,1.2-2.1s0.4-0.9,0.3-1
		s-0.5,0-1.2,0.4c-0.9,0.6-1.7,1.3-2.5,2.1c-0.9,0.9-2.1,1.9-3.2,3.2c-1.2,1.3-2.3,2.5-3.6,3.8s-2.3,2.6-3.5,3.9
		c-1.2,1.3-2.1,2.3-3,3.4c-0.9,1.6-1.7,3-2.3,4c-0.4,0.8-0.8,1.4-1.2,2.1c-0.3,0.3-0.6,0.3-1.2,0c-0.6-0.4-1.2-0.9-1.6-1.4
		c-0.5-0.6-1-1.3-1.4-2.1c-0.4-0.5-0.5-1.2-0.6-1.9c0.1-0.6,0.4-1.3,0.6-1.8c0.4-0.9,1-1.9,1.7-3.2c0.6-1.3,1.4-2.6,2.3-4
		s1.7-2.9,2.5-4.2l2.1-3.5l1.3-2.3L216,44c0.3-0.5,0.5-0.9,0.8-1.3v0.1c0.3-0.4,0.6-0.4,1.2,0c0.6,0.4,1.2,0.9,1.7,1.4
		c0.5,0.6,1,1.3,1.4,2.1c0.4,0.6,0.5,1.3,0.5,1.9c0,0.3-0.1,0.4-0.3,0.6l-0.6,0.6l-0.6,0.8c-0.1,0.1-0.3,0.3-0.4,0.4
		c-0.4,0.6-0.8,1.2-1,1.7l-0.8,1.4c1.2-1.4,2.5-2.9,3.8-4.3c1.2-1.3,2.3-2.5,3.6-3.6c1-0.9,2.1-1.8,3.4-2.6c0.8-0.5,1.7-0.8,2.7-0.8
		c0.6,0.1,1.2,0.4,1.8,0.5c0.8,0.3,1.4,0.6,2.1,1s1.2,0.9,1.7,1.4C237.1,45.7,237.4,46.2,237.4,46.9z"/>
	<path class="st0" d="M269.1,56.9c-2.5,2.7-5.1,5.3-7.9,7.7c-2.6,2.2-5.2,4.3-7.9,6.2c-0.8,1.3-1.7,2.9-2.7,4.4
		c-1,1.6-1.9,3.4-3.1,5.3c-0.8,1.4-1.6,2.6-2.1,3.6s-1,1.8-1.4,2.5c-0.4,0.6-0.8,1.2-1.3,1.7c-0.4,0.5-0.9,1-1.4,1.6
		c-1.2,0.9-2.5,1.6-3.9,1.8c-0.9,0.3-1.9,0.1-2.9-0.3c-0.8-0.4-1.4-1-1.8-1.8c-0.4-0.9-0.6-1.8-0.8-2.9c0-1,0-2.2,0.3-3.2
		s0.8-2.1,1.4-3c1.4-2.1,3.1-3.9,5.2-5.5s4.3-2.9,6.5-4.2c0.5-0.8,0.9-1.7,1.4-2.5s0.9-1.7,1.3-2.5c-0.4,0.4-0.9,0.8-1.4,1.3
		s-1.2,1-1.7,1.4s-1.2,0.8-1.7,1.2c-0.5,0.3-1,0.5-1.6,0.5c-0.5,0.1-1.2,0-1.7-0.1s-1-0.4-1.4-0.6c-1.2-0.6-2.2-1.4-3.1-2.5
		c-0.9-0.9-1.3-2.2-1.4-3.5c0.1-1.6,0.4-3,1-4.4c0.6-1.7,1.6-3.2,2.5-4.8c1-1.7,2.2-3.2,3.5-4.7s2.7-2.9,4.3-4
		c1.4-1.2,3-2.1,4.7-2.7c1.4-0.6,3.1-0.9,4.7-0.9c0.9,0,1.8,0.3,2.7,0.6c0.9,0.5,1.7,1,2.5,1.7c0.5,0.5,0.9,1.2,1.2,1.7l1.4-1.6
		c0.1-0.3,0.5-0.3,1.2,0.1c0.6,0.4,1.3,0.9,1.7,1.4c0.5,0.6,1,1.4,1.6,2.1c0.4,0.6,0.6,1.3,0.6,1.9c-0.3,0.5-0.5,0.9-0.9,1.4
		c-0.5,0.6-1.2,1.4-1.8,2.5s-1.4,1.9-2.3,3c-0.9,1-1.6,2.1-2.2,3.1c-0.1,0.4-0.4,0.6-0.6,1s-0.5,0.6-0.8,1l-0.3,0.4
		c3.1-2.3,6-4.9,8.7-7.7c2.1-2.1,4.2-4.4,6.2-6.9c0.6-0.5,1.2-0.5,1.6-0.1c0.4,0.4,0.5,0.9,0.1,1.6c-0.6,0.9-1.6,2.1-2.7,3.4
		C271.2,54.2,270.3,55.5,269.1,56.9z M234.2,88.1c0.3,0.1,0.8-0.1,1.3-0.8s1.4-1.8,2.3-3.2l2.3-3.8l-1.7,1.4c-0.6,0.5-1.3,1-1.9,1.6
		c-0.6,0.5-1.3,1.2-1.8,1.8c-0.4,0.5-0.8,1-1,1.7C233.5,87.3,233.8,87.8,234.2,88.1L234.2,88.1z M242,66.1c0.5-0.1,1.2-0.4,1.6-0.8
		c0.8-0.5,1.7-1.2,2.7-1.9c1-0.8,2.1-1.7,3.2-2.7c1.2-1,2.2-1.9,3.4-2.9l2.1-3.5c-0.5,0.1-1,0.1-1.6,0c-0.4-0.1-0.4-0.3,0-0.6
		c0.5-0.5,1-1,1.6-1.6c0.6-0.8,1.2-1.4,1.8-2.3c0.5-0.6,0.8-1.3,1-2.1c0.1-0.6,0-1-0.4-1c-1.2,0-2.3,0.5-3.2,1.3
		c-1.6,1-3,2.3-4.4,3.6c-1.6,1.4-2.9,3-4.2,4.7c-1,1.3-2.1,2.7-2.7,4.2c-0.3,0.5-0.5,1-0.8,1.7c-0.3,0.6-0.5,1.3-0.8,1.9
		c-0.1,0.5-0.3,0.9-0.1,1.4C241.2,66.1,241.4,66.3,242,66.1L242,66.1z"/>
	<path class="st0" d="M299.5,51.3l-1.8,2.1c-1.2,1.3-2.2,2.5-3.5,3.6c-1.2,1.2-2.6,2.3-4,3.2l-1.7,1c-0.5,0.4-1.2,0.6-1.8,0.6
		c-0.3,0-0.5,0-0.6,0c-0.3,0-0.4,0-0.6-0.1c-0.8,0.9-1.4,1.7-2.3,2.5c-0.8,0.8-1.7,1.6-2.6,2.1l-1.6,1c-0.6,0.5-1.3,0.9-2.1,1.3
		c-0.8,0.4-1.6,0.8-2.3,1c-0.6,0.3-1.4,0.5-2.1,0.5c-1.2,0.1-2.2-0.1-3.1-0.8c-1.2-0.6-2.2-1.6-3.1-2.5c-0.9-0.9-1.3-2.2-1.3-3.5
		c0.1-2.3,0.8-4.7,2.1-6.9c1.3-2.6,3-4.9,4.9-7.1c1.9-2.2,4.2-4,6.6-5.6c2.1-1.4,4.5-2.1,7-2.1c0.9,0,1.9,0.3,2.7,0.6
		c0.9,0.5,1.7,1,2.3,1.7c0.6,0.6,1.2,1.4,1.4,2.2c0.1,0.6,0.1,1.3,0,1.9c0.4,0.6,0.5,1.4,0.4,2.2c-0.3,1.2-0.6,2.2-1.4,3.1
		c-0.6,0.9-1.3,1.6-1.7,2.2c-0.4,0.6-0.8,1-1,1.3s-0.3,0.5-0.1,0.5c0.2,0,0.4-0.1,1-0.4c0.6-0.4,1.3-0.8,1.9-1.3
		c0.8-0.5,1.4-1.2,2.3-1.9s1.6-1.4,2.3-2.3c0.8-0.9,1.4-1.6,2.2-2.3l1.6-1.8c0.4-0.5,1.2-0.5,1.7-0.1s0.5,0.9,0.3,1.6L299.5,51.3z
		 M272.8,66.3c0.6,0.3,1.3,0.3,1.9,0c0.9-0.3,1.8-0.5,2.6-1c1-0.5,1.9-1.2,2.9-1.9c1-0.8,1.9-1.6,2.9-2.5c-0.9-0.8-1.6-1.9-1.6-3.2
		c-0.1-1.4,0.1-2.7,0.8-4c0.3-0.5,0.6-1,1-1.6c0.5-0.5,1-1,1.6-1.6s1.2-0.9,1.8-1.3c0.5-0.4,1.2-0.6,1.8-0.9
		c0.4-0.9,0.3-1.4-0.3-1.6c-1.2,0-2.3,0.5-3.2,1.3c-1.6,1-3,2.3-4.4,3.6c-1.6,1.4-2.9,3-4.3,4.7c-1,1.3-2.1,2.7-2.7,4.2
		c-0.3,0.5-0.5,1-0.8,1.6c-0.3,0.5-0.5,1-0.6,1.7c-0.1,0.5-0.3,0.9-0.1,1.4C272,65.7,272.4,66.1,272.8,66.3z"/>
	<path class="st0" d="M107.3,59.6H97V44c0-1.6-0.6-2.3-1.9-2.3s-1.9,0.8-1.9,2.3v15.5H82.9V44.3c-0.1-3.4,1.2-6.6,3.5-9.1
		c2.2-2.3,5.5-3.6,8.7-3.6c3.6-0.1,7.1,1.4,9.5,4.3c1.8,2.2,2.7,5.3,2.7,9.2L107.3,59.6L107.3,59.6z"/>
	<path class="st0" d="M95.5,12.2c3.8,0,7.4,1.4,10,4.2c2.7,2.6,4.3,6.2,4.2,10.1c0.1,3.8-1.4,7.5-4.3,10.1
		c-2.7,2.7-6.4,4.3-10.3,4.2c-3.8,0-7.5-1.4-10.1-4.2c-2.7-2.6-4.3-6.2-4.3-10.1c-0.1-3.8,1.4-7.5,4.3-10.1
		C87.8,13.6,91.6,12.1,95.5,12.2z M95.2,22.3c-1,0-2.1,0.4-2.9,1.2c-0.8,0.8-1.2,1.8-1.2,3c0,1,0.4,2.2,1.2,2.9
		c1.4,1.6,3.9,1.6,5.5,0.1l0.1-0.1c0.8-0.8,1.2-1.8,1.2-2.9c0-1-0.4-2.2-1.2-2.9C97.3,22.7,96.3,22.3,95.2,22.3L95.2,22.3z"/>
	<path class="st0" d="M112.9,37.8c0-1.3,0.5-2.6,1.4-3.6c1.8-1.9,4.9-2.1,6.9-0.1c0,0,0,0,0.1,0.1c1.8,2.1,1.8,5.3,0,7.4
		c-0.9,0.9-2.2,1.4-3.5,1.4s-2.6-0.5-3.5-1.6C113.4,40.4,112.9,39.1,112.9,37.8z"/>
	<path class="st0" d="M67.1,37.8c0-1.3,0.5-2.6,1.4-3.6c1.8-1.9,4.9-2.1,6.9-0.1c0,0,0,0,0.1,0.1c1.8,2.1,1.8,5.3,0,7.4
		C74.6,42.5,73.3,43,72,43c-1.3,0-2.6-0.5-3.5-1.6C67.7,40.4,67.1,39.1,67.1,37.8z"/>
	<path class="st0" d="M112,71.8H78.1V61.7H112C112,61.7,112,71.8,112,71.8z"/>
</g>
</svg>
