<?xml version="1.0" encoding="utf-8"?>
<!-- Generator: Adobe Illustrator 26.0.3, SVG Export Plug-In . SVG Version: 6.00 Build 0)  -->
<svg version="1.1" id="Слой_1" xmlns="http://www.w3.org/2000/svg" xmlns:xlink="http://www.w3.org/1999/xlink" x="0px" y="0px"
	 viewBox="0 0 368.5 100" style="enable-background:new 0 0 368.5 100;" xml:space="preserve">
<style type="text/css">
	.st0{fill:#111827;stroke:#111827;stroke-width:2;stroke-miterlimit:10;}
</style>
<g>
	<g>
		<path class="st0" d="M131.7,48H107c-0.4,0-0.8-0.2-1-0.6c-0.1-0.4-0.1-0.8,0.2-1.2l23-22.9H107c-0.6,0-1-0.5-1-1c0-0.6,0.5-1,1-1
			h24.7c0.4,0,0.8,0.2,1,0.6c0.1,0.4,0.1,0.8-0.2,1.2l-23,22.9h22.2c0.3,0,0.5,0.1,0.7,0.3s0.3,0.4,0.3,0.7
			C132.7,47.5,132.3,48,131.7,48L131.7,48z M116.3,17.1c-0.6,0-1-0.5-1-1V9.9c0-0.6,0.5-1,1-1h6.2c0.3,0,0.5,0.1,0.7,0.3
			s0.3,0.4,0.3,0.7v6.2c0,0.3-0.1,0.5-0.3,0.7s-0.4,0.3-0.7,0.3C122.5,17.1,116.3,17.1,116.3,17.1z M117.3,15.1h4.1V11h-4.1V15.1z"
			/>
		<path class="st0" d="M162.6,48h-24.7c-0.3,0-0.5-0.1-0.7-0.3s-0.3-0.4-0.3-0.7V22.3c0-0.6,0.5-1,1-1h24.7c0.6,0,1,0.5,1,1V47
			c0,0.3-0.1,0.5-0.3,0.7C163.2,47.9,162.9,48,162.6,48z M139,45.9h22.6V23.3H139V45.9z M150.3,17.1c-0.3,0-0.6-0.1-0.8-0.3
			c-0.4-0.4-0.4-1.1,0-1.5l6.2-6.2c0.4-0.4,1.1-0.4,1.5,0s0.4,1.1,0,1.5l-6.2,6.2C150.8,17,150.6,17.1,150.3,17.1z"/>
		<path class="st0" d="M168.8,41.8c-0.3,0-0.5-0.1-0.8-0.3c-0.4-0.4-0.4-1.1,0-1.5l12.3-12.3c0.3-0.4,0.9-0.5,1.3-0.2
			c0.1,0.1,0.1,0.1,0.2,0.2c0.4,0.4,0.4,1.1,0,1.5l-12.2,12.3C169.3,41.7,169.1,41.8,168.8,41.8z M181.1,54.1h-6.2c-0.6,0-1-0.5-1-1
			v-36h-5.1c-0.6,0-1-0.5-1-1c0-0.6,0.5-1,1-1h6.2c0.6,0,1,0.5,1,1v36h5.1c0.3,0,0.5,0.1,0.7,0.3s0.3,0.4,0.3,0.7s-0.1,0.5-0.3,0.7
			C181.7,54,181.4,54.1,181.1,54.1z"/>
		<path class="st0" d="M212.7,21.5c0.2,0.2,0.3,0.5,0.3,0.8s-0.1,0.5-0.3,0.7s-0.5,0.3-0.7,0.3h-11.3V47c0,0.3-0.1,0.5-0.3,0.7
			S200,48,199.7,48c-0.6,0-1-0.5-1-1V23.3h-11.4c-0.3,0-0.5-0.1-0.7-0.3c-0.2-0.2-0.3-0.4-0.3-0.7c0-0.3,0.1-0.6,0.3-0.8
			c0.2-0.2,0.5-0.3,0.7-0.3H212C212.3,21.2,212.5,21.3,212.7,21.5z"/>
		<path class="st0" d="M243.6,21.5c0.4,0.4,0.4,1,0,1.4l0,0l-24.7,24.7c-0.4,0.4-1,0.5-1.4,0.1l-0.1-0.1c-0.4-0.4-0.4-1,0-1.4l0,0
			l11.7-11.6l-11.7-11.7c-0.4-0.4-0.4-1,0-1.4l0,0c0.3-0.4,0.9-0.5,1.3-0.2c0.1,0.1,0.1,0.1,0.2,0.2l11.6,11.6l11.6-11.6
			c0.2-0.2,0.5-0.3,0.8-0.3C243.1,21.2,243.4,21.3,243.6,21.5z"/>
		<path class="st0" d="M181.4,85.1h-24.7c-0.3,0-0.5-0.1-0.7-0.3c-0.2-0.2-0.3-0.5-0.3-0.8s0.1-0.5,0.3-0.7c0.2-0.2,0.5-0.3,0.7-0.3
			h23.6V72.7h-23.6c-0.3,0-0.5-0.1-0.7-0.3c-0.2-0.2-0.3-0.4-0.3-0.7V59.4c0-0.3,0.1-0.5,0.3-0.7c0.2-0.2,0.4-0.3,0.7-0.3h24.7
			c0.3,0,0.5,0.1,0.7,0.3s0.3,0.4,0.3,0.7s-0.1,0.6-0.3,0.8s-0.4,0.3-0.7,0.3h-23.7v10.3h23.7c0.3,0,0.5,0.1,0.7,0.3
			c0.2,0.2,0.3,0.5,0.3,0.8v12.3c0,0.3-0.1,0.6-0.3,0.8C181.9,85,181.6,85.1,181.4,85.1z"/>
		<path class="st0" d="M187.5,79c-0.3,0-0.5-0.1-0.8-0.3c-0.4-0.4-0.4-1.1,0-1.5L199,64.9c0.3-0.4,0.9-0.5,1.3-0.2
			c0.1,0.1,0.1,0.1,0.2,0.2c0.4,0.4,0.4,1.1,0,1.5l-12.2,12.3C188.1,78.9,187.8,79,187.5,79z M199.9,91.2h-6.2c-0.6,0-1-0.5-1-1v-36
			h-5.2c-0.6,0-1-0.5-1-1c0-0.6,0.5-1,1-1h6.2c0.6,0,1,0.5,1,1v36h5.1c0.6,0,1,0.5,1,1C200.9,90.8,200.4,91.2,199.9,91.2z"/>
		<path class="st0" d="M230.7,85.1H206c-0.6,0-1-0.5-1-1V59.4c0-0.6,0.5-1,1-1h24.7c0.6,0,1,0.5,1,1v24.7
			C231.8,84.7,231.3,85.1,230.7,85.1z M207.1,83.1h22.6V60.5h-22.6V83.1z"/>
		<path class="st0" d="M261.6,85.1c-0.3,0-0.5-0.1-0.7-0.3l-22.9-23v22.3c0,0.3-0.1,0.5-0.3,0.7s-0.4,0.3-0.7,0.3c-0.6,0-1-0.5-1-1
			V59.4c0-0.4,0.2-0.8,0.6-1c0.4-0.1,0.8-0.1,1.2,0.2l22.9,23V59.4c0-0.6,0.5-1,1-1c0.3,0,0.5,0.1,0.7,0.3c0.2,0.2,0.3,0.4,0.3,0.7
			v24.7c0,0.4-0.3,0.8-0.6,1C261.9,85.1,261.7,85.2,261.6,85.1z M249.3,54.3c-0.3,0-0.6-0.1-0.8-0.3c-0.4-0.4-0.4-1.1,0-1.5l6.2-6.2
			c0.4-0.4,1.1-0.4,1.5,0c0.4,0.4,0.4,1.1,0,1.5L250,54C249.8,54.2,249.5,54.3,249.3,54.3z"/>
	</g>
</g>
</svg>
